0
SECTION
2
HEADER
9
$INSUNITS
70
4
9
$INSBASE
10
0.0
20
0.0
30
0.0
9
$EXTMIN
10
0
20
0
9
$EXTMAX
10
433.59999999999997
20
147.85
0
ENDSEC
0
SECTION
2
TABLES
0
TABLE
2
LTYPE
70
1
0
LTYPE
2
CONTINUOUS
70
64
3
Solid line
72
65
73
0
40
0.0
0
ENDTAB
0
TABLE
2
LAYER
70
1
0
LAYER
2
Layer1
70
64
62
7
6
CONTINUOUS
0
ENDTAB
0
TABLE
2
STYLE
70
0
0
ENDTAB
0
TABLE
2
VIEW
70
0
0
ENDTAB
0
ENDSEC
0
SECTION
2
BLOCKS
0
ENDSEC
0
SECTION
2
ENTITIES
0
POLYLINE
5
2062
8
Layer1
66
1
10
0.0
20
0.0
30
0.0
70
1
0
VERTEX
5
2063
8
Layer1
10
0.0000
20
0.0000
30
0.0
0
VERTEX
5
2064
8
Layer1
10
433.6000
20
0.0000
30
0.0
0
VERTEX
5
2065
8
Layer1
10
433.6000
20
147.8500
30
0.0
0
VERTEX
5
2066
8
Layer1
10
0.0000
20
147.8500
30
0.0
0
VERTEX
5
2067
8
Layer1
10
0.0000
20
0.0000
30
0.0
0
SEQEND
5
2068
8
Layer1
0
POLYLINE
5
2069
8
Layer1
66
1
10
0.0
20
0.0
30
0.0
70
1
0
VERTEX
5
206a
8
Layer1
10
57.1250
20
142.8250
30
0.0
0
VERTEX
5
206b
8
Layer1
10
43.1250
20
142.8250
30
0.0
0
VERTEX
5
206c
8
Layer1
10
43.1250
20
128.8250
30
0.0
0
VERTEX
5
206d
8
Layer1
10
57.1250
20
128.8250
30
0.0
0
VERTEX
5
206e
8
Layer1
10
57.1250
20
142.8250
30
0.0
0
SEQEND
5
206f
8
Layer1
0
POLYLINE
5
2070
8
Layer1
66
1
10
0.0
20
0.0
30
0.0
70
1
0
VERTEX
5
2071
8
Layer1
10
76.1750
20
142.8250
30
0.0
0
VERTEX
5
2072
8
Layer1
10
62.1750
20
142.8250
30
0.0
0
VERTEX
5
2073
8
Layer1
10
62.1750
20
128.8250
30
0.0
0
VERTEX
5
2074
8
Layer1
10
76.1750
20
128.8250
30
0.0
0
VERTEX
5
2075
8
Layer1
10
76.1750
20
142.8250
30
0.0
0
SEQEND
5
2076
8
Layer1
0
POLYLINE
5
2077
8
Layer1
66
1
10
0.0
20
0.0
30
0.0
70
1
0
VERTEX
5
2078
8
Layer1
10
95.2250
20
142.8250
30
0.0
0
VERTEX
5
2079
8
Layer1
10
81.2250
20
142.8250
30
0.0
0
VERTEX
5
207a
8
Layer1
10
81.2250
20
128.8250
30
0.0
0
VERTEX
5
207b
8
Layer1
10
95.2250
20
128.8250
30
0.0
0
VERTEX
5
207c
8
Layer1
10
95.2250
20
142.8250
30
0.0
0
SEQEND
5
207d
8
Layer1
0
POLYLINE
5
207e
8
Layer1
66
1
10
0.0
20
0.0
30
0.0
70
1
0
VERTEX
5
207f
8
Layer1
10
114.2750
20
142.8250
30
0.0
0
VERTEX
5
2080
8
Layer1
10
100.2750
20
142.8250
30
0.0
0
VERTEX
5
2081
8
Layer1
10
100.2750
20
128.8250
30
0.0
0
VERTEX
5
2082
8
Layer1
10
114.2750
20
128.8250
30
0.0
0
VERTEX
5
2083
8
Layer1
10
114.2750
20
142.8250
30
0.0
0
SEQEND
5
2084
8
Layer1
0
POLYLINE
5
2085
8
Layer1
66
1
10
0.0
20
0.0
30
0.0
70
1
0
VERTEX
5
2086
8
Layer1
10
142.8500
20
142.8250
30
0.0
0
VERTEX
5
2087
8
Layer1
10
128.8500
20
142.8250
30
0.0
0
VERTEX
5
2088
8
Layer1
10
128.8500
20
128.8250
30
0.0
0
VERTEX
5
2089
8
Layer1
10
142.8500
20
128.8250
30
0.0
0
VERTEX
5
208a
8
Layer1
10
142.8500
20
142.8250
30
0.0
0
SEQEND
5
208b
8
Layer1
0
POLYLINE
5
208c
8
Layer1
66
1
10
0.0
20
0.0
30
0.0
70
1
0
VERTEX
5
208d
8
Layer1
10
161.9000
20
142.8250
30
0.0
0
VERTEX
5
208e
8
Layer1
10
147.9000
20
142.8250
30
0.0
0
VERTEX
5
208f
8
Layer1
10
147.9000
20
128.8250
30
0.0
0
VERTEX
5
2090
8
Layer1
10
161.9000
20
128.8250
30
0.0
0
VERTEX
5
2091
8
Layer1
10
161.9000
20
142.8250
30
0.0
0
SEQEND
5
2092
8
Layer1
0
POLYLINE
5
2093
8
Layer1
66
1
10
0.0
20
0.0
30
0.0
70
1
0
VERTEX
5
2094
8
Layer1
10
180.9500
20
142.8250
30
0.0
0
VERTEX
5
2095
8
Layer1
10
166.9500
20
142.8250
30
0.0
0
VERTEX
5
2096
8
Layer1
10
166.9500
20
128.8250
30
0.0
0
VERTEX
5
2097
8
Layer1
10
180.9500
20
128.8250
30
0.0
0
VERTEX
5
2098
8
Layer1
10
180.9500
20
142.8250
30
0.0
0
SEQEND
5
2099
8
Layer1
0
POLYLINE
5
209a
8
Layer1
66
1
10
0.0
20
0.0
30
0.0
70
1
0
VERTEX
5
209b
8
Layer1
10
200.0000
20
142.8250
30
0.0
0
VERTEX
5
209c
8
Layer1
10
186.0000
20
142.8250
30
0.0
0
VERTEX
5
209d
8
Layer1
10
186.0000
20
128.8250
30
0.0
0
VERTEX
5
209e
8
Layer1
10
200.0000
20
128.8250
30
0.0
0
VERTEX
5
209f
8
Layer1
10
200.0000
20
142.8250
30
0.0
0
SEQEND
5
20a0
8
Layer1
0
POLYLINE
5
20a1
8
Layer1
66
1
10
0.0
20
0.0
30
0.0
70
1
0
VERTEX
5
20a2
8
Layer1
10
228.5750
20
142.8250
30
0.0
0
VERTEX
5
20a3
8
Layer1
10
214.5750
20
142.8250
30
0.0
0
VERTEX
5
20a4
8
Layer1
10
214.5750
20
128.8250
30
0.0
0
VERTEX
5
20a5
8
Layer1
10
228.5750
20
128.8250
30
0.0
0
VERTEX
5
20a6
8
Layer1
10
228.5750
20
142.8250
30
0.0
0
SEQEND
5
20a7
8
Layer1
0
POLYLINE
5
20a8
8
Layer1
66
1
10
0.0
20
0.0
30
0.0
70
1
0
VERTEX
5
20a9
8
Layer1
10
247.6250
20
142.8250
30
0.0
0
VERTEX
5
20aa
8
Layer1
10
233.6250
20
142.8250
30
0.0
0
VERTEX
5
20ab
8
Layer1
10
233.6250
20
128.8250
30
0.0
0
VERTEX
5
20ac
8
Layer1
10
247.6250
20
128.8250
30
0.0
0
VERTEX
5
20ad
8
Layer1
10
247.6250
20
142.8250
30
0.0
0
SEQEND
5
20ae
8
Layer1
0
POLYLINE
5
20af
8
Layer1
66
1
10
0.0
20
0.0
30
0.0
70
1
0
VERTEX
5
20b0
8
Layer1
10
266.6750
20
142.8250
30
0.0
0
VERTEX
5
20b1
8
Layer1
10
252.6750
20
142.8250
30
0.0
0
VERTEX
5
20b2
8
Layer1
10
252.6750
20
128.8250
30
0.0
0
VERTEX
5
20b3
8
Layer1
10
266.6750
20
128.8250
30
0.0
0
VERTEX
5
20b4
8
Layer1
10
266.6750
20
142.8250
30
0.0
0
SEQEND
5
20b5
8
Layer1
0
POLYLINE
5
20b6
8
Layer1
66
1
10
0.0
20
0.0
30
0.0
70
1
0
VERTEX
5
20b7
8
Layer1
10
285.7250
20
142.8250
30
0.0
0
VERTEX
5
20b8
8
Layer1
10
271.7250
20
142.8250
30
0.0
0
VERTEX
5
20b9
8
Layer1
10
271.7250
20
128.8250
30
0.0
0
VERTEX
5
20ba
8
Layer1
10
285.7250
20
128.8250
30
0.0
0
VERTEX
5
20bb
8
Layer1
10
285.7250
20
142.8250
30
0.0
0
SEQEND
5
20bc
8
Layer1
0
POLYLINE
5
20bd
8
Layer1
66
1
10
0.0
20
0.0
30
0.0
70
1
0
VERTEX
5
20be
8
Layer1
10
309.5370
20
142.8250
30
0.0
0
VERTEX
5
20bf
8
Layer1
10
295.5370
20
142.8250
30
0.0
0
VERTEX
5
20c0
8
Layer1
10
295.5370
20
128.8250
30
0.0
0
VERTEX
5
20c1
8
Layer1
10
309.5370
20
128.8250
30
0.0
0
VERTEX
5
20c2
8
Layer1
10
309.5370
20
142.8250
30
0.0
0
SEQEND
5
20c3
8
Layer1
0
POLYLINE
5
20c4
8
Layer1
66
1
10
0.0
20
0.0
30
0.0
70
1
0
VERTEX
5
20c5
8
Layer1
10
328.5880
20
142.8250
30
0.0
0
VERTEX
5
20c6
8
Layer1
10
314.5880
20
142.8250
30
0.0
0
VERTEX
5
20c7
8
Layer1
10
314.5880
20
128.8250
30
0.0
0
VERTEX
5
20c8
8
Layer1
10
328.5880
20
128.8250
30
0.0
0
VERTEX
5
20c9
8
Layer1
10
328.5880
20
142.8250
30
0.0
0
SEQEND
5
20ca
8
Layer1
0
POLYLINE
5
20cb
8
Layer1
66
1
10
0.0
20
0.0
30
0.0
70
1
0
VERTEX
5
20cc
8
Layer1
10
347.6380
20
142.8250
30
0.0
0
VERTEX
5
20cd
8
Layer1
10
333.6380
20
142.8250
30
0.0
0
VERTEX
5
20ce
8
Layer1
10
333.6380
20
128.8250
30
0.0
0
VERTEX
5
20cf
8
Layer1
10
347.6380
20
128.8250
30
0.0
0
VERTEX
5
20d0
8
Layer1
10
347.6380
20
142.8250
30
0.0
0
SEQEND
5
20d1
8
Layer1
0
POLYLINE
5
20d2
8
Layer1
66
1
10
0.0
20
0.0
30
0.0
70
1
0
VERTEX
5
20d3
8
Layer1
10
19.0250
20
123.7750
30
0.0
0
VERTEX
5
20d4
8
Layer1
10
5.0250
20
123.7750
30
0.0
0
VERTEX
5
20d5
8
Layer1
10
5.0250
20
109.7750
30
0.0
0
VERTEX
5
20d6
8
Layer1
10
19.0250
20
109.7750
30
0.0
0
VERTEX
5
20d7
8
Layer1
10
19.0250
20
123.7750
30
0.0
0
SEQEND
5
20d8
8
Layer1
0
POLYLINE
5
20d9
8
Layer1
66
1
10
0.0
20
0.0
30
0.0
70
1
0
VERTEX
5
20da
8
Layer1
10
57.1250
20
123.7750
30
0.0
0
VERTEX
5
20db
8
Layer1
10
43.1250
20
123.7750
30
0.0
0
VERTEX
5
20dc
8
Layer1
10
43.1250
20
109.7750
30
0.0
0
VERTEX
5
20dd
8
Layer1
10
57.1250
20
109.7750
30
0.0
0
VERTEX
5
20de
8
Layer1
10
57.1250
20
123.7750
30
0.0
0
SEQEND
5
20df
8
Layer1
0
POLYLINE
5
20e0
8
Layer1
66
1
10
0.0
20
0.0
30
0.0
70
1
0
VERTEX
5
20e1
8
Layer1
10
76.1750
20
123.7750
30
0.0
0
VERTEX
5
20e2
8
Layer1
10
62.1750
20
123.7750
30
0.0
0
VERTEX
5
20e3
8
Layer1
10
62.1750
20
109.7750
30
0.0
0
VERTEX
5
20e4
8
Layer1
10
76.1750
20
109.7750
30
0.0
0
VERTEX
5
20e5
8
Layer1
10
76.1750
20
123.7750
30
0.0
0
SEQEND
5
20e6
8
Layer1
0
POLYLINE
5
20e7
8
Layer1
66
1
10
0.0
20
0.0
30
0.0
70
1
0
VERTEX
5
20e8
8
Layer1
10
95.2250
20
123.7750
30
0.0
0
VERTEX
5
20e9
8
Layer1
10
81.2250
20
123.7750
30
0.0
0
VERTEX
5
20ea
8
Layer1
10
81.2250
20
109.7750
30
0.0
0
VERTEX
5
20eb
8
Layer1
10
95.2250
20
109.7750
30
0.0
0
VERTEX
5
20ec
8
Layer1
10
95.2250
20
123.7750
30
0.0
0
SEQEND
5
20ed
8
Layer1
0
POLYLINE
5
20ee
8
Layer1
66
1
10
0.0
20
0.0
30
0.0
70
1
0
VERTEX
5
20ef
8
Layer1
10
114.2750
20
123.7750
30
0.0
0
VERTEX
5
20f0
8
Layer1
10
100.2750
20
123.7750
30
0.0
0
VERTEX
5
20f1
8
Layer1
10
100.2750
20
109.7750
30
0.0
0
VERTEX
5
20f2
8
Layer1
10
114.2750
20
109.7750
30
0.0
0
VERTEX
5
20f3
8
Layer1
10
114.2750
20
123.7750
30
0.0
0
SEQEND
5
20f4
8
Layer1
0
POLYLINE
5
20f5
8
Layer1
66
1
10
0.0
20
0.0
30
0.0
70
1
0
VERTEX
5
20f6
8
Layer1
10
142.8500
20
123.7750
30
0.0
0
VERTEX
5
20f7
8
Layer1
10
128.8500
20
123.7750
30
0.0
0
VERTEX
5
20f8
8
Layer1
10
128.8500
20
109.7750
30
0.0
0
VERTEX
5
20f9
8
Layer1
10
142.8500
20
109.7750
30
0.0
0
VERTEX
5
20fa
8
Layer1
10
142.8500
20
123.7750
30
0.0
0
SEQEND
5
20fb
8
Layer1
0
POLYLINE
5
20fc
8
Layer1
66
1
10
0.0
20
0.0
30
0.0
70
1
0
VERTEX
5
20fd
8
Layer1
10
161.9000
20
123.7750
30
0.0
0
VERTEX
5
20fe
8
Layer1
10
147.9000
20
123.7750
30
0.0
0
VERTEX
5
20ff
8
Layer1
10
147.9000
20
109.7750
30
0.0
0
VERTEX
5
2100
8
Layer1
10
161.9000
20
109.7750
30
0.0
0
VERTEX
5
2101
8
Layer1
10
161.9000
20
123.7750
30
0.0
0
SEQEND
5
2102
8
Layer1
0
POLYLINE
5
2103
8
Layer1
66
1
10
0.0
20
0.0
30
0.0
70
1
0
VERTEX
5
2104
8
Layer1
10
180.9500
20
123.7750
30
0.0
0
VERTEX
5
2105
8
Layer1
10
166.9500
20
123.7750
30
0.0
0
VERTEX
5
2106
8
Layer1
10
166.9500
20
109.7750
30
0.0
0
VERTEX
5
2107
8
Layer1
10
180.9500
20
109.7750
30
0.0
0
VERTEX
5
2108
8
Layer1
10
180.9500
20
123.7750
30
0.0
0
SEQEND
5
2109
8
Layer1
0
POLYLINE
5
210a
8
Layer1
66
1
10
0.0
20
0.0
30
0.0
70
1
0
VERTEX
5
210b
8
Layer1
10
200.0000
20
123.7750
30
0.0
0
VERTEX
5
210c
8
Layer1
10
186.0000
20
123.7750
30
0.0
0
VERTEX
5
210d
8
Layer1
10
186.0000
20
109.7750
30
0.0
0
VERTEX
5
210e
8
Layer1
10
200.0000
20
109.7750
30
0.0
0
VERTEX
5
210f
8
Layer1
10
200.0000
20
123.7750
30
0.0
0
SEQEND
5
2110
8
Layer1
0
POLYLINE
5
2111
8
Layer1
66
1
10
0.0
20
0.0
30
0.0
70
1
0
VERTEX
5
2112
8
Layer1
10
228.5750
20
123.7750
30
0.0
0
VERTEX
5
2113
8
Layer1
10
214.5750
20
123.7750
30
0.0
0
VERTEX
5
2114
8
Layer1
10
214.5750
20
109.7750
30
0.0
0
VERTEX
5
2115
8
Layer1
10
228.5750
20
109.7750
30
0.0
0
VERTEX
5
2116
8
Layer1
10
228.5750
20
123.7750
30
0.0
0
SEQEND
5
2117
8
Layer1
0
POLYLINE
5
2118
8
Layer1
66
1
10
0.0
20
0.0
30
0.0
70
1
0
VERTEX
5
2119
8
Layer1
10
247.6250
20
123.7750
30
0.0
0
VERTEX
5
211a
8
Layer1
10
233.6250
20
123.7750
30
0.0
0
VERTEX
5
211b
8
Layer1
10
233.6250
20
109.7750
30
0.0
0
VERTEX
5
211c
8
Layer1
10
247.6250
20
109.7750
30
0.0
0
VERTEX
5
211d
8
Layer1
10
247.6250
20
123.7750
30
0.0
0
SEQEND
5
211e
8
Layer1
0
POLYLINE
5
211f
8
Layer1
66
1
10
0.0
20
0.0
30
0.0
70
1
0
VERTEX
5
2120
8
Layer1
10
266.6750
20
123.7750
30
0.0
0
VERTEX
5
2121
8
Layer1
10
252.6750
20
123.7750
30
0.0
0
VERTEX
5
2122
8
Layer1
10
252.6750
20
109.7750
30
0.0
0
VERTEX
5
2123
8
Layer1
10
266.6750
20
109.7750
30
0.0
0
VERTEX
5
2124
8
Layer1
10
266.6750
20
123.7750
30
0.0
0
SEQEND
5
2125
8
Layer1
0
POLYLINE
5
2126
8
Layer1
66
1
10
0.0
20
0.0
30
0.0
70
1
0
VERTEX
5
2127
8
Layer1
10
285.7250
20
123.7750
30
0.0
0
VERTEX
5
2128
8
Layer1
10
271.7250
20
123.7750
30
0.0
0
VERTEX
5
2129
8
Layer1
10
271.7250
20
109.7750
30
0.0
0
VERTEX
5
212a
8
Layer1
10
285.7250
20
109.7750
30
0.0
0
VERTEX
5
212b
8
Layer1
10
285.7250
20
123.7750
30
0.0
0
SEQEND
5
212c
8
Layer1
0
POLYLINE
5
212d
8
Layer1
66
1
10
0.0
20
0.0
30
0.0
70
1
0
VERTEX
5
212e
8
Layer1
10
309.5370
20
123.7750
30
0.0
0
VERTEX
5
212f
8
Layer1
10
295.5370
20
123.7750
30
0.0
0
VERTEX
5
2130
8
Layer1
10
295.5370
20
109.7750
30
0.0
0
VERTEX
5
2131
8
Layer1
10
309.5370
20
109.7750
30
0.0
0
VERTEX
5
2132
8
Layer1
10
309.5370
20
123.7750
30
0.0
0
SEQEND
5
2133
8
Layer1
0
POLYLINE
5
2134
8
Layer1
66
1
10
0.0
20
0.0
30
0.0
70
1
0
VERTEX
5
2135
8
Layer1
10
328.5880
20
123.7750
30
0.0
0
VERTEX
5
2136
8
Layer1
10
314.5880
20
123.7750
30
0.0
0
VERTEX
5
2137
8
Layer1
10
314.5880
20
109.7750
30
0.0
0
VERTEX
5
2138
8
Layer1
10
328.5880
20
109.7750
30
0.0
0
VERTEX
5
2139
8
Layer1
10
328.5880
20
123.7750
30
0.0
0
SEQEND
5
213a
8
Layer1
0
POLYLINE
5
213b
8
Layer1
66
1
10
0.0
20
0.0
30
0.0
70
1
0
VERTEX
5
213c
8
Layer1
10
347.6380
20
123.7750
30
0.0
0
VERTEX
5
213d
8
Layer1
10
333.6380
20
123.7750
30
0.0
0
VERTEX
5
213e
8
Layer1
10
333.6380
20
109.7750
30
0.0
0
VERTEX
5
213f
8
Layer1
10
347.6380
20
109.7750
30
0.0
0
VERTEX
5
2140
8
Layer1
10
347.6380
20
123.7750
30
0.0
0
SEQEND
5
2141
8
Layer1
0
POLYLINE
5
2142
8
Layer1
66
1
10
0.0
20
0.0
30
0.0
70
1
0
VERTEX
5
2143
8
Layer1
10
19.0250
20
95.2000
30
0.0
0
VERTEX
5
2144
8
Layer1
10
5.0250
20
95.2000
30
0.0
0
VERTEX
5
2145
8
Layer1
10
5.0250
20
81.2000
30
0.0
0
VERTEX
5
2146
8
Layer1
10
19.0250
20
81.2000
30
0.0
0
VERTEX
5
2147
8
Layer1
10
19.0250
20
95.2000
30
0.0
0
SEQEND
5
2148
8
Layer1
0
POLYLINE
5
2149
8
Layer1
66
1
10
0.0
20
0.0
30
0.0
70
1
0
VERTEX
5
214a
8
Layer1
10
38.0750
20
95.2000
30
0.0
0
VERTEX
5
214b
8
Layer1
10
24.0750
20
95.2000
30
0.0
0
VERTEX
5
214c
8
Layer1
10
24.0750
20
81.2000
30
0.0
0
VERTEX
5
214d
8
Layer1
10
38.0750
20
81.2000
30
0.0
0
VERTEX
5
214e
8
Layer1
10
38.0750
20
95.2000
30
0.0
0
SEQEND
5
214f
8
Layer1
0
POLYLINE
5
2150
8
Layer1
66
1
10
0.0
20
0.0
30
0.0
70
1
0
VERTEX
5
2151
8
Layer1
10
57.1250
20
95.2000
30
0.0
0
VERTEX
5
2152
8
Layer1
10
43.1250
20
95.2000
30
0.0
0
VERTEX
5
2153
8
Layer1
10
43.1250
20
81.2000
30
0.0
0
VERTEX
5
2154
8
Layer1
10
57.1250
20
81.2000
30
0.0
0
VERTEX
5
2155
8
Layer1
10
57.1250
20
95.2000
30
0.0
0
SEQEND
5
2156
8
Layer1
0
POLYLINE
5
2157
8
Layer1
66
1
10
0.0
20
0.0
30
0.0
70
1
0
VERTEX
5
2158
8
Layer1
10
76.1750
20
95.2000
30
0.0
0
VERTEX
5
2159
8
Layer1
10
62.1750
20
95.2000
30
0.0
0
VERTEX
5
215a
8
Layer1
10
62.1750
20
81.2000
30
0.0
0
VERTEX
5
215b
8
Layer1
10
76.1750
20
81.2000
30
0.0
0
VERTEX
5
215c
8
Layer1
10
76.1750
20
95.2000
30
0.0
0
SEQEND
5
215d
8
Layer1
0
POLYLINE
5
215e
8
Layer1
66
1
10
0.0
20
0.0
30
0.0
70
1
0
VERTEX
5
215f
8
Layer1
10
95.2250
20
95.2000
30
0.0
0
VERTEX
5
2160
8
Layer1
10
81.2250
20
95.2000
30
0.0
0
VERTEX
5
2161
8
Layer1
10
81.2250
20
81.2000
30
0.0
0
VERTEX
5
2162
8
Layer1
10
95.2250
20
81.2000
30
0.0
0
VERTEX
5
2163
8
Layer1
10
95.2250
20
95.2000
30
0.0
0
SEQEND
5
2164
8
Layer1
0
POLYLINE
5
2165
8
Layer1
66
1
10
0.0
20
0.0
30
0.0
70
1
0
VERTEX
5
2166
8
Layer1
10
114.2750
20
95.2000
30
0.0
0
VERTEX
5
2167
8
Layer1
10
100.2750
20
95.2000
30
0.0
0
VERTEX
5
2168
8
Layer1
10
100.2750
20
81.2000
30
0.0
0
VERTEX
5
2169
8
Layer1
10
114.2750
20
81.2000
30
0.0
0
VERTEX
5
216a
8
Layer1
10
114.2750
20
95.2000
30
0.0
0
SEQEND
5
216b
8
Layer1
0
POLYLINE
5
216c
8
Layer1
66
1
10
0.0
20
0.0
30
0.0
70
1
0
VERTEX
5
216d
8
Layer1
10
133.3250
20
95.2000
30
0.0
0
VERTEX
5
216e
8
Layer1
10
119.3250
20
95.2000
30
0.0
0
VERTEX
5
216f
8
Layer1
10
119.3250
20
81.2000
30
0.0
0
VERTEX
5
2170
8
Layer1
10
133.3250
20
81.2000
30
0.0
0
VERTEX
5
2171
8
Layer1
10
133.3250
20
95.2000
30
0.0
0
SEQEND
5
2172
8
Layer1
0
POLYLINE
5
2173
8
Layer1
66
1
10
0.0
20
0.0
30
0.0
70
1
0
VERTEX
5
2174
8
Layer1
10
152.3750
20
95.2000
30
0.0
0
VERTEX
5
2175
8
Layer1
10
138.3750
20
95.2000
30
0.0
0
VERTEX
5
2176
8
Layer1
10
138.3750
20
81.2000
30
0.0
0
VERTEX
5
2177
8
Layer1
10
152.3750
20
81.2000
30
0.0
0
VERTEX
5
2178
8
Layer1
10
152.3750
20
95.2000
30
0.0
0
SEQEND
5
2179
8
Layer1
0
POLYLINE
5
217a
8
Layer1
66
1
10
0.0
20
0.0
30
0.0
70
1
0
VERTEX
5
217b
8
Layer1
10
171.4250
20
95.2000
30
0.0
0
VERTEX
5
217c
8
Layer1
10
157.4250
20
95.2000
30
0.0
0
VERTEX
5
217d
8
Layer1
10
157.4250
20
81.2000
30
0.0
0
VERTEX
5
217e
8
Layer1
10
171.4250
20
81.2000
30
0.0
0
VERTEX
5
217f
8
Layer1
10
171.4250
20
95.2000
30
0.0
0
SEQEND
5
2180
8
Layer1
0
POLYLINE
5
2181
8
Layer1
66
1
10
0.0
20
0.0
30
0.0
70
1
0
VERTEX
5
2182
8
Layer1
10
190.4750
20
95.2000
30
0.0
0
VERTEX
5
2183
8
Layer1
10
176.4750
20
95.2000
30
0.0
0
VERTEX
5
2184
8
Layer1
10
176.4750
20
81.2000
30
0.0
0
VERTEX
5
2185
8
Layer1
10
190.4750
20
81.2000
30
0.0
0
VERTEX
5
2186
8
Layer1
10
190.4750
20
95.2000
30
0.0
0
SEQEND
5
2187
8
Layer1
0
POLYLINE
5
2188
8
Layer1
66
1
10
0.0
20
0.0
30
0.0
70
1
0
VERTEX
5
2189
8
Layer1
10
209.5250
20
95.2000
30
0.0
0
VERTEX
5
218a
8
Layer1
10
195.5250
20
95.2000
30
0.0
0
VERTEX
5
218b
8
Layer1
10
195.5250
20
81.2000
30
0.0
0
VERTEX
5
218c
8
Layer1
10
209.5250
20
81.2000
30
0.0
0
VERTEX
5
218d
8
Layer1
10
209.5250
20
95.2000
30
0.0
0
SEQEND
5
218e
8
Layer1
0
POLYLINE
5
218f
8
Layer1
66
1
10
0.0
20
0.0
30
0.0
70
1
0
VERTEX
5
2190
8
Layer1
10
228.5750
20
95.2000
30
0.0
0
VERTEX
5
2191
8
Layer1
10
214.5750
20
95.2000
30
0.0
0
VERTEX
5
2192
8
Layer1
10
214.5750
20
81.2000
30
0.0
0
VERTEX
5
2193
8
Layer1
10
228.5750
20
81.2000
30
0.0
0
VERTEX
5
2194
8
Layer1
10
228.5750
20
95.2000
30
0.0
0
SEQEND
5
2195
8
Layer1
0
POLYLINE
5
2196
8
Layer1
66
1
10
0.0
20
0.0
30
0.0
70
1
0
VERTEX
5
2197
8
Layer1
10
247.6250
20
95.2000
30
0.0
0
VERTEX
5
2198
8
Layer1
10
233.6250
20
95.2000
30
0.0
0
VERTEX
5
2199
8
Layer1
10
233.6250
20
81.2000
30
0.0
0
VERTEX
5
219a
8
Layer1
10
247.6250
20
81.2000
30
0.0
0
VERTEX
5
219b
8
Layer1
10
247.6250
20
95.2000
30
0.0
0
SEQEND
5
219c
8
Layer1
0
POLYLINE
5
219d
8
Layer1
66
1
10
0.0
20
0.0
30
0.0
70
1
0
VERTEX
5
219e
8
Layer1
10
258.8000
20
81.4300
30
0.0
0
VERTEX
5
219f
8
Layer1
10
260.6250
20
81.4300
30
0.0
0
VERTEX
5
21a0
8
Layer1
10
260.6250
20
87.7000
30
0.0
0
VERTEX
5
21a1
8
Layer1
10
262.2000
20
87.7000
30
0.0
0
VERTEX
5
21a2
8
Layer1
10
262.2000
20
81.2000
30
0.0
0
VERTEX
5
21a3
8
Layer1
10
276.2000
20
81.2000
30
0.0
0
VERTEX
5
21a4
8
Layer1
10
276.2000
20
87.7000
30
0.0
0
VERTEX
5
21a5
8
Layer1
10
277.7750
20
87.7000
30
0.0
0
VERTEX
5
21a6
8
Layer1
10
277.7750
20
81.4300
30
0.0
0
VERTEX
5
21a7
8
Layer1
10
279.6000
20
81.4300
30
0.0
0
VERTEX
5
21a8
8
Layer1
10
279.6000
20
80.2300
30
0.0
0
VERTEX
5
21a9
8
Layer1
10
282.6000
20
80.2300
30
0.0
0
VERTEX
5
21aa
8
Layer1
10
282.6000
20
81.4300
30
0.0
0
VERTEX
5
21ab
8
Layer1
10
284.4250
20
81.4300
30
0.0
0
VERTEX
5
21ac
8
Layer1
10
284.4250
20
87.7000
30
0.0
0
VERTEX
5
21ad
8
Layer1
10
285.3000
20
87.7000
30
0.0
0
VERTEX
5
21ae
8
Layer1
10
285.3000
20
90.5000
30
0.0
0
VERTEX
5
21af
8
Layer1
10
284.4250
20
90.5000
30
0.0
0
VERTEX
5
21b0
8
Layer1
10
284.4250
20
93.7300
30
0.0
0
VERTEX
5
21b1
8
Layer1
10
277.7750
20
93.7300
30
0.0
0
VERTEX
5
21b2
8
Layer1
10
277.7750
20
90.5000
30
0.0
0
VERTEX
5
21b3
8
Layer1
10
276.2000
20
90.5000
30
0.0
0
VERTEX
5
21b4
8
Layer1
10
276.2000
20
95.2000
30
0.0
0
VERTEX
5
21b5
8
Layer1
10
262.2000
20
95.2000
30
0.0
0
VERTEX
5
21b6
8
Layer1
10
262.2000
20
90.5000
30
0.0
0
VERTEX
5
21b7
8
Layer1
10
260.6250
20
90.5000
30
0.0
0
VERTEX
5
21b8
8
Layer1
10
260.6250
20
93.7300
30
0.0
0
VERTEX
5
21b9
8
Layer1
10
253.9750
20
93.7300
30
0.0
0
VERTEX
5
21ba
8
Layer1
10
253.9750
20
90.5000
30
0.0
0
VERTEX
5
21bb
8
Layer1
10
253.1000
20
90.5000
30
0.0
0
VERTEX
5
21bc
8
Layer1
10
253.1000
20
87.7000
30
0.0
0
VERTEX
5
21bd
8
Layer1
10
253.9750
20
87.7000
30
0.0
0
VERTEX
5
21be
8
Layer1
10
253.9750
20
81.4300
30
0.0
0
VERTEX
5
21bf
8
Layer1
10
255.8000
20
81.4300
30
0.0
0
VERTEX
5
21c0
8
Layer1
10
255.8000
20
80.2300
30
0.0
0
VERTEX
5
21c1
8
Layer1
10
258.8000
20
80.2300
30
0.0
0
VERTEX
5
21c2
8
Layer1
10
258.8000
20
81.4300
30
0.0
0
SEQEND
5
21c3
8
Layer1
0
POLYLINE
5
21c4
8
Layer1
66
1
10
0.0
20
0.0
30
0.0
70
1
0
VERTEX
5
21c5
8
Layer1
10
309.5370
20
95.2000
30
0.0
0
VERTEX
5
21c6
8
Layer1
10
295.5370
20
95.2000
30
0.0
0
VERTEX
5
21c7
8
Layer1
10
295.5370
20
81.2000
30
0.0
0
VERTEX
5
21c8
8
Layer1
10
309.5370
20
81.2000
30
0.0
0
VERTEX
5
21c9
8
Layer1
10
309.5370
20
95.2000
30
0.0
0
SEQEND
5
21ca
8
Layer1
0
POLYLINE
5
21cb
8
Layer1
66
1
10
0.0
20
0.0
30
0.0
70
1
0
VERTEX
5
21cc
8
Layer1
10
328.5880
20
95.2000
30
0.0
0
VERTEX
5
21cd
8
Layer1
10
314.5880
20
95.2000
30
0.0
0
VERTEX
5
21ce
8
Layer1
10
314.5880
20
81.2000
30
0.0
0
VERTEX
5
21cf
8
Layer1
10
328.5880
20
81.2000
30
0.0
0
VERTEX
5
21d0
8
Layer1
10
328.5880
20
95.2000
30
0.0
0
SEQEND
5
21d1
8
Layer1
0
POLYLINE
5
21d2
8
Layer1
66
1
10
0.0
20
0.0
30
0.0
70
1
0
VERTEX
5
21d3
8
Layer1
10
347.6380
20
95.2000
30
0.0
0
VERTEX
5
21d4
8
Layer1
10
333.6380
20
95.2000
30
0.0
0
VERTEX
5
21d5
8
Layer1
10
333.6380
20
81.2000
30
0.0
0
VERTEX
5
21d6
8
Layer1
10
347.6380
20
81.2000
30
0.0
0
VERTEX
5
21d7
8
Layer1
10
347.6380
20
95.2000
30
0.0
0
SEQEND
5
21d8
8
Layer1
0
POLYLINE
5
21d9
8
Layer1
66
1
10
0.0
20
0.0
30
0.0
70
1
0
VERTEX
5
21da
8
Layer1
10
371.4500
20
95.2000
30
0.0
0
VERTEX
5
21db
8
Layer1
10
357.4500
20
95.2000
30
0.0
0
VERTEX
5
21dc
8
Layer1
10
357.4500
20
81.2000
30
0.0
0
VERTEX
5
21dd
8
Layer1
10
371.4500
20
81.2000
30
0.0
0
VERTEX
5
21de
8
Layer1
10
371.4500
20
95.2000
30
0.0
0
SEQEND
5
21df
8
Layer1
0
POLYLINE
5
21e0
8
Layer1
66
1
10
0.0
20
0.0
30
0.0
70
1
0
VERTEX
5
21e1
8
Layer1
10
390.5000
20
95.2000
30
0.0
0
VERTEX
5
21e2
8
Layer1
10
376.5000
20
95.2000
30
0.0
0
VERTEX
5
21e3
8
Layer1
10
376.5000
20
81.2000
30
0.0
0
VERTEX
5
21e4
8
Layer1
10
390.5000
20
81.2000
30
0.0
0
VERTEX
5
21e5
8
Layer1
10
390.5000
20
95.2000
30
0.0
0
SEQEND
5
21e6
8
Layer1
0
POLYLINE
5
21e7
8
Layer1
66
1
10
0.0
20
0.0
30
0.0
70
1
0
VERTEX
5
21e8
8
Layer1
10
409.5500
20
95.2000
30
0.0
0
VERTEX
5
21e9
8
Layer1
10
395.5500
20
95.2000
30
0.0
0
VERTEX
5
21ea
8
Layer1
10
395.5500
20
81.2000
30
0.0
0
VERTEX
5
21eb
8
Layer1
10
409.5500
20
81.2000
30
0.0
0
VERTEX
5
21ec
8
Layer1
10
409.5500
20
95.2000
30
0.0
0
SEQEND
5
21ed
8
Layer1
0
POLYLINE
5
21ee
8
Layer1
66
1
10
0.0
20
0.0
30
0.0
70
1
0
VERTEX
5
21ef
8
Layer1
10
428.6000
20
95.2000
30
0.0
0
VERTEX
5
21f0
8
Layer1
10
414.6000
20
95.2000
30
0.0
0
VERTEX
5
21f1
8
Layer1
10
414.6000
20
81.2000
30
0.0
0
VERTEX
5
21f2
8
Layer1
10
428.6000
20
81.2000
30
0.0
0
VERTEX
5
21f3
8
Layer1
10
428.6000
20
95.2000
30
0.0
0
SEQEND
5
21f4
8
Layer1
0
POLYLINE
5
21f5
8
Layer1
66
1
10
0.0
20
0.0
30
0.0
70
1
0
VERTEX
5
21f6
8
Layer1
10
23.7880
20
76.1500
30
0.0
0
VERTEX
5
21f7
8
Layer1
10
9.7880
20
76.1500
30
0.0
0
VERTEX
5
21f8
8
Layer1
10
9.7880
20
62.1500
30
0.0
0
VERTEX
5
21f9
8
Layer1
10
23.7880
20
62.1500
30
0.0
0
VERTEX
5
21fa
8
Layer1
10
23.7880
20
76.1500
30
0.0
0
SEQEND
5
21fb
8
Layer1
0
POLYLINE
5
21fc
8
Layer1
66
1
10
0.0
20
0.0
30
0.0
70
1
0
VERTEX
5
21fd
8
Layer1
10
47.6000
20
76.1500
30
0.0
0
VERTEX
5
21fe
8
Layer1
10
33.6000
20
76.1500
30
0.0
0
VERTEX
5
21ff
8
Layer1
10
33.6000
20
62.1500
30
0.0
0
VERTEX
5
2200
8
Layer1
10
47.6000
20
62.1500
30
0.0
0
VERTEX
5
2201
8
Layer1
10
47.6000
20
76.1500
30
0.0
0
SEQEND
5
2202
8
Layer1
0
POLYLINE
5
2203
8
Layer1
66
1
10
0.0
20
0.0
30
0.0
70
1
0
VERTEX
5
2204
8
Layer1
10
66.6500
20
76.1500
30
0.0
0
VERTEX
5
2205
8
Layer1
10
52.6500
20
76.1500
30
0.0
0
VERTEX
5
2206
8
Layer1
10
52.6500
20
62.1500
30
0.0
0
VERTEX
5
2207
8
Layer1
10
66.6500
20
62.1500
30
0.0
0
VERTEX
5
2208
8
Layer1
10
66.6500
20
76.1500
30
0.0
0
SEQEND
5
2209
8
Layer1
0
POLYLINE
5
220a
8
Layer1
66
1
10
0.0
20
0.0
30
0.0
70
1
0
VERTEX
5
220b
8
Layer1
10
85.7000
20
76.1500
30
0.0
0
VERTEX
5
220c
8
Layer1
10
71.7000
20
76.1500
30
0.0
0
VERTEX
5
220d
8
Layer1
10
71.7000
20
62.1500
30
0.0
0
VERTEX
5
220e
8
Layer1
10
85.7000
20
62.1500
30
0.0
0
VERTEX
5
220f
8
Layer1
10
85.7000
20
76.1500
30
0.0
0
SEQEND
5
2210
8
Layer1
0
POLYLINE
5
2211
8
Layer1
66
1
10
0.0
20
0.0
30
0.0
70
1
0
VERTEX
5
2212
8
Layer1
10
104.7500
20
76.1500
30
0.0
0
VERTEX
5
2213
8
Layer1
10
90.7500
20
76.1500
30
0.0
0
VERTEX
5
2214
8
Layer1
10
90.7500
20
62.1500
30
0.0
0
VERTEX
5
2215
8
Layer1
10
104.7500
20
62.1500
30
0.0
0
VERTEX
5
2216
8
Layer1
10
104.7500
20
76.1500
30
0.0
0
SEQEND
5
2217
8
Layer1
0
POLYLINE
5
2218
8
Layer1
66
1
10
0.0
20
0.0
30
0.0
70
1
0
VERTEX
5
2219
8
Layer1
10
123.8000
20
76.1500
30
0.0
0
VERTEX
5
221a
8
Layer1
10
109.8000
20
76.1500
30
0.0
0
VERTEX
5
221b
8
Layer1
10
109.8000
20
62.1500
30
0.0
0
VERTEX
5
221c
8
Layer1
10
123.8000
20
62.1500
30
0.0
0
VERTEX
5
221d
8
Layer1
10
123.8000
20
76.1500
30
0.0
0
SEQEND
5
221e
8
Layer1
0
POLYLINE
5
221f
8
Layer1
66
1
10
0.0
20
0.0
30
0.0
70
1
0
VERTEX
5
2220
8
Layer1
10
142.8500
20
76.1500
30
0.0
0
VERTEX
5
2221
8
Layer1
10
128.8500
20
76.1500
30
0.0
0
VERTEX
5
2222
8
Layer1
10
128.8500
20
62.1500
30
0.0
0
VERTEX
5
2223
8
Layer1
10
142.8500
20
62.1500
30
0.0
0
VERTEX
5
2224
8
Layer1
10
142.8500
20
76.1500
30
0.0
0
SEQEND
5
2225
8
Layer1
0
POLYLINE
5
2226
8
Layer1
66
1
10
0.0
20
0.0
30
0.0
70
1
0
VERTEX
5
2227
8
Layer1
10
161.9000
20
76.1500
30
0.0
0
VERTEX
5
2228
8
Layer1
10
147.9000
20
76.1500
30
0.0
0
VERTEX
5
2229
8
Layer1
10
147.9000
20
62.1500
30
0.0
0
VERTEX
5
222a
8
Layer1
10
161.9000
20
62.1500
30
0.0
0
VERTEX
5
222b
8
Layer1
10
161.9000
20
76.1500
30
0.0
0
SEQEND
5
222c
8
Layer1
0
POLYLINE
5
222d
8
Layer1
66
1
10
0.0
20
0.0
30
0.0
70
1
0
VERTEX
5
222e
8
Layer1
10
180.9500
20
76.1500
30
0.0
0
VERTEX
5
222f
8
Layer1
10
166.9500
20
76.1500
30
0.0
0
VERTEX
5
2230
8
Layer1
10
166.9500
20
62.1500
30
0.0
0
VERTEX
5
2231
8
Layer1
10
180.9500
20
62.1500
30
0.0
0
VERTEX
5
2232
8
Layer1
10
180.9500
20
76.1500
30
0.0
0
SEQEND
5
2233
8
Layer1
0
POLYLINE
5
2234
8
Layer1
66
1
10
0.0
20
0.0
30
0.0
70
1
0
VERTEX
5
2235
8
Layer1
10
200.0000
20
76.1500
30
0.0
0
VERTEX
5
2236
8
Layer1
10
186.0000
20
76.1500
30
0.0
0
VERTEX
5
2237
8
Layer1
10
186.0000
20
62.1500
30
0.0
0
VERTEX
5
2238
8
Layer1
10
200.0000
20
62.1500
30
0.0
0
VERTEX
5
2239
8
Layer1
10
200.0000
20
76.1500
30
0.0
0
SEQEND
5
223a
8
Layer1
0
POLYLINE
5
223b
8
Layer1
66
1
10
0.0
20
0.0
30
0.0
70
1
0
VERTEX
5
223c
8
Layer1
10
219.0500
20
76.1500
30
0.0
0
VERTEX
5
223d
8
Layer1
10
205.0500
20
76.1500
30
0.0
0
VERTEX
5
223e
8
Layer1
10
205.0500
20
62.1500
30
0.0
0
VERTEX
5
223f
8
Layer1
10
219.0500
20
62.1500
30
0.0
0
VERTEX
5
2240
8
Layer1
10
219.0500
20
76.1500
30
0.0
0
SEQEND
5
2241
8
Layer1
0
POLYLINE
5
2242
8
Layer1
66
1
10
0.0
20
0.0
30
0.0
70
1
0
VERTEX
5
2243
8
Layer1
10
238.1000
20
76.1500
30
0.0
0
VERTEX
5
2244
8
Layer1
10
224.1000
20
76.1500
30
0.0
0
VERTEX
5
2245
8
Layer1
10
224.1000
20
62.1500
30
0.0
0
VERTEX
5
2246
8
Layer1
10
238.1000
20
62.1500
30
0.0
0
VERTEX
5
2247
8
Layer1
10
238.1000
20
76.1500
30
0.0
0
SEQEND
5
2248
8
Layer1
0
POLYLINE
5
2249
8
Layer1
66
1
10
0.0
20
0.0
30
0.0
70
1
0
VERTEX
5
224a
8
Layer1
10
257.1500
20
76.1500
30
0.0
0
VERTEX
5
224b
8
Layer1
10
243.1500
20
76.1500
30
0.0
0
VERTEX
5
224c
8
Layer1
10
243.1500
20
62.1500
30
0.0
0
VERTEX
5
224d
8
Layer1
10
257.1500
20
62.1500
30
0.0
0
VERTEX
5
224e
8
Layer1
10
257.1500
20
76.1500
30
0.0
0
SEQEND
5
224f
8
Layer1
0
POLYLINE
5
2250
8
Layer1
66
1
10
0.0
20
0.0
30
0.0
70
1
0
VERTEX
5
2251
8
Layer1
10
269.5737
20
70.0247
30
0.0
0
VERTEX
5
2252
8
Layer1
10
269.5737
20
68.1997
30
0.0
0
VERTEX
5
2253
8
Layer1
10
275.8438
20
68.1997
30
0.0
0
VERTEX
5
2254
8
Layer1
10
275.8438
20
66.6248
30
0.0
0
VERTEX
5
2255
8
Layer1
10
269.3438
20
66.6248
30
0.0
0
VERTEX
5
2256
8
Layer1
10
269.3438
20
52.6248
30
0.0
0
VERTEX
5
2257
8
Layer1
10
275.8438
20
52.6248
30
0.0
0
VERTEX
5
2258
8
Layer1
10
275.8438
20
51.0498
30
0.0
0
VERTEX
5
2259
8
Layer1
10
269.5738
20
51.0498
30
0.0
0
VERTEX
5
225a
8
Layer1
10
269.5738
20
49.2247
30
0.0
0
VERTEX
5
225b
8
Layer1
10
268.3738
20
49.2247
30
0.0
0
VERTEX
5
225c
8
Layer1
10
268.3738
20
46.2247
30
0.0
0
VERTEX
5
225d
8
Layer1
10
269.5738
20
46.2247
30
0.0
0
VERTEX
5
225e
8
Layer1
10
269.5738
20
44.3997
30
0.0
0
VERTEX
5
225f
8
Layer1
10
275.8438
20
44.3997
30
0.0
0
VERTEX
5
2260
8
Layer1
10
275.8438
20
43.5247
30
0.0
0
VERTEX
5
2261
8
Layer1
10
278.6438
20
43.5247
30
0.0
0
VERTEX
5
2262
8
Layer1
10
278.6438
20
44.3997
30
0.0
0
VERTEX
5
2263
8
Layer1
10
281.8738
20
44.3997
30
0.0
0
VERTEX
5
2264
8
Layer1
10
281.8738
20
51.0498
30
0.0
0
VERTEX
5
2265
8
Layer1
10
278.6438
20
51.0498
30
0.0
0
VERTEX
5
2266
8
Layer1
10
278.6438
20
52.6248
30
0.0
0
VERTEX
5
2267
8
Layer1
10
283.3438
20
52.6248
30
0.0
0
VERTEX
5
2268
8
Layer1
10
283.3438
20
66.6248
30
0.0
0
VERTEX
5
2269
8
Layer1
10
278.6438
20
66.6248
30
0.0
0
VERTEX
5
226a
8
Layer1
10
278.6438
20
68.1997
30
0.0
0
VERTEX
5
226b
8
Layer1
10
281.8737
20
68.1997
30
0.0
0
VERTEX
5
226c
8
Layer1
10
281.8737
20
74.8497
30
0.0
0
VERTEX
5
226d
8
Layer1
10
278.6438
20
74.8497
30
0.0
0
VERTEX
5
226e
8
Layer1
10
278.6438
20
75.7247
30
0.0
0
VERTEX
5
226f
8
Layer1
10
275.8438
20
75.7247
30
0.0
0
VERTEX
5
2270
8
Layer1
10
275.8438
20
74.8497
30
0.0
0
VERTEX
5
2271
8
Layer1
10
269.5737
20
74.8497
30
0.0
0
VERTEX
5
2272
8
Layer1
10
269.5737
20
73.0247
30
0.0
0
VERTEX
5
2273
8
Layer1
10
268.3737
20
73.0247
30
0.0
0
VERTEX
5
2274
8
Layer1
10
268.3737
20
70.0247
30
0.0
0
VERTEX
5
2275
8
Layer1
10
269.5737
20
70.0247
30
0.0
0
SEQEND
5
2276
8
Layer1
0
POLYLINE
5
2277
8
Layer1
66
1
10
0.0
20
0.0
30
0.0
70
1
0
VERTEX
5
2278
8
Layer1
10
309.5370
20
76.1500
30
0.0
0
VERTEX
5
2279
8
Layer1
10
295.5370
20
76.1500
30
0.0
0
VERTEX
5
227a
8
Layer1
10
295.5370
20
62.1500
30
0.0
0
VERTEX
5
227b
8
Layer1
10
309.5370
20
62.1500
30
0.0
0
VERTEX
5
227c
8
Layer1
10
309.5370
20
76.1500
30
0.0
0
SEQEND
5
227d
8
Layer1
0
POLYLINE
5
227e
8
Layer1
66
1
10
0.0
20
0.0
30
0.0
70
1
0
VERTEX
5
227f
8
Layer1
10
328.5880
20
76.1500
30
0.0
0
VERTEX
5
2280
8
Layer1
10
314.5880
20
76.1500
30
0.0
0
VERTEX
5
2281
8
Layer1
10
314.5880
20
62.1500
30
0.0
0
VERTEX
5
2282
8
Layer1
10
328.5880
20
62.1500
30
0.0
0
VERTEX
5
2283
8
Layer1
10
328.5880
20
76.1500
30
0.0
0
SEQEND
5
2284
8
Layer1
0
POLYLINE
5
2285
8
Layer1
66
1
10
0.0
20
0.0
30
0.0
70
1
0
VERTEX
5
2286
8
Layer1
10
347.6380
20
76.1500
30
0.0
0
VERTEX
5
2287
8
Layer1
10
333.6380
20
76.1500
30
0.0
0
VERTEX
5
2288
8
Layer1
10
333.6380
20
62.1500
30
0.0
0
VERTEX
5
2289
8
Layer1
10
347.6380
20
62.1500
30
0.0
0
VERTEX
5
228a
8
Layer1
10
347.6380
20
76.1500
30
0.0
0
SEQEND
5
228b
8
Layer1
0
POLYLINE
5
228c
8
Layer1
66
1
10
0.0
20
0.0
30
0.0
70
1
0
VERTEX
5
228d
8
Layer1
10
371.4500
20
76.1500
30
0.0
0
VERTEX
5
228e
8
Layer1
10
357.4500
20
76.1500
30
0.0
0
VERTEX
5
228f
8
Layer1
10
357.4500
20
62.1500
30
0.0
0
VERTEX
5
2290
8
Layer1
10
371.4500
20
62.1500
30
0.0
0
VERTEX
5
2291
8
Layer1
10
371.4500
20
76.1500
30
0.0
0
SEQEND
5
2292
8
Layer1
0
POLYLINE
5
2293
8
Layer1
66
1
10
0.0
20
0.0
30
0.0
70
1
0
VERTEX
5
2294
8
Layer1
10
390.5000
20
76.1500
30
0.0
0
VERTEX
5
2295
8
Layer1
10
376.5000
20
76.1500
30
0.0
0
VERTEX
5
2296
8
Layer1
10
376.5000
20
62.1500
30
0.0
0
VERTEX
5
2297
8
Layer1
10
390.5000
20
62.1500
30
0.0
0
VERTEX
5
2298
8
Layer1
10
390.5000
20
76.1500
30
0.0
0
SEQEND
5
2299
8
Layer1
0
POLYLINE
5
229a
8
Layer1
66
1
10
0.0
20
0.0
30
0.0
70
1
0
VERTEX
5
229b
8
Layer1
10
409.5500
20
76.1500
30
0.0
0
VERTEX
5
229c
8
Layer1
10
395.5500
20
76.1500
30
0.0
0
VERTEX
5
229d
8
Layer1
10
395.5500
20
62.1500
30
0.0
0
VERTEX
5
229e
8
Layer1
10
409.5500
20
62.1500
30
0.0
0
VERTEX
5
229f
8
Layer1
10
409.5500
20
76.1500
30
0.0
0
SEQEND
5
22a0
8
Layer1
0
POLYLINE
5
22a1
8
Layer1
66
1
10
0.0
20
0.0
30
0.0
70
1
0
VERTEX
5
22a2
8
Layer1
10
414.8300
20
70.0250
30
0.0
0
VERTEX
5
22a3
8
Layer1
10
414.8300
20
68.2000
30
0.0
0
VERTEX
5
22a4
8
Layer1
10
421.1000
20
68.2000
30
0.0
0
VERTEX
5
22a5
8
Layer1
10
421.1000
20
66.6250
30
0.0
0
VERTEX
5
22a6
8
Layer1
10
414.6000
20
66.6250
30
0.0
0
VERTEX
5
22a7
8
Layer1
10
414.6000
20
52.6250
30
0.0
0
VERTEX
5
22a8
8
Layer1
10
421.1000
20
52.6250
30
0.0
0
VERTEX
5
22a9
8
Layer1
10
421.1000
20
51.0500
30
0.0
0
VERTEX
5
22aa
8
Layer1
10
414.8300
20
51.0500
30
0.0
0
VERTEX
5
22ab
8
Layer1
10
414.8300
20
49.2250
30
0.0
0
VERTEX
5
22ac
8
Layer1
10
413.6300
20
49.2250
30
0.0
0
VERTEX
5
22ad
8
Layer1
10
413.6300
20
46.2250
30
0.0
0
VERTEX
5
22ae
8
Layer1
10
414.8300
20
46.2250
30
0.0
0
VERTEX
5
22af
8
Layer1
10
414.8300
20
44.4000
30
0.0
0
VERTEX
5
22b0
8
Layer1
10
421.1000
20
44.4000
30
0.0
0
VERTEX
5
22b1
8
Layer1
10
421.1000
20
43.5250
30
0.0
0
VERTEX
5
22b2
8
Layer1
10
423.9000
20
43.5250
30
0.0
0
VERTEX
5
22b3
8
Layer1
10
423.9000
20
44.4000
30
0.0
0
VERTEX
5
22b4
8
Layer1
10
427.1300
20
44.4000
30
0.0
0
VERTEX
5
22b5
8
Layer1
10
427.1300
20
51.0500
30
0.0
0
VERTEX
5
22b6
8
Layer1
10
423.9000
20
51.0500
30
0.0
0
VERTEX
5
22b7
8
Layer1
10
423.9000
20
52.6250
30
0.0
0
VERTEX
5
22b8
8
Layer1
10
428.6000
20
52.6250
30
0.0
0
VERTEX
5
22b9
8
Layer1
10
428.6000
20
66.6250
30
0.0
0
VERTEX
5
22ba
8
Layer1
10
423.9000
20
66.6250
30
0.0
0
VERTEX
5
22bb
8
Layer1
10
423.9000
20
68.2000
30
0.0
0
VERTEX
5
22bc
8
Layer1
10
427.1300
20
68.2000
30
0.0
0
VERTEX
5
22bd
8
Layer1
10
427.1300
20
74.8500
30
0.0
0
VERTEX
5
22be
8
Layer1
10
423.9000
20
74.8500
30
0.0
0
VERTEX
5
22bf
8
Layer1
10
423.9000
20
75.7250
30
0.0
0
VERTEX
5
22c0
8
Layer1
10
421.1000
20
75.7250
30
0.0
0
VERTEX
5
22c1
8
Layer1
10
421.1000
20
74.8500
30
0.0
0
VERTEX
5
22c2
8
Layer1
10
414.8300
20
74.8500
30
0.0
0
VERTEX
5
22c3
8
Layer1
10
414.8300
20
73.0250
30
0.0
0
VERTEX
5
22c4
8
Layer1
10
413.6300
20
73.0250
30
0.0
0
VERTEX
5
22c5
8
Layer1
10
413.6300
20
70.0250
30
0.0
0
VERTEX
5
22c6
8
Layer1
10
414.8300
20
70.0250
30
0.0
0
SEQEND
5
22c7
8
Layer1
0
POLYLINE
5
22c8
8
Layer1
66
1
10
0.0
20
0.0
30
0.0
70
1
0
VERTEX
5
22c9
8
Layer1
10
26.1690
20
57.1000
30
0.0
0
VERTEX
5
22ca
8
Layer1
10
12.1690
20
57.1000
30
0.0
0
VERTEX
5
22cb
8
Layer1
10
12.1690
20
43.1000
30
0.0
0
VERTEX
5
22cc
8
Layer1
10
26.1690
20
43.1000
30
0.0
0
VERTEX
5
22cd
8
Layer1
10
26.1690
20
57.1000
30
0.0
0
SEQEND
5
22ce
8
Layer1
0
POLYLINE
5
22cf
8
Layer1
66
1
10
0.0
20
0.0
30
0.0
70
1
0
VERTEX
5
22d0
8
Layer1
10
52.3630
20
57.1000
30
0.0
0
VERTEX
5
22d1
8
Layer1
10
38.3630
20
57.1000
30
0.0
0
VERTEX
5
22d2
8
Layer1
10
38.3630
20
43.1000
30
0.0
0
VERTEX
5
22d3
8
Layer1
10
52.3630
20
43.1000
30
0.0
0
VERTEX
5
22d4
8
Layer1
10
52.3630
20
57.1000
30
0.0
0
SEQEND
5
22d5
8
Layer1
0
POLYLINE
5
22d6
8
Layer1
66
1
10
0.0
20
0.0
30
0.0
70
1
0
VERTEX
5
22d7
8
Layer1
10
71.4130
20
57.1000
30
0.0
0
VERTEX
5
22d8
8
Layer1
10
57.4130
20
57.1000
30
0.0
0
VERTEX
5
22d9
8
Layer1
10
57.4130
20
43.1000
30
0.0
0
VERTEX
5
22da
8
Layer1
10
71.4130
20
43.1000
30
0.0
0
VERTEX
5
22db
8
Layer1
10
71.4130
20
57.1000
30
0.0
0
SEQEND
5
22dc
8
Layer1
0
POLYLINE
5
22dd
8
Layer1
66
1
10
0.0
20
0.0
30
0.0
70
1
0
VERTEX
5
22de
8
Layer1
10
90.4630
20
57.1000
30
0.0
0
VERTEX
5
22df
8
Layer1
10
76.4630
20
57.1000
30
0.0
0
VERTEX
5
22e0
8
Layer1
10
76.4630
20
43.1000
30
0.0
0
VERTEX
5
22e1
8
Layer1
10
90.4630
20
43.1000
30
0.0
0
VERTEX
5
22e2
8
Layer1
10
90.4630
20
57.1000
30
0.0
0
SEQEND
5
22e3
8
Layer1
0
POLYLINE
5
22e4
8
Layer1
66
1
10
0.0
20
0.0
30
0.0
70
1
0
VERTEX
5
22e5
8
Layer1
10
109.5130
20
57.1000
30
0.0
0
VERTEX
5
22e6
8
Layer1
10
95.5130
20
57.1000
30
0.0
0
VERTEX
5
22e7
8
Layer1
10
95.5130
20
43.1000
30
0.0
0
VERTEX
5
22e8
8
Layer1
10
109.5130
20
43.1000
30
0.0
0
VERTEX
5
22e9
8
Layer1
10
109.5130
20
57.1000
30
0.0
0
SEQEND
5
22ea
8
Layer1
0
POLYLINE
5
22eb
8
Layer1
66
1
10
0.0
20
0.0
30
0.0
70
1
0
VERTEX
5
22ec
8
Layer1
10
128.5630
20
57.1000
30
0.0
0
VERTEX
5
22ed
8
Layer1
10
114.5630
20
57.1000
30
0.0
0
VERTEX
5
22ee
8
Layer1
10
114.5630
20
43.1000
30
0.0
0
VERTEX
5
22ef
8
Layer1
10
128.5630
20
43.1000
30
0.0
0
VERTEX
5
22f0
8
Layer1
10
128.5630
20
57.1000
30
0.0
0
SEQEND
5
22f1
8
Layer1
0
POLYLINE
5
22f2
8
Layer1
66
1
10
0.0
20
0.0
30
0.0
70
1
0
VERTEX
5
22f3
8
Layer1
10
147.6130
20
57.1000
30
0.0
0
VERTEX
5
22f4
8
Layer1
10
133.6130
20
57.1000
30
0.0
0
VERTEX
5
22f5
8
Layer1
10
133.6130
20
43.1000
30
0.0
0
VERTEX
5
22f6
8
Layer1
10
147.6130
20
43.1000
30
0.0
0
VERTEX
5
22f7
8
Layer1
10
147.6130
20
57.1000
30
0.0
0
SEQEND
5
22f8
8
Layer1
0
POLYLINE
5
22f9
8
Layer1
66
1
10
0.0
20
0.0
30
0.0
70
1
0
VERTEX
5
22fa
8
Layer1
10
166.6630
20
57.1000
30
0.0
0
VERTEX
5
22fb
8
Layer1
10
152.6630
20
57.1000
30
0.0
0
VERTEX
5
22fc
8
Layer1
10
152.6630
20
43.1000
30
0.0
0
VERTEX
5
22fd
8
Layer1
10
166.6630
20
43.1000
30
0.0
0
VERTEX
5
22fe
8
Layer1
10
166.6630
20
57.1000
30
0.0
0
SEQEND
5
22ff
8
Layer1
0
POLYLINE
5
2300
8
Layer1
66
1
10
0.0
20
0.0
30
0.0
70
1
0
VERTEX
5
2301
8
Layer1
10
185.7130
20
57.1000
30
0.0
0
VERTEX
5
2302
8
Layer1
10
171.7130
20
57.1000
30
0.0
0
VERTEX
5
2303
8
Layer1
10
171.7130
20
43.1000
30
0.0
0
VERTEX
5
2304
8
Layer1
10
185.7130
20
43.1000
30
0.0
0
VERTEX
5
2305
8
Layer1
10
185.7130
20
57.1000
30
0.0
0
SEQEND
5
2306
8
Layer1
0
POLYLINE
5
2307
8
Layer1
66
1
10
0.0
20
0.0
30
0.0
70
1
0
VERTEX
5
2308
8
Layer1
10
204.7630
20
57.1000
30
0.0
0
VERTEX
5
2309
8
Layer1
10
190.7630
20
57.1000
30
0.0
0
VERTEX
5
230a
8
Layer1
10
190.7630
20
43.1000
30
0.0
0
VERTEX
5
230b
8
Layer1
10
204.7630
20
43.1000
30
0.0
0
VERTEX
5
230c
8
Layer1
10
204.7630
20
57.1000
30
0.0
0
SEQEND
5
230d
8
Layer1
0
POLYLINE
5
230e
8
Layer1
66
1
10
0.0
20
0.0
30
0.0
70
1
0
VERTEX
5
230f
8
Layer1
10
223.8130
20
57.1000
30
0.0
0
VERTEX
5
2310
8
Layer1
10
209.8130
20
57.1000
30
0.0
0
VERTEX
5
2311
8
Layer1
10
209.8130
20
43.1000
30
0.0
0
VERTEX
5
2312
8
Layer1
10
223.8130
20
43.1000
30
0.0
0
VERTEX
5
2313
8
Layer1
10
223.8130
20
57.1000
30
0.0
0
SEQEND
5
2314
8
Layer1
0
POLYLINE
5
2315
8
Layer1
66
1
10
0.0
20
0.0
30
0.0
70
1
0
VERTEX
5
2316
8
Layer1
10
242.8630
20
57.1000
30
0.0
0
VERTEX
5
2317
8
Layer1
10
228.8630
20
57.1000
30
0.0
0
VERTEX
5
2318
8
Layer1
10
228.8630
20
43.1000
30
0.0
0
VERTEX
5
2319
8
Layer1
10
242.8630
20
43.1000
30
0.0
0
VERTEX
5
231a
8
Layer1
10
242.8630
20
57.1000
30
0.0
0
SEQEND
5
231b
8
Layer1
0
POLYLINE
5
231c
8
Layer1
66
1
10
0.0
20
0.0
30
0.0
70
1
0
VERTEX
5
231d
8
Layer1
10
261.9130
20
57.1000
30
0.0
0
VERTEX
5
231e
8
Layer1
10
247.9130
20
57.1000
30
0.0
0
VERTEX
5
231f
8
Layer1
10
247.9130
20
43.1000
30
0.0
0
VERTEX
5
2320
8
Layer1
10
261.9130
20
43.1000
30
0.0
0
VERTEX
5
2321
8
Layer1
10
261.9130
20
57.1000
30
0.0
0
SEQEND
5
2322
8
Layer1
0
POLYLINE
5
2323
8
Layer1
66
1
10
0.0
20
0.0
30
0.0
70
1
0
VERTEX
5
2324
8
Layer1
10
371.4500
20
57.1000
30
0.0
0
VERTEX
5
2325
8
Layer1
10
357.4500
20
57.1000
30
0.0
0
VERTEX
5
2326
8
Layer1
10
357.4500
20
43.1000
30
0.0
0
VERTEX
5
2327
8
Layer1
10
371.4500
20
43.1000
30
0.0
0
VERTEX
5
2328
8
Layer1
10
371.4500
20
57.1000
30
0.0
0
SEQEND
5
2329
8
Layer1
0
POLYLINE
5
232a
8
Layer1
66
1
10
0.0
20
0.0
30
0.0
70
1
0
VERTEX
5
232b
8
Layer1
10
390.5000
20
57.1000
30
0.0
0
VERTEX
5
232c
8
Layer1
10
376.5000
20
57.1000
30
0.0
0
VERTEX
5
232d
8
Layer1
10
376.5000
20
43.1000
30
0.0
0
VERTEX
5
232e
8
Layer1
10
390.5000
20
43.1000
30
0.0
0
VERTEX
5
232f
8
Layer1
10
390.5000
20
57.1000
30
0.0
0
SEQEND
5
2330
8
Layer1
0
POLYLINE
5
2331
8
Layer1
66
1
10
0.0
20
0.0
30
0.0
70
1
0
VERTEX
5
2332
8
Layer1
10
409.5500
20
57.1000
30
0.0
0
VERTEX
5
2333
8
Layer1
10
395.5500
20
57.1000
30
0.0
0
VERTEX
5
2334
8
Layer1
10
395.5500
20
43.1000
30
0.0
0
VERTEX
5
2335
8
Layer1
10
409.5500
20
43.1000
30
0.0
0
VERTEX
5
2336
8
Layer1
10
409.5500
20
57.1000
30
0.0
0
SEQEND
5
2337
8
Layer1
0
POLYLINE
5
2338
8
Layer1
66
1
10
0.0
20
0.0
30
0.0
70
1
0
VERTEX
5
2339
8
Layer1
10
21.4060
20
38.0500
30
0.0
0
VERTEX
5
233a
8
Layer1
10
7.4060
20
38.0500
30
0.0
0
VERTEX
5
233b
8
Layer1
10
7.4060
20
24.0500
30
0.0
0
VERTEX
5
233c
8
Layer1
10
21.4060
20
24.0500
30
0.0
0
VERTEX
5
233d
8
Layer1
10
21.4060
20
38.0500
30
0.0
0
SEQEND
5
233e
8
Layer1
0
POLYLINE
5
233f
8
Layer1
66
1
10
0.0
20
0.0
30
0.0
70
1
0
VERTEX
5
2340
8
Layer1
10
42.8380
20
38.0500
30
0.0
0
VERTEX
5
2341
8
Layer1
10
28.8380
20
38.0500
30
0.0
0
VERTEX
5
2342
8
Layer1
10
28.8380
20
24.0500
30
0.0
0
VERTEX
5
2343
8
Layer1
10
42.8380
20
24.0500
30
0.0
0
VERTEX
5
2344
8
Layer1
10
42.8380
20
38.0500
30
0.0
0
SEQEND
5
2345
8
Layer1
0
POLYLINE
5
2346
8
Layer1
66
1
10
0.0
20
0.0
30
0.0
70
1
0
VERTEX
5
2347
8
Layer1
10
61.8880
20
38.0500
30
0.0
0
VERTEX
5
2348
8
Layer1
10
47.8880
20
38.0500
30
0.0
0
VERTEX
5
2349
8
Layer1
10
47.8880
20
24.0500
30
0.0
0
VERTEX
5
234a
8
Layer1
10
61.8880
20
24.0500
30
0.0
0
VERTEX
5
234b
8
Layer1
10
61.8880
20
38.0500
30
0.0
0
SEQEND
5
234c
8
Layer1
0
POLYLINE
5
234d
8
Layer1
66
1
10
0.0
20
0.0
30
0.0
70
1
0
VERTEX
5
234e
8
Layer1
10
80.9380
20
38.0500
30
0.0
0
VERTEX
5
234f
8
Layer1
10
66.9380
20
38.0500
30
0.0
0
VERTEX
5
2350
8
Layer1
10
66.9380
20
24.0500
30
0.0
0
VERTEX
5
2351
8
Layer1
10
80.9380
20
24.0500
30
0.0
0
VERTEX
5
2352
8
Layer1
10
80.9380
20
38.0500
30
0.0
0
SEQEND
5
2353
8
Layer1
0
POLYLINE
5
2354
8
Layer1
66
1
10
0.0
20
0.0
30
0.0
70
1
0
VERTEX
5
2355
8
Layer1
10
99.9880
20
38.0500
30
0.0
0
VERTEX
5
2356
8
Layer1
10
85.9880
20
38.0500
30
0.0
0
VERTEX
5
2357
8
Layer1
10
85.9880
20
24.0500
30
0.0
0
VERTEX
5
2358
8
Layer1
10
99.9880
20
24.0500
30
0.0
0
VERTEX
5
2359
8
Layer1
10
99.9880
20
38.0500
30
0.0
0
SEQEND
5
235a
8
Layer1
0
POLYLINE
5
235b
8
Layer1
66
1
10
0.0
20
0.0
30
0.0
70
1
0
VERTEX
5
235c
8
Layer1
10
119.0380
20
38.0500
30
0.0
0
VERTEX
5
235d
8
Layer1
10
105.0380
20
38.0500
30
0.0
0
VERTEX
5
235e
8
Layer1
10
105.0380
20
24.0500
30
0.0
0
VERTEX
5
235f
8
Layer1
10
119.0380
20
24.0500
30
0.0
0
VERTEX
5
2360
8
Layer1
10
119.0380
20
38.0500
30
0.0
0
SEQEND
5
2361
8
Layer1
0
POLYLINE
5
2362
8
Layer1
66
1
10
0.0
20
0.0
30
0.0
70
1
0
VERTEX
5
2363
8
Layer1
10
138.0880
20
38.0500
30
0.0
0
VERTEX
5
2364
8
Layer1
10
124.0880
20
38.0500
30
0.0
0
VERTEX
5
2365
8
Layer1
10
124.0880
20
24.0500
30
0.0
0
VERTEX
5
2366
8
Layer1
10
138.0880
20
24.0500
30
0.0
0
VERTEX
5
2367
8
Layer1
10
138.0880
20
38.0500
30
0.0
0
SEQEND
5
2368
8
Layer1
0
POLYLINE
5
2369
8
Layer1
66
1
10
0.0
20
0.0
30
0.0
70
1
0
VERTEX
5
236a
8
Layer1
10
157.1380
20
38.0500
30
0.0
0
VERTEX
5
236b
8
Layer1
10
143.1380
20
38.0500
30
0.0
0
VERTEX
5
236c
8
Layer1
10
143.1380
20
24.0500
30
0.0
0
VERTEX
5
236d
8
Layer1
10
157.1380
20
24.0500
30
0.0
0
VERTEX
5
236e
8
Layer1
10
157.1380
20
38.0500
30
0.0
0
SEQEND
5
236f
8
Layer1
0
POLYLINE
5
2370
8
Layer1
66
1
10
0.0
20
0.0
30
0.0
70
1
0
VERTEX
5
2371
8
Layer1
10
176.1880
20
38.0500
30
0.0
0
VERTEX
5
2372
8
Layer1
10
162.1880
20
38.0500
30
0.0
0
VERTEX
5
2373
8
Layer1
10
162.1880
20
24.0500
30
0.0
0
VERTEX
5
2374
8
Layer1
10
176.1880
20
24.0500
30
0.0
0
VERTEX
5
2375
8
Layer1
10
176.1880
20
38.0500
30
0.0
0
SEQEND
5
2376
8
Layer1
0
POLYLINE
5
2377
8
Layer1
66
1
10
0.0
20
0.0
30
0.0
70
1
0
VERTEX
5
2378
8
Layer1
10
195.2380
20
38.0500
30
0.0
0
VERTEX
5
2379
8
Layer1
10
181.2380
20
38.0500
30
0.0
0
VERTEX
5
237a
8
Layer1
10
181.2380
20
24.0500
30
0.0
0
VERTEX
5
237b
8
Layer1
10
195.2380
20
24.0500
30
0.0
0
VERTEX
5
237c
8
Layer1
10
195.2380
20
38.0500
30
0.0
0
SEQEND
5
237d
8
Layer1
0
POLYLINE
5
237e
8
Layer1
66
1
10
0.0
20
0.0
30
0.0
70
1
0
VERTEX
5
237f
8
Layer1
10
214.2880
20
38.0500
30
0.0
0
VERTEX
5
2380
8
Layer1
10
200.2880
20
38.0500
30
0.0
0
VERTEX
5
2381
8
Layer1
10
200.2880
20
24.0500
30
0.0
0
VERTEX
5
2382
8
Layer1
10
214.2880
20
24.0500
30
0.0
0
VERTEX
5
2383
8
Layer1
10
214.2880
20
38.0500
30
0.0
0
SEQEND
5
2384
8
Layer1
0
POLYLINE
5
2385
8
Layer1
66
1
10
0.0
20
0.0
30
0.0
70
1
0
VERTEX
5
2386
8
Layer1
10
233.3380
20
38.0500
30
0.0
0
VERTEX
5
2387
8
Layer1
10
219.3380
20
38.0500
30
0.0
0
VERTEX
5
2388
8
Layer1
10
219.3380
20
24.0500
30
0.0
0
VERTEX
5
2389
8
Layer1
10
233.3380
20
24.0500
30
0.0
0
VERTEX
5
238a
8
Layer1
10
233.3380
20
38.0500
30
0.0
0
SEQEND
5
238b
8
Layer1
0
POLYLINE
5
238c
8
Layer1
66
1
10
0.0
20
0.0
30
0.0
70
1
0
VERTEX
5
238d
8
Layer1
10
251.6560
20
24.2800
30
0.0
0
VERTEX
5
238e
8
Layer1
10
253.4810
20
24.2800
30
0.0
0
VERTEX
5
238f
8
Layer1
10
253.4810
20
30.5500
30
0.0
0
VERTEX
5
2390
8
Layer1
10
255.0560
20
30.5500
30
0.0
0
VERTEX
5
2391
8
Layer1
10
255.0560
20
24.0500
30
0.0
0
VERTEX
5
2392
8
Layer1
10
269.0560
20
24.0500
30
0.0
0
VERTEX
5
2393
8
Layer1
10
269.0560
20
30.5500
30
0.0
0
VERTEX
5
2394
8
Layer1
10
270.6310
20
30.5500
30
0.0
0
VERTEX
5
2395
8
Layer1
10
270.6310
20
24.2800
30
0.0
0
VERTEX
5
2396
8
Layer1
10
272.4560
20
24.2800
30
0.0
0
VERTEX
5
2397
8
Layer1
10
272.4560
20
23.0800
30
0.0
0
VERTEX
5
2398
8
Layer1
10
275.4560
20
23.0800
30
0.0
0
VERTEX
5
2399
8
Layer1
10
275.4560
20
24.2800
30
0.0
0
VERTEX
5
239a
8
Layer1
10
277.2810
20
24.2800
30
0.0
0
VERTEX
5
239b
8
Layer1
10
277.2810
20
30.5500
30
0.0
0
VERTEX
5
239c
8
Layer1
10
278.1560
20
30.5500
30
0.0
0
VERTEX
5
239d
8
Layer1
10
278.1560
20
33.3500
30
0.0
0
VERTEX
5
239e
8
Layer1
10
277.2810
20
33.3500
30
0.0
0
VERTEX
5
239f
8
Layer1
10
277.2810
20
36.5800
30
0.0
0
VERTEX
5
23a0
8
Layer1
10
270.6310
20
36.5800
30
0.0
0
VERTEX
5
23a1
8
Layer1
10
270.6310
20
33.3500
30
0.0
0
VERTEX
5
23a2
8
Layer1
10
269.0560
20
33.3500
30
0.0
0
VERTEX
5
23a3
8
Layer1
10
269.0560
20
38.0500
30
0.0
0
VERTEX
5
23a4
8
Layer1
10
255.0560
20
38.0500
30
0.0
0
VERTEX
5
23a5
8
Layer1
10
255.0560
20
33.3500
30
0.0
0
VERTEX
5
23a6
8
Layer1
10
253.4810
20
33.3500
30
0.0
0
VERTEX
5
23a7
8
Layer1
10
253.4810
20
36.5800
30
0.0
0
VERTEX
5
23a8
8
Layer1
10
246.8310
20
36.5800
30
0.0
0
VERTEX
5
23a9
8
Layer1
10
246.8310
20
33.3500
30
0.0
0
VERTEX
5
23aa
8
Layer1
10
245.9560
20
33.3500
30
0.0
0
VERTEX
5
23ab
8
Layer1
10
245.9560
20
30.5500
30
0.0
0
VERTEX
5
23ac
8
Layer1
10
246.8310
20
30.5500
30
0.0
0
VERTEX
5
23ad
8
Layer1
10
246.8310
20
24.2800
30
0.0
0
VERTEX
5
23ae
8
Layer1
10
248.6560
20
24.2800
30
0.0
0
VERTEX
5
23af
8
Layer1
10
248.6560
20
23.0800
30
0.0
0
VERTEX
5
23b0
8
Layer1
10
251.6560
20
23.0800
30
0.0
0
VERTEX
5
23b1
8
Layer1
10
251.6560
20
24.2800
30
0.0
0
SEQEND
5
23b2
8
Layer1
0
POLYLINE
5
23b3
8
Layer1
66
1
10
0.0
20
0.0
30
0.0
70
1
0
VERTEX
5
23b4
8
Layer1
10
328.5880
20
38.0500
30
0.0
0
VERTEX
5
23b5
8
Layer1
10
314.5880
20
38.0500
30
0.0
0
VERTEX
5
23b6
8
Layer1
10
314.5880
20
24.0500
30
0.0
0
VERTEX
5
23b7
8
Layer1
10
328.5880
20
24.0500
30
0.0
0
VERTEX
5
23b8
8
Layer1
10
328.5880
20
38.0500
30
0.0
0
SEQEND
5
23b9
8
Layer1
0
POLYLINE
5
23ba
8
Layer1
66
1
10
0.0
20
0.0
30
0.0
70
1
0
VERTEX
5
23bb
8
Layer1
10
371.4500
20
38.0500
30
0.0
0
VERTEX
5
23bc
8
Layer1
10
357.4500
20
38.0500
30
0.0
0
VERTEX
5
23bd
8
Layer1
10
357.4500
20
24.0500
30
0.0
0
VERTEX
5
23be
8
Layer1
10
371.4500
20
24.0500
30
0.0
0
VERTEX
5
23bf
8
Layer1
10
371.4500
20
38.0500
30
0.0
0
SEQEND
5
23c0
8
Layer1
0
POLYLINE
5
23c1
8
Layer1
66
1
10
0.0
20
0.0
30
0.0
70
1
0
VERTEX
5
23c2
8
Layer1
10
390.5000
20
38.0500
30
0.0
0
VERTEX
5
23c3
8
Layer1
10
376.5000
20
38.0500
30
0.0
0
VERTEX
5
23c4
8
Layer1
10
376.5000
20
24.0500
30
0.0
0
VERTEX
5
23c5
8
Layer1
10
390.5000
20
24.0500
30
0.0
0
VERTEX
5
23c6
8
Layer1
10
390.5000
20
38.0500
30
0.0
0
SEQEND
5
23c7
8
Layer1
0
POLYLINE
5
23c8
8
Layer1
66
1
10
0.0
20
0.0
30
0.0
70
1
0
VERTEX
5
23c9
8
Layer1
10
409.5500
20
38.0500
30
0.0
0
VERTEX
5
23ca
8
Layer1
10
395.5500
20
38.0500
30
0.0
0
VERTEX
5
23cb
8
Layer1
10
395.5500
20
24.0500
30
0.0
0
VERTEX
5
23cc
8
Layer1
10
409.5500
20
24.0500
30
0.0
0
VERTEX
5
23cd
8
Layer1
10
409.5500
20
38.0500
30
0.0
0
SEQEND
5
23ce
8
Layer1
0
POLYLINE
5
23cf
8
Layer1
66
1
10
0.0
20
0.0
30
0.0
70
1
0
VERTEX
5
23d0
8
Layer1
10
414.8300
20
31.9250
30
0.0
0
VERTEX
5
23d1
8
Layer1
10
414.8300
20
30.1000
30
0.0
0
VERTEX
5
23d2
8
Layer1
10
421.1000
20
30.1000
30
0.0
0
VERTEX
5
23d3
8
Layer1
10
421.1000
20
28.5250
30
0.0
0
VERTEX
5
23d4
8
Layer1
10
414.6000
20
28.5250
30
0.0
0
VERTEX
5
23d5
8
Layer1
10
414.6000
20
14.5250
30
0.0
0
VERTEX
5
23d6
8
Layer1
10
421.1000
20
14.5250
30
0.0
0
VERTEX
5
23d7
8
Layer1
10
421.1000
20
12.9500
30
0.0
0
VERTEX
5
23d8
8
Layer1
10
414.8300
20
12.9500
30
0.0
0
VERTEX
5
23d9
8
Layer1
10
414.8300
20
11.1250
30
0.0
0
VERTEX
5
23da
8
Layer1
10
413.6300
20
11.1250
30
0.0
0
VERTEX
5
23db
8
Layer1
10
413.6300
20
8.1250
30
0.0
0
VERTEX
5
23dc
8
Layer1
10
414.8300
20
8.1250
30
0.0
0
VERTEX
5
23dd
8
Layer1
10
414.8300
20
6.3000
30
0.0
0
VERTEX
5
23de
8
Layer1
10
421.1000
20
6.3000
30
0.0
0
VERTEX
5
23df
8
Layer1
10
421.1000
20
5.4250
30
0.0
0
VERTEX
5
23e0
8
Layer1
10
423.9000
20
5.4250
30
0.0
0
VERTEX
5
23e1
8
Layer1
10
423.9000
20
6.3000
30
0.0
0
VERTEX
5
23e2
8
Layer1
10
427.1300
20
6.3000
30
0.0
0
VERTEX
5
23e3
8
Layer1
10
427.1300
20
12.9500
30
0.0
0
VERTEX
5
23e4
8
Layer1
10
423.9000
20
12.9500
30
0.0
0
VERTEX
5
23e5
8
Layer1
10
423.9000
20
14.5250
30
0.0
0
VERTEX
5
23e6
8
Layer1
10
428.6000
20
14.5250
30
0.0
0
VERTEX
5
23e7
8
Layer1
10
428.6000
20
28.5250
30
0.0
0
VERTEX
5
23e8
8
Layer1
10
423.9000
20
28.5250
30
0.0
0
VERTEX
5
23e9
8
Layer1
10
423.9000
20
30.1000
30
0.0
0
VERTEX
5
23ea
8
Layer1
10
427.1300
20
30.1000
30
0.0
0
VERTEX
5
23eb
8
Layer1
10
427.1300
20
36.7500
30
0.0
0
VERTEX
5
23ec
8
Layer1
10
423.9000
20
36.7500
30
0.0
0
VERTEX
5
23ed
8
Layer1
10
423.9000
20
37.6250
30
0.0
0
VERTEX
5
23ee
8
Layer1
10
421.1000
20
37.6250
30
0.0
0
VERTEX
5
23ef
8
Layer1
10
421.1000
20
36.7500
30
0.0
0
VERTEX
5
23f0
8
Layer1
10
414.8300
20
36.7500
30
0.0
0
VERTEX
5
23f1
8
Layer1
10
414.8300
20
34.9250
30
0.0
0
VERTEX
5
23f2
8
Layer1
10
413.6300
20
34.9250
30
0.0
0
VERTEX
5
23f3
8
Layer1
10
413.6300
20
31.9250
30
0.0
0
VERTEX
5
23f4
8
Layer1
10
414.8300
20
31.9250
30
0.0
0
SEQEND
5
23f5
8
Layer1
0
POLYLINE
5
23f6
8
Layer1
66
1
10
0.0
20
0.0
30
0.0
70
1
0
VERTEX
5
23f7
8
Layer1
10
21.4060
20
19.0000
30
0.0
0
VERTEX
5
23f8
8
Layer1
10
7.4060
20
19.0000
30
0.0
0
VERTEX
5
23f9
8
Layer1
10
7.4060
20
5.0000
30
0.0
0
VERTEX
5
23fa
8
Layer1
10
21.4060
20
5.0000
30
0.0
0
VERTEX
5
23fb
8
Layer1
10
21.4060
20
19.0000
30
0.0
0
SEQEND
5
23fc
8
Layer1
0
POLYLINE
5
23fd
8
Layer1
66
1
10
0.0
20
0.0
30
0.0
70
1
0
VERTEX
5
23fe
8
Layer1
10
45.2190
20
19.0000
30
0.0
0
VERTEX
5
23ff
8
Layer1
10
31.2190
20
19.0000
30
0.0
0
VERTEX
5
2400
8
Layer1
10
31.2190
20
5.0000
30
0.0
0
VERTEX
5
2401
8
Layer1
10
45.2190
20
5.0000
30
0.0
0
VERTEX
5
2402
8
Layer1
10
45.2190
20
19.0000
30
0.0
0
SEQEND
5
2403
8
Layer1
0
POLYLINE
5
2404
8
Layer1
66
1
10
0.0
20
0.0
30
0.0
70
1
0
VERTEX
5
2405
8
Layer1
10
69.0310
20
19.0000
30
0.0
0
VERTEX
5
2406
8
Layer1
10
55.0310
20
19.0000
30
0.0
0
VERTEX
5
2407
8
Layer1
10
55.0310
20
5.0000
30
0.0
0
VERTEX
5
2408
8
Layer1
10
69.0310
20
5.0000
30
0.0
0
VERTEX
5
2409
8
Layer1
10
69.0310
20
19.0000
30
0.0
0
SEQEND
5
240a
8
Layer1
0
POLYLINE
5
240b
8
Layer1
66
1
10
0.0
20
0.0
30
0.0
70
1
0
VERTEX
5
240c
8
Layer1
10
84.9690
20
5.2300
30
0.0
0
VERTEX
5
240d
8
Layer1
10
86.7940
20
5.2300
30
0.0
0
VERTEX
5
240e
8
Layer1
10
86.7940
20
9.7000
30
0.0
0
VERTEX
5
240f
8
Layer1
10
126.4690
20
9.7000
30
0.0
0
VERTEX
5
2410
8
Layer1
10
126.4690
20
5.0000
30
0.0
0
VERTEX
5
2411
8
Layer1
10
140.4690
20
5.0000
30
0.0
0
VERTEX
5
2412
8
Layer1
10
140.4690
20
9.7000
30
0.0
0
VERTEX
5
2413
8
Layer1
10
180.1440
20
9.7000
30
0.0
0
VERTEX
5
2414
8
Layer1
10
180.1440
20
5.2300
30
0.0
0
VERTEX
5
2415
8
Layer1
10
181.9690
20
5.2300
30
0.0
0
VERTEX
5
2416
8
Layer1
10
181.9690
20
4.0300
30
0.0
0
VERTEX
5
2417
8
Layer1
10
184.9690
20
4.0300
30
0.0
0
VERTEX
5
2418
8
Layer1
10
184.9690
20
5.2300
30
0.0
0
VERTEX
5
2419
8
Layer1
10
186.7940
20
5.2300
30
0.0
0
VERTEX
5
241a
8
Layer1
10
186.7940
20
11.5000
30
0.0
0
VERTEX
5
241b
8
Layer1
10
187.6940
20
11.5000
30
0.0
0
VERTEX
5
241c
8
Layer1
10
187.6940
20
14.3000
30
0.0
0
VERTEX
5
241d
8
Layer1
10
186.7940
20
14.3000
30
0.0
0
VERTEX
5
241e
8
Layer1
10
186.7940
20
17.5300
30
0.0
0
VERTEX
5
241f
8
Layer1
10
180.1440
20
17.5300
30
0.0
0
VERTEX
5
2420
8
Layer1
10
180.1440
20
14.3000
30
0.0
0
VERTEX
5
2421
8
Layer1
10
140.4690
20
14.3000
30
0.0
0
VERTEX
5
2422
8
Layer1
10
140.4690
20
19.0000
30
0.0
0
VERTEX
5
2423
8
Layer1
10
126.4690
20
19.0000
30
0.0
0
VERTEX
5
2424
8
Layer1
10
126.4690
20
14.3000
30
0.0
0
VERTEX
5
2425
8
Layer1
10
86.7940
20
14.3000
30
0.0
0
VERTEX
5
2426
8
Layer1
10
86.7940
20
17.5300
30
0.0
0
VERTEX
5
2427
8
Layer1
10
80.1440
20
17.5300
30
0.0
0
VERTEX
5
2428
8
Layer1
10
80.1440
20
14.3000
30
0.0
0
VERTEX
5
2429
8
Layer1
10
79.2440
20
14.3000
30
0.0
0
VERTEX
5
242a
8
Layer1
10
79.2440
20
11.5000
30
0.0
0
VERTEX
5
242b
8
Layer1
10
80.1440
20
11.5000
30
0.0
0
VERTEX
5
242c
8
Layer1
10
80.1440
20
5.2300
30
0.0
0
VERTEX
5
242d
8
Layer1
10
81.9690
20
5.2300
30
0.0
0
VERTEX
5
242e
8
Layer1
10
81.9690
20
4.0300
30
0.0
0
VERTEX
5
242f
8
Layer1
10
84.9690
20
4.0300
30
0.0
0
VERTEX
5
2430
8
Layer1
10
84.9690
20
5.2300
30
0.0
0
SEQEND
5
2431
8
Layer1
0
POLYLINE
5
2432
8
Layer1
66
1
10
0.0
20
0.0
30
0.0
70
1
0
VERTEX
5
2433
8
Layer1
10
211.9060
20
19.0000
30
0.0
0
VERTEX
5
2434
8
Layer1
10
197.9060
20
19.0000
30
0.0
0
VERTEX
5
2435
8
Layer1
10
197.9060
20
5.0000
30
0.0
0
VERTEX
5
2436
8
Layer1
10
211.9060
20
5.0000
30
0.0
0
VERTEX
5
2437
8
Layer1
10
211.9060
20
19.0000
30
0.0
0
SEQEND
5
2438
8
Layer1
0
POLYLINE
5
2439
8
Layer1
66
1
10
0.0
20
0.0
30
0.0
70
1
0
VERTEX
5
243a
8
Layer1
10
235.7190
20
19.0000
30
0.0
0
VERTEX
5
243b
8
Layer1
10
221.7190
20
19.0000
30
0.0
0
VERTEX
5
243c
8
Layer1
10
221.7190
20
5.0000
30
0.0
0
VERTEX
5
243d
8
Layer1
10
235.7190
20
5.0000
30
0.0
0
VERTEX
5
243e
8
Layer1
10
235.7190
20
19.0000
30
0.0
0
SEQEND
5
243f
8
Layer1
0
POLYLINE
5
2440
8
Layer1
66
1
10
0.0
20
0.0
30
0.0
70
1
0
VERTEX
5
2441
8
Layer1
10
259.5310
20
19.0000
30
0.0
0
VERTEX
5
2442
8
Layer1
10
245.5310
20
19.0000
30
0.0
0
VERTEX
5
2443
8
Layer1
10
245.5310
20
5.0000
30
0.0
0
VERTEX
5
2444
8
Layer1
10
259.5310
20
5.0000
30
0.0
0
VERTEX
5
2445
8
Layer1
10
259.5310
20
19.0000
30
0.0
0
SEQEND
5
2446
8
Layer1
0
POLYLINE
5
2447
8
Layer1
66
1
10
0.0
20
0.0
30
0.0
70
1
0
VERTEX
5
2448
8
Layer1
10
283.3440
20
19.0000
30
0.0
0
VERTEX
5
2449
8
Layer1
10
269.3440
20
19.0000
30
0.0
0
VERTEX
5
244a
8
Layer1
10
269.3440
20
5.0000
30
0.0
0
VERTEX
5
244b
8
Layer1
10
283.3440
20
5.0000
30
0.0
0
VERTEX
5
244c
8
Layer1
10
283.3440
20
19.0000
30
0.0
0
SEQEND
5
244d
8
Layer1
0
POLYLINE
5
244e
8
Layer1
66
1
10
0.0
20
0.0
30
0.0
70
1
0
VERTEX
5
244f
8
Layer1
10
309.5370
20
19.0000
30
0.0
0
VERTEX
5
2450
8
Layer1
10
295.5370
20
19.0000
30
0.0
0
VERTEX
5
2451
8
Layer1
10
295.5370
20
5.0000
30
0.0
0
VERTEX
5
2452
8
Layer1
10
309.5370
20
5.0000
30
0.0
0
VERTEX
5
2453
8
Layer1
10
309.5370
20
19.0000
30
0.0
0
SEQEND
5
2454
8
Layer1
0
POLYLINE
5
2455
8
Layer1
66
1
10
0.0
20
0.0
30
0.0
70
1
0
VERTEX
5
2456
8
Layer1
10
328.5880
20
19.0000
30
0.0
0
VERTEX
5
2457
8
Layer1
10
314.5880
20
19.0000
30
0.0
0
VERTEX
5
2458
8
Layer1
10
314.5880
20
5.0000
30
0.0
0
VERTEX
5
2459
8
Layer1
10
328.5880
20
5.0000
30
0.0
0
VERTEX
5
245a
8
Layer1
10
328.5880
20
19.0000
30
0.0
0
SEQEND
5
245b
8
Layer1
0
POLYLINE
5
245c
8
Layer1
66
1
10
0.0
20
0.0
30
0.0
70
1
0
VERTEX
5
245d
8
Layer1
10
347.6380
20
19.0000
30
0.0
0
VERTEX
5
245e
8
Layer1
10
333.6380
20
19.0000
30
0.0
0
VERTEX
5
245f
8
Layer1
10
333.6380
20
5.0000
30
0.0
0
VERTEX
5
2460
8
Layer1
10
347.6380
20
5.0000
30
0.0
0
VERTEX
5
2461
8
Layer1
10
347.6380
20
19.0000
30
0.0
0
SEQEND
5
2462
8
Layer1
0
POLYLINE
5
2463
8
Layer1
66
1
10
0.0
20
0.0
30
0.0
70
1
0
VERTEX
5
2464
8
Layer1
10
363.5750
20
5.2300
30
0.0
0
VERTEX
5
2465
8
Layer1
10
365.4000
20
5.2300
30
0.0
0
VERTEX
5
2466
8
Layer1
10
365.4000
20
11.5000
30
0.0
0
VERTEX
5
2467
8
Layer1
10
366.9750
20
11.5000
30
0.0
0
VERTEX
5
2468
8
Layer1
10
366.9750
20
5.0000
30
0.0
0
VERTEX
5
2469
8
Layer1
10
380.9750
20
5.0000
30
0.0
0
VERTEX
5
246a
8
Layer1
10
380.9750
20
11.5000
30
0.0
0
VERTEX
5
246b
8
Layer1
10
382.5500
20
11.5000
30
0.0
0
VERTEX
5
246c
8
Layer1
10
382.5500
20
5.2300
30
0.0
0
VERTEX
5
246d
8
Layer1
10
384.3750
20
5.2300
30
0.0
0
VERTEX
5
246e
8
Layer1
10
384.3750
20
4.0300
30
0.0
0
VERTEX
5
246f
8
Layer1
10
387.3750
20
4.0300
30
0.0
0
VERTEX
5
2470
8
Layer1
10
387.3750
20
5.2300
30
0.0
0
VERTEX
5
2471
8
Layer1
10
389.2000
20
5.2300
30
0.0
0
VERTEX
5
2472
8
Layer1
10
389.2000
20
11.5000
30
0.0
0
VERTEX
5
2473
8
Layer1
10
390.0750
20
11.5000
30
0.0
0
VERTEX
5
2474
8
Layer1
10
390.0750
20
14.3000
30
0.0
0
VERTEX
5
2475
8
Layer1
10
389.2000
20
14.3000
30
0.0
0
VERTEX
5
2476
8
Layer1
10
389.2000
20
17.5300
30
0.0
0
VERTEX
5
2477
8
Layer1
10
382.5500
20
17.5300
30
0.0
0
VERTEX
5
2478
8
Layer1
10
382.5500
20
14.3000
30
0.0
0
VERTEX
5
2479
8
Layer1
10
380.9750
20
14.3000
30
0.0
0
VERTEX
5
247a
8
Layer1
10
380.9750
20
19.0000
30
0.0
0
VERTEX
5
247b
8
Layer1
10
366.9750
20
19.0000
30
0.0
0
VERTEX
5
247c
8
Layer1
10
366.9750
20
14.3000
30
0.0
0
VERTEX
5
247d
8
Layer1
10
365.4000
20
14.3000
30
0.0
0
VERTEX
5
247e
8
Layer1
10
365.4000
20
17.5300
30
0.0
0
VERTEX
5
247f
8
Layer1
10
358.7500
20
17.5300
30
0.0
0
VERTEX
5
2480
8
Layer1
10
358.7500
20
14.3000
30
0.0
0
VERTEX
5
2481
8
Layer1
10
357.8750
20
14.3000
30
0.0
0
VERTEX
5
2482
8
Layer1
10
357.8750
20
11.5000
30
0.0
0
VERTEX
5
2483
8
Layer1
10
358.7500
20
11.5000
30
0.0
0
VERTEX
5
2484
8
Layer1
10
358.7500
20
5.2300
30
0.0
0
VERTEX
5
2485
8
Layer1
10
360.5750
20
5.2300
30
0.0
0
VERTEX
5
2486
8
Layer1
10
360.5750
20
4.0300
30
0.0
0
VERTEX
5
2487
8
Layer1
10
363.5750
20
4.0300
30
0.0
0
VERTEX
5
2488
8
Layer1
10
363.5750
20
5.2300
30
0.0
0
SEQEND
5
2489
8
Layer1
0
POLYLINE
5
248a
8
Layer1
66
1
10
0.0
20
0.0
30
0.0
70
1
0
VERTEX
5
248b
8
Layer1
10
409.5500
20
19.0000
30
0.0
0
VERTEX
5
248c
8
Layer1
10
395.5500
20
19.0000
30
0.0
0
VERTEX
5
248d
8
Layer1
10
395.5500
20
5.0000
30
0.0
0
VERTEX
5
248e
8
Layer1
10
409.5500
20
5.0000
30
0.0
0
VERTEX
5
248f
8
Layer1
10
409.5500
20
19.0000
30
0.0
0
SEQEND
5
2490
8
Layer1
0
ENDSEC
0
EOF
