%TF.GenerationSoftware,KiCad,Pcbnew,8.0.8*%
%TF.CreationDate,2025-04-23T12:27:23+02:00*%
%TF.ProjectId,Clavier,436c6176-6965-4722-9e6b-696361645f70,0.0*%
%TF.SameCoordinates,Original*%
%TF.FileFunction,Copper,L2,Inr*%
%TF.FilePolarity,Positive*%
%FSLAX46Y46*%
G04 Gerber Fmt 4.6, Leading zero omitted, Abs format (unit mm)*
G04 Created by KiCad (PCBNEW 8.0.8) date 2025-04-23 12:27:23*
%MOMM*%
%LPD*%
G01*
G04 APERTURE LIST*
%TA.AperFunction,ComponentPad*%
%ADD10C,4.000000*%
%TD*%
%TA.AperFunction,ComponentPad*%
%ADD11R,2.000000X2.000000*%
%TD*%
%TA.AperFunction,ComponentPad*%
%ADD12C,2.000000*%
%TD*%
%TA.AperFunction,ComponentPad*%
%ADD13R,3.200000X2.000000*%
%TD*%
%TA.AperFunction,ComponentPad*%
%ADD14C,1.524000*%
%TD*%
%TA.AperFunction,ComponentPad*%
%ADD15C,2.600000*%
%TD*%
%TA.AperFunction,ComponentPad*%
%ADD16C,3.300000*%
%TD*%
%TA.AperFunction,ComponentPad*%
%ADD17C,3.500000*%
%TD*%
%TA.AperFunction,ComponentPad*%
%ADD18R,1.700000X1.700000*%
%TD*%
%TA.AperFunction,ComponentPad*%
%ADD19O,1.700000X1.700000*%
%TD*%
%TA.AperFunction,HeatsinkPad*%
%ADD20C,0.600000*%
%TD*%
%TA.AperFunction,ComponentPad*%
%ADD21O,1.000000X1.800000*%
%TD*%
%TA.AperFunction,ComponentPad*%
%ADD22O,1.000000X2.100000*%
%TD*%
%TA.AperFunction,ViaPad*%
%ADD23C,0.600000*%
%TD*%
%TA.AperFunction,Conductor*%
%ADD24C,0.800000*%
%TD*%
%TA.AperFunction,Conductor*%
%ADD25C,0.400000*%
%TD*%
%TA.AperFunction,Conductor*%
%ADD26C,0.600000*%
%TD*%
%TA.AperFunction,Conductor*%
%ADD27C,0.200000*%
%TD*%
G04 APERTURE END LIST*
D10*
%TO.N,*%
%TO.C,S1*%
X344408750Y-161925000D03*
X368221250Y-161925000D03*
%TD*%
%TO.N,*%
%TO.C,S7*%
X449183750Y-238125000D03*
X472996250Y-238125000D03*
%TD*%
D11*
%TO.N,RE_A*%
%TO.C,SW3*%
X106140000Y-123785000D03*
D12*
%TO.N,RE_B*%
X106140000Y-118785000D03*
%TO.N,GND*%
X106140000Y-121285000D03*
D13*
X98640000Y-126885000D03*
X98640000Y-115685000D03*
D12*
%TO.N,RE_S*%
X91640000Y-118785000D03*
%TO.N,GND*%
X91640000Y-123785000D03*
%TD*%
D10*
%TO.N,*%
%TO.C,S5*%
X501730000Y-247491250D03*
X501730000Y-223678750D03*
%TD*%
%TO.N,*%
%TO.C,S6*%
X170577500Y-238125000D03*
X270590000Y-238125000D03*
%TD*%
%TO.N,*%
%TO.C,S3*%
X501730000Y-209391250D03*
X501730000Y-185578750D03*
%TD*%
%TO.N,*%
%TO.C,S4*%
X337265000Y-219075000D03*
X361077500Y-219075000D03*
%TD*%
D14*
%TO.N,unconnected-(RV2-Pad1)*%
%TO.C,RV2*%
X445140000Y-139085000D03*
%TO.N,unconnected-(RV2-Pad2)*%
X445140000Y-136585000D03*
%TO.N,unconnected-(RV2-Pad3)*%
X515140000Y-139085000D03*
%TO.N,GND*%
X445140000Y-144085000D03*
%TO.N,Net-(R27-Pad1)*%
X445140000Y-141585000D03*
%TO.N,+3.3V*%
X515140000Y-144085000D03*
D15*
%TO.N,GND*%
X455140000Y-140335000D03*
X502640000Y-140335000D03*
%TD*%
D14*
%TO.N,unconnected-(RV1-Pad1)*%
%TO.C,RV1*%
X445140000Y-120035000D03*
%TO.N,unconnected-(RV1-Pad2)*%
X445140000Y-117535000D03*
%TO.N,unconnected-(RV1-Pad3)*%
X515140000Y-120035000D03*
%TO.N,GND*%
X445140000Y-125035000D03*
%TO.N,Net-(R4-Pad2)*%
X445140000Y-122535000D03*
%TO.N,+3.3V*%
X515140000Y-125035000D03*
D15*
%TO.N,GND*%
X455140000Y-121285000D03*
X502640000Y-121285000D03*
%TD*%
D16*
%TO.N,Column 11*%
%TO.C,MX42*%
X293450000Y-171450000D03*
%TO.N,Net-(D42-A)*%
X287100000Y-173990000D03*
%TD*%
%TO.N,Column 8*%
%TO.C,MX60*%
X245825000Y-190500000D03*
%TO.N,Net-(D60-A)*%
X239475000Y-193040000D03*
%TD*%
%TO.N,Column 1*%
%TO.C,MX53*%
X107712500Y-190500000D03*
%TO.N,Net-(D53-A)*%
X101362500Y-193040000D03*
%TD*%
%TO.N,Column 11*%
%TO.C,MX84*%
X307737500Y-209550000D03*
%TO.N,Net-(D84-A)*%
X301387500Y-212090000D03*
%TD*%
%TO.N,Column 16*%
%TO.C,MX30*%
X412512500Y-142875000D03*
%TO.N,Net-(D30-A)*%
X406162500Y-145415000D03*
%TD*%
%TO.N,Column 1*%
%TO.C,MX74*%
X110093750Y-209550000D03*
%TO.N,Net-(D74-A)*%
X103743750Y-212090000D03*
%TD*%
%TO.N,Column 11*%
%TO.C,MX63*%
X302975000Y-190500000D03*
%TO.N,Net-(D63-A)*%
X296625000Y-193040000D03*
%TD*%
%TO.N,Column 17*%
%TO.C,MX15*%
X431562500Y-123825000D03*
%TO.N,Net-(D15-A)*%
X425212500Y-126365000D03*
%TD*%
%TO.N,Column 2*%
%TO.C,MX54*%
X131525000Y-190500000D03*
%TO.N,Net-(D54-A)*%
X125175000Y-193040000D03*
%TD*%
%TO.N,Column 9*%
%TO.C,MX23*%
X264875000Y-142875000D03*
%TO.N,Net-(D23-A)*%
X258525000Y-145415000D03*
%TD*%
%TO.N,Column 8*%
%TO.C,MX22*%
X245825000Y-142875000D03*
%TO.N,Net-(D22-A)*%
X239475000Y-145415000D03*
%TD*%
%TO.N,Column 14*%
%TO.C,MX45*%
X360125000Y-171450000D03*
%TO.N,Net-(D45-A)*%
X353775000Y-173990000D03*
%TD*%
%TO.N,Column 13*%
%TO.C,MX86*%
X345837500Y-209550000D03*
%TO.N,Net-(D86-A)*%
X339487500Y-212090000D03*
%TD*%
%TO.N,Column 14*%
%TO.C,MX28*%
X369650000Y-142875000D03*
%TO.N,Net-(D28-A)*%
X363300000Y-145415000D03*
%TD*%
%TO.N,Column 13*%
%TO.C,MX114*%
X343456250Y-247650000D03*
%TO.N,Net-(D114-A)*%
X337106250Y-250190000D03*
%TD*%
%TO.N,Column 16*%
%TO.C,MX68*%
X412512500Y-190500000D03*
%TO.N,Net-(D68-A)*%
X406162500Y-193040000D03*
%TD*%
%TO.N,Column 14*%
%TO.C,MX115*%
X367268750Y-247650000D03*
%TO.N,Net-(D115-A)*%
X360918750Y-250190000D03*
%TD*%
%TO.N,Column 18*%
%TO.C,MX87*%
X455375000Y-209550000D03*
%TO.N,Net-(D87-A)*%
X449025000Y-212090000D03*
%TD*%
%TO.N,Column 16*%
%TO.C,MX117*%
X412512500Y-247650000D03*
%TO.N,Net-(D117-A)*%
X406162500Y-250190000D03*
%TD*%
%TO.N,Column 6*%
%TO.C,MX20*%
X198200000Y-142875000D03*
%TO.N,Net-(D20-A)*%
X191850000Y-145415000D03*
%TD*%
D17*
%TO.N,GND*%
%TO.C,H6*%
X294415166Y-142177270D03*
%TD*%
D16*
%TO.N,Column 6*%
%TO.C,MX58*%
X207725000Y-190500000D03*
%TO.N,Net-(D58-A)*%
X201375000Y-193040000D03*
%TD*%
%TO.N,Column 12*%
%TO.C,MX101*%
X317262500Y-228600000D03*
%TO.N,Net-(D101-A)*%
X310912500Y-231140000D03*
%TD*%
%TO.N,Column 12*%
%TO.C,MX64*%
X322025000Y-190500000D03*
%TO.N,Net-(D64-A)*%
X315675000Y-193040000D03*
%TD*%
D18*
%TO.N,GND*%
%TO.C,J2*%
X500715166Y-155177270D03*
D19*
%TO.N,GPIO2*%
X498175166Y-155177270D03*
%TO.N,GPIO1*%
X495635166Y-155177270D03*
%TO.N,Net-(J2-Pin_4)*%
X493095166Y-155177270D03*
%TD*%
D16*
%TO.N,Column 14*%
%TO.C,MX66*%
X367268750Y-200025000D03*
%TO.N,Net-(D66-A)*%
X360918750Y-202565000D03*
%TD*%
%TO.N,Column 6*%
%TO.C,MX95*%
X202962500Y-228600000D03*
%TO.N,Net-(D95-A)*%
X196612500Y-231140000D03*
%TD*%
%TO.N,Column 16*%
%TO.C,MX14*%
X412512500Y-123825000D03*
%TO.N,Net-(D14-A)*%
X406162500Y-126365000D03*
%TD*%
%TO.N,Column 12*%
%TO.C,MX85*%
X326787500Y-209550000D03*
%TO.N,Net-(D85-A)*%
X320437500Y-212090000D03*
%TD*%
%TO.N,Column 10*%
%TO.C,MX99*%
X279162500Y-228600000D03*
%TO.N,Net-(D99-A)*%
X272812500Y-231140000D03*
%TD*%
%TO.N,Column 12*%
%TO.C,MX113*%
X319643750Y-247650000D03*
%TO.N,Net-(D113-A)*%
X313293750Y-250190000D03*
%TD*%
%TO.N,Column 9*%
%TO.C,MX61*%
X264875000Y-190500000D03*
%TO.N,Net-(D61-A)*%
X258525000Y-193040000D03*
%TD*%
%TO.N,Column 3*%
%TO.C,MX1*%
X141050000Y-123825000D03*
%TO.N,Net-(D1-A)*%
X134700000Y-126365000D03*
%TD*%
%TO.N,Column 18*%
%TO.C,MX49*%
X455375000Y-171450000D03*
%TO.N,Net-(D49-A)*%
X449025000Y-173990000D03*
%TD*%
%TO.N,Column 13*%
%TO.C,MX44*%
X331550000Y-171450000D03*
%TO.N,Net-(D44-A)*%
X325200000Y-173990000D03*
%TD*%
%TO.N,Column 15*%
%TO.C,MX116*%
X393462500Y-247650000D03*
%TO.N,Net-(D116-A)*%
X387112500Y-250190000D03*
%TD*%
D17*
%TO.N,GND*%
%TO.C,H7*%
X294415166Y-204177270D03*
%TD*%
D16*
%TO.N,Column 5*%
%TO.C,MX19*%
X179150000Y-142875000D03*
%TO.N,Net-(D19-A)*%
X172800000Y-145415000D03*
%TD*%
%TO.N,Column 12*%
%TO.C,MX10*%
X331550000Y-123825000D03*
%TO.N,Net-(D10-A)*%
X325200000Y-126365000D03*
%TD*%
%TO.N,Column 2*%
%TO.C,MX75*%
X136287500Y-209550000D03*
%TO.N,Net-(D75-A)*%
X129937500Y-212090000D03*
%TD*%
%TO.N,Column 14*%
%TO.C,MX12*%
X369650000Y-123825000D03*
%TO.N,Net-(D12-A)*%
X363300000Y-126365000D03*
%TD*%
%TO.N,Column 6*%
%TO.C,MX37*%
X198200000Y-171450000D03*
%TO.N,Net-(D37-A)*%
X191850000Y-173990000D03*
%TD*%
%TO.N,Column 7*%
%TO.C,MX96*%
X222012500Y-228600000D03*
%TO.N,Net-(D96-A)*%
X215662500Y-231140000D03*
%TD*%
%TO.N,Column 3*%
%TO.C,MX76*%
X155337500Y-209550000D03*
%TO.N,Net-(D76-A)*%
X148987500Y-212090000D03*
%TD*%
D17*
%TO.N,GND*%
%TO.C,H10*%
X175415166Y-181177270D03*
%TD*%
D16*
%TO.N,Column 5*%
%TO.C,MX57*%
X188675000Y-190500000D03*
%TO.N,Net-(D57-A)*%
X182325000Y-193040000D03*
%TD*%
%TO.N,Column 17*%
%TO.C,MX48*%
X431562500Y-171450000D03*
%TO.N,Net-(D48-A)*%
X425212500Y-173990000D03*
%TD*%
%TO.N,Column 21*%
%TO.C,MX73*%
X512525000Y-200025000D03*
%TO.N,Net-(D73-A)*%
X506175000Y-202565000D03*
%TD*%
%TO.N,Column 20*%
%TO.C,MX106*%
X493475000Y-228600000D03*
%TO.N,Net-(D106-A)*%
X487125000Y-231140000D03*
%TD*%
%TO.N,Column 3*%
%TO.C,MX92*%
X145812500Y-228600000D03*
%TO.N,Net-(D92-A)*%
X139462500Y-231140000D03*
%TD*%
%TO.N,Column 20*%
%TO.C,MX89*%
X493475000Y-209550000D03*
%TO.N,Net-(D89-A)*%
X487125000Y-212090000D03*
%TD*%
%TO.N,Column 2*%
%TO.C,MX109*%
X129143750Y-247650000D03*
%TO.N,Net-(D109-A)*%
X122793750Y-250190000D03*
%TD*%
%TO.N,Column 10*%
%TO.C,MX24*%
X283925000Y-142875000D03*
%TO.N,Net-(D24-A)*%
X277575000Y-145415000D03*
%TD*%
%TO.N,Column 3*%
%TO.C,MX110*%
X152956250Y-247650000D03*
%TO.N,Net-(D110-A)*%
X146606250Y-250190000D03*
%TD*%
%TO.N,Column 3*%
%TO.C,MX34*%
X141050000Y-171450000D03*
%TO.N,Net-(D34-A)*%
X134700000Y-173990000D03*
%TD*%
%TO.N,Column 7*%
%TO.C,MX5*%
X226775000Y-123825000D03*
%TO.N,Net-(D5-A)*%
X220425000Y-126365000D03*
%TD*%
%TO.N,Column 17*%
%TO.C,MX31*%
X431610176Y-142875000D03*
%TO.N,Net-(D31-A)*%
X425260176Y-145415000D03*
%TD*%
D17*
%TO.N,GND*%
%TO.C,H8*%
X208415166Y-142177270D03*
%TD*%
D16*
%TO.N,Column 9*%
%TO.C,MX40*%
X255350000Y-171450000D03*
%TO.N,Net-(D40-A)*%
X249000000Y-173990000D03*
%TD*%
%TO.N,Column 9*%
%TO.C,MX82*%
X269637500Y-209550000D03*
%TO.N,Net-(D82-A)*%
X263287500Y-212090000D03*
%TD*%
%TO.N,Column 6*%
%TO.C,MX79*%
X212487500Y-209550000D03*
%TO.N,Net-(D79-A)*%
X206137500Y-212090000D03*
%TD*%
%TO.N,Column 3*%
%TO.C,MX55*%
X150575000Y-190500000D03*
%TO.N,Net-(D55-A)*%
X144225000Y-193040000D03*
%TD*%
%TO.N,Column 4*%
%TO.C,MX56*%
X169625000Y-190500000D03*
%TO.N,Net-(D56-A)*%
X163275000Y-193040000D03*
%TD*%
D17*
%TO.N,GND*%
%TO.C,H4*%
X506415166Y-131177270D03*
%TD*%
D16*
%TO.N,Column 15*%
%TO.C,MX13*%
X393462500Y-123825000D03*
%TO.N,Net-(D13-A)*%
X387112500Y-126365000D03*
%TD*%
%TO.N,Column 19*%
%TO.C,MX71*%
X474425000Y-190500000D03*
%TO.N,Net-(D71-A)*%
X468075000Y-193040000D03*
%TD*%
D17*
%TO.N,GND*%
%TO.C,H2*%
X118415166Y-128177270D03*
%TD*%
D16*
%TO.N,Column 13*%
%TO.C,MX65*%
X341075000Y-190500000D03*
%TO.N,Net-(D65-A)*%
X334725000Y-193040000D03*
%TD*%
%TO.N,Column 1*%
%TO.C,MX90*%
X105331250Y-228600000D03*
%TO.N,Net-(D90-A)*%
X98981250Y-231140000D03*
%TD*%
%TO.N,Column 20*%
%TO.C,MX120*%
X493475000Y-247650000D03*
%TO.N,Net-(D120-A)*%
X487125000Y-250190000D03*
%TD*%
D20*
%TO.N,GND*%
%TO.C,U1*%
X482305000Y-127865000D03*
X483705000Y-127865000D03*
X481605000Y-127165000D03*
X483005000Y-127165000D03*
X484405000Y-127165000D03*
X482305000Y-126465000D03*
X483705000Y-126465000D03*
X481605000Y-125765000D03*
X483005000Y-125765000D03*
X484405000Y-125765000D03*
X482305000Y-125065000D03*
X483705000Y-125065000D03*
%TD*%
D16*
%TO.N,Column 13*%
%TO.C,MX11*%
X350600000Y-123825000D03*
%TO.N,Net-(D11-A)*%
X344250000Y-126365000D03*
%TD*%
D17*
%TO.N,GND*%
%TO.C,H11*%
X378415166Y-142177270D03*
%TD*%
%TO.N,GND*%
%TO.C,H12*%
X251415166Y-181177270D03*
%TD*%
D16*
%TO.N,Column 4*%
%TO.C,MX2*%
X160100000Y-123825000D03*
%TO.N,Net-(D2-A)*%
X153750000Y-126365000D03*
%TD*%
%TO.N,Column 4*%
%TO.C,MX93*%
X164862500Y-228600000D03*
%TO.N,Net-(D93-A)*%
X158512500Y-231140000D03*
%TD*%
%TO.N,Column 7*%
%TO.C,MX59*%
X226775000Y-190500000D03*
%TO.N,Net-(D59-A)*%
X220425000Y-193040000D03*
%TD*%
%TO.N,Column 8*%
%TO.C,MX39*%
X236300000Y-171450000D03*
%TO.N,Net-(D39-A)*%
X229950000Y-173990000D03*
%TD*%
%TO.N,Column 4*%
%TO.C,MX77*%
X174387500Y-209550000D03*
%TO.N,Net-(D77-A)*%
X168037500Y-212090000D03*
%TD*%
D17*
%TO.N,GND*%
%TO.C,H3*%
X509414200Y-254178000D03*
%TD*%
D16*
%TO.N,Column 4*%
%TO.C,MX18*%
X160100000Y-142875000D03*
%TO.N,Net-(D18-A)*%
X153750000Y-145415000D03*
%TD*%
%TO.N,Column 3*%
%TO.C,MX17*%
X141050000Y-142875000D03*
%TO.N,Net-(D17-A)*%
X134700000Y-145415000D03*
%TD*%
%TO.N,Column 19*%
%TO.C,MX50*%
X474425000Y-171450000D03*
%TO.N,Net-(D50-A)*%
X468075000Y-173990000D03*
%TD*%
%TO.N,Column 10*%
%TO.C,MX41*%
X274400000Y-171450000D03*
%TO.N,Net-(D41-A)*%
X268050000Y-173990000D03*
%TD*%
%TO.N,Column 16*%
%TO.C,MX103*%
X412512500Y-228600000D03*
%TO.N,Net-(D103-A)*%
X406162500Y-231140000D03*
%TD*%
%TO.N,Column 5*%
%TO.C,MX78*%
X193437500Y-209550000D03*
%TO.N,Net-(D78-A)*%
X187087500Y-212090000D03*
%TD*%
%TO.N,Column 18*%
%TO.C,MX70*%
X455375000Y-190500000D03*
%TO.N,Net-(D70-A)*%
X449025000Y-193040000D03*
%TD*%
%TO.N,Column 12*%
%TO.C,MX43*%
X312500000Y-171450000D03*
%TO.N,Net-(D43-A)*%
X306150000Y-173990000D03*
%TD*%
%TO.N,Column 9*%
%TO.C,MX98*%
X260112500Y-228600000D03*
%TO.N,Net-(D98-A)*%
X253762500Y-231140000D03*
%TD*%
D17*
%TO.N,GND*%
%TO.C,H9*%
X119415166Y-207177270D03*
%TD*%
D16*
%TO.N,Column 18*%
%TO.C,MX104*%
X455375000Y-228600000D03*
%TO.N,Net-(D104-A)*%
X449025000Y-231140000D03*
%TD*%
%TO.N,Column 11*%
%TO.C,MX100*%
X298212500Y-228600000D03*
%TO.N,Net-(D100-A)*%
X291862500Y-231140000D03*
%TD*%
%TO.N,Column 21*%
%TO.C,MX52*%
X512525000Y-171450000D03*
%TO.N,Net-(D52-A)*%
X506175000Y-173990000D03*
%TD*%
%TO.N,Column 20*%
%TO.C,MX72*%
X493475000Y-190500000D03*
%TO.N,Net-(D72-A)*%
X487125000Y-193040000D03*
%TD*%
%TO.N,Column 11*%
%TO.C,MX9*%
X312500000Y-123825000D03*
%TO.N,Net-(D9-A)*%
X306150000Y-126365000D03*
%TD*%
%TO.N,Column 5*%
%TO.C,MX94*%
X183912500Y-228600000D03*
%TO.N,Net-(D94-A)*%
X177562500Y-231140000D03*
%TD*%
%TO.N,Column 12*%
%TO.C,MX26*%
X331550000Y-142875000D03*
%TO.N,Net-(D26-A)*%
X325200000Y-145415000D03*
%TD*%
%TO.N,Column 8*%
%TO.C,MX97*%
X241062500Y-228600000D03*
%TO.N,Net-(D97-A)*%
X234712500Y-231140000D03*
%TD*%
%TO.N,Column 9*%
%TO.C,MX7*%
X264875000Y-123825000D03*
%TO.N,Net-(D7-A)*%
X258525000Y-126365000D03*
%TD*%
%TO.N,Column 20*%
%TO.C,MX51*%
X493475000Y-171450000D03*
%TO.N,Net-(D51-A)*%
X487125000Y-173990000D03*
%TD*%
%TO.N,Column 19*%
%TO.C,MX88*%
X474425000Y-209550000D03*
%TO.N,Net-(D88-A)*%
X468075000Y-212090000D03*
%TD*%
%TO.N,Column 4*%
%TO.C,MX35*%
X160100000Y-171450000D03*
%TO.N,Net-(D35-A)*%
X153750000Y-173990000D03*
%TD*%
%TO.N,Column 1*%
%TO.C,MX16*%
X102950000Y-142875000D03*
%TO.N,Net-(D16-A)*%
X96600000Y-145415000D03*
%TD*%
%TO.N,Column 10*%
%TO.C,MX83*%
X288687500Y-209550000D03*
%TO.N,Net-(D83-A)*%
X282337500Y-212090000D03*
%TD*%
%TO.N,Column 5*%
%TO.C,MX3*%
X179150000Y-123825000D03*
%TO.N,Net-(D3-A)*%
X172800000Y-126365000D03*
%TD*%
D17*
%TO.N,GND*%
%TO.C,H5*%
X386415166Y-208176570D03*
%TD*%
D16*
%TO.N,Column 1*%
%TO.C,MX108*%
X105331250Y-247650000D03*
%TO.N,Net-(D108-A)*%
X98981250Y-250190000D03*
%TD*%
D17*
%TO.N,GND*%
%TO.C,H1*%
X186415166Y-246177270D03*
%TD*%
D16*
%TO.N,Column 15*%
%TO.C,MX67*%
X393462500Y-190500000D03*
%TO.N,Net-(D67-A)*%
X387112500Y-193040000D03*
%TD*%
%TO.N,Column 13*%
%TO.C,MX102*%
X352981250Y-228600000D03*
%TO.N,Net-(D102-A)*%
X346631250Y-231140000D03*
%TD*%
%TO.N,Column 10*%
%TO.C,MX62*%
X283925000Y-190500000D03*
%TO.N,Net-(D62-A)*%
X277575000Y-193040000D03*
%TD*%
D21*
%TO.N,GND*%
%TO.C,J1*%
X289772471Y-111232529D03*
D22*
X289772471Y-115432529D03*
D21*
X298412471Y-111232529D03*
D22*
X298412471Y-115432529D03*
%TD*%
D16*
%TO.N,Column 5*%
%TO.C,MX36*%
X179150000Y-171450000D03*
%TO.N,Net-(D36-A)*%
X172800000Y-173990000D03*
%TD*%
%TO.N,Column 18*%
%TO.C,MX119*%
X464900000Y-247650000D03*
%TO.N,Net-(D119-A)*%
X458550000Y-250190000D03*
%TD*%
%TO.N,Column 1*%
%TO.C,MX32*%
X102950000Y-171450000D03*
%TO.N,Net-(D32-A)*%
X96600000Y-173990000D03*
%TD*%
%TO.N,Column 6*%
%TO.C,MX4*%
X198200000Y-123825000D03*
%TO.N,Net-(D4-A)*%
X191850000Y-126365000D03*
%TD*%
%TO.N,Column 17*%
%TO.C,MX118*%
X431562500Y-247650000D03*
%TO.N,Net-(D118-A)*%
X425212500Y-250190000D03*
%TD*%
%TO.N,Column 8*%
%TO.C,MX81*%
X250587500Y-209550000D03*
%TO.N,Net-(D81-A)*%
X244237500Y-212090000D03*
%TD*%
%TO.N,Column 7*%
%TO.C,MX21*%
X226775000Y-142875000D03*
%TO.N,Net-(D21-A)*%
X220425000Y-145415000D03*
%TD*%
%TO.N,Column 11*%
%TO.C,MX112*%
X295831250Y-247650000D03*
%TO.N,Net-(D112-A)*%
X289481250Y-250190000D03*
%TD*%
%TO.N,Column 17*%
%TO.C,MX69*%
X431562500Y-190500000D03*
%TO.N,Net-(D69-A)*%
X425212500Y-193040000D03*
%TD*%
%TO.N,Column 8*%
%TO.C,MX6*%
X245825000Y-123825000D03*
%TO.N,Net-(D6-A)*%
X239475000Y-126365000D03*
%TD*%
%TO.N,Column 7*%
%TO.C,MX80*%
X231537500Y-209550000D03*
%TO.N,Net-(D80-A)*%
X225187500Y-212090000D03*
%TD*%
%TO.N,Column 15*%
%TO.C,MX46*%
X393462500Y-171450000D03*
%TO.N,Net-(D46-A)*%
X387112500Y-173990000D03*
%TD*%
%TO.N,Column 7*%
%TO.C,MX38*%
X217250000Y-171450000D03*
%TO.N,Net-(D38-A)*%
X210900000Y-173990000D03*
%TD*%
%TO.N,Column 2*%
%TO.C,MX33*%
X122000000Y-171450000D03*
%TO.N,Net-(D33-A)*%
X115650000Y-173990000D03*
%TD*%
%TO.N,Column 7*%
%TO.C,MX111*%
X224393750Y-247650000D03*
%TO.N,Net-(D111-A)*%
X218043750Y-250190000D03*
%TD*%
%TO.N,Column 19*%
%TO.C,MX105*%
X474425000Y-228600000D03*
%TO.N,Net-(D105-A)*%
X468075000Y-231140000D03*
%TD*%
%TO.N,Column 2*%
%TO.C,MX91*%
X126762500Y-228600000D03*
%TO.N,Net-(D91-A)*%
X120412500Y-231140000D03*
%TD*%
%TO.N,Column 10*%
%TO.C,MX8*%
X283925000Y-123825000D03*
%TO.N,Net-(D8-A)*%
X277575000Y-126365000D03*
%TD*%
%TO.N,Column 11*%
%TO.C,MX25*%
X312500000Y-142875000D03*
%TO.N,Net-(D25-A)*%
X306150000Y-145415000D03*
%TD*%
%TO.N,Column 13*%
%TO.C,MX27*%
X350600000Y-142875000D03*
%TO.N,Net-(D27-A)*%
X344250000Y-145415000D03*
%TD*%
%TO.N,Column 16*%
%TO.C,MX47*%
X412512500Y-171450000D03*
%TO.N,Net-(D47-A)*%
X406162500Y-173990000D03*
%TD*%
%TO.N,Column 15*%
%TO.C,MX29*%
X393462500Y-142875000D03*
%TO.N,Net-(D29-A)*%
X387112500Y-145415000D03*
%TD*%
%TO.N,Column 21*%
%TO.C,MX107*%
X512525000Y-238125000D03*
%TO.N,Net-(D107-A)*%
X506175000Y-240665000D03*
%TD*%
D23*
%TO.N,+5V*%
X227353750Y-116852500D03*
X227353750Y-183552500D03*
X413153750Y-164552500D03*
X184453750Y-221652500D03*
X477940000Y-151265000D03*
X313053750Y-135952500D03*
X232053750Y-202652500D03*
X466459403Y-151351708D03*
X296440000Y-240765000D03*
X105953125Y-240665000D03*
X475053750Y-221652500D03*
X497415166Y-149177270D03*
X236853750Y-164552500D03*
X179653750Y-135952500D03*
X327353750Y-202652500D03*
X193953750Y-202652500D03*
X455953750Y-202652500D03*
X394053750Y-240752500D03*
X265453750Y-183552500D03*
X284540000Y-116865000D03*
X494053750Y-202652500D03*
X394053750Y-183552500D03*
X303553750Y-183552500D03*
X351153750Y-116852500D03*
X224940000Y-240765000D03*
X475053750Y-202652500D03*
X108340000Y-183565000D03*
X179753750Y-164552500D03*
X432140000Y-135965000D03*
X370240000Y-135965000D03*
X255953750Y-164552500D03*
X513140000Y-164565000D03*
X313153750Y-164552500D03*
X475053750Y-164452500D03*
X293340000Y-126965000D03*
X153585000Y-240710000D03*
X105953125Y-221665000D03*
X198840000Y-116865000D03*
X351153750Y-135952500D03*
X394053750Y-164552500D03*
X494053750Y-183552500D03*
X432153750Y-240752500D03*
X174953750Y-202652500D03*
X160653750Y-164552500D03*
X293340000Y-127765000D03*
X455953750Y-221652500D03*
X170153750Y-183552500D03*
X322653750Y-183552500D03*
X289253750Y-202652500D03*
X227353750Y-135952500D03*
X274953750Y-164552500D03*
X360740000Y-164465000D03*
X432153750Y-164552500D03*
X494053750Y-221652500D03*
X141653750Y-116852500D03*
X222553750Y-221652500D03*
X201940000Y-157265000D03*
X160753750Y-116852500D03*
X313053750Y-116852500D03*
X465540000Y-240765000D03*
X141553750Y-135952500D03*
X367840000Y-240765000D03*
X455953750Y-164452500D03*
X246353750Y-183552500D03*
X332153750Y-116852500D03*
X494140000Y-240765000D03*
X294053750Y-164552500D03*
X165453125Y-221665000D03*
X203553750Y-221652500D03*
X475840000Y-151265000D03*
X284453750Y-183552500D03*
X370240000Y-116865000D03*
X344740000Y-154865000D03*
X179753750Y-116852500D03*
X413153750Y-183552500D03*
X129753125Y-240665000D03*
X217853750Y-164552500D03*
X270253750Y-202652500D03*
X246453750Y-116852500D03*
X455953750Y-183552500D03*
X208353750Y-183552500D03*
X279653750Y-221652500D03*
X198853750Y-164552500D03*
X513140000Y-231165000D03*
X251153750Y-202652500D03*
X413140000Y-221665000D03*
X198840000Y-135965000D03*
X189253750Y-183552500D03*
X151153750Y-183552500D03*
X494053750Y-164452500D03*
X344040000Y-240765000D03*
X346353750Y-202652500D03*
X308253750Y-202652500D03*
X367840000Y-193065000D03*
X341653750Y-183552500D03*
X146453125Y-221665000D03*
X292640000Y-125165000D03*
X320240000Y-240765000D03*
X284540000Y-135965000D03*
X265453750Y-116852500D03*
X292640000Y-125965000D03*
X103540000Y-164565000D03*
X260653750Y-221652500D03*
X497415166Y-150177270D03*
X127353125Y-221665000D03*
X136853750Y-202652500D03*
X413053750Y-135952500D03*
X103540000Y-135965000D03*
X265453750Y-135952500D03*
X246453750Y-135952500D03*
X505140000Y-182065000D03*
X393953750Y-116852500D03*
X210907547Y-159465000D03*
X432153750Y-183552500D03*
X332153750Y-164552500D03*
X353540000Y-221665000D03*
X497415166Y-151177270D03*
X393953750Y-135952500D03*
X160653750Y-135952500D03*
X413153750Y-240752500D03*
X213053750Y-202652500D03*
X352996983Y-158886995D03*
X413053750Y-116852500D03*
X478940000Y-151265000D03*
X110740000Y-202565000D03*
X132053750Y-183552500D03*
X475053750Y-183552500D03*
X293340000Y-125965000D03*
X122553750Y-164552500D03*
X505540000Y-154265000D03*
X155953750Y-202652500D03*
X241553750Y-221652500D03*
X432140000Y-116852500D03*
X513140000Y-193065000D03*
X476940000Y-151265000D03*
X317853750Y-221652500D03*
X332153750Y-135952500D03*
X298753750Y-221652500D03*
X141653750Y-164552500D03*
%TO.N,+3.3V*%
X468320466Y-145377270D03*
X118427500Y-122177500D03*
X486362516Y-145524620D03*
%TO.N,EN*%
X488140000Y-135265000D03*
X468540000Y-133665000D03*
%TO.N,RE_S*%
X113540000Y-117265000D03*
X479305487Y-114734336D03*
%TO.N,RE_A*%
X108940000Y-121265000D03*
X481858341Y-114715214D03*
%TO.N,RE_B*%
X480550047Y-114748679D03*
X111772500Y-118785000D03*
%TO.N,Row 1*%
X441740000Y-128265000D03*
X471295000Y-123065000D03*
%TO.N,Row 2*%
X471272284Y-124325512D03*
X440140000Y-144665000D03*
%TO.N,Row 3*%
X471253948Y-125597284D03*
X439940000Y-167465000D03*
%TO.N,Row 4*%
X471253948Y-126859370D03*
X439727500Y-186277500D03*
%TO.N,Row 5*%
X439140000Y-204265000D03*
X476763830Y-135274044D03*
%TO.N,Row 6*%
X440540000Y-224665000D03*
X478072124Y-135240579D03*
%TO.N,Row 7*%
X442540000Y-243065000D03*
X479316684Y-135254922D03*
%TO.N,POT 1*%
X471279022Y-128162761D03*
X451415166Y-122377270D03*
%TO.N,POT 2*%
X451415166Y-139377270D03*
X471295000Y-129465000D03*
%TO.N,Net-(D1-K)*%
X316958528Y-130602736D03*
X417078352Y-130586824D03*
X269333528Y-130602736D03*
X250327352Y-130586824D03*
X183840000Y-130586824D03*
X436890000Y-130586824D03*
X164602352Y-130586824D03*
X397984528Y-130602736D03*
X297952352Y-130586824D03*
X126502352Y-130531000D03*
X336052352Y-130543000D03*
X145508528Y-130546912D03*
X212227352Y-130586824D03*
X355058528Y-130586824D03*
X378978352Y-130586824D03*
X231233528Y-130602736D03*
%TO.N,Net-(D16-K)*%
X417122176Y-149648824D03*
X336096176Y-149521824D03*
X97590176Y-149720000D03*
X250371176Y-149648824D03*
X164646176Y-149648824D03*
X297996176Y-149648824D03*
X317002352Y-149664736D03*
X436890000Y-149265000D03*
X355102352Y-149537736D03*
X183652352Y-149664736D03*
X212271176Y-149648824D03*
X126546176Y-149593000D03*
X269377352Y-149664736D03*
X398028352Y-149664736D03*
X231277352Y-149664736D03*
X145552352Y-149608912D03*
X379022176Y-149648824D03*
%TO.N,Net-(D32-K)*%
X297908528Y-178100736D03*
X97606088Y-177576824D03*
X479040000Y-178165000D03*
X145508528Y-178100736D03*
X459833528Y-178100736D03*
X259808528Y-178044912D03*
X354940000Y-180465000D03*
X398028352Y-178165000D03*
X278902352Y-178084824D03*
X126502352Y-178084824D03*
X240802352Y-178029000D03*
X440840000Y-178165000D03*
X497869264Y-178165000D03*
X317046176Y-178168000D03*
X164602352Y-178029000D03*
X417078352Y-178084824D03*
X379040000Y-178165000D03*
X202702352Y-178084824D03*
X107408528Y-178044912D03*
X221708528Y-178100736D03*
X183608528Y-178044912D03*
%TO.N,Net-(D53-K)*%
X193260528Y-197221912D03*
X250540000Y-197221912D03*
X212398176Y-197218000D03*
X353920000Y-196948088D03*
X288471176Y-197218000D03*
X116933528Y-197221912D03*
X478971176Y-197146824D03*
X269377352Y-197178088D03*
X326527352Y-197206000D03*
X102234176Y-196765000D03*
X155077352Y-197233912D03*
X231404352Y-197233912D03*
X417122176Y-197146824D03*
X398028352Y-197162736D03*
X136071176Y-197218000D03*
X307477352Y-197233912D03*
X459877352Y-197162736D03*
X379022176Y-197146824D03*
X440871176Y-197146824D03*
X498065000Y-204159176D03*
X174127352Y-197206000D03*
%TO.N,Net-(D74-K)*%
X217053352Y-216156912D03*
X331353352Y-216156912D03*
X140770176Y-216141000D03*
X459833528Y-216327736D03*
X274203352Y-216156912D03*
X111830088Y-216184824D03*
X440827352Y-216311824D03*
X293253352Y-216101088D03*
X312347176Y-216141000D03*
X121676352Y-216101088D03*
X255197176Y-216141000D03*
X236103352Y-216101088D03*
X478927352Y-216311824D03*
X178953352Y-216101088D03*
X198047176Y-216141000D03*
X159776352Y-216156912D03*
%TO.N,Net-(D100-K)*%
X100130176Y-234937000D03*
X167690000Y-234065000D03*
X398028352Y-235179000D03*
X131400000Y-235234824D03*
X150400000Y-235234824D03*
X207528352Y-235234824D03*
X264722176Y-235246824D03*
X346940000Y-237265000D03*
X478971176Y-235206912D03*
X302822176Y-235191000D03*
X245628352Y-235234824D03*
X498993352Y-238068176D03*
X283728352Y-235234824D03*
X188478352Y-235290648D03*
X226578352Y-235290648D03*
X440871176Y-235373824D03*
X458290000Y-233965000D03*
X112278352Y-235234824D03*
%TO.N,Net-(D108-K)*%
X478971176Y-254368000D03*
X328984176Y-254368000D03*
X444740000Y-251065000D03*
X207440000Y-256600000D03*
X281359176Y-254368000D03*
X305108176Y-254368000D03*
X138484176Y-254368000D03*
X352733176Y-254368000D03*
X114691352Y-254383912D03*
X100440000Y-254368000D03*
X457000000Y-256600000D03*
X378895176Y-254368000D03*
X416995176Y-254368000D03*
X397945176Y-254368000D03*
%TO.N,Net-(J1-CC2)*%
X294340000Y-114265000D03*
X285390000Y-110265000D03*
%TO.N,Net-(J1-CC1)*%
X293394073Y-114348363D03*
X285390000Y-112265000D03*
%TO.N,Net-(LED1-DIN)*%
X160640000Y-115415000D03*
X132690000Y-116915000D03*
%TO.N,Net-(LED2-DIN)*%
X179798750Y-115335000D03*
X151848750Y-116835000D03*
%TO.N,Net-(LED3-DIN)*%
X170790000Y-116915000D03*
X198740000Y-115415000D03*
%TO.N,Net-(LED4-DIN)*%
X227454983Y-115353708D03*
X190093750Y-116835000D03*
%TO.N,Net-(LED5-DIN)*%
X246302500Y-115395000D03*
X218352500Y-116895000D03*
%TO.N,Net-(LED6-DIN)*%
X237548750Y-116835000D03*
X265498750Y-115335000D03*
%TO.N,Net-(LED7-DIN)*%
X256490000Y-116915000D03*
X284440000Y-115415000D03*
%TO.N,Net-(LED8-DIN)*%
X313140000Y-115465000D03*
X275940000Y-116865000D03*
%TO.N,Net-(LED10-DOUT)*%
X332102500Y-115395000D03*
X305940000Y-118265000D03*
%TO.N,Net-(LED10-DIN)*%
X323298750Y-116835000D03*
X351248750Y-115335000D03*
%TO.N,Net-(LED11-DIN)*%
X342240000Y-116915000D03*
X370190000Y-115415000D03*
%TO.N,Net-(LED12-DIN)*%
X361540000Y-116865000D03*
X394102500Y-115395000D03*
%TO.N,Net-(LED13-DIN)*%
X413198750Y-115335000D03*
X385248750Y-116835000D03*
%TO.N,Net-(LED14-DIN)*%
X404190000Y-116915000D03*
X432140000Y-115415000D03*
%TO.N,Net-(LED15-DIN)*%
X423140000Y-117265000D03*
X430390000Y-132515000D03*
%TO.N,Net-(LED16-DOUT)*%
X103590000Y-134415000D03*
X132577500Y-135902500D03*
%TO.N,Net-(LED16-DIN)*%
X94390000Y-135915000D03*
X103552500Y-163095000D03*
%TO.N,Net-(LED17-DOUT)*%
X142217500Y-134495000D03*
X151717500Y-135890000D03*
%TO.N,Net-(LED18-DOUT)*%
X161217500Y-134495000D03*
X170717500Y-135890000D03*
%TO.N,Net-(LED19-DOUT)*%
X180215000Y-134495000D03*
X189715000Y-135890000D03*
%TO.N,Net-(LED20-DOUT)*%
X199340000Y-134465000D03*
X218340000Y-135915000D03*
%TO.N,Net-(LED21-DOUT)*%
X237417500Y-135890000D03*
X227917500Y-134495000D03*
%TO.N,Net-(LED22-DOUT)*%
X246967500Y-134495000D03*
X256467500Y-135890000D03*
%TO.N,Net-(LED23-DOUT)*%
X266017500Y-134495000D03*
X275517500Y-135890000D03*
%TO.N,Net-(LED24-DOUT)*%
X304070000Y-135945000D03*
X285070000Y-134495000D03*
%TO.N,Net-(LED25-DOUT)*%
X323117500Y-135840000D03*
X313617500Y-134445000D03*
%TO.N,Net-(LED26-DOUT)*%
X332717500Y-134495000D03*
X342217500Y-135890000D03*
%TO.N,Net-(LED27-DOUT)*%
X351717500Y-134495000D03*
X361217500Y-135890000D03*
%TO.N,Net-(LED28-DOUT)*%
X384840000Y-135915000D03*
X370240000Y-134465000D03*
%TO.N,Net-(LED29-DOUT)*%
X394517500Y-134495000D03*
X404017500Y-135890000D03*
%TO.N,Net-(LED30-DOUT)*%
X413667500Y-134495000D03*
X423167500Y-135890000D03*
%TO.N,Net-(LED32-DIN)*%
X94740000Y-164515000D03*
X122690000Y-163015000D03*
%TO.N,Net-(LED33-DIN)*%
X141690000Y-163015000D03*
X113740000Y-164515000D03*
%TO.N,Net-(LED34-DIN)*%
X132848750Y-164435000D03*
X160798750Y-162935000D03*
%TO.N,Net-(LED35-DIN)*%
X179740000Y-163015000D03*
X151790000Y-164515000D03*
%TO.N,Net-(LED36-DIN)*%
X198848750Y-162960000D03*
X170898750Y-164460000D03*
%TO.N,Net-(LED37-DIN)*%
X189840000Y-164540000D03*
X217790000Y-163040000D03*
%TO.N,Net-(LED38-DIN)*%
X208998750Y-164410000D03*
X236948750Y-162910000D03*
%TO.N,Net-(LED39-DIN)*%
X255890000Y-162990000D03*
X227940000Y-164490000D03*
%TO.N,Net-(LED40-DIN)*%
X274998750Y-162910000D03*
X247048750Y-164410000D03*
%TO.N,Net-(LED41-DIN)*%
X265990000Y-164490000D03*
X293940000Y-162990000D03*
%TO.N,Net-(LED42-DIN)*%
X313148750Y-162960000D03*
X285198750Y-164460000D03*
%TO.N,Net-(LED43-DIN)*%
X304140000Y-164540000D03*
X332090000Y-163040000D03*
%TO.N,Net-(LED44-DIN)*%
X360740000Y-163015000D03*
X323040000Y-164465000D03*
%TO.N,Net-(LED45-DIN)*%
X393971448Y-163030685D03*
X351740000Y-164510000D03*
%TO.N,Net-(LED46-DIN)*%
X413148750Y-162960000D03*
X385198750Y-164460000D03*
%TO.N,Net-(LED47-DIN)*%
X404140000Y-164540000D03*
X432090000Y-163040000D03*
%TO.N,Net-(LED48-DIN)*%
X456002500Y-162970000D03*
X423252500Y-164470000D03*
%TO.N,Net-(LED49-DIN)*%
X447098750Y-164460000D03*
X475048750Y-162960000D03*
%TO.N,Net-(LED50-DIN)*%
X466040000Y-164540000D03*
X493990000Y-163040000D03*
%TO.N,Net-(LED51-DIN)*%
X513140000Y-162815000D03*
X485190000Y-164315000D03*
%TO.N,Net-(LED53-DOUT)*%
X108440000Y-182065000D03*
X101890000Y-202615000D03*
%TO.N,Net-(LED53-DIN)*%
X98940000Y-183565000D03*
X132090000Y-182015000D03*
%TO.N,Net-(LED54-DIN)*%
X151090000Y-182090000D03*
X123140000Y-183590000D03*
%TO.N,Net-(LED55-DIN)*%
X170248750Y-182010000D03*
X142298750Y-183510000D03*
%TO.N,Net-(LED56-DIN)*%
X161240000Y-183590000D03*
X189190000Y-182090000D03*
%TO.N,Net-(LED57-DIN)*%
X180398750Y-183510000D03*
X208348750Y-182010000D03*
%TO.N,Net-(LED58-DIN)*%
X227290000Y-182090000D03*
X199340000Y-183590000D03*
%TO.N,Net-(LED59-DIN)*%
X218498750Y-183460000D03*
X246448750Y-181960000D03*
%TO.N,Net-(LED60-DIN)*%
X237440000Y-183540000D03*
X265390000Y-182040000D03*
%TO.N,Net-(LED61-DIN)*%
X284548750Y-182010000D03*
X256598750Y-183510000D03*
%TO.N,Net-(LED62-DIN)*%
X303490000Y-182090000D03*
X275540000Y-183590000D03*
%TO.N,Net-(LED63-DIN)*%
X294698750Y-183510000D03*
X322648750Y-182010000D03*
%TO.N,Net-(LED64-DIN)*%
X341590000Y-182090000D03*
X313640000Y-183590000D03*
%TO.N,Net-(LED65-DIN)*%
X332740000Y-183665000D03*
X366183750Y-190308750D03*
%TO.N,Net-(LED66-DIN)*%
X394002500Y-182095000D03*
X358740000Y-193065000D03*
X367140000Y-189065000D03*
%TO.N,Net-(LED67-DIN)*%
X385198750Y-183510000D03*
X413148750Y-182010000D03*
%TO.N,Net-(LED68-DIN)*%
X404140000Y-183590000D03*
X432090000Y-182090000D03*
%TO.N,Net-(LED69-DIN)*%
X423140000Y-183515000D03*
X455890000Y-182015000D03*
%TO.N,Net-(LED70-DIN)*%
X475048750Y-182010000D03*
X447098750Y-183510000D03*
%TO.N,Net-(LED71-DIN)*%
X493990000Y-182090000D03*
X466040000Y-183590000D03*
%TO.N,Net-(LED72-DIN)*%
X495890000Y-186015000D03*
X511140000Y-189515000D03*
X484890000Y-183765000D03*
%TO.N,Net-(LED74-DOUT)*%
X127970000Y-202590000D03*
X110790000Y-201195000D03*
%TO.N,Net-(LED75-DOUT)*%
X137420000Y-201050000D03*
X146920000Y-202445000D03*
%TO.N,Net-(LED76-DOUT)*%
X156520000Y-201100000D03*
X166020000Y-202495000D03*
%TO.N,Net-(LED77-DOUT)*%
X175520000Y-201100000D03*
X185020000Y-202495000D03*
%TO.N,Net-(LED78-DOUT)*%
X204120000Y-202545000D03*
X194620000Y-201150000D03*
%TO.N,Net-(LED79-DOUT)*%
X213520000Y-201100000D03*
X223020000Y-202495000D03*
%TO.N,Net-(LED80-DOUT)*%
X242120000Y-202545000D03*
X232620000Y-201150000D03*
%TO.N,Net-(LED81-DOUT)*%
X261120000Y-202545000D03*
X251620000Y-201150000D03*
%TO.N,Net-(LED82-DOUT)*%
X280220000Y-202595000D03*
X270720000Y-201200000D03*
%TO.N,Net-(LED83-DOUT)*%
X299332515Y-202584187D03*
X289832515Y-201189187D03*
%TO.N,Net-(LED84-DOUT)*%
X318270000Y-202545000D03*
X308770000Y-201150000D03*
%TO.N,Net-(LED85-DOUT)*%
X327870000Y-201200000D03*
X337370000Y-202595000D03*
%TO.N,Net-(LED86-DOUT)*%
X346540000Y-201065000D03*
X447120462Y-202608273D03*
%TO.N,Net-(LED87-DOUT)*%
X465980000Y-202545000D03*
X456480000Y-201150000D03*
%TO.N,Net-(LED88-DOUT)*%
X485080000Y-202495000D03*
X475580000Y-201100000D03*
%TO.N,Net-(LED107-DIN)*%
X499765000Y-201140000D03*
X504390000Y-231015000D03*
%TO.N,Net-(LED90-DIN)*%
X127290000Y-220215000D03*
X97040000Y-221665000D03*
%TO.N,Net-(LED108-DIN)*%
X97140000Y-240665000D03*
X106040000Y-220165000D03*
%TO.N,Net-(LED91-DIN)*%
X118498750Y-221610000D03*
X146448750Y-220110000D03*
%TO.N,Net-(LED92-DIN)*%
X165390000Y-220190000D03*
X137440000Y-221690000D03*
%TO.N,Net-(LED93-DIN)*%
X184548750Y-220110000D03*
X156598750Y-221610000D03*
%TO.N,Net-(LED94-DIN)*%
X175540000Y-221690000D03*
X203490000Y-220190000D03*
%TO.N,Net-(LED95-DIN)*%
X222598750Y-220110000D03*
X194648750Y-221610000D03*
%TO.N,Net-(LED96-DIN)*%
X213590000Y-221690000D03*
X241540000Y-220190000D03*
%TO.N,Net-(LED97-DIN)*%
X232798750Y-221610000D03*
X260748750Y-220110000D03*
%TO.N,Net-(LED98-DIN)*%
X279690000Y-220190000D03*
X251740000Y-221690000D03*
%TO.N,Net-(LED100-DOUT)*%
X298848750Y-220110000D03*
X270898750Y-221610000D03*
%TO.N,Net-(LED100-DIN)*%
X289840000Y-221690000D03*
X317790000Y-220190000D03*
%TO.N,Net-(LED101-DIN)*%
X351890000Y-218515000D03*
X309077500Y-221635000D03*
%TO.N,Net-(LED102-DIN)*%
X346390000Y-223215000D03*
X411390000Y-218465000D03*
%TO.N,Net-(LED103-DIN)*%
X455990000Y-220115000D03*
X405990000Y-223265000D03*
%TO.N,Net-(LED104-DIN)*%
X447098750Y-221610000D03*
X475048750Y-220110000D03*
%TO.N,Net-(LED105-DIN)*%
X466040000Y-221690000D03*
X493990000Y-220190000D03*
%TO.N,Net-(LED106-DIN)*%
X495840000Y-224195000D03*
X511090000Y-227695000D03*
X484840000Y-221945000D03*
%TO.N,Net-(LED108-DOUT)*%
X120690000Y-240715000D03*
X105940000Y-239215000D03*
%TO.N,Net-(LED109-DOUT)*%
X129740000Y-239215000D03*
X144490000Y-240715000D03*
%TO.N,Net-(LED110-DOUT)*%
X215340000Y-240715000D03*
X153590000Y-239165000D03*
%TO.N,Net-(LED111-DOUT)*%
X287190000Y-240715000D03*
X224940000Y-239215000D03*
%TO.N,Net-(LED112-DOUT)*%
X296440000Y-239215000D03*
X311190000Y-240715000D03*
%TO.N,Net-(LED113-DOUT)*%
X320240000Y-239215000D03*
X334990000Y-240715000D03*
%TO.N,Net-(LED114-DOUT)*%
X358890000Y-240715000D03*
X344140000Y-239215000D03*
%TO.N,Net-(LED115-DOUT)*%
X367890000Y-239215000D03*
X384790000Y-240715000D03*
%TO.N,Net-(LED116-DOUT)*%
X404080000Y-240645000D03*
X394580000Y-239250000D03*
%TO.N,Net-(LED117-DOUT)*%
X423130000Y-240645000D03*
X413630000Y-239250000D03*
%TO.N,Net-(LED118-DOUT)*%
X456240000Y-240715000D03*
X432190000Y-239215000D03*
%TO.N,Net-(LED119-DOUT)*%
X465540000Y-239215000D03*
X484240000Y-240715000D03*
%TO.N,Column 3*%
X204540176Y-151176000D03*
X145140000Y-173765000D03*
X157140000Y-245451875D03*
X144340000Y-126451875D03*
X159140000Y-211765000D03*
X154567500Y-192633125D03*
X144640000Y-145365000D03*
X147515000Y-151765000D03*
X144340000Y-140951875D03*
X150140000Y-230468125D03*
%TO.N,Column 4*%
X178567500Y-211765000D03*
X163340000Y-126215000D03*
X205794176Y-151176000D03*
X173567500Y-192633125D03*
X163340000Y-140715000D03*
X164567500Y-173765000D03*
X169140000Y-230468125D03*
X162890000Y-153765000D03*
X163840000Y-145465000D03*
%TO.N,Column 5*%
X183040000Y-145365000D03*
X183140000Y-173633125D03*
X188140000Y-230468125D03*
X182440000Y-126251875D03*
X207080176Y-151176000D03*
X182440000Y-140751875D03*
X192567500Y-192633125D03*
X197567500Y-211633125D03*
%TO.N,Column 6*%
X202340000Y-141151875D03*
X208334176Y-151176000D03*
X202340000Y-145665000D03*
X202567500Y-173633125D03*
X207140000Y-230468125D03*
X202340000Y-126651875D03*
X212067500Y-192633125D03*
X216567500Y-211633125D03*
%TO.N,Column 7*%
X235567500Y-211633125D03*
X229940000Y-145665000D03*
X228640000Y-245451875D03*
X209640000Y-151205000D03*
X231067500Y-192633125D03*
X221567500Y-173633125D03*
X229940000Y-126351875D03*
X229940000Y-140851875D03*
X226140000Y-230468125D03*
%TO.N,Column 8*%
X250067500Y-192633125D03*
X248540000Y-146765000D03*
X249440000Y-140551875D03*
X240567500Y-173633125D03*
X245140000Y-230468125D03*
X254567500Y-211633125D03*
X244129000Y-151176000D03*
X249440000Y-126051875D03*
X210874176Y-151176000D03*
%TO.N,Column 9*%
X268140000Y-126151875D03*
X346625176Y-159665000D03*
X268140000Y-140651875D03*
X268040000Y-145365000D03*
X275840000Y-158865000D03*
X259567500Y-173633125D03*
X273567500Y-211633125D03*
X269067500Y-192633125D03*
X264140000Y-230468125D03*
%TO.N,Column 10*%
X278567500Y-173633125D03*
X287140000Y-126551875D03*
X288067500Y-192633125D03*
X287140000Y-141051875D03*
X280640000Y-151515000D03*
X292567500Y-211633125D03*
X344390000Y-152350000D03*
X283140000Y-230468125D03*
%TO.N,Column 11*%
X297567500Y-173633125D03*
X321011000Y-150736000D03*
X302390000Y-230515000D03*
X316140000Y-145765000D03*
X315740000Y-126351875D03*
X307067500Y-192633125D03*
X300140000Y-245451875D03*
X312067500Y-211633125D03*
X346510176Y-150736000D03*
X315740000Y-140851875D03*
%TO.N,Column 12*%
X323640000Y-245451875D03*
X335140000Y-145365000D03*
X334840000Y-126051875D03*
X316567500Y-173633125D03*
X326070000Y-192598125D03*
X321390000Y-230515000D03*
X334840000Y-140551875D03*
X347780176Y-150736000D03*
X331067500Y-211633125D03*
%TO.N,Column 13*%
X335567500Y-173633125D03*
X347640000Y-245732812D03*
X349165176Y-150765000D03*
X350067500Y-211633125D03*
X356890000Y-230515000D03*
X345070000Y-192598125D03*
X353940000Y-140451875D03*
X353940000Y-125951875D03*
X353440000Y-145665000D03*
%TO.N,Column 14*%
X372940000Y-140651875D03*
X371390000Y-202265000D03*
X350320176Y-150736000D03*
X371640000Y-245451875D03*
X372440000Y-145565000D03*
X364140000Y-173515000D03*
X372940000Y-126151875D03*
%TO.N,Column 15*%
X396240000Y-145965000D03*
X397640000Y-245451875D03*
X397570000Y-173598125D03*
X397570000Y-192598125D03*
X396640000Y-140551875D03*
X351940000Y-150665000D03*
X396640000Y-126051875D03*
%TO.N,Column 16*%
X353240000Y-150665000D03*
X416640000Y-245451875D03*
X416640000Y-230515000D03*
X415740000Y-126251875D03*
X416570000Y-173598125D03*
X416570000Y-192598125D03*
X415740000Y-140751875D03*
X416040000Y-146165000D03*
X411540000Y-150665000D03*
%TO.N,Column 17*%
X434840000Y-126051875D03*
X467140000Y-148265000D03*
X472826414Y-151359845D03*
X435640000Y-146965000D03*
X435640000Y-192515000D03*
X434840000Y-140551875D03*
X435640000Y-173515000D03*
X435640000Y-245451875D03*
%TO.N,Column 1*%
X134540000Y-158765000D03*
X109640000Y-245265000D03*
X111640000Y-192468125D03*
X114140000Y-211265000D03*
X204540000Y-159405000D03*
X107140000Y-144765000D03*
X107140000Y-173265000D03*
X109640000Y-230765000D03*
%TO.N,Column 2*%
X133140000Y-245451875D03*
X126140000Y-173265000D03*
X135640000Y-192765000D03*
X140640000Y-211765000D03*
X126140000Y-165465000D03*
X201640000Y-152795176D03*
X131140000Y-230765000D03*
%TO.N,Column 18*%
X459340000Y-161910000D03*
X459320000Y-173598125D03*
X459390000Y-211515000D03*
X473640000Y-159765000D03*
X459390000Y-230765000D03*
X469140000Y-245451875D03*
X459390000Y-192515000D03*
X459340000Y-160510000D03*
%TO.N,Column 19*%
X478390000Y-192515000D03*
X478320000Y-173598125D03*
X478390000Y-211515000D03*
X478390000Y-230765000D03*
X472820827Y-156461736D03*
%TO.N,Column 20*%
X497460000Y-192485000D03*
X497640000Y-245451875D03*
X497460000Y-230735000D03*
X471539990Y-156265000D03*
X497390000Y-173568125D03*
X497460000Y-211485000D03*
%TO.N,Column 21*%
X516640000Y-235951875D03*
X516390000Y-202265000D03*
X470275000Y-156515000D03*
X516390000Y-173515000D03*
%TO.N,LED Data 1*%
X484415166Y-114177270D03*
X511915166Y-153177270D03*
%TO.N,D+*%
X475340000Y-131865000D03*
X300840000Y-114365000D03*
%TO.N,D-*%
X475365000Y-131065000D03*
X302840000Y-114365000D03*
%TO.N,LED Data 2*%
X512240000Y-181065000D03*
X483415166Y-112677270D03*
%TO.N,Net-(U11-VIN)*%
X294915166Y-112077270D03*
X299540000Y-119715000D03*
X300140000Y-119265000D03*
X294890000Y-113015000D03*
X300115166Y-125377270D03*
X291690166Y-119152270D03*
X299415166Y-125877270D03*
X298562348Y-124963985D03*
X291665166Y-119877270D03*
X299462348Y-124963985D03*
X294140000Y-113015000D03*
X294115166Y-112077270D03*
X298615166Y-125877270D03*
X291665166Y-118427270D03*
X300062348Y-124513985D03*
X291665166Y-117727270D03*
X293115166Y-112077270D03*
X293140000Y-113015000D03*
X298640000Y-119715000D03*
%TO.N,ACCEL_INT1*%
X486940000Y-135265000D03*
X484415166Y-143277270D03*
%TO.N,SPI_CS_ACCEL*%
X482315166Y-140677270D03*
X485631706Y-135298465D03*
%TO.N,Net-(U3-QH')*%
X347902863Y-159665000D03*
X213240000Y-158065000D03*
%TO.N,Net-(U4-QH')*%
X471540000Y-154665000D03*
X355540000Y-157265000D03*
%TO.N,SPI_CLK*%
X467740000Y-151365000D03*
X351700212Y-159694098D03*
X476415166Y-142177270D03*
X481867941Y-135231018D03*
X467640000Y-154375000D03*
X209640000Y-159479000D03*
%TO.N,SPI_MISO*%
X484365000Y-135252500D03*
X480915166Y-140677270D03*
%TO.N,SPI_CS_SR*%
X350440000Y-155765000D03*
X469010692Y-151359845D03*
X208340000Y-159479000D03*
X483110184Y-135214486D03*
%TO.N,SPI_MOSI*%
X205840000Y-156158000D03*
X480624978Y-135221457D03*
X477421448Y-139683552D03*
%TO.N,GPIO2*%
X488415166Y-113677270D03*
%TO.N,GPIO1*%
X489915166Y-114177270D03*
%TD*%
D24*
%TO.N,+3.3V*%
X127915166Y-129377270D02*
X442791609Y-129377270D01*
X120715396Y-122177500D02*
X127915166Y-129377270D01*
X449183718Y-135769379D02*
X449183718Y-144145822D01*
X118427500Y-122177500D02*
X120715396Y-122177500D01*
X442791609Y-129377270D02*
X449183718Y-135769379D01*
X450415166Y-145377270D02*
X468320466Y-145377270D01*
X449183718Y-144145822D02*
X450415166Y-145377270D01*
D25*
%TO.N,EN*%
X488140000Y-133065000D02*
X488140000Y-135265000D01*
X468540000Y-133665000D02*
X469540000Y-132665000D01*
X487740000Y-132665000D02*
X488140000Y-133065000D01*
X469540000Y-132665000D02*
X487740000Y-132665000D01*
%TO.N,POT 1*%
X451415166Y-123340166D02*
X456237761Y-128162761D01*
X451415166Y-122377270D02*
X451415166Y-123340166D01*
X456237761Y-128162761D02*
X471279022Y-128162761D01*
%TO.N,POT 2*%
X451415166Y-136189834D02*
X451415166Y-139377270D01*
X458140000Y-129465000D02*
X451415166Y-136189834D01*
X471295000Y-129465000D02*
X458140000Y-129465000D01*
D26*
%TO.N,Net-(D1-K)*%
X417078352Y-130586824D02*
X436890000Y-130586824D01*
X126518264Y-130546912D02*
X145508528Y-130546912D01*
X164602352Y-130586824D02*
X417078352Y-130586824D01*
X145508528Y-130546912D02*
X164562440Y-130546912D01*
X126502352Y-130531000D02*
X126518264Y-130546912D01*
X164562440Y-130546912D02*
X164602352Y-130586824D01*
%TO.N,Net-(D16-K)*%
X126419176Y-149720000D02*
X126546176Y-149593000D01*
X436640000Y-149515000D02*
X436890000Y-149265000D01*
X436506176Y-149648824D02*
X417122176Y-149648824D01*
X417066352Y-149593000D02*
X417122176Y-149648824D01*
X126546176Y-149593000D02*
X417066352Y-149593000D01*
X436890000Y-149265000D02*
X436506176Y-149648824D01*
X97590176Y-149720000D02*
X126419176Y-149720000D01*
%TO.N,Net-(D32-K)*%
X354940000Y-180465000D02*
X342940000Y-180465000D01*
X340516000Y-178041000D02*
X309553176Y-178041000D01*
X106940440Y-177576824D02*
X107408528Y-178044912D01*
X497869264Y-178165000D02*
X373940000Y-178165000D01*
X309553176Y-178041000D02*
X309549264Y-178044912D01*
X371640000Y-180465000D02*
X354940000Y-180465000D01*
X373940000Y-178165000D02*
X371640000Y-180465000D01*
X309549264Y-178044912D02*
X107408528Y-178044912D01*
X97606088Y-177576824D02*
X106940440Y-177576824D01*
X342940000Y-180465000D02*
X340516000Y-178041000D01*
%TO.N,Net-(D53-K)*%
X326527352Y-197206000D02*
X353662088Y-197206000D01*
X356063088Y-194805000D02*
X365980000Y-194805000D01*
X116933528Y-197221912D02*
X326511440Y-197221912D01*
X353662088Y-197206000D02*
X353920000Y-196948088D01*
X116465440Y-196753824D02*
X116933528Y-197221912D01*
X326511440Y-197221912D02*
X326527352Y-197206000D01*
X495537000Y-197146824D02*
X498065000Y-199674824D01*
X365980000Y-194805000D02*
X366740000Y-195565000D01*
X353920000Y-196948088D02*
X356063088Y-194805000D01*
X478971176Y-197146824D02*
X495537000Y-197146824D01*
X498065000Y-199674824D02*
X498065000Y-204159176D01*
X379022176Y-197146824D02*
X478971176Y-197146824D01*
X377440352Y-195565000D02*
X379022176Y-197146824D01*
X102234176Y-196765000D02*
X102245352Y-196753824D01*
X102245352Y-196753824D02*
X116465440Y-196753824D01*
X366740000Y-195565000D02*
X377440352Y-195565000D01*
%TO.N,Net-(D74-K)*%
X373640000Y-214515000D02*
X375436824Y-216311824D01*
X331297528Y-216101088D02*
X331353352Y-216156912D01*
X121592616Y-216184824D02*
X121676352Y-216101088D01*
X121676352Y-216101088D02*
X331297528Y-216101088D01*
X459849440Y-216311824D02*
X478927352Y-216311824D01*
X459833528Y-216327736D02*
X459849440Y-216311824D01*
X332995264Y-214515000D02*
X373640000Y-214515000D01*
X375436824Y-216311824D02*
X440827352Y-216311824D01*
X440827352Y-216311824D02*
X459817616Y-216311824D01*
X111830088Y-216184824D02*
X121592616Y-216184824D01*
X331353352Y-216156912D02*
X332995264Y-214515000D01*
X459817616Y-216311824D02*
X459833528Y-216327736D01*
%TO.N,Net-(D100-K)*%
X346940000Y-237265000D02*
X362940000Y-237265000D01*
X100130176Y-234937000D02*
X111980528Y-234937000D01*
X112308528Y-235265000D02*
X164590000Y-235265000D01*
X362940000Y-237265000D02*
X364831176Y-235373824D01*
X164590000Y-235265000D02*
X165840000Y-234015000D01*
X477765000Y-233965000D02*
X478971176Y-235171176D01*
X165840000Y-234015000D02*
X186690000Y-234015000D01*
X478971176Y-235171176D02*
X478971176Y-235206912D01*
X458290000Y-233965000D02*
X477765000Y-233965000D01*
X187940000Y-235265000D02*
X332470176Y-235265000D01*
X364831176Y-235373824D02*
X440871176Y-235373824D01*
X334470176Y-237265000D02*
X346940000Y-237265000D01*
X458290000Y-233965000D02*
X442190000Y-233965000D01*
X112278352Y-235234824D02*
X112308528Y-235265000D01*
X332470176Y-235265000D02*
X334470176Y-237265000D01*
X496132088Y-235206912D02*
X478971176Y-235206912D01*
X442190000Y-233965000D02*
X440871176Y-235283824D01*
X186690000Y-234015000D02*
X187940000Y-235265000D01*
X440871176Y-235283824D02*
X440871176Y-235373824D01*
X111980528Y-234937000D02*
X112278352Y-235234824D01*
X498993352Y-238068176D02*
X496132088Y-235206912D01*
%TO.N,Net-(D108-K)*%
X476739176Y-256600000D02*
X478971176Y-254368000D01*
X444768000Y-251093000D02*
X444740000Y-251065000D01*
X281359176Y-254368000D02*
X378895176Y-254368000D01*
X444768000Y-254368000D02*
X447000000Y-256600000D01*
X100440000Y-254368000D02*
X138484176Y-254368000D01*
X279795588Y-254368000D02*
X281359176Y-254368000D01*
X378895176Y-254368000D02*
X416995176Y-254368000D01*
X277563588Y-256600000D02*
X279795588Y-254368000D01*
X138484176Y-254368000D02*
X166168000Y-254368000D01*
X168400000Y-256600000D02*
X277563588Y-256600000D01*
X447000000Y-256600000D02*
X457000000Y-256600000D01*
X457000000Y-256600000D02*
X476739176Y-256600000D01*
X166168000Y-254368000D02*
X168400000Y-256600000D01*
X444768000Y-254368000D02*
X444768000Y-251093000D01*
X416995176Y-254368000D02*
X444768000Y-254368000D01*
D27*
%TO.N,Net-(J1-CC2)*%
X294340000Y-114202104D02*
X293865166Y-113727270D01*
X285890000Y-110265000D02*
X285390000Y-110265000D01*
X291605685Y-113315000D02*
X288940000Y-113315000D01*
X293865166Y-113727270D02*
X292017955Y-113727270D01*
X294340000Y-114265000D02*
X294340000Y-114202104D01*
X288940000Y-113315000D02*
X285890000Y-110265000D01*
X292017955Y-113727270D02*
X291605685Y-113315000D01*
%TO.N,Net-(J1-CC1)*%
X292073363Y-114348363D02*
X291440000Y-113715000D01*
X288590000Y-113715000D02*
X287140000Y-112265000D01*
X293394073Y-114348363D02*
X292073363Y-114348363D01*
X291440000Y-113715000D02*
X288590000Y-113715000D01*
X287140000Y-112265000D02*
X285390000Y-112265000D01*
D25*
%TO.N,Net-(LED1-DIN)*%
X161440000Y-115415000D02*
X161840000Y-115815000D01*
X161840000Y-117965000D02*
X161140000Y-118665000D01*
X132690000Y-117965000D02*
X132690000Y-116915000D01*
X161140000Y-118665000D02*
X133390000Y-118665000D01*
X160640000Y-115415000D02*
X161440000Y-115415000D01*
X161840000Y-115815000D02*
X161840000Y-117965000D01*
X133390000Y-118665000D02*
X132690000Y-117965000D01*
%TO.N,Net-(LED2-DIN)*%
X179098750Y-113585000D02*
X179798750Y-114285000D01*
X150648750Y-116435000D02*
X150648750Y-114285000D01*
X150648750Y-114285000D02*
X151348750Y-113585000D01*
X151348750Y-113585000D02*
X179098750Y-113585000D01*
X179798750Y-114285000D02*
X179798750Y-115335000D01*
X151848750Y-116835000D02*
X151048750Y-116835000D01*
X151048750Y-116835000D02*
X150648750Y-116435000D01*
%TO.N,Net-(LED3-DIN)*%
X198740000Y-115415000D02*
X199540000Y-115415000D01*
X199940000Y-117965000D02*
X199240000Y-118665000D01*
X199540000Y-115415000D02*
X199940000Y-115815000D01*
X170790000Y-117965000D02*
X170790000Y-116915000D01*
X199940000Y-115815000D02*
X199940000Y-117965000D01*
X171490000Y-118665000D02*
X170790000Y-117965000D01*
X199240000Y-118665000D02*
X171490000Y-118665000D01*
%TO.N,Net-(LED4-DIN)*%
X188893750Y-114285000D02*
X189575042Y-113603708D01*
X189575042Y-113603708D02*
X226754983Y-113603708D01*
X188893750Y-116435000D02*
X188893750Y-114285000D01*
X190093750Y-116835000D02*
X189293750Y-116835000D01*
X226754983Y-113603708D02*
X227454983Y-114303708D01*
X227454983Y-114303708D02*
X227454983Y-115353708D01*
X189293750Y-116835000D02*
X188893750Y-116435000D01*
%TO.N,Net-(LED5-DIN)*%
X246302500Y-115395000D02*
X247102500Y-115395000D01*
X247502500Y-115795000D02*
X247502500Y-117945000D01*
X247502500Y-117945000D02*
X246802500Y-118645000D01*
X246802500Y-118645000D02*
X219052500Y-118645000D01*
X218352500Y-117945000D02*
X218352500Y-116895000D01*
X247102500Y-115395000D02*
X247502500Y-115795000D01*
X219052500Y-118645000D02*
X218352500Y-117945000D01*
%TO.N,Net-(LED6-DIN)*%
X265498750Y-114285000D02*
X265498750Y-115335000D01*
X236348750Y-114285000D02*
X237048750Y-113585000D01*
X236348750Y-116435000D02*
X236348750Y-114285000D01*
X237548750Y-116835000D02*
X236748750Y-116835000D01*
X264798750Y-113585000D02*
X265498750Y-114285000D01*
X237048750Y-113585000D02*
X264798750Y-113585000D01*
X236748750Y-116835000D02*
X236348750Y-116435000D01*
%TO.N,Net-(LED7-DIN)*%
X256490000Y-117965000D02*
X256490000Y-116915000D01*
X257190000Y-118665000D02*
X256490000Y-117965000D01*
X285640000Y-115815000D02*
X285640000Y-117965000D01*
X285240000Y-115415000D02*
X285640000Y-115815000D01*
X284940000Y-118665000D02*
X257190000Y-118665000D01*
X285640000Y-117965000D02*
X284940000Y-118665000D01*
X284440000Y-115415000D02*
X285240000Y-115415000D01*
%TO.N,Net-(LED10-DOUT)*%
X332602500Y-118645000D02*
X306320000Y-118645000D01*
X332102500Y-115395000D02*
X332902500Y-115395000D01*
X333302500Y-115795000D02*
X333302500Y-117945000D01*
X332902500Y-115395000D02*
X333302500Y-115795000D01*
X306320000Y-118645000D02*
X305940000Y-118265000D01*
X333302500Y-117945000D02*
X332602500Y-118645000D01*
%TO.N,Net-(LED10-DIN)*%
X322498750Y-116835000D02*
X322098750Y-116435000D01*
X350548750Y-113585000D02*
X351248750Y-114285000D01*
X323298750Y-116835000D02*
X322498750Y-116835000D01*
X322798750Y-113585000D02*
X350548750Y-113585000D01*
X322098750Y-114285000D02*
X322798750Y-113585000D01*
X322098750Y-116435000D02*
X322098750Y-114285000D01*
X351248750Y-114285000D02*
X351248750Y-115335000D01*
%TO.N,Net-(LED11-DIN)*%
X342940000Y-118665000D02*
X342240000Y-117965000D01*
X342240000Y-117965000D02*
X342240000Y-116915000D01*
X370190000Y-115415000D02*
X370990000Y-115415000D01*
X370690000Y-118665000D02*
X342940000Y-118665000D01*
X371390000Y-115815000D02*
X371390000Y-117965000D01*
X371390000Y-117965000D02*
X370690000Y-118665000D01*
X370990000Y-115415000D02*
X371390000Y-115815000D01*
%TO.N,Net-(LED12-DIN)*%
X362209581Y-113795419D02*
X372670419Y-113795419D01*
X361140000Y-114865000D02*
X362209581Y-113795419D01*
X361540000Y-116865000D02*
X361140000Y-116465000D01*
X395302500Y-117945000D02*
X395302500Y-115795000D01*
X372670419Y-113795419D02*
X377520000Y-118645000D01*
X394902500Y-115395000D02*
X394102500Y-115395000D01*
X361140000Y-116465000D02*
X361140000Y-114865000D01*
X377520000Y-118645000D02*
X394602500Y-118645000D01*
X394602500Y-118645000D02*
X395302500Y-117945000D01*
X395302500Y-115795000D02*
X394902500Y-115395000D01*
%TO.N,Net-(LED13-DIN)*%
X413198750Y-114285000D02*
X413198750Y-115335000D01*
X384048750Y-116435000D02*
X384048750Y-114285000D01*
X412498750Y-113585000D02*
X413198750Y-114285000D01*
X384048750Y-114285000D02*
X384748750Y-113585000D01*
X384748750Y-113585000D02*
X412498750Y-113585000D01*
X384448750Y-116835000D02*
X384048750Y-116435000D01*
X385248750Y-116835000D02*
X384448750Y-116835000D01*
%TO.N,Net-(LED14-DIN)*%
X404890000Y-118665000D02*
X404190000Y-117965000D01*
X432940000Y-115415000D02*
X433340000Y-115815000D01*
X433340000Y-115815000D02*
X433340000Y-117965000D01*
X433340000Y-117965000D02*
X432640000Y-118665000D01*
X432640000Y-118665000D02*
X404890000Y-118665000D01*
X404190000Y-117965000D02*
X404190000Y-116915000D01*
X432140000Y-115415000D02*
X432940000Y-115415000D01*
%TO.N,Net-(LED16-DOUT)*%
X131090000Y-134415000D02*
X103590000Y-134415000D01*
X132577500Y-135902500D02*
X131090000Y-134415000D01*
%TO.N,Net-(LED17-DOUT)*%
X150322500Y-134495000D02*
X150442500Y-134615000D01*
X151717500Y-135890000D02*
X150442500Y-134615000D01*
X142217500Y-134495000D02*
X150322500Y-134495000D01*
%TO.N,Net-(LED18-DOUT)*%
X170717500Y-135890000D02*
X169442500Y-134615000D01*
X169322500Y-134495000D02*
X169442500Y-134615000D01*
X161217500Y-134495000D02*
X169322500Y-134495000D01*
%TO.N,Net-(LED19-DOUT)*%
X189715000Y-135890000D02*
X188440000Y-134615000D01*
X188320000Y-134495000D02*
X188440000Y-134615000D01*
X180215000Y-134495000D02*
X188320000Y-134495000D01*
%TO.N,Net-(LED20-DOUT)*%
X216890000Y-134465000D02*
X199340000Y-134465000D01*
X218340000Y-135915000D02*
X216890000Y-134465000D01*
%TO.N,Net-(LED21-DOUT)*%
X227917500Y-134495000D02*
X236022500Y-134495000D01*
X237417500Y-135890000D02*
X236142500Y-134615000D01*
X236022500Y-134495000D02*
X236142500Y-134615000D01*
%TO.N,Net-(LED22-DOUT)*%
X256467500Y-135890000D02*
X255192500Y-134615000D01*
X255072500Y-134495000D02*
X255192500Y-134615000D01*
X246967500Y-134495000D02*
X255072500Y-134495000D01*
%TO.N,Net-(LED23-DOUT)*%
X274122500Y-134495000D02*
X274242500Y-134615000D01*
X266017500Y-134495000D02*
X274122500Y-134495000D01*
X275517500Y-135890000D02*
X274242500Y-134615000D01*
%TO.N,Net-(LED24-DOUT)*%
X302620000Y-134495000D02*
X285070000Y-134495000D01*
X304070000Y-135945000D02*
X302620000Y-134495000D01*
%TO.N,Net-(LED25-DOUT)*%
X321722500Y-134445000D02*
X321842500Y-134565000D01*
X313617500Y-134445000D02*
X321722500Y-134445000D01*
X323117500Y-135840000D02*
X321842500Y-134565000D01*
%TO.N,Net-(LED26-DOUT)*%
X332717500Y-134495000D02*
X340822500Y-134495000D01*
X342217500Y-135890000D02*
X340942500Y-134615000D01*
X340822500Y-134495000D02*
X340942500Y-134615000D01*
%TO.N,Net-(LED27-DOUT)*%
X351717500Y-134495000D02*
X359822500Y-134495000D01*
X361217500Y-135890000D02*
X359942500Y-134615000D01*
X359822500Y-134495000D02*
X359942500Y-134615000D01*
%TO.N,Net-(LED28-DOUT)*%
X370240000Y-134465000D02*
X383390000Y-134465000D01*
X383390000Y-134465000D02*
X384840000Y-135915000D01*
%TO.N,Net-(LED29-DOUT)*%
X404017500Y-135890000D02*
X402742500Y-134615000D01*
X402622500Y-134495000D02*
X402742500Y-134615000D01*
X394517500Y-134495000D02*
X402622500Y-134495000D01*
%TO.N,Net-(LED30-DOUT)*%
X413667500Y-134495000D02*
X421772500Y-134495000D01*
X421772500Y-134495000D02*
X421892500Y-134615000D01*
X423167500Y-135890000D02*
X421892500Y-134615000D01*
%TO.N,Net-(LED32-DIN)*%
X122690000Y-161965000D02*
X122690000Y-163015000D01*
X94740000Y-164515000D02*
X93940000Y-164515000D01*
X121990000Y-161265000D02*
X122690000Y-161965000D01*
X93540000Y-161965000D02*
X94240000Y-161265000D01*
X93940000Y-164515000D02*
X93540000Y-164115000D01*
X93540000Y-164115000D02*
X93540000Y-161965000D01*
X94240000Y-161265000D02*
X121990000Y-161265000D01*
%TO.N,Net-(LED33-DIN)*%
X142190000Y-166265000D02*
X114440000Y-166265000D01*
X142490000Y-163015000D02*
X142890000Y-163415000D01*
X141690000Y-163015000D02*
X142490000Y-163015000D01*
X113740000Y-165565000D02*
X113740000Y-164515000D01*
X142890000Y-163415000D02*
X142890000Y-165565000D01*
X114440000Y-166265000D02*
X113740000Y-165565000D01*
X142890000Y-165565000D02*
X142190000Y-166265000D01*
%TO.N,Net-(LED34-DIN)*%
X132848750Y-164435000D02*
X132048750Y-164435000D01*
X132048750Y-164435000D02*
X131648750Y-164035000D01*
X132348750Y-161185000D02*
X160098750Y-161185000D01*
X131648750Y-164035000D02*
X131648750Y-161885000D01*
X160098750Y-161185000D02*
X160798750Y-161885000D01*
X160798750Y-161885000D02*
X160798750Y-162935000D01*
X131648750Y-161885000D02*
X132348750Y-161185000D01*
%TO.N,Net-(LED35-DIN)*%
X179740000Y-163015000D02*
X180540000Y-163015000D01*
X180540000Y-163015000D02*
X180940000Y-163415000D01*
X180240000Y-166265000D02*
X152490000Y-166265000D01*
X152490000Y-166265000D02*
X151790000Y-165565000D01*
X151790000Y-165565000D02*
X151790000Y-164515000D01*
X180940000Y-163415000D02*
X180940000Y-165565000D01*
X180940000Y-165565000D02*
X180240000Y-166265000D01*
%TO.N,Net-(LED36-DIN)*%
X198148750Y-161210000D02*
X198848750Y-161910000D01*
X198848750Y-161910000D02*
X198848750Y-162960000D01*
X169698750Y-161910000D02*
X170398750Y-161210000D01*
X170098750Y-164460000D02*
X169698750Y-164060000D01*
X169698750Y-164060000D02*
X169698750Y-161910000D01*
X170898750Y-164460000D02*
X170098750Y-164460000D01*
X170398750Y-161210000D02*
X198148750Y-161210000D01*
%TO.N,Net-(LED37-DIN)*%
X218990000Y-163440000D02*
X218990000Y-165590000D01*
X218990000Y-165590000D02*
X218290000Y-166290000D01*
X218590000Y-163040000D02*
X218990000Y-163440000D01*
X218290000Y-166290000D02*
X190540000Y-166290000D01*
X190540000Y-166290000D02*
X189840000Y-165590000D01*
X189840000Y-165590000D02*
X189840000Y-164540000D01*
X217790000Y-163040000D02*
X218590000Y-163040000D01*
%TO.N,Net-(LED38-DIN)*%
X207798750Y-161860000D02*
X208498750Y-161160000D01*
X208498750Y-161160000D02*
X236248750Y-161160000D01*
X236248750Y-161160000D02*
X236948750Y-161860000D01*
X207798750Y-164010000D02*
X207798750Y-161860000D01*
X236948750Y-161860000D02*
X236948750Y-162910000D01*
X208198750Y-164410000D02*
X207798750Y-164010000D01*
X208998750Y-164410000D02*
X208198750Y-164410000D01*
%TO.N,Net-(LED39-DIN)*%
X257090000Y-165540000D02*
X256390000Y-166240000D01*
X256390000Y-166240000D02*
X228640000Y-166240000D01*
X227940000Y-165540000D02*
X227940000Y-164490000D01*
X257090000Y-163390000D02*
X257090000Y-165540000D01*
X256690000Y-162990000D02*
X257090000Y-163390000D01*
X228640000Y-166240000D02*
X227940000Y-165540000D01*
X255890000Y-162990000D02*
X256690000Y-162990000D01*
%TO.N,Net-(LED40-DIN)*%
X274298750Y-161160000D02*
X274998750Y-161860000D01*
X246248750Y-164410000D02*
X245848750Y-164010000D01*
X246548750Y-161160000D02*
X274298750Y-161160000D01*
X274998750Y-161860000D02*
X274998750Y-162910000D01*
X245848750Y-164010000D02*
X245848750Y-161860000D01*
X247048750Y-164410000D02*
X246248750Y-164410000D01*
X245848750Y-161860000D02*
X246548750Y-161160000D01*
%TO.N,Net-(LED41-DIN)*%
X293940000Y-162990000D02*
X294740000Y-162990000D01*
X294440000Y-166240000D02*
X266690000Y-166240000D01*
X265990000Y-165540000D02*
X265990000Y-164490000D01*
X295140000Y-163390000D02*
X295140000Y-165540000D01*
X294740000Y-162990000D02*
X295140000Y-163390000D01*
X266690000Y-166240000D02*
X265990000Y-165540000D01*
X295140000Y-165540000D02*
X294440000Y-166240000D01*
%TO.N,Net-(LED42-DIN)*%
X312448750Y-161210000D02*
X313148750Y-161910000D01*
X313148750Y-161910000D02*
X313148750Y-162960000D01*
X285198750Y-164460000D02*
X284398750Y-164460000D01*
X283998750Y-164060000D02*
X283998750Y-161910000D01*
X283998750Y-161910000D02*
X284698750Y-161210000D01*
X284398750Y-164460000D02*
X283998750Y-164060000D01*
X284698750Y-161210000D02*
X312448750Y-161210000D01*
%TO.N,Net-(LED43-DIN)*%
X332590000Y-166290000D02*
X304840000Y-166290000D01*
X332090000Y-163040000D02*
X332890000Y-163040000D01*
X304140000Y-165590000D02*
X304140000Y-164540000D01*
X304840000Y-166290000D02*
X304140000Y-165590000D01*
X332890000Y-163040000D02*
X333290000Y-163440000D01*
X333290000Y-163440000D02*
X333290000Y-165590000D01*
X333290000Y-165590000D02*
X332590000Y-166290000D01*
%TO.N,Net-(LED44-DIN)*%
X348140000Y-165265000D02*
X337140000Y-165265000D01*
X360040000Y-161265000D02*
X352140000Y-161265000D01*
X323040000Y-161865000D02*
X323040000Y-164465000D01*
X360740000Y-163015000D02*
X360740000Y-161965000D01*
X333040000Y-161165000D02*
X323740000Y-161165000D01*
X352140000Y-161265000D02*
X348140000Y-165265000D01*
X337140000Y-165265000D02*
X333040000Y-161165000D01*
X323740000Y-161165000D02*
X323040000Y-161865000D01*
X360740000Y-161965000D02*
X360040000Y-161265000D01*
%TO.N,Net-(LED45-DIN)*%
X395171448Y-165580685D02*
X395171448Y-163430685D01*
X351740000Y-165465000D02*
X352555685Y-166280685D01*
X394471448Y-166280685D02*
X395171448Y-165580685D01*
X352555685Y-166280685D02*
X394471448Y-166280685D01*
X394771448Y-163030685D02*
X393971448Y-163030685D01*
X351740000Y-164510000D02*
X351740000Y-165465000D01*
X395171448Y-163430685D02*
X394771448Y-163030685D01*
%TO.N,Net-(LED46-DIN)*%
X412448750Y-161210000D02*
X413148750Y-161910000D01*
X383998750Y-161910000D02*
X384698750Y-161210000D01*
X384698750Y-161210000D02*
X412448750Y-161210000D01*
X413148750Y-161910000D02*
X413148750Y-162960000D01*
X383998750Y-164060000D02*
X383998750Y-161910000D01*
X384398750Y-164460000D02*
X383998750Y-164060000D01*
X385198750Y-164460000D02*
X384398750Y-164460000D01*
%TO.N,Net-(LED47-DIN)*%
X404840000Y-166290000D02*
X404140000Y-165590000D01*
X432890000Y-163040000D02*
X433290000Y-163440000D01*
X432590000Y-166290000D02*
X404840000Y-166290000D01*
X433290000Y-163440000D02*
X433290000Y-165590000D01*
X404140000Y-165590000D02*
X404140000Y-164540000D01*
X433290000Y-165590000D02*
X432590000Y-166290000D01*
X432090000Y-163040000D02*
X432890000Y-163040000D01*
%TO.N,Net-(LED48-DIN)*%
X422252500Y-161970000D02*
X422252500Y-163470000D01*
X457202500Y-165270000D02*
X456387848Y-166084652D01*
X457202500Y-163370000D02*
X457202500Y-165270000D01*
X422252500Y-163470000D02*
X423252500Y-164470000D01*
X456802500Y-162970000D02*
X457202500Y-163370000D01*
X439387848Y-166105348D02*
X434252500Y-160970000D01*
X456002500Y-162970000D02*
X456802500Y-162970000D01*
X456387848Y-166084652D02*
X456387848Y-166105348D01*
X434252500Y-160970000D02*
X423252500Y-160970000D01*
X456387848Y-166105348D02*
X439387848Y-166105348D01*
X423252500Y-160970000D02*
X422252500Y-161970000D01*
%TO.N,Net-(LED49-DIN)*%
X475048750Y-161910000D02*
X475048750Y-162960000D01*
X445898750Y-164060000D02*
X445898750Y-161910000D01*
X446298750Y-164460000D02*
X445898750Y-164060000D01*
X446598750Y-161210000D02*
X474348750Y-161210000D01*
X445898750Y-161910000D02*
X446598750Y-161210000D01*
X474348750Y-161210000D02*
X475048750Y-161910000D01*
X447098750Y-164460000D02*
X446298750Y-164460000D01*
%TO.N,Net-(LED50-DIN)*%
X494490000Y-166290000D02*
X466740000Y-166290000D01*
X495190000Y-163440000D02*
X495190000Y-165590000D01*
X494790000Y-163040000D02*
X495190000Y-163440000D01*
X495190000Y-165590000D02*
X494490000Y-166290000D01*
X466740000Y-166290000D02*
X466040000Y-165590000D01*
X466040000Y-165590000D02*
X466040000Y-164540000D01*
X493990000Y-163040000D02*
X494790000Y-163040000D01*
%TO.N,Net-(LED51-DIN)*%
X512440000Y-161065000D02*
X513140000Y-161765000D01*
X484690000Y-161065000D02*
X512440000Y-161065000D01*
X483990000Y-161765000D02*
X484690000Y-161065000D01*
X483990000Y-163915000D02*
X483990000Y-161765000D01*
X484390000Y-164315000D02*
X483990000Y-163915000D01*
X513140000Y-161765000D02*
X513140000Y-162815000D01*
X485190000Y-164315000D02*
X484390000Y-164315000D01*
%TO.N,Net-(LED53-DIN)*%
X132090000Y-182015000D02*
X132090000Y-180965000D01*
X98140000Y-182765000D02*
X98940000Y-183565000D01*
X132090000Y-180965000D02*
X131390000Y-180265000D01*
X99040000Y-180265000D02*
X98140000Y-181165000D01*
X98140000Y-181165000D02*
X98140000Y-182765000D01*
X131390000Y-180265000D02*
X99040000Y-180265000D01*
%TO.N,Net-(LED54-DIN)*%
X123840000Y-185340000D02*
X123140000Y-184640000D01*
X151890000Y-182090000D02*
X152290000Y-182490000D01*
X123140000Y-184640000D02*
X123140000Y-183590000D01*
X152290000Y-182490000D02*
X152290000Y-184640000D01*
X151590000Y-185340000D02*
X123840000Y-185340000D01*
X151090000Y-182090000D02*
X151890000Y-182090000D01*
X152290000Y-184640000D02*
X151590000Y-185340000D01*
%TO.N,Net-(LED55-DIN)*%
X141098750Y-183110000D02*
X141098750Y-180960000D01*
X141098750Y-180960000D02*
X141798750Y-180260000D01*
X170248750Y-180960000D02*
X170248750Y-182010000D01*
X141798750Y-180260000D02*
X169548750Y-180260000D01*
X169548750Y-180260000D02*
X170248750Y-180960000D01*
X142298750Y-183510000D02*
X141498750Y-183510000D01*
X141498750Y-183510000D02*
X141098750Y-183110000D01*
%TO.N,Net-(LED56-DIN)*%
X190390000Y-184640000D02*
X189690000Y-185340000D01*
X189690000Y-185340000D02*
X161940000Y-185340000D01*
X161240000Y-184640000D02*
X161240000Y-183590000D01*
X190390000Y-182490000D02*
X190390000Y-184640000D01*
X161940000Y-185340000D02*
X161240000Y-184640000D01*
X189990000Y-182090000D02*
X190390000Y-182490000D01*
X189190000Y-182090000D02*
X189990000Y-182090000D01*
%TO.N,Net-(LED57-DIN)*%
X179198750Y-183110000D02*
X179198750Y-180960000D01*
X179598750Y-183510000D02*
X179198750Y-183110000D01*
X180398750Y-183510000D02*
X179598750Y-183510000D01*
X207648750Y-180260000D02*
X208348750Y-180960000D01*
X179898750Y-180260000D02*
X207648750Y-180260000D01*
X208348750Y-180960000D02*
X208348750Y-182010000D01*
X179198750Y-180960000D02*
X179898750Y-180260000D01*
%TO.N,Net-(LED58-DIN)*%
X227290000Y-182090000D02*
X228090000Y-182090000D01*
X228090000Y-182090000D02*
X228490000Y-182490000D01*
X200040000Y-185340000D02*
X199340000Y-184640000D01*
X228490000Y-182490000D02*
X228490000Y-184640000D01*
X227790000Y-185340000D02*
X200040000Y-185340000D01*
X199340000Y-184640000D02*
X199340000Y-183590000D01*
X228490000Y-184640000D02*
X227790000Y-185340000D01*
%TO.N,Net-(LED59-DIN)*%
X246448750Y-180910000D02*
X246448750Y-181960000D01*
X218498750Y-183460000D02*
X217698750Y-183460000D01*
X217298750Y-183060000D02*
X217298750Y-180910000D01*
X217298750Y-180910000D02*
X217998750Y-180210000D01*
X245748750Y-180210000D02*
X246448750Y-180910000D01*
X217998750Y-180210000D02*
X245748750Y-180210000D01*
X217698750Y-183460000D02*
X217298750Y-183060000D01*
%TO.N,Net-(LED60-DIN)*%
X266590000Y-184590000D02*
X265890000Y-185290000D01*
X265890000Y-185290000D02*
X238140000Y-185290000D01*
X266590000Y-182440000D02*
X266590000Y-184590000D01*
X237440000Y-184590000D02*
X237440000Y-183540000D01*
X265390000Y-182040000D02*
X266190000Y-182040000D01*
X238140000Y-185290000D02*
X237440000Y-184590000D01*
X266190000Y-182040000D02*
X266590000Y-182440000D01*
%TO.N,Net-(LED61-DIN)*%
X256098750Y-180260000D02*
X283848750Y-180260000D01*
X284548750Y-180960000D02*
X284548750Y-182010000D01*
X255798750Y-183510000D02*
X255398750Y-183110000D01*
X283848750Y-180260000D02*
X284548750Y-180960000D01*
X255398750Y-183110000D02*
X255398750Y-180960000D01*
X256598750Y-183510000D02*
X255798750Y-183510000D01*
X255398750Y-180960000D02*
X256098750Y-180260000D01*
%TO.N,Net-(LED62-DIN)*%
X276240000Y-185340000D02*
X275540000Y-184640000D01*
X303490000Y-182090000D02*
X304290000Y-182090000D01*
X303990000Y-185340000D02*
X276240000Y-185340000D01*
X304690000Y-184640000D02*
X303990000Y-185340000D01*
X304290000Y-182090000D02*
X304690000Y-182490000D01*
X304690000Y-182490000D02*
X304690000Y-184640000D01*
X275540000Y-184640000D02*
X275540000Y-183590000D01*
%TO.N,Net-(LED63-DIN)*%
X293498750Y-180960000D02*
X294198750Y-180260000D01*
X322648750Y-180960000D02*
X322648750Y-182010000D01*
X294198750Y-180260000D02*
X321948750Y-180260000D01*
X321948750Y-180260000D02*
X322648750Y-180960000D01*
X294698750Y-183510000D02*
X293898750Y-183510000D01*
X293898750Y-183510000D02*
X293498750Y-183110000D01*
X293498750Y-183110000D02*
X293498750Y-180960000D01*
%TO.N,Net-(LED64-DIN)*%
X314340000Y-185340000D02*
X313640000Y-184640000D01*
X313640000Y-184640000D02*
X313640000Y-183590000D01*
X341590000Y-182090000D02*
X341965000Y-182090000D01*
X342790000Y-182915000D02*
X342790000Y-184640000D01*
X341965000Y-182090000D02*
X342790000Y-182915000D01*
X342790000Y-184640000D02*
X342090000Y-185340000D01*
X342090000Y-185340000D02*
X314340000Y-185340000D01*
%TO.N,Net-(LED65-DIN)*%
X366183750Y-190308750D02*
X357540000Y-181665000D01*
X341340000Y-180465000D02*
X332940000Y-180465000D01*
X332140000Y-181265000D02*
X332140000Y-183065000D01*
X357540000Y-181665000D02*
X342540000Y-181665000D01*
X332140000Y-183065000D02*
X332740000Y-183665000D01*
X342540000Y-181665000D02*
X341340000Y-180465000D01*
X332940000Y-180465000D02*
X332140000Y-181265000D01*
%TO.N,Net-(LED66-DIN)*%
X394502500Y-185345000D02*
X381860000Y-185345000D01*
X395202500Y-184645000D02*
X394502500Y-185345000D01*
X395202500Y-182495000D02*
X395202500Y-184645000D01*
X378140000Y-189065000D02*
X367140000Y-189065000D01*
X394002500Y-182095000D02*
X394802500Y-182095000D01*
X381860000Y-185345000D02*
X378140000Y-189065000D01*
X394802500Y-182095000D02*
X395202500Y-182495000D01*
%TO.N,Net-(LED67-DIN)*%
X413148750Y-180960000D02*
X413148750Y-182010000D01*
X383998750Y-180960000D02*
X384698750Y-180260000D01*
X383998750Y-183110000D02*
X383998750Y-180960000D01*
X384398750Y-183510000D02*
X383998750Y-183110000D01*
X384698750Y-180260000D02*
X412448750Y-180260000D01*
X412448750Y-180260000D02*
X413148750Y-180960000D01*
X385198750Y-183510000D02*
X384398750Y-183510000D01*
%TO.N,Net-(LED68-DIN)*%
X404840000Y-185340000D02*
X404140000Y-184640000D01*
X433290000Y-184640000D02*
X432590000Y-185340000D01*
X432590000Y-185340000D02*
X404840000Y-185340000D01*
X404140000Y-184640000D02*
X404140000Y-183590000D01*
X432090000Y-182090000D02*
X432890000Y-182090000D01*
X433290000Y-182490000D02*
X433290000Y-184640000D01*
X432890000Y-182090000D02*
X433290000Y-182490000D01*
%TO.N,Net-(LED69-DIN)*%
X457090000Y-182415000D02*
X457090000Y-184315000D01*
X422140000Y-182515000D02*
X423140000Y-183515000D01*
X456275348Y-185150348D02*
X439275348Y-185150348D01*
X455890000Y-182015000D02*
X456690000Y-182015000D01*
X422140000Y-181015000D02*
X422140000Y-182515000D01*
X423140000Y-180015000D02*
X422140000Y-181015000D01*
X456690000Y-182015000D02*
X457090000Y-182415000D01*
X456275348Y-185129652D02*
X456275348Y-185150348D01*
X434140000Y-180015000D02*
X423140000Y-180015000D01*
X457090000Y-184315000D02*
X456275348Y-185129652D01*
X439275348Y-185150348D02*
X434140000Y-180015000D01*
%TO.N,Net-(LED70-DIN)*%
X445898750Y-183110000D02*
X445898750Y-180960000D01*
X447098750Y-183510000D02*
X446298750Y-183510000D01*
X474348750Y-180260000D02*
X475048750Y-180960000D01*
X445898750Y-180960000D02*
X446598750Y-180260000D01*
X446598750Y-180260000D02*
X474348750Y-180260000D01*
X475048750Y-180960000D02*
X475048750Y-182010000D01*
X446298750Y-183510000D02*
X445898750Y-183110000D01*
%TO.N,Net-(LED71-DIN)*%
X493990000Y-182090000D02*
X494790000Y-182090000D01*
X495190000Y-184640000D02*
X494490000Y-185340000D01*
X495190000Y-182490000D02*
X495190000Y-184640000D01*
X466740000Y-185340000D02*
X466040000Y-184640000D01*
X494490000Y-185340000D02*
X466740000Y-185340000D01*
X466040000Y-184640000D02*
X466040000Y-183590000D01*
X494790000Y-182090000D02*
X495190000Y-182490000D01*
%TO.N,Net-(LED72-DIN)*%
X499390000Y-189515000D02*
X511140000Y-189515000D01*
X495890000Y-186015000D02*
X499390000Y-189515000D01*
%TO.N,Net-(LED74-DOUT)*%
X126575000Y-201195000D02*
X127970000Y-202590000D01*
X110790000Y-201195000D02*
X126575000Y-201195000D01*
%TO.N,Net-(LED75-DOUT)*%
X145525000Y-201050000D02*
X145645000Y-201170000D01*
X137420000Y-201050000D02*
X145525000Y-201050000D01*
X146920000Y-202445000D02*
X145645000Y-201170000D01*
%TO.N,Net-(LED76-DOUT)*%
X164625000Y-201100000D02*
X164745000Y-201220000D01*
X166020000Y-202495000D02*
X164745000Y-201220000D01*
X156520000Y-201100000D02*
X164625000Y-201100000D01*
%TO.N,Net-(LED77-DOUT)*%
X175520000Y-201100000D02*
X183625000Y-201100000D01*
X183625000Y-201100000D02*
X183745000Y-201220000D01*
X185020000Y-202495000D02*
X183745000Y-201220000D01*
%TO.N,Net-(LED78-DOUT)*%
X204120000Y-202545000D02*
X202845000Y-201270000D01*
X202725000Y-201150000D02*
X202845000Y-201270000D01*
X194620000Y-201150000D02*
X202725000Y-201150000D01*
%TO.N,Net-(LED79-DOUT)*%
X213520000Y-201100000D02*
X221625000Y-201100000D01*
X221625000Y-201100000D02*
X221745000Y-201220000D01*
X223020000Y-202495000D02*
X221745000Y-201220000D01*
%TO.N,Net-(LED80-DOUT)*%
X240725000Y-201150000D02*
X240845000Y-201270000D01*
X242120000Y-202545000D02*
X240845000Y-201270000D01*
X232620000Y-201150000D02*
X240725000Y-201150000D01*
%TO.N,Net-(LED81-DOUT)*%
X251620000Y-201150000D02*
X259725000Y-201150000D01*
X261120000Y-202545000D02*
X259845000Y-201270000D01*
X259725000Y-201150000D02*
X259845000Y-201270000D01*
%TO.N,Net-(LED82-DOUT)*%
X270720000Y-201200000D02*
X278825000Y-201200000D01*
X278825000Y-201200000D02*
X278945000Y-201320000D01*
X280220000Y-202595000D02*
X278945000Y-201320000D01*
%TO.N,Net-(LED83-DOUT)*%
X297937515Y-201189187D02*
X298057515Y-201309187D01*
X289832515Y-201189187D02*
X297937515Y-201189187D01*
X299332515Y-202584187D02*
X298057515Y-201309187D01*
%TO.N,Net-(LED84-DOUT)*%
X308770000Y-201150000D02*
X316875000Y-201150000D01*
X316875000Y-201150000D02*
X316995000Y-201270000D01*
X318270000Y-202545000D02*
X316995000Y-201270000D01*
%TO.N,Net-(LED85-DOUT)*%
X327870000Y-201200000D02*
X335975000Y-201200000D01*
X335975000Y-201200000D02*
X336095000Y-201320000D01*
X337370000Y-202595000D02*
X336095000Y-201320000D01*
%TO.N,Net-(LED86-DOUT)*%
X349340000Y-201065000D02*
X346540000Y-201065000D01*
X374796727Y-202608273D02*
X372340000Y-205065000D01*
X372340000Y-205065000D02*
X353340000Y-205065000D01*
X353340000Y-205065000D02*
X349340000Y-201065000D01*
X447120462Y-202608273D02*
X374796727Y-202608273D01*
%TO.N,Net-(LED87-DOUT)*%
X465980000Y-202545000D02*
X464705000Y-201270000D01*
X456480000Y-201150000D02*
X464585000Y-201150000D01*
X464585000Y-201150000D02*
X464705000Y-201270000D01*
%TO.N,Net-(LED88-DOUT)*%
X475580000Y-201100000D02*
X483685000Y-201100000D01*
X485080000Y-202495000D02*
X483805000Y-201220000D01*
X483685000Y-201100000D02*
X483805000Y-201220000D01*
%TO.N,Net-(LED90-DIN)*%
X97040000Y-221665000D02*
X97040000Y-222715000D01*
X97790000Y-223465000D02*
X127790000Y-223465000D01*
X127790000Y-223465000D02*
X128490000Y-222765000D01*
X128490000Y-220615000D02*
X128090000Y-220215000D01*
X128090000Y-220215000D02*
X127290000Y-220215000D01*
X97040000Y-222715000D02*
X97790000Y-223465000D01*
X128490000Y-222765000D02*
X128490000Y-220615000D01*
%TO.N,Net-(LED91-DIN)*%
X117298750Y-219060000D02*
X117998750Y-218360000D01*
X117298750Y-221210000D02*
X117298750Y-219060000D01*
X145748750Y-218360000D02*
X146448750Y-219060000D01*
X117698750Y-221610000D02*
X117298750Y-221210000D01*
X118498750Y-221610000D02*
X117698750Y-221610000D01*
X117998750Y-218360000D02*
X145748750Y-218360000D01*
X146448750Y-219060000D02*
X146448750Y-220110000D01*
%TO.N,Net-(LED92-DIN)*%
X166590000Y-222740000D02*
X165890000Y-223440000D01*
X138140000Y-223440000D02*
X137440000Y-222740000D01*
X137440000Y-222740000D02*
X137440000Y-221690000D01*
X166590000Y-220590000D02*
X166590000Y-222740000D01*
X165890000Y-223440000D02*
X138140000Y-223440000D01*
X165390000Y-220190000D02*
X166190000Y-220190000D01*
X166190000Y-220190000D02*
X166590000Y-220590000D01*
%TO.N,Net-(LED93-DIN)*%
X156598750Y-221610000D02*
X155798750Y-221610000D01*
X184548750Y-219060000D02*
X184548750Y-220110000D01*
X155798750Y-221610000D02*
X155398750Y-221210000D01*
X156098750Y-218360000D02*
X183848750Y-218360000D01*
X155398750Y-221210000D02*
X155398750Y-219060000D01*
X183848750Y-218360000D02*
X184548750Y-219060000D01*
X155398750Y-219060000D02*
X156098750Y-218360000D01*
%TO.N,Net-(LED94-DIN)*%
X176240000Y-223440000D02*
X175540000Y-222740000D01*
X175540000Y-222740000D02*
X175540000Y-221690000D01*
X203990000Y-223440000D02*
X176240000Y-223440000D01*
X204690000Y-220590000D02*
X204690000Y-222740000D01*
X203490000Y-220190000D02*
X204290000Y-220190000D01*
X204690000Y-222740000D02*
X203990000Y-223440000D01*
X204290000Y-220190000D02*
X204690000Y-220590000D01*
%TO.N,Net-(LED95-DIN)*%
X193448750Y-221210000D02*
X193448750Y-219060000D01*
X221898750Y-218360000D02*
X222598750Y-219060000D01*
X193448750Y-219060000D02*
X194148750Y-218360000D01*
X222598750Y-219060000D02*
X222598750Y-220110000D01*
X193848750Y-221610000D02*
X193448750Y-221210000D01*
X194148750Y-218360000D02*
X221898750Y-218360000D01*
X194648750Y-221610000D02*
X193848750Y-221610000D01*
%TO.N,Net-(LED96-DIN)*%
X242340000Y-220190000D02*
X242740000Y-220590000D01*
X241540000Y-220190000D02*
X242340000Y-220190000D01*
X213590000Y-222740000D02*
X213590000Y-221690000D01*
X242740000Y-220590000D02*
X242740000Y-222740000D01*
X242040000Y-223440000D02*
X214290000Y-223440000D01*
X242740000Y-222740000D02*
X242040000Y-223440000D01*
X214290000Y-223440000D02*
X213590000Y-222740000D01*
%TO.N,Net-(LED97-DIN)*%
X231998750Y-221610000D02*
X231598750Y-221210000D01*
X232298750Y-218360000D02*
X260048750Y-218360000D01*
X260048750Y-218360000D02*
X260748750Y-219060000D01*
X231598750Y-221210000D02*
X231598750Y-219060000D01*
X260748750Y-219060000D02*
X260748750Y-220110000D01*
X231598750Y-219060000D02*
X232298750Y-218360000D01*
X232798750Y-221610000D02*
X231998750Y-221610000D01*
%TO.N,Net-(LED98-DIN)*%
X251740000Y-222740000D02*
X251740000Y-221690000D01*
X280190000Y-223440000D02*
X252440000Y-223440000D01*
X280890000Y-220590000D02*
X280890000Y-222740000D01*
X279690000Y-220190000D02*
X280490000Y-220190000D01*
X280490000Y-220190000D02*
X280890000Y-220590000D01*
X280890000Y-222740000D02*
X280190000Y-223440000D01*
X252440000Y-223440000D02*
X251740000Y-222740000D01*
%TO.N,Net-(LED100-DOUT)*%
X269698750Y-219060000D02*
X270398750Y-218360000D01*
X270398750Y-218360000D02*
X298148750Y-218360000D01*
X270098750Y-221610000D02*
X269698750Y-221210000D01*
X298848750Y-219060000D02*
X298848750Y-220110000D01*
X269698750Y-221210000D02*
X269698750Y-219060000D01*
X270898750Y-221610000D02*
X270098750Y-221610000D01*
X298148750Y-218360000D02*
X298848750Y-219060000D01*
%TO.N,Net-(LED100-DIN)*%
X290540000Y-223440000D02*
X289840000Y-222740000D01*
X289840000Y-222740000D02*
X289840000Y-221690000D01*
X318990000Y-220590000D02*
X318990000Y-222740000D01*
X317790000Y-220190000D02*
X318590000Y-220190000D01*
X318590000Y-220190000D02*
X318990000Y-220590000D01*
X318990000Y-222740000D02*
X318290000Y-223440000D01*
X318290000Y-223440000D02*
X290540000Y-223440000D01*
%TO.N,Net-(LED101-DIN)*%
X309840000Y-217015000D02*
X313240000Y-217015000D01*
X307877500Y-221235000D02*
X307877500Y-219085000D01*
X351890000Y-218415000D02*
X351890000Y-218515000D01*
X307877500Y-219085000D02*
X307877500Y-218977500D01*
X309077500Y-221635000D02*
X308277500Y-221635000D01*
X348840000Y-215365000D02*
X351690000Y-218215000D01*
X308277500Y-221635000D02*
X307877500Y-221235000D01*
X331840000Y-217015000D02*
X333490000Y-215365000D01*
X309140000Y-217715000D02*
X309840000Y-217015000D01*
X333490000Y-215365000D02*
X344440000Y-215365000D01*
X307877500Y-218977500D02*
X309140000Y-217715000D01*
X313240000Y-217015000D02*
X331840000Y-217015000D01*
X344440000Y-215365000D02*
X348840000Y-215365000D01*
X351690000Y-218215000D02*
X351890000Y-218415000D01*
%TO.N,Net-(LED102-DIN)*%
X369140000Y-223265000D02*
X374940000Y-217465000D01*
X346429738Y-223254738D02*
X352129738Y-223254738D01*
X410440000Y-217465000D02*
X411390000Y-218415000D01*
X352129738Y-223254738D02*
X352140000Y-223265000D01*
X352140000Y-223265000D02*
X369140000Y-223265000D01*
X374940000Y-217465000D02*
X410440000Y-217465000D01*
X411390000Y-218415000D02*
X411390000Y-218465000D01*
X346390000Y-223215000D02*
X346429738Y-223254738D01*
%TO.N,Net-(LED103-DIN)*%
X457040000Y-221165000D02*
X455990000Y-220115000D01*
X456290000Y-223265000D02*
X457040000Y-222515000D01*
X405990000Y-223265000D02*
X456290000Y-223265000D01*
X457040000Y-222515000D02*
X457040000Y-221165000D01*
%TO.N,Net-(LED104-DIN)*%
X446298750Y-221610000D02*
X445898750Y-221210000D01*
X445898750Y-219060000D02*
X446598750Y-218360000D01*
X445898750Y-221210000D02*
X445898750Y-219060000D01*
X446598750Y-218360000D02*
X474348750Y-218360000D01*
X475048750Y-219060000D02*
X475048750Y-220110000D01*
X474348750Y-218360000D02*
X475048750Y-219060000D01*
X447098750Y-221610000D02*
X446298750Y-221610000D01*
%TO.N,Net-(LED105-DIN)*%
X493990000Y-220190000D02*
X494790000Y-220190000D01*
X466040000Y-222740000D02*
X466040000Y-221690000D01*
X494790000Y-220190000D02*
X495190000Y-220590000D01*
X495190000Y-220590000D02*
X495190000Y-222740000D01*
X494490000Y-223440000D02*
X466740000Y-223440000D01*
X495190000Y-222740000D02*
X494490000Y-223440000D01*
X466740000Y-223440000D02*
X466040000Y-222740000D01*
%TO.N,Net-(LED106-DIN)*%
X495840000Y-224195000D02*
X499340000Y-227695000D01*
X499340000Y-227695000D02*
X511090000Y-227695000D01*
%TO.N,Net-(LED108-DOUT)*%
X119190000Y-239215000D02*
X105940000Y-239215000D01*
X120690000Y-240715000D02*
X119190000Y-239215000D01*
%TO.N,Net-(LED109-DOUT)*%
X142990000Y-239215000D02*
X129740000Y-239215000D01*
X144490000Y-240715000D02*
X142990000Y-239215000D01*
%TO.N,Net-(LED110-DOUT)*%
X169090000Y-241565000D02*
X214490000Y-241565000D01*
X214490000Y-241565000D02*
X215340000Y-240715000D01*
X166690000Y-239165000D02*
X169090000Y-241565000D01*
X153590000Y-239165000D02*
X166690000Y-239165000D01*
%TO.N,Net-(LED111-DOUT)*%
X262990000Y-239215000D02*
X265790000Y-242015000D01*
X286740000Y-240715000D02*
X287190000Y-240715000D01*
X285440000Y-242015000D02*
X286740000Y-240715000D01*
X224940000Y-239215000D02*
X262990000Y-239215000D01*
X265790000Y-242015000D02*
X285440000Y-242015000D01*
%TO.N,Net-(LED112-DOUT)*%
X311190000Y-240715000D02*
X309690000Y-239215000D01*
X309690000Y-239215000D02*
X296440000Y-239215000D01*
%TO.N,Net-(LED113-DOUT)*%
X334990000Y-240715000D02*
X333490000Y-239215000D01*
X333490000Y-239215000D02*
X320240000Y-239215000D01*
%TO.N,Net-(LED114-DOUT)*%
X358890000Y-240715000D02*
X357390000Y-239215000D01*
X357390000Y-239215000D02*
X344140000Y-239215000D01*
%TO.N,Net-(LED115-DOUT)*%
X367890000Y-239215000D02*
X383290000Y-239215000D01*
X383290000Y-239215000D02*
X384790000Y-240715000D01*
%TO.N,Net-(LED116-DOUT)*%
X402685000Y-239250000D02*
X402805000Y-239370000D01*
X404080000Y-240645000D02*
X402805000Y-239370000D01*
X394580000Y-239250000D02*
X402685000Y-239250000D01*
%TO.N,Net-(LED117-DOUT)*%
X413630000Y-239250000D02*
X421735000Y-239250000D01*
X421735000Y-239250000D02*
X421855000Y-239370000D01*
X423130000Y-240645000D02*
X421855000Y-239370000D01*
%TO.N,Net-(LED118-DOUT)*%
X444140000Y-239215000D02*
X446540000Y-241615000D01*
X432190000Y-239215000D02*
X444140000Y-239215000D01*
X455340000Y-241615000D02*
X456240000Y-240715000D01*
X446540000Y-241615000D02*
X455340000Y-241615000D01*
%TO.N,Net-(LED119-DOUT)*%
X482340000Y-241215000D02*
X482840000Y-240715000D01*
X468490000Y-239215000D02*
X470490000Y-241215000D01*
X465540000Y-239215000D02*
X468490000Y-239215000D01*
X482840000Y-240715000D02*
X484240000Y-240715000D01*
X470490000Y-241215000D02*
X482340000Y-241215000D01*
%TO.N,Column 3*%
X147515000Y-151765000D02*
X203951176Y-151765000D01*
X203951176Y-151765000D02*
X204540176Y-151176000D01*
%TO.N,Column 4*%
X205794176Y-151860824D02*
X205794176Y-151176000D01*
X162890000Y-153765000D02*
X203890000Y-153765000D01*
X203890000Y-153765000D02*
X205794176Y-151860824D01*
%TO.N,Column 8*%
X210874176Y-151176000D02*
X244129000Y-151176000D01*
%TO.N,Column 9*%
X346625176Y-159665000D02*
X346540000Y-159665000D01*
X345740000Y-158865000D02*
X275840000Y-158865000D01*
X346540000Y-159665000D02*
X345740000Y-158865000D01*
%TO.N,Column 10*%
X344390000Y-152350000D02*
X343555000Y-151515000D01*
X343555000Y-151515000D02*
X280640000Y-151515000D01*
%TO.N,Column 11*%
X346510176Y-150736000D02*
X321011000Y-150736000D01*
%TO.N,Column 16*%
X353240000Y-150665000D02*
X411540000Y-150665000D01*
%TO.N,Column 17*%
X435640000Y-146965000D02*
X436940000Y-148265000D01*
X436940000Y-148265000D02*
X467140000Y-148265000D01*
%TO.N,Column 1*%
X198280000Y-159405000D02*
X197640000Y-158765000D01*
X204540000Y-159405000D02*
X198280000Y-159405000D01*
X197640000Y-158765000D02*
X134540000Y-158765000D01*
%TO.N,Column 2*%
X138840000Y-152765000D02*
X201609824Y-152765000D01*
X126140000Y-165465000D02*
X138840000Y-152765000D01*
X201609824Y-152765000D02*
X201640000Y-152795176D01*
%TO.N,Column 18*%
X459340000Y-161910000D02*
X459320000Y-161930000D01*
X459320000Y-161930000D02*
X459320000Y-173598125D01*
X459340000Y-160510000D02*
X460085000Y-159765000D01*
X460085000Y-159765000D02*
X473640000Y-159765000D01*
%TO.N,Column 21*%
X512890000Y-159765000D02*
X516390000Y-163265000D01*
X477890000Y-158515000D02*
X479140000Y-159765000D01*
X479140000Y-159765000D02*
X512890000Y-159765000D01*
X516390000Y-163265000D02*
X516390000Y-173515000D01*
X472275000Y-158515000D02*
X477890000Y-158515000D01*
X470275000Y-156515000D02*
X472275000Y-158515000D01*
D26*
%TO.N,LED Data 1*%
X484415166Y-114177270D02*
X486915166Y-111677270D01*
X509415166Y-111677270D02*
X511915166Y-114177270D01*
X486915166Y-111677270D02*
X509415166Y-111677270D01*
X511915166Y-114177270D02*
X511915166Y-153177270D01*
%TO.N,LED Data 2*%
X518415166Y-174889834D02*
X512240000Y-181065000D01*
X509915166Y-110677270D02*
X513415166Y-114177270D01*
X485415166Y-110677270D02*
X509915166Y-110677270D01*
X483415166Y-112677270D02*
X485415166Y-110677270D01*
X518415166Y-152677270D02*
X518415166Y-174889834D01*
X513415166Y-114177270D02*
X513415166Y-147677270D01*
X513415166Y-147677270D02*
X518415166Y-152677270D01*
D25*
%TO.N,ACCEL_INT1*%
X484415166Y-143277270D02*
X486940000Y-140752436D01*
X486940000Y-140752436D02*
X486940000Y-135265000D01*
%TO.N,SPI_CS_ACCEL*%
X482315166Y-140677270D02*
X485631706Y-137360730D01*
X485631706Y-137360730D02*
X485631706Y-135298465D01*
%TO.N,Net-(U3-QH')*%
X346340000Y-158065000D02*
X213240000Y-158065000D01*
X347902863Y-159665000D02*
X347902863Y-159627863D01*
X347902863Y-159627863D02*
X346340000Y-158065000D01*
%TO.N,Net-(U4-QH')*%
X471240000Y-154965000D02*
X471540000Y-154665000D01*
X355540000Y-157265000D02*
X467940000Y-157265000D01*
X470240000Y-154965000D02*
X471240000Y-154965000D01*
X467940000Y-157265000D02*
X470240000Y-154965000D01*
%TO.N,SPI_CLK*%
X481867941Y-136724495D02*
X476415166Y-142177270D01*
X465550000Y-156465000D02*
X467640000Y-154375000D01*
X353040000Y-156465000D02*
X465550000Y-156465000D01*
X209640000Y-159479000D02*
X209640000Y-158765000D01*
X351700212Y-157804788D02*
X353040000Y-156465000D01*
X211140000Y-157265000D02*
X349271114Y-157265000D01*
X349271114Y-157265000D02*
X351700212Y-159694098D01*
X467740000Y-150852436D02*
X467740000Y-151365000D01*
X209640000Y-158765000D02*
X211140000Y-157265000D01*
X476415166Y-142177270D02*
X467740000Y-150852436D01*
X351700212Y-159694098D02*
X351700212Y-157804788D01*
X481867941Y-135231018D02*
X481867941Y-136724495D01*
%TO.N,SPI_MISO*%
X484365000Y-135252500D02*
X484365000Y-137227436D01*
X484365000Y-137227436D02*
X480915166Y-140677270D01*
%TO.N,SPI_CS_SR*%
X464705537Y-155665000D02*
X469010692Y-151359845D01*
X350440000Y-155765000D02*
X350540000Y-155665000D01*
X483110184Y-135214486D02*
X483110184Y-136982252D01*
X469010692Y-151081744D02*
X469010692Y-151359845D01*
X208340000Y-158865000D02*
X210740000Y-156465000D01*
X208340000Y-159479000D02*
X208340000Y-158865000D01*
X350540000Y-155665000D02*
X464705537Y-155665000D01*
X349740000Y-156465000D02*
X350440000Y-155765000D01*
X483110184Y-136982252D02*
X469010692Y-151081744D01*
X210740000Y-156465000D02*
X349740000Y-156465000D01*
%TO.N,SPI_MOSI*%
X350040000Y-154865000D02*
X349240000Y-155665000D01*
X206333000Y-155665000D02*
X205840000Y-156158000D01*
X480624978Y-136480022D02*
X466740000Y-150365000D01*
X461540000Y-154865000D02*
X350040000Y-154865000D01*
X466040000Y-150365000D02*
X461540000Y-154865000D01*
X466740000Y-150365000D02*
X466040000Y-150365000D01*
X480624978Y-135221457D02*
X480624978Y-136480022D01*
X349240000Y-155665000D02*
X206333000Y-155665000D01*
D26*
%TO.N,GPIO2*%
X489415166Y-112677270D02*
X498915166Y-112677270D01*
X500415166Y-152937270D02*
X498175166Y-155177270D01*
X498915166Y-112677270D02*
X500415166Y-114177270D01*
X488415166Y-113677270D02*
X489415166Y-112677270D01*
X500415166Y-114177270D02*
X500415166Y-152937270D01*
%TO.N,GPIO1*%
X496415166Y-152677270D02*
X495635166Y-153457270D01*
X499415166Y-151677270D02*
X498415166Y-152677270D01*
X489915166Y-114177270D02*
X498415166Y-114177270D01*
X498415166Y-114177270D02*
X499415166Y-115177270D01*
X498415166Y-152677270D02*
X496415166Y-152677270D01*
X499415166Y-115177270D02*
X499415166Y-151677270D01*
X495635166Y-153457270D02*
X495635166Y-155177270D01*
%TD*%
M02*
