M48
; DRILL file {KiCad 8.0.8} date 2025-04-23T12:27:12+0200
; FORMAT={-:-/ absolute / metric / decimal}
; #@! TF.CreationDate,2025-04-23T12:27:12+02:00
; #@! TF.GenerationSoftware,Kicad,Pcbnew,8.0.8
; #@! TF.FileFunction,Plated,1,4,PTH
FMAT,2
METRIC
; #@! TA.AperFunction,Plated,PTH,ViaDrill
T1C0.300
; #@! TA.AperFunction,Plated,PTH,ComponentDrill
T2C0.300
; #@! TA.AperFunction,Plated,PTH,ComponentDrill
T3C0.600
; #@! TA.AperFunction,Plated,PTH,ComponentDrill
T4C0.850
; #@! TA.AperFunction,Plated,PTH,ComponentDrill
T5C1.000
; #@! TA.AperFunction,Plated,PTH,ComponentDrill
T6C1.500
; #@! TA.AperFunction,Plated,PTH,ComponentDrill
T7C1.800
; #@! TA.AperFunction,Plated,PTH,ComponentDrill
T8C2.200
; #@! TA.AperFunction,Plated,PTH,ComponentDrill
T9C3.000
; #@! TA.AperFunction,Plated,PTH,ComponentDrill
T10C3.048
%
G90
G05
T1
X94.39Y-135.915
X94.74Y-164.515
X97.04Y-221.665
X97.14Y-240.665
X97.59Y-149.72
X97.606Y-177.577
X98.94Y-183.565
X100.13Y-234.937
X100.44Y-254.368
X101.89Y-202.615
X102.234Y-196.765
X103.54Y-135.965
X103.54Y-164.565
X103.552Y-163.095
X103.59Y-134.415
X105.94Y-239.215
X105.953Y-221.665
X105.953Y-240.665
X106.04Y-220.165
X107.14Y-144.765
X107.14Y-173.265
X107.409Y-178.045
X108.34Y-183.565
X108.44Y-182.065
X108.94Y-121.265
X109.64Y-230.765
X109.64Y-245.265
X110.74Y-202.565
X110.79Y-201.195
X111.64Y-192.468
X111.772Y-118.785
X111.83Y-216.185
X112.278Y-235.235
X113.54Y-117.265
X113.74Y-164.515
X114.14Y-211.265
X114.691Y-254.384
X116.934Y-197.222
X118.427Y-122.177
X118.499Y-221.61
X120.69Y-240.715
X121.676Y-216.101
X122.554Y-164.552
X122.69Y-163.015
X123.14Y-183.59
X126.14Y-165.465
X126.14Y-173.265
X126.502Y-130.531
X126.502Y-178.085
X126.546Y-149.593
X127.29Y-220.215
X127.353Y-221.665
X127.97Y-202.59
X129.74Y-239.215
X129.753Y-240.665
X131.14Y-230.765
X131.4Y-235.235
X132.054Y-183.552
X132.09Y-182.015
X132.577Y-135.903
X132.69Y-116.915
X132.849Y-164.435
X133.14Y-245.452
X134.54Y-158.765
X135.64Y-192.765
X136.071Y-197.218
X136.854Y-202.653
X137.42Y-201.05
X137.44Y-221.69
X138.484Y-254.368
X140.64Y-211.765
X140.77Y-216.141
X141.554Y-135.952
X141.654Y-116.852
X141.654Y-164.552
X141.69Y-163.015
X142.218Y-134.495
X142.299Y-183.51
X144.34Y-126.452
X144.34Y-140.952
X144.49Y-240.715
X144.64Y-145.365
X145.14Y-173.765
X145.509Y-130.547
X145.509Y-178.101
X145.552Y-149.609
X146.449Y-220.11
X146.453Y-221.665
X146.92Y-202.445
X147.515Y-151.765
X150.14Y-230.468
X150.4Y-235.235
X151.09Y-182.09
X151.154Y-183.552
X151.718Y-135.89
X151.79Y-164.515
X151.849Y-116.835
X153.585Y-240.71
X153.59Y-239.165
X154.567Y-192.633
X155.077Y-197.234
X155.954Y-202.653
X156.52Y-201.1
X156.599Y-221.61
X157.14Y-245.452
X159.14Y-211.765
X159.776Y-216.157
X160.64Y-115.415
X160.654Y-135.952
X160.654Y-164.552
X160.754Y-116.852
X160.799Y-162.935
X161.218Y-134.495
X161.24Y-183.59
X162.89Y-153.765
X163.34Y-126.215
X163.34Y-140.715
X163.84Y-145.465
X164.567Y-173.765
X164.602Y-130.587
X164.602Y-178.029
X164.646Y-149.649
X165.39Y-220.19
X165.453Y-221.665
X166.02Y-202.495
X167.69Y-234.065
X169.14Y-230.468
X170.154Y-183.552
X170.249Y-182.01
X170.718Y-135.89
X170.79Y-116.915
X170.899Y-164.46
X173.567Y-192.633
X174.127Y-197.206
X174.954Y-202.653
X175.52Y-201.1
X175.54Y-221.69
X178.567Y-211.765
X178.953Y-216.101
X179.654Y-135.952
X179.74Y-163.015
X179.754Y-116.852
X179.754Y-164.552
X179.799Y-115.335
X180.215Y-134.495
X180.399Y-183.51
X182.44Y-126.252
X182.44Y-140.752
X183.04Y-145.365
X183.14Y-173.633
X183.609Y-178.045
X183.652Y-149.665
X183.84Y-130.587
X184.454Y-221.653
X184.549Y-220.11
X185.02Y-202.495
X188.14Y-230.468
X188.478Y-235.291
X189.19Y-182.09
X189.254Y-183.552
X189.715Y-135.89
X189.84Y-164.54
X190.094Y-116.835
X192.567Y-192.633
X193.261Y-197.222
X193.954Y-202.653
X194.62Y-201.15
X194.649Y-221.61
X197.567Y-211.633
X198.047Y-216.141
X198.74Y-115.415
X198.84Y-116.865
X198.84Y-135.965
X198.849Y-162.96
X198.854Y-164.552
X199.34Y-134.465
X199.34Y-183.59
X201.64Y-152.795
X201.94Y-157.265
X202.34Y-126.652
X202.34Y-141.152
X202.34Y-145.665
X202.567Y-173.633
X202.702Y-178.085
X203.49Y-220.19
X203.554Y-221.653
X204.12Y-202.545
X204.54Y-159.405
X204.54Y-151.176
X205.794Y-151.176
X205.84Y-156.158
X207.08Y-151.176
X207.14Y-230.468
X207.44Y-256.6
X207.528Y-235.235
X208.334Y-151.176
X208.34Y-159.479
X208.349Y-182.01
X208.354Y-183.552
X208.999Y-164.41
X209.64Y-151.205
X209.64Y-159.479
X210.874Y-151.176
X210.908Y-159.465
X212.067Y-192.633
X212.227Y-130.587
X212.271Y-149.649
X212.398Y-197.218
X213.054Y-202.653
X213.24Y-158.065
X213.52Y-201.1
X213.59Y-221.69
X215.34Y-240.715
X216.567Y-211.633
X217.053Y-216.157
X217.79Y-163.04
X217.854Y-164.552
X218.34Y-135.915
X218.352Y-116.895
X218.499Y-183.46
X221.567Y-173.633
X221.709Y-178.101
X222.554Y-221.653
X222.599Y-220.11
X223.02Y-202.495
X224.94Y-239.215
X224.94Y-240.765
X226.14Y-230.468
X226.578Y-235.291
X227.29Y-182.09
X227.354Y-116.852
X227.354Y-135.952
X227.354Y-183.552
X227.455Y-115.354
X227.917Y-134.495
X227.94Y-164.49
X228.64Y-245.452
X229.94Y-126.352
X229.94Y-140.852
X229.94Y-145.665
X231.067Y-192.633
X231.234Y-130.603
X231.277Y-149.665
X231.404Y-197.234
X232.054Y-202.653
X232.62Y-201.15
X232.799Y-221.61
X235.567Y-211.633
X236.103Y-216.101
X236.854Y-164.552
X236.949Y-162.91
X237.417Y-135.89
X237.44Y-183.54
X237.549Y-116.835
X240.567Y-173.633
X240.802Y-178.029
X241.54Y-220.19
X241.554Y-221.653
X242.12Y-202.545
X244.129Y-151.176
X245.14Y-230.468
X245.628Y-235.235
X246.302Y-115.395
X246.354Y-183.552
X246.449Y-181.96
X246.454Y-116.852
X246.454Y-135.952
X246.968Y-134.495
X247.049Y-164.41
X248.54Y-146.765
X249.44Y-126.052
X249.44Y-140.552
X250.067Y-192.633
X250.327Y-130.587
X250.371Y-149.649
X250.54Y-197.222
X251.154Y-202.653
X251.62Y-201.15
X251.74Y-221.69
X254.567Y-211.633
X255.197Y-216.141
X255.89Y-162.99
X255.954Y-164.552
X256.467Y-135.89
X256.49Y-116.915
X256.599Y-183.51
X259.567Y-173.633
X259.809Y-178.045
X260.654Y-221.653
X260.749Y-220.11
X261.12Y-202.545
X264.14Y-230.468
X264.722Y-235.247
X265.39Y-182.04
X265.454Y-116.852
X265.454Y-135.952
X265.454Y-183.552
X265.499Y-115.335
X265.99Y-164.49
X266.017Y-134.495
X268.04Y-145.365
X268.14Y-126.152
X268.14Y-140.652
X269.067Y-192.633
X269.334Y-130.603
X269.377Y-149.665
X269.377Y-197.178
X270.254Y-202.653
X270.72Y-201.2
X270.899Y-221.61
X273.567Y-211.633
X274.203Y-216.157
X274.954Y-164.552
X274.999Y-162.91
X275.517Y-135.89
X275.54Y-183.59
X275.84Y-158.865
X275.94Y-116.865
X278.567Y-173.633
X278.902Y-178.085
X279.654Y-221.653
X279.69Y-220.19
X280.22Y-202.595
X280.64Y-151.515
X281.359Y-254.368
X283.14Y-230.468
X283.728Y-235.235
X284.44Y-115.415
X284.454Y-183.552
X284.54Y-116.865
X284.54Y-135.965
X284.549Y-182.01
X285.07Y-134.495
X285.199Y-164.46
X285.39Y-110.265
X285.39Y-112.265
X287.14Y-126.552
X287.14Y-141.052
X287.19Y-240.715
X288.067Y-192.633
X288.471Y-197.218
X289.254Y-202.653
X289.833Y-201.189
X289.84Y-221.69
X291.665Y-117.727
X291.665Y-118.427
X291.665Y-119.877
X291.69Y-119.152
X292.567Y-211.633
X292.64Y-125.165
X292.64Y-125.965
X293.115Y-112.077
X293.14Y-113.015
X293.253Y-216.101
X293.34Y-125.965
X293.34Y-126.965
X293.34Y-127.765
X293.394Y-114.348
X293.94Y-162.99
X294.054Y-164.552
X294.115Y-112.077
X294.14Y-113.015
X294.34Y-114.265
X294.699Y-183.51
X294.89Y-113.015
X294.915Y-112.077
X296.44Y-239.215
X296.44Y-240.765
X297.567Y-173.633
X297.909Y-178.101
X297.952Y-130.587
X297.996Y-149.649
X298.562Y-124.964
X298.615Y-125.877
X298.64Y-119.715
X298.754Y-221.653
X298.849Y-220.11
X299.333Y-202.584
X299.415Y-125.877
X299.462Y-124.964
X299.54Y-119.715
X300.062Y-124.514
X300.115Y-125.377
X300.14Y-119.265
X300.14Y-245.452
X300.84Y-114.365
X302.39Y-230.515
X302.822Y-235.191
X302.84Y-114.365
X303.49Y-182.09
X303.554Y-183.552
X304.07Y-135.945
X304.14Y-164.54
X305.108Y-254.368
X305.94Y-118.265
X307.067Y-192.633
X307.477Y-197.234
X308.254Y-202.653
X308.77Y-201.15
X309.077Y-221.635
X311.19Y-240.715
X312.067Y-211.633
X312.347Y-216.141
X313.054Y-116.852
X313.054Y-135.952
X313.14Y-115.465
X313.149Y-162.96
X313.154Y-164.552
X313.618Y-134.445
X313.64Y-183.59
X315.74Y-126.352
X315.74Y-140.852
X316.14Y-145.765
X316.567Y-173.633
X316.959Y-130.603
X317.002Y-149.665
X317.046Y-178.168
X317.79Y-220.19
X317.854Y-221.653
X318.27Y-202.545
X320.24Y-239.215
X320.24Y-240.765
X321.011Y-150.736
X321.39Y-230.515
X322.649Y-182.01
X322.654Y-183.552
X323.04Y-164.465
X323.118Y-135.84
X323.299Y-116.835
X323.64Y-245.452
X326.07Y-192.598
X326.527Y-197.206
X327.354Y-202.653
X327.87Y-201.2
X328.984Y-254.368
X331.067Y-211.633
X331.353Y-216.157
X332.09Y-163.04
X332.102Y-115.395
X332.154Y-116.852
X332.154Y-135.952
X332.154Y-164.552
X332.717Y-134.495
X332.74Y-183.665
X334.84Y-126.052
X334.84Y-140.552
X334.99Y-240.715
X335.14Y-145.365
X335.567Y-173.633
X336.052Y-130.543
X336.096Y-149.522
X337.37Y-202.595
X341.59Y-182.09
X341.654Y-183.552
X342.217Y-135.89
X342.24Y-116.915
X344.04Y-240.765
X344.14Y-239.215
X344.39Y-152.35
X344.74Y-154.865
X345.07Y-192.598
X346.354Y-202.653
X346.39Y-223.215
X346.51Y-150.736
X346.54Y-201.065
X346.625Y-159.665
X346.94Y-237.265
X347.64Y-245.733
X347.78Y-150.736
X347.903Y-159.665
X349.165Y-150.765
X350.067Y-211.633
X350.32Y-150.736
X350.44Y-155.765
X351.154Y-116.852
X351.154Y-135.952
X351.249Y-115.335
X351.7Y-159.694
X351.717Y-134.495
X351.74Y-164.51
X351.89Y-218.515
X351.94Y-150.665
X352.733Y-254.368
X352.997Y-158.887
X353.24Y-150.665
X353.44Y-145.665
X353.54Y-221.665
X353.92Y-196.948
X353.94Y-125.952
X353.94Y-140.452
X354.94Y-180.465
X355.059Y-130.587
X355.102Y-149.538
X355.54Y-157.265
X356.89Y-230.515
X358.74Y-193.065
X358.89Y-240.715
X360.74Y-163.015
X360.74Y-164.465
X361.217Y-135.89
X361.54Y-116.865
X364.14Y-173.515
X366.184Y-190.309
X367.14Y-189.065
X367.84Y-193.065
X367.84Y-240.765
X367.89Y-239.215
X370.19Y-115.415
X370.24Y-116.865
X370.24Y-134.465
X370.24Y-135.965
X371.39Y-202.265
X371.64Y-245.452
X372.44Y-145.565
X372.94Y-126.152
X372.94Y-140.652
X378.895Y-254.368
X378.978Y-130.587
X379.022Y-149.649
X379.022Y-197.147
X379.04Y-178.165
X384.79Y-240.715
X384.84Y-135.915
X385.199Y-164.46
X385.199Y-183.51
X385.249Y-116.835
X393.954Y-116.852
X393.954Y-135.952
X393.971Y-163.031
X394.002Y-182.095
X394.054Y-164.552
X394.054Y-183.552
X394.054Y-240.752
X394.102Y-115.395
X394.517Y-134.495
X394.58Y-239.25
X396.24Y-145.965
X396.64Y-126.052
X396.64Y-140.552
X397.57Y-173.598
X397.57Y-192.598
X397.64Y-245.452
X397.945Y-254.368
X397.985Y-130.603
X398.028Y-149.665
X398.028Y-178.165
X398.028Y-197.163
X398.028Y-235.179
X404.017Y-135.89
X404.08Y-240.645
X404.14Y-164.54
X404.14Y-183.59
X404.19Y-116.915
X405.99Y-223.265
X411.39Y-218.465
X411.54Y-150.665
X413.054Y-116.852
X413.054Y-135.952
X413.14Y-221.665
X413.149Y-162.96
X413.149Y-182.01
X413.154Y-164.552
X413.154Y-183.552
X413.154Y-240.752
X413.199Y-115.335
X413.63Y-239.25
X413.667Y-134.495
X415.74Y-126.252
X415.74Y-140.752
X416.04Y-146.165
X416.57Y-173.598
X416.57Y-192.598
X416.64Y-230.515
X416.64Y-245.452
X416.995Y-254.368
X417.078Y-130.587
X417.078Y-178.085
X417.122Y-149.649
X417.122Y-197.147
X423.13Y-240.645
X423.14Y-117.265
X423.14Y-183.515
X423.167Y-135.89
X423.252Y-164.47
X430.39Y-132.515
X432.09Y-163.04
X432.09Y-182.09
X432.14Y-115.415
X432.14Y-116.852
X432.14Y-135.965
X432.154Y-164.552
X432.154Y-183.552
X432.154Y-240.752
X432.19Y-239.215
X434.84Y-126.052
X434.84Y-140.552
X435.64Y-146.965
X435.64Y-173.515
X435.64Y-192.515
X435.64Y-245.452
X436.89Y-130.587
X436.89Y-149.265
X439.14Y-204.265
X439.727Y-186.278
X439.94Y-167.465
X440.14Y-144.665
X440.54Y-224.665
X440.827Y-216.312
X440.84Y-178.165
X440.871Y-197.147
X440.871Y-235.374
X441.74Y-128.265
X442.54Y-243.065
X444.74Y-251.065
X447.099Y-164.46
X447.099Y-183.51
X447.099Y-221.61
X447.12Y-202.608
X451.415Y-122.377
X451.415Y-139.377
X455.89Y-182.015
X455.954Y-164.452
X455.954Y-183.552
X455.954Y-202.653
X455.954Y-221.653
X455.99Y-220.115
X456.002Y-162.97
X456.24Y-240.715
X456.48Y-201.15
X457.0Y-256.6
X458.29Y-233.965
X459.32Y-173.598
X459.34Y-160.51
X459.34Y-161.91
X459.39Y-192.515
X459.39Y-211.515
X459.39Y-230.765
X459.834Y-178.101
X459.834Y-216.328
X459.877Y-197.163
X465.54Y-239.215
X465.54Y-240.765
X465.98Y-202.545
X466.04Y-164.54
X466.04Y-183.59
X466.04Y-221.69
X466.459Y-151.352
X467.14Y-148.265
X467.64Y-154.375
X467.74Y-151.365
X468.32Y-145.377
X468.54Y-133.665
X469.011Y-151.36
X469.14Y-245.452
X470.275Y-156.515
X471.254Y-125.597
X471.254Y-126.859
X471.272Y-124.326
X471.279Y-128.163
X471.295Y-123.065
X471.295Y-129.465
X471.54Y-156.265
X471.54Y-154.665
X472.821Y-156.462
X472.826Y-151.36
X473.64Y-159.765
X475.049Y-162.96
X475.049Y-182.01
X475.049Y-220.11
X475.054Y-164.452
X475.054Y-183.552
X475.054Y-202.653
X475.054Y-221.653
X475.34Y-131.865
X475.365Y-131.065
X475.58Y-201.1
X475.84Y-151.265
X476.415Y-142.177
X476.764Y-135.274
X476.94Y-151.265
X477.421Y-139.684
X477.94Y-151.265
X478.072Y-135.241
X478.32Y-173.598
X478.39Y-192.515
X478.39Y-211.515
X478.39Y-230.765
X478.927Y-216.312
X478.94Y-151.265
X478.971Y-197.147
X478.971Y-235.207
X478.971Y-254.368
X479.04Y-178.165
X479.305Y-114.734
X479.317Y-135.255
X480.55Y-114.749
X480.625Y-135.221
X480.915Y-140.677
X481.858Y-114.715
X481.868Y-135.231
X482.315Y-140.677
X483.11Y-135.214
X483.415Y-112.677
X484.24Y-240.715
X484.365Y-135.252
X484.415Y-114.177
X484.415Y-143.277
X484.84Y-221.945
X484.89Y-183.765
X485.08Y-202.495
X485.19Y-164.315
X485.632Y-135.298
X486.363Y-145.525
X486.94Y-135.265
X488.14Y-135.265
X488.415Y-113.677
X489.915Y-114.177
X493.99Y-163.04
X493.99Y-182.09
X493.99Y-220.19
X494.054Y-164.452
X494.054Y-183.552
X494.054Y-202.653
X494.054Y-221.653
X494.14Y-240.765
X495.84Y-224.195
X495.89Y-186.015
X497.39Y-173.568
X497.415Y-149.177
X497.415Y-150.177
X497.415Y-151.177
X497.46Y-192.485
X497.46Y-211.485
X497.46Y-230.735
X497.64Y-245.452
X497.869Y-178.165
X498.065Y-204.159
X498.993Y-238.068
X499.765Y-201.14
X504.39Y-231.015
X505.14Y-182.065
X505.54Y-154.265
X511.09Y-227.695
X511.14Y-189.515
X511.915Y-153.177
X512.24Y-181.065
X513.14Y-162.815
X513.14Y-164.565
X513.14Y-193.065
X513.14Y-231.165
X516.39Y-173.515
X516.39Y-202.265
X516.64Y-235.952
T2
X481.605Y-125.765
X481.605Y-127.165
X482.305Y-125.065
X482.305Y-126.465
X482.305Y-127.865
X483.005Y-125.765
X483.005Y-127.165
X483.705Y-125.065
X483.705Y-126.465
X483.705Y-127.865
X484.405Y-125.765
X484.405Y-127.165
T4
X445.14Y-117.535
X445.14Y-120.035
X445.14Y-122.535
X445.14Y-125.035
X445.14Y-136.585
X445.14Y-139.085
X445.14Y-141.585
X445.14Y-144.085
X515.14Y-120.035
X515.14Y-125.035
X515.14Y-139.085
X515.14Y-144.085
T5
X91.64Y-118.785
X91.64Y-123.785
X106.14Y-118.785
X106.14Y-121.285
X106.14Y-123.785
X493.095Y-155.177
X495.635Y-155.177
X498.175Y-155.177
X500.715Y-155.177
T7
X455.14Y-121.285
X455.14Y-140.335
X502.64Y-121.285
X502.64Y-140.335
T8
X118.415Y-128.177
X119.415Y-207.177
X175.415Y-181.177
X186.415Y-246.177
X208.415Y-142.177
X251.415Y-181.177
X294.415Y-142.177
X294.415Y-204.177
X378.415Y-142.177
X386.415Y-208.177
X506.415Y-131.177
X509.414Y-254.178
T9
X96.6Y-145.415
X96.6Y-173.99
X98.981Y-231.14
X98.981Y-250.19
X101.362Y-193.04
X102.95Y-142.875
X102.95Y-171.45
X103.744Y-212.09
X105.331Y-228.6
X105.331Y-247.65
X107.712Y-190.5
X110.094Y-209.55
X115.65Y-173.99
X120.412Y-231.14
X122.0Y-171.45
X122.794Y-250.19
X125.175Y-193.04
X126.762Y-228.6
X129.144Y-247.65
X129.938Y-212.09
X131.525Y-190.5
X134.7Y-126.365
X134.7Y-145.415
X134.7Y-173.99
X136.287Y-209.55
X139.463Y-231.14
X141.05Y-123.825
X141.05Y-142.875
X141.05Y-171.45
X144.225Y-193.04
X145.812Y-228.6
X146.606Y-250.19
X148.987Y-212.09
X150.575Y-190.5
X152.956Y-247.65
X153.75Y-126.365
X153.75Y-145.415
X153.75Y-173.99
X155.338Y-209.55
X158.512Y-231.14
X160.1Y-123.825
X160.1Y-142.875
X160.1Y-171.45
X163.275Y-193.04
X164.862Y-228.6
X168.037Y-212.09
X169.625Y-190.5
X172.8Y-126.365
X172.8Y-145.415
X172.8Y-173.99
X174.387Y-209.55
X177.562Y-231.14
X179.15Y-123.825
X179.15Y-142.875
X179.15Y-171.45
X182.325Y-193.04
X183.912Y-228.6
X187.088Y-212.09
X188.675Y-190.5
X191.85Y-126.365
X191.85Y-145.415
X191.85Y-173.99
X193.438Y-209.55
X196.612Y-231.14
X198.2Y-123.825
X198.2Y-142.875
X198.2Y-171.45
X201.375Y-193.04
X202.962Y-228.6
X206.137Y-212.09
X207.725Y-190.5
X210.9Y-173.99
X212.487Y-209.55
X215.662Y-231.14
X217.25Y-171.45
X218.044Y-250.19
X220.425Y-126.365
X220.425Y-145.415
X220.425Y-193.04
X222.012Y-228.6
X224.394Y-247.65
X225.188Y-212.09
X226.775Y-123.825
X226.775Y-142.875
X226.775Y-190.5
X229.95Y-173.99
X231.537Y-209.55
X234.712Y-231.14
X236.3Y-171.45
X239.475Y-126.365
X239.475Y-145.415
X239.475Y-193.04
X241.062Y-228.6
X244.237Y-212.09
X245.825Y-123.825
X245.825Y-142.875
X245.825Y-190.5
X249.0Y-173.99
X250.587Y-209.55
X253.762Y-231.14
X255.35Y-171.45
X258.525Y-126.365
X258.525Y-145.415
X258.525Y-193.04
X260.113Y-228.6
X263.287Y-212.09
X264.875Y-123.825
X264.875Y-142.875
X264.875Y-190.5
X268.05Y-173.99
X269.637Y-209.55
X272.812Y-231.14
X274.4Y-171.45
X277.575Y-126.365
X277.575Y-145.415
X277.575Y-193.04
X279.162Y-228.6
X282.337Y-212.09
X283.925Y-123.825
X283.925Y-142.875
X283.925Y-190.5
X287.1Y-173.99
X288.688Y-209.55
X289.481Y-250.19
X291.863Y-231.14
X293.45Y-171.45
X295.831Y-247.65
X296.625Y-193.04
X298.212Y-228.6
X301.387Y-212.09
X302.975Y-190.5
X306.15Y-126.365
X306.15Y-145.415
X306.15Y-173.99
X307.738Y-209.55
X310.912Y-231.14
X312.5Y-123.825
X312.5Y-142.875
X312.5Y-171.45
X313.294Y-250.19
X315.675Y-193.04
X317.262Y-228.6
X319.644Y-247.65
X320.438Y-212.09
X322.025Y-190.5
X325.2Y-126.365
X325.2Y-145.415
X325.2Y-173.99
X326.787Y-209.55
X331.55Y-123.825
X331.55Y-142.875
X331.55Y-171.45
X334.725Y-193.04
X337.106Y-250.19
X339.488Y-212.09
X341.075Y-190.5
X343.456Y-247.65
X344.25Y-126.365
X344.25Y-145.415
X345.837Y-209.55
X346.631Y-231.14
X350.6Y-123.825
X350.6Y-142.875
X352.981Y-228.6
X353.775Y-173.99
X360.125Y-171.45
X360.919Y-202.565
X360.919Y-250.19
X363.3Y-126.365
X363.3Y-145.415
X367.269Y-200.025
X367.269Y-247.65
X369.65Y-123.825
X369.65Y-142.875
X387.112Y-126.365
X387.112Y-145.415
X387.112Y-173.99
X387.112Y-193.04
X387.112Y-250.19
X393.462Y-123.825
X393.462Y-142.875
X393.462Y-171.45
X393.462Y-190.5
X393.462Y-247.65
X406.162Y-126.365
X406.162Y-145.415
X406.162Y-173.99
X406.162Y-193.04
X406.162Y-231.14
X406.162Y-250.19
X412.512Y-123.825
X412.512Y-142.875
X412.512Y-171.45
X412.512Y-190.5
X412.512Y-228.6
X412.512Y-247.65
X425.212Y-126.365
X425.212Y-173.99
X425.212Y-193.04
X425.212Y-250.19
X425.26Y-145.415
X431.562Y-123.825
X431.562Y-171.45
X431.562Y-190.5
X431.562Y-247.65
X431.61Y-142.875
X449.025Y-173.99
X449.025Y-193.04
X449.025Y-212.09
X449.025Y-231.14
X455.375Y-171.45
X455.375Y-190.5
X455.375Y-209.55
X455.375Y-228.6
X458.55Y-250.19
X464.9Y-247.65
X468.075Y-173.99
X468.075Y-193.04
X468.075Y-212.09
X468.075Y-231.14
X474.425Y-171.45
X474.425Y-190.5
X474.425Y-209.55
X474.425Y-228.6
X487.125Y-173.99
X487.125Y-193.04
X487.125Y-212.09
X487.125Y-231.14
X487.125Y-250.19
X493.475Y-171.45
X493.475Y-190.5
X493.475Y-209.55
X493.475Y-228.6
X493.475Y-247.65
X506.175Y-173.99
X506.175Y-202.565
X506.175Y-240.665
X512.525Y-171.45
X512.525Y-200.025
X512.525Y-238.125
T10
X170.577Y-238.125
X270.59Y-238.125
X337.265Y-219.075
X344.409Y-161.925
X361.077Y-219.075
X368.221Y-161.925
X449.184Y-238.125
X472.996Y-238.125
X501.73Y-185.579
X501.73Y-209.391
X501.73Y-223.679
X501.73Y-247.491
T3
G00X289.772Y-110.833
M15
G01X289.772Y-111.633
M16
G05
G00X289.772Y-114.883
M15
G01X289.772Y-115.983
M16
G05
G00X298.412Y-110.833
M15
G01X298.412Y-111.633
M16
G05
G00X298.412Y-114.883
M15
G01X298.412Y-115.983
M16
G05
T6
G00X99.29Y-115.685
M15
G01X97.99Y-115.685
M16
G05
G00X99.29Y-126.885
M15
G01X97.99Y-126.885
M16
G05
M30
