%TF.GenerationSoftware,KiCad,Pcbnew,8.0.8*%
%TF.CreationDate,2025-04-23T12:27:24+02:00*%
%TF.ProjectId,Clavier,436c6176-6965-4722-9e6b-696361645f70,0.0*%
%TF.SameCoordinates,Original*%
%TF.FileFunction,Soldermask,Bot*%
%TF.FilePolarity,Negative*%
%FSLAX46Y46*%
G04 Gerber Fmt 4.6, Leading zero omitted, Abs format (unit mm)*
G04 Created by KiCad (PCBNEW 8.0.8) date 2025-04-23 12:27:24*
%MOMM*%
%LPD*%
G01*
G04 APERTURE LIST*
G04 Aperture macros list*
%AMRoundRect*
0 Rectangle with rounded corners*
0 $1 Rounding radius*
0 $2 $3 $4 $5 $6 $7 $8 $9 X,Y pos of 4 corners*
0 Add a 4 corners polygon primitive as box body*
4,1,4,$2,$3,$4,$5,$6,$7,$8,$9,$2,$3,0*
0 Add four circle primitives for the rounded corners*
1,1,$1+$1,$2,$3*
1,1,$1+$1,$4,$5*
1,1,$1+$1,$6,$7*
1,1,$1+$1,$8,$9*
0 Add four rect primitives between the rounded corners*
20,1,$1+$1,$2,$3,$4,$5,0*
20,1,$1+$1,$4,$5,$6,$7,0*
20,1,$1+$1,$6,$7,$8,$9,0*
20,1,$1+$1,$8,$9,$2,$3,0*%
%AMFreePoly0*
4,1,18,-0.410000,0.593000,-0.403758,0.624380,-0.385983,0.650983,-0.359380,0.668758,-0.328000,0.675000,0.328000,0.675000,0.359380,0.668758,0.385983,0.650983,0.403758,0.624380,0.410000,0.593000,0.410000,-0.593000,0.403758,-0.624380,0.385983,-0.650983,0.359380,-0.668758,0.328000,-0.675000,0.000000,-0.675000,-0.410000,-0.265000,-0.410000,0.593000,-0.410000,0.593000,$1*%
G04 Aperture macros list end*
%ADD10C,3.048000*%
%ADD11C,3.987800*%
%ADD12C,4.000000*%
%ADD13R,2.000000X2.000000*%
%ADD14C,2.000000*%
%ADD15R,3.200000X2.000000*%
%ADD16C,1.524000*%
%ADD17C,2.600000*%
%ADD18RoundRect,0.237500X-0.250000X-0.237500X0.250000X-0.237500X0.250000X0.237500X-0.250000X0.237500X0*%
%ADD19RoundRect,0.082000X-0.593000X0.328000X-0.593000X-0.328000X0.593000X-0.328000X0.593000X0.328000X0*%
%ADD20FreePoly0,270.000000*%
%ADD21C,1.750000*%
%ADD22C,3.300000*%
%ADD23RoundRect,0.250000X-1.025000X-1.000000X1.025000X-1.000000X1.025000X1.000000X-1.025000X1.000000X0*%
%ADD24RoundRect,0.155000X0.155000X-0.212500X0.155000X0.212500X-0.155000X0.212500X-0.155000X-0.212500X0*%
%ADD25RoundRect,0.237500X0.300000X0.237500X-0.300000X0.237500X-0.300000X-0.237500X0.300000X-0.237500X0*%
%ADD26RoundRect,0.155000X-0.155000X0.212500X-0.155000X-0.212500X0.155000X-0.212500X0.155000X0.212500X0*%
%ADD27RoundRect,0.225000X-0.225000X-0.375000X0.225000X-0.375000X0.225000X0.375000X-0.225000X0.375000X0*%
%ADD28RoundRect,0.225000X-0.375000X0.225000X-0.375000X-0.225000X0.375000X-0.225000X0.375000X0.225000X0*%
%ADD29RoundRect,0.375000X-0.625000X-0.375000X0.625000X-0.375000X0.625000X0.375000X-0.625000X0.375000X0*%
%ADD30RoundRect,0.500000X-0.500000X-1.400000X0.500000X-1.400000X0.500000X1.400000X-0.500000X1.400000X0*%
%ADD31RoundRect,0.237500X-0.300000X-0.237500X0.300000X-0.237500X0.300000X0.237500X-0.300000X0.237500X0*%
%ADD32RoundRect,0.150000X-0.512500X-0.150000X0.512500X-0.150000X0.512500X0.150000X-0.512500X0.150000X0*%
%ADD33RoundRect,0.237500X0.250000X0.237500X-0.250000X0.237500X-0.250000X-0.237500X0.250000X-0.237500X0*%
%ADD34RoundRect,0.225000X0.225000X0.375000X-0.225000X0.375000X-0.225000X-0.375000X0.225000X-0.375000X0*%
%ADD35C,3.500000*%
%ADD36RoundRect,0.237500X-0.237500X0.250000X-0.237500X-0.250000X0.237500X-0.250000X0.237500X0.250000X0*%
%ADD37R,1.700000X1.700000*%
%ADD38O,1.700000X1.700000*%
%ADD39RoundRect,0.087500X-0.187500X-0.087500X0.187500X-0.087500X0.187500X0.087500X-0.187500X0.087500X0*%
%ADD40RoundRect,0.087500X-0.087500X-0.187500X0.087500X-0.187500X0.087500X0.187500X-0.087500X0.187500X0*%
%ADD41RoundRect,0.150000X-0.150000X0.850000X-0.150000X-0.850000X0.150000X-0.850000X0.150000X0.850000X0*%
%ADD42RoundRect,0.162500X0.617500X0.162500X-0.617500X0.162500X-0.617500X-0.162500X0.617500X-0.162500X0*%
%ADD43R,1.100000X0.600000*%
%ADD44RoundRect,0.155000X0.212500X0.155000X-0.212500X0.155000X-0.212500X-0.155000X0.212500X-0.155000X0*%
%ADD45RoundRect,0.150000X0.150000X-0.850000X0.150000X0.850000X-0.150000X0.850000X-0.150000X-0.850000X0*%
%ADD46RoundRect,0.237500X-0.237500X0.300000X-0.237500X-0.300000X0.237500X-0.300000X0.237500X0.300000X0*%
%ADD47R,1.100000X1.800000*%
%ADD48RoundRect,0.237500X0.237500X-0.250000X0.237500X0.250000X-0.237500X0.250000X-0.237500X-0.250000X0*%
%ADD49R,0.900000X1.500000*%
%ADD50R,1.500000X0.900000*%
%ADD51C,0.600000*%
%ADD52R,3.900000X3.900000*%
%ADD53R,1.000000X1.500000*%
%ADD54RoundRect,0.155000X-0.212500X-0.155000X0.212500X-0.155000X0.212500X0.155000X-0.212500X0.155000X0*%
%ADD55RoundRect,0.237500X0.237500X-0.300000X0.237500X0.300000X-0.237500X0.300000X-0.237500X-0.300000X0*%
%ADD56C,0.650000*%
%ADD57R,0.600000X1.240000*%
%ADD58R,0.300000X1.240000*%
%ADD59O,1.000000X1.800000*%
%ADD60O,1.000000X2.100000*%
%ADD61RoundRect,0.160000X0.197500X0.160000X-0.197500X0.160000X-0.197500X-0.160000X0.197500X-0.160000X0*%
%ADD62RoundRect,0.250000X-0.650000X0.412500X-0.650000X-0.412500X0.650000X-0.412500X0.650000X0.412500X0*%
G04 APERTURE END LIST*
D10*
%TO.C,S2*%
X356473750Y-185578750D03*
X356473750Y-209391250D03*
D11*
X371713750Y-185578750D03*
X371713750Y-209391250D03*
%TD*%
D12*
%TO.C,S1*%
X344408750Y-161925000D03*
D11*
X344408750Y-177165000D03*
D12*
X368221250Y-161925000D03*
D11*
X368221250Y-177165000D03*
%TD*%
D12*
%TO.C,S7*%
X449183750Y-238125000D03*
D11*
X449183750Y-253365000D03*
D12*
X472996250Y-238125000D03*
D11*
X472996250Y-253365000D03*
%TD*%
D13*
%TO.C,SW3*%
X106140000Y-123785000D03*
D14*
X106140000Y-118785000D03*
X106140000Y-121285000D03*
D15*
X98640000Y-126885000D03*
X98640000Y-115685000D03*
D14*
X91640000Y-118785000D03*
X91640000Y-123785000D03*
%TD*%
D12*
%TO.C,S5*%
X501730000Y-247491250D03*
D11*
X516970000Y-247491250D03*
D12*
X501730000Y-223678750D03*
D11*
X516970000Y-223678750D03*
%TD*%
D12*
%TO.C,S6*%
X170577500Y-238125000D03*
D11*
X170577500Y-253365000D03*
D12*
X270590000Y-238125000D03*
D11*
X270590000Y-253365000D03*
%TD*%
D12*
%TO.C,S3*%
X501730000Y-209391250D03*
D11*
X516970000Y-209391250D03*
D12*
X501730000Y-185578750D03*
D11*
X516970000Y-185578750D03*
%TD*%
D12*
%TO.C,S4*%
X337265000Y-219075000D03*
D11*
X337265000Y-234315000D03*
D12*
X361077500Y-219075000D03*
D11*
X361077500Y-234315000D03*
%TD*%
D16*
%TO.C,RV2*%
X445140000Y-139085000D03*
X445140000Y-136585000D03*
X515140000Y-139085000D03*
X445140000Y-144085000D03*
X445140000Y-141585000D03*
X515140000Y-144085000D03*
D17*
X455140000Y-140335000D03*
X502640000Y-140335000D03*
%TD*%
D16*
%TO.C,RV1*%
X445140000Y-120035000D03*
X445140000Y-117535000D03*
X515140000Y-120035000D03*
X445140000Y-125035000D03*
X445140000Y-122535000D03*
X515140000Y-125035000D03*
D17*
X455140000Y-121285000D03*
X502640000Y-121285000D03*
%TD*%
D18*
%TO.C,R3*%
X282227500Y-110265000D03*
X284052500Y-110265000D03*
%TD*%
D19*
%TO.C,LED31*%
X430477500Y-135935000D03*
X430477500Y-134435000D03*
X425027500Y-135935000D03*
D20*
X425027500Y-134435000D03*
%TD*%
D21*
%TO.C,MX42*%
X284560000Y-168910000D03*
D11*
X289640000Y-168910000D03*
D21*
X294720000Y-168910000D03*
D22*
X293450000Y-171450000D03*
D23*
X297000000Y-171450000D03*
X283550000Y-173990000D03*
D22*
X287100000Y-173990000D03*
%TD*%
D18*
%TO.C,R2*%
X282227500Y-112265000D03*
X284052500Y-112265000D03*
%TD*%
D21*
%TO.C,MX60*%
X236935000Y-187960000D03*
D11*
X242015000Y-187960000D03*
D21*
X247095000Y-187960000D03*
D22*
X245825000Y-190500000D03*
D23*
X249375000Y-190500000D03*
X235925000Y-193040000D03*
D22*
X239475000Y-193040000D03*
%TD*%
D19*
%TO.C,LED46*%
X392377500Y-164510000D03*
X392377500Y-163010000D03*
X386927500Y-164510000D03*
D20*
X386927500Y-163010000D03*
%TD*%
D21*
%TO.C,MX53*%
X98822500Y-187960000D03*
D11*
X103902500Y-187960000D03*
D21*
X108982500Y-187960000D03*
D22*
X107712500Y-190500000D03*
D23*
X111262500Y-190500000D03*
X97812500Y-193040000D03*
D22*
X101362500Y-193040000D03*
%TD*%
D24*
%TO.C,C17*%
X142765000Y-137182500D03*
X142765000Y-136047500D03*
%TD*%
%TO.C,C74*%
X111808750Y-203857500D03*
X111808750Y-202722500D03*
%TD*%
D21*
%TO.C,MX84*%
X298847500Y-207010000D03*
D11*
X303927500Y-207010000D03*
D21*
X309007500Y-207010000D03*
D22*
X307737500Y-209550000D03*
D23*
X311287500Y-209550000D03*
X297837500Y-212090000D03*
D22*
X301387500Y-212090000D03*
%TD*%
D25*
%TO.C,C148*%
X449702500Y-119965000D03*
X447977500Y-119965000D03*
%TD*%
%TO.C,C156*%
X487677666Y-148577270D03*
X485952666Y-148577270D03*
%TD*%
D21*
%TO.C,MX30*%
X403622500Y-140335000D03*
D11*
X408702500Y-140335000D03*
D21*
X413782500Y-140335000D03*
D22*
X412512500Y-142875000D03*
D23*
X416062500Y-142875000D03*
X402612500Y-145415000D03*
D22*
X406162500Y-145415000D03*
%TD*%
D21*
%TO.C,MX74*%
X101203750Y-207010000D03*
D11*
X106283750Y-207010000D03*
D21*
X111363750Y-207010000D03*
D22*
X110093750Y-209550000D03*
D23*
X113643750Y-209550000D03*
X100193750Y-212090000D03*
D22*
X103743750Y-212090000D03*
%TD*%
D21*
%TO.C,MX63*%
X294085000Y-187960000D03*
D11*
X299165000Y-187960000D03*
D21*
X304245000Y-187960000D03*
D22*
X302975000Y-190500000D03*
D23*
X306525000Y-190500000D03*
X293075000Y-193040000D03*
D22*
X296625000Y-193040000D03*
%TD*%
D21*
%TO.C,MX15*%
X422672500Y-121285000D03*
D11*
X427752500Y-121285000D03*
D21*
X432832500Y-121285000D03*
D22*
X431562500Y-123825000D03*
D23*
X435112500Y-123825000D03*
X421662500Y-126365000D03*
D22*
X425212500Y-126365000D03*
%TD*%
D24*
%TO.C,C111*%
X226108750Y-241957500D03*
X226108750Y-240822500D03*
%TD*%
D19*
%TO.C,LED10*%
X330465000Y-116885000D03*
X330465000Y-115385000D03*
X325015000Y-116885000D03*
D20*
X325015000Y-115385000D03*
%TD*%
D21*
%TO.C,MX54*%
X122635000Y-187960000D03*
D11*
X127715000Y-187960000D03*
D21*
X132795000Y-187960000D03*
D22*
X131525000Y-190500000D03*
D23*
X135075000Y-190500000D03*
X121625000Y-193040000D03*
D22*
X125175000Y-193040000D03*
%TD*%
D26*
%TO.C,C136*%
X343540000Y-154197500D03*
X343540000Y-155332500D03*
%TD*%
D21*
%TO.C,MX23*%
X255985000Y-140335000D03*
D11*
X261065000Y-140335000D03*
D21*
X266145000Y-140335000D03*
D22*
X264875000Y-142875000D03*
D23*
X268425000Y-142875000D03*
X254975000Y-145415000D03*
D22*
X258525000Y-145415000D03*
%TD*%
D21*
%TO.C,MX22*%
X236935000Y-140335000D03*
D11*
X242015000Y-140335000D03*
D21*
X247095000Y-140335000D03*
D22*
X245825000Y-142875000D03*
D23*
X249375000Y-142875000D03*
X235925000Y-145415000D03*
D22*
X239475000Y-145415000D03*
%TD*%
D27*
%TO.C,D12*%
X355190000Y-129285000D03*
X358490000Y-129285000D03*
%TD*%
D28*
%TO.C,D66*%
X353876176Y-198235000D03*
X353876176Y-201535000D03*
%TD*%
D24*
%TO.C,C70*%
X457090000Y-184807500D03*
X457090000Y-183672500D03*
%TD*%
D19*
%TO.C,LED77*%
X173302500Y-202610000D03*
X173302500Y-201110000D03*
X167852500Y-202610000D03*
D20*
X167852500Y-201110000D03*
%TD*%
D27*
%TO.C,D56*%
X155165000Y-195960000D03*
X158465000Y-195960000D03*
%TD*%
D29*
%TO.C,U2*%
X480990000Y-155865000D03*
X480990000Y-153565000D03*
D30*
X487290000Y-153565000D03*
D29*
X480990000Y-151265000D03*
%TD*%
D25*
%TO.C,C154*%
X475777666Y-149177270D03*
X474052666Y-149177270D03*
%TD*%
D19*
%TO.C,LED24*%
X282840000Y-135935000D03*
X282840000Y-134435000D03*
X277390000Y-135935000D03*
D20*
X277390000Y-134435000D03*
%TD*%
D24*
%TO.C,C14*%
X414227500Y-118132500D03*
X414227500Y-116997500D03*
%TD*%
%TO.C,C1*%
X142765000Y-118132500D03*
X142765000Y-116997500D03*
%TD*%
D18*
%TO.C,R10*%
X439915000Y-168765000D03*
X441740000Y-168765000D03*
%TD*%
D21*
%TO.C,MX45*%
X351235000Y-168910000D03*
D11*
X356315000Y-168910000D03*
D21*
X361395000Y-168910000D03*
D22*
X360125000Y-171450000D03*
D23*
X363675000Y-171450000D03*
X350225000Y-173990000D03*
D22*
X353775000Y-173990000D03*
%TD*%
D24*
%TO.C,C112*%
X297546250Y-241957500D03*
X297546250Y-240822500D03*
%TD*%
D31*
%TO.C,C146*%
X440477500Y-226065000D03*
X442202500Y-226065000D03*
%TD*%
D27*
%TO.C,D95*%
X188502500Y-234060000D03*
X191802500Y-234060000D03*
%TD*%
D32*
%TO.C,U6*%
X294902500Y-120677500D03*
X294902500Y-119727500D03*
X294902500Y-118777500D03*
X297177500Y-118777500D03*
X297177500Y-119727500D03*
X297177500Y-120677500D03*
%TD*%
D24*
%TO.C,C103*%
X414227500Y-222907500D03*
X414227500Y-221772500D03*
%TD*%
%TO.C,C78*%
X195152500Y-203857500D03*
X195152500Y-202722500D03*
%TD*%
D27*
%TO.C,D80*%
X217077500Y-215010000D03*
X220377500Y-215010000D03*
%TD*%
%TO.C,D117*%
X398052500Y-253110000D03*
X401352500Y-253110000D03*
%TD*%
D21*
%TO.C,MX86*%
X336947500Y-207010000D03*
D11*
X342027500Y-207010000D03*
D21*
X347107500Y-207010000D03*
D22*
X345837500Y-209550000D03*
D23*
X349387500Y-209550000D03*
X335937500Y-212090000D03*
D22*
X339487500Y-212090000D03*
%TD*%
D27*
%TO.C,D93*%
X150402500Y-234060000D03*
X153702500Y-234060000D03*
%TD*%
D21*
%TO.C,MX28*%
X360760000Y-140335000D03*
D11*
X365840000Y-140335000D03*
D21*
X370920000Y-140335000D03*
D22*
X369650000Y-142875000D03*
D23*
X373200000Y-142875000D03*
X359750000Y-145415000D03*
D22*
X363300000Y-145415000D03*
%TD*%
D27*
%TO.C,D99*%
X264702500Y-234060000D03*
X268002500Y-234060000D03*
%TD*%
D24*
%TO.C,C38*%
X218965000Y-165757500D03*
X218965000Y-164622500D03*
%TD*%
D19*
%TO.C,LED47*%
X411427500Y-164510000D03*
X411427500Y-163010000D03*
X405977500Y-164510000D03*
D20*
X405977500Y-163010000D03*
%TD*%
D24*
%TO.C,C11*%
X352315000Y-118132500D03*
X352315000Y-116997500D03*
%TD*%
D21*
%TO.C,MX114*%
X334566250Y-245110000D03*
D11*
X339646250Y-245110000D03*
D21*
X344726250Y-245110000D03*
D22*
X343456250Y-247650000D03*
D23*
X347006250Y-247650000D03*
X333556250Y-250190000D03*
D22*
X337106250Y-250190000D03*
%TD*%
D31*
%TO.C,C143*%
X439915000Y-171015000D03*
X441640000Y-171015000D03*
%TD*%
D19*
%TO.C,LED89*%
X492390000Y-202610000D03*
X492390000Y-201110000D03*
X486940000Y-202610000D03*
D20*
X486940000Y-201110000D03*
%TD*%
D21*
%TO.C,MX68*%
X403622500Y-187960000D03*
D11*
X408702500Y-187960000D03*
D21*
X413782500Y-187960000D03*
D22*
X412512500Y-190500000D03*
D23*
X416062500Y-190500000D03*
X402612500Y-193040000D03*
D22*
X406162500Y-193040000D03*
%TD*%
D19*
%TO.C,LED49*%
X454290000Y-164510000D03*
X454290000Y-163010000D03*
X448840000Y-164510000D03*
D20*
X448840000Y-163010000D03*
%TD*%
D24*
%TO.C,C56*%
X171340000Y-184807500D03*
X171340000Y-183672500D03*
%TD*%
D19*
%TO.C,LED4*%
X197115000Y-116885000D03*
X197115000Y-115385000D03*
X191665000Y-116885000D03*
D20*
X191665000Y-115385000D03*
%TD*%
D27*
%TO.C,D65*%
X326615000Y-195960000D03*
X329915000Y-195960000D03*
%TD*%
D19*
%TO.C,LED83*%
X287602500Y-202610000D03*
X287602500Y-201110000D03*
X282152500Y-202610000D03*
D20*
X282152500Y-201110000D03*
%TD*%
D24*
%TO.C,C53*%
X109427500Y-184807500D03*
X109427500Y-183672500D03*
%TD*%
D27*
%TO.C,D58*%
X193265000Y-195960000D03*
X196565000Y-195960000D03*
%TD*%
%TO.C,D50*%
X459965000Y-176910000D03*
X463265000Y-176910000D03*
%TD*%
D24*
%TO.C,C92*%
X147527500Y-222907500D03*
X147527500Y-221772500D03*
%TD*%
%TO.C,C97*%
X242777500Y-222907500D03*
X242777500Y-221772500D03*
%TD*%
%TO.C,C108*%
X107046250Y-241957500D03*
X107046250Y-240822500D03*
%TD*%
D27*
%TO.C,D5*%
X212315000Y-129285000D03*
X215615000Y-129285000D03*
%TD*%
D21*
%TO.C,MX115*%
X358378750Y-245110000D03*
D11*
X363458750Y-245110000D03*
D21*
X368538750Y-245110000D03*
D22*
X367268750Y-247650000D03*
D23*
X370818750Y-247650000D03*
X357368750Y-250190000D03*
D22*
X360918750Y-250190000D03*
%TD*%
D24*
%TO.C,C27*%
X352315000Y-137182500D03*
X352315000Y-136047500D03*
%TD*%
%TO.C,C117*%
X414227500Y-241957500D03*
X414227500Y-240822500D03*
%TD*%
D19*
%TO.C,LED14*%
X411427500Y-116885000D03*
X411427500Y-115385000D03*
X405977500Y-116885000D03*
D20*
X405977500Y-115385000D03*
%TD*%
D27*
%TO.C,D4*%
X183740000Y-129285000D03*
X187040000Y-129285000D03*
%TD*%
D33*
%TO.C,R9*%
X441740000Y-173265000D03*
X439915000Y-173265000D03*
%TD*%
D27*
%TO.C,D92*%
X131352500Y-234060000D03*
X134652500Y-234060000D03*
%TD*%
D24*
%TO.C,C72*%
X495190000Y-184807500D03*
X495190000Y-183672500D03*
%TD*%
%TO.C,C67*%
X395177500Y-184807500D03*
X395177500Y-183672500D03*
%TD*%
%TO.C,C19*%
X180865000Y-137182500D03*
X180865000Y-136047500D03*
%TD*%
%TO.C,C98*%
X261827500Y-222907500D03*
X261827500Y-221772500D03*
%TD*%
D33*
%TO.C,R11*%
X441552500Y-192015000D03*
X439727500Y-192015000D03*
%TD*%
D34*
%TO.C,D45*%
X352345000Y-178465000D03*
X349045000Y-178465000D03*
%TD*%
D21*
%TO.C,MX87*%
X446485000Y-207010000D03*
D11*
X451565000Y-207010000D03*
D21*
X456645000Y-207010000D03*
D22*
X455375000Y-209550000D03*
D23*
X458925000Y-209550000D03*
X445475000Y-212090000D03*
D22*
X449025000Y-212090000D03*
%TD*%
D27*
%TO.C,D70*%
X440915000Y-195960000D03*
X444215000Y-195960000D03*
%TD*%
D34*
%TO.C,D32*%
X96401176Y-177533000D03*
X93101176Y-177533000D03*
%TD*%
D19*
%TO.C,LED9*%
X311415000Y-116885000D03*
X311415000Y-115385000D03*
X305965000Y-116885000D03*
D20*
X305965000Y-115385000D03*
%TD*%
D24*
%TO.C,C66*%
X368983750Y-194332500D03*
X368983750Y-193197500D03*
%TD*%
%TO.C,C84*%
X309452500Y-203857500D03*
X309452500Y-202722500D03*
%TD*%
D19*
%TO.C,LED111*%
X223308750Y-240710000D03*
X223308750Y-239210000D03*
X217858750Y-240710000D03*
D20*
X217858750Y-239210000D03*
%TD*%
D21*
%TO.C,MX117*%
X403622500Y-245110000D03*
D11*
X408702500Y-245110000D03*
D21*
X413782500Y-245110000D03*
D22*
X412512500Y-247650000D03*
D23*
X416062500Y-247650000D03*
X402612500Y-250190000D03*
D22*
X406162500Y-250190000D03*
%TD*%
D21*
%TO.C,MX20*%
X189310000Y-140335000D03*
D11*
X194390000Y-140335000D03*
D21*
X199470000Y-140335000D03*
D22*
X198200000Y-142875000D03*
D23*
X201750000Y-142875000D03*
X188300000Y-145415000D03*
D22*
X191850000Y-145415000D03*
%TD*%
D19*
%TO.C,LED71*%
X473340000Y-183560000D03*
X473340000Y-182060000D03*
X467890000Y-183560000D03*
D20*
X467890000Y-182060000D03*
%TD*%
D24*
%TO.C,C37*%
X199915000Y-165757500D03*
X199915000Y-164622500D03*
%TD*%
D27*
%TO.C,D67*%
X379002500Y-195960000D03*
X382302500Y-195960000D03*
%TD*%
%TO.C,D22*%
X231365000Y-148335000D03*
X234665000Y-148335000D03*
%TD*%
D35*
%TO.C,H6*%
X294415166Y-142177270D03*
%TD*%
D21*
%TO.C,MX58*%
X198835000Y-187960000D03*
D11*
X203915000Y-187960000D03*
D21*
X208995000Y-187960000D03*
D22*
X207725000Y-190500000D03*
D23*
X211275000Y-190500000D03*
X197825000Y-193040000D03*
D22*
X201375000Y-193040000D03*
%TD*%
D21*
%TO.C,MX101*%
X308372500Y-226060000D03*
D11*
X313452500Y-226060000D03*
D21*
X318532500Y-226060000D03*
D22*
X317262500Y-228600000D03*
D23*
X320812500Y-228600000D03*
X307362500Y-231140000D03*
D22*
X310912500Y-231140000D03*
%TD*%
D24*
%TO.C,C44*%
X333265000Y-165757500D03*
X333265000Y-164622500D03*
%TD*%
D27*
%TO.C,D3*%
X164690000Y-129285000D03*
X167990000Y-129285000D03*
%TD*%
%TO.C,D86*%
X331377500Y-215010000D03*
X334677500Y-215010000D03*
%TD*%
%TO.C,D71*%
X459965000Y-195960000D03*
X463265000Y-195960000D03*
%TD*%
D36*
%TO.C,R20*%
X300840000Y-115652500D03*
X300840000Y-117477500D03*
%TD*%
D21*
%TO.C,MX64*%
X313135000Y-187960000D03*
D11*
X318215000Y-187960000D03*
D21*
X323295000Y-187960000D03*
D22*
X322025000Y-190500000D03*
D23*
X325575000Y-190500000D03*
X312125000Y-193040000D03*
D22*
X315675000Y-193040000D03*
%TD*%
D37*
%TO.C,J2*%
X500715166Y-155177270D03*
D38*
X498175166Y-155177270D03*
X495635166Y-155177270D03*
X493095166Y-155177270D03*
%TD*%
D24*
%TO.C,C16*%
X104665000Y-137182500D03*
X104665000Y-136047500D03*
%TD*%
%TO.C,C118*%
X433277500Y-241957500D03*
X433277500Y-240822500D03*
%TD*%
%TO.C,C64*%
X323740000Y-184807500D03*
X323740000Y-183672500D03*
%TD*%
D25*
%TO.C,C142*%
X440002500Y-146015000D03*
X438277500Y-146015000D03*
%TD*%
D19*
%TO.C,LED34*%
X139965000Y-164510000D03*
X139965000Y-163010000D03*
X134515000Y-164510000D03*
D20*
X134515000Y-163010000D03*
%TD*%
D21*
%TO.C,MX66*%
X358378750Y-197485000D03*
D11*
X363458750Y-197485000D03*
D21*
X368538750Y-197485000D03*
D22*
X367268750Y-200025000D03*
D23*
X370818750Y-200025000D03*
X357368750Y-202565000D03*
D22*
X360918750Y-202565000D03*
%TD*%
D39*
%TO.C,U10*%
X478690166Y-145092270D03*
X478690166Y-144592270D03*
X478690166Y-144092270D03*
X478690166Y-143592270D03*
X478690166Y-143092270D03*
D40*
X479415166Y-142867270D03*
X479915166Y-142867270D03*
X480415166Y-142867270D03*
D39*
X481140166Y-143092270D03*
X481140166Y-143592270D03*
X481140166Y-144092270D03*
X481140166Y-144592270D03*
X481140166Y-145092270D03*
D40*
X480415166Y-145317270D03*
X479915166Y-145317270D03*
X479415166Y-145317270D03*
%TD*%
D31*
%TO.C,C147*%
X442577500Y-244552500D03*
X444302500Y-244552500D03*
%TD*%
D21*
%TO.C,MX95*%
X194072500Y-226060000D03*
D11*
X199152500Y-226060000D03*
D21*
X204232500Y-226060000D03*
D22*
X202962500Y-228600000D03*
D23*
X206512500Y-228600000D03*
X193062500Y-231140000D03*
D22*
X196612500Y-231140000D03*
%TD*%
D24*
%TO.C,C40*%
X257065000Y-165757500D03*
X257065000Y-164622500D03*
%TD*%
D21*
%TO.C,MX14*%
X403622500Y-121285000D03*
D11*
X408702500Y-121285000D03*
D21*
X413782500Y-121285000D03*
D22*
X412512500Y-123825000D03*
D23*
X416062500Y-123825000D03*
X402612500Y-126365000D03*
D22*
X406162500Y-126365000D03*
%TD*%
D19*
%TO.C,LED43*%
X311415000Y-164510000D03*
X311415000Y-163010000D03*
X305965000Y-164510000D03*
D20*
X305965000Y-163010000D03*
%TD*%
D24*
%TO.C,C116*%
X395177500Y-241957500D03*
X395177500Y-240822500D03*
%TD*%
D19*
%TO.C,LED25*%
X311415000Y-135935000D03*
X311415000Y-134435000D03*
X305965000Y-135935000D03*
D20*
X305965000Y-134435000D03*
%TD*%
D26*
%TO.C,C135*%
X201572500Y-154897500D03*
X201572500Y-156032500D03*
%TD*%
D27*
%TO.C,D42*%
X278990000Y-176910000D03*
X282290000Y-176910000D03*
%TD*%
D19*
%TO.C,LED62*%
X282840000Y-183560000D03*
X282840000Y-182060000D03*
X277390000Y-183560000D03*
D20*
X277390000Y-182060000D03*
%TD*%
D19*
%TO.C,LED107*%
X511440000Y-231185000D03*
X511440000Y-229685000D03*
X505990000Y-231185000D03*
D20*
X505990000Y-229685000D03*
%TD*%
D27*
%TO.C,D10*%
X317090000Y-129285000D03*
X320390000Y-129285000D03*
%TD*%
D41*
%TO.C,U4*%
X345355176Y-152325000D03*
X346625176Y-152325000D03*
X347895176Y-152325000D03*
X349165176Y-152325000D03*
X350435176Y-152325000D03*
X351705176Y-152325000D03*
X352975176Y-152325000D03*
X354245176Y-152325000D03*
X354245176Y-157325000D03*
X352975176Y-157325000D03*
X351705176Y-157325000D03*
X350435176Y-157325000D03*
X349165176Y-157325000D03*
X347895176Y-157325000D03*
X346625176Y-157325000D03*
X345355176Y-157325000D03*
%TD*%
D24*
%TO.C,C62*%
X285640000Y-184807500D03*
X285640000Y-183672500D03*
%TD*%
D27*
%TO.C,D31*%
X417102500Y-148335000D03*
X420402500Y-148335000D03*
%TD*%
D21*
%TO.C,MX85*%
X317897500Y-207010000D03*
D11*
X322977500Y-207010000D03*
D21*
X328057500Y-207010000D03*
D22*
X326787500Y-209550000D03*
D23*
X330337500Y-209550000D03*
X316887500Y-212090000D03*
D22*
X320437500Y-212090000D03*
%TD*%
D21*
%TO.C,MX99*%
X270272500Y-226060000D03*
D11*
X275352500Y-226060000D03*
D21*
X280432500Y-226060000D03*
D22*
X279162500Y-228600000D03*
D23*
X282712500Y-228600000D03*
X269262500Y-231140000D03*
D22*
X272812500Y-231140000D03*
%TD*%
D21*
%TO.C,MX113*%
X310753750Y-245110000D03*
D11*
X315833750Y-245110000D03*
D21*
X320913750Y-245110000D03*
D22*
X319643750Y-247650000D03*
D23*
X323193750Y-247650000D03*
X309743750Y-250190000D03*
D22*
X313293750Y-250190000D03*
%TD*%
D19*
%TO.C,LED56*%
X168540000Y-183560000D03*
X168540000Y-182060000D03*
X163090000Y-183560000D03*
D20*
X163090000Y-182060000D03*
%TD*%
D18*
%TO.C,R16*%
X440427500Y-228265000D03*
X442252500Y-228265000D03*
%TD*%
D19*
%TO.C,LED97*%
X239977500Y-221660000D03*
X239977500Y-220160000D03*
X234527500Y-221660000D03*
D20*
X234527500Y-220160000D03*
%TD*%
D24*
%TO.C,C109*%
X130858750Y-241957500D03*
X130858750Y-240822500D03*
%TD*%
D27*
%TO.C,D77*%
X159927500Y-215010000D03*
X163227500Y-215010000D03*
%TD*%
D24*
%TO.C,C137*%
X475740000Y-155932500D03*
X475740000Y-154797500D03*
%TD*%
D27*
%TO.C,D37*%
X183740000Y-176910000D03*
X187040000Y-176910000D03*
%TD*%
D19*
%TO.C,LED64*%
X320940000Y-183560000D03*
X320940000Y-182060000D03*
X315490000Y-183560000D03*
D20*
X315490000Y-182060000D03*
%TD*%
D21*
%TO.C,MX61*%
X255985000Y-187960000D03*
D11*
X261065000Y-187960000D03*
D21*
X266145000Y-187960000D03*
D22*
X264875000Y-190500000D03*
D23*
X268425000Y-190500000D03*
X254975000Y-193040000D03*
D22*
X258525000Y-193040000D03*
%TD*%
D24*
%TO.C,C20*%
X199915000Y-137182500D03*
X199915000Y-136047500D03*
%TD*%
%TO.C,C24*%
X285640000Y-137182500D03*
X285640000Y-136047500D03*
%TD*%
D27*
%TO.C,D52*%
X498065000Y-176910000D03*
X501365000Y-176910000D03*
%TD*%
D24*
%TO.C,C113*%
X321358750Y-241957500D03*
X321358750Y-240822500D03*
%TD*%
D19*
%TO.C,LED29*%
X392377500Y-135935000D03*
X392377500Y-134435000D03*
X386927500Y-135935000D03*
D20*
X386927500Y-134435000D03*
%TD*%
D19*
%TO.C,LED5*%
X225690000Y-116885000D03*
X225690000Y-115385000D03*
X220240000Y-116885000D03*
D20*
X220240000Y-115385000D03*
%TD*%
D21*
%TO.C,MX1*%
X132160000Y-121285000D03*
D11*
X137240000Y-121285000D03*
D21*
X142320000Y-121285000D03*
D22*
X141050000Y-123825000D03*
D23*
X144600000Y-123825000D03*
X131150000Y-126365000D03*
D22*
X134700000Y-126365000D03*
%TD*%
D27*
%TO.C,D111*%
X209935000Y-253265000D03*
X213235000Y-253265000D03*
%TD*%
D36*
%TO.C,R24*%
X110540000Y-120352500D03*
X110540000Y-122177500D03*
%TD*%
D27*
%TO.C,D64*%
X307565000Y-195960000D03*
X310865000Y-195960000D03*
%TD*%
D25*
%TO.C,C153*%
X475777666Y-147177270D03*
X474052666Y-147177270D03*
%TD*%
D24*
%TO.C,C32*%
X104665000Y-165757500D03*
X104665000Y-164622500D03*
%TD*%
D27*
%TO.C,D109*%
X114683750Y-253110000D03*
X117983750Y-253110000D03*
%TD*%
%TO.C,D83*%
X274227500Y-215010000D03*
X277527500Y-215010000D03*
%TD*%
D24*
%TO.C,C119*%
X466615000Y-241957500D03*
X466615000Y-240822500D03*
%TD*%
D27*
%TO.C,D113*%
X305183750Y-253110000D03*
X308483750Y-253110000D03*
%TD*%
D24*
%TO.C,C96*%
X223727500Y-222907500D03*
X223727500Y-221772500D03*
%TD*%
%TO.C,C71*%
X476140000Y-184807500D03*
X476140000Y-183672500D03*
%TD*%
D21*
%TO.C,MX49*%
X446485000Y-168910000D03*
D11*
X451565000Y-168910000D03*
D21*
X456645000Y-168910000D03*
D22*
X455375000Y-171450000D03*
D23*
X458925000Y-171450000D03*
X445475000Y-173990000D03*
D22*
X449025000Y-173990000D03*
%TD*%
D21*
%TO.C,MX44*%
X322660000Y-168910000D03*
D11*
X327740000Y-168910000D03*
D21*
X332820000Y-168910000D03*
D22*
X331550000Y-171450000D03*
D23*
X335100000Y-171450000D03*
X321650000Y-173990000D03*
D22*
X325200000Y-173990000D03*
%TD*%
D21*
%TO.C,MX116*%
X384572500Y-245110000D03*
D11*
X389652500Y-245110000D03*
D21*
X394732500Y-245110000D03*
D22*
X393462500Y-247650000D03*
D23*
X397012500Y-247650000D03*
X383562500Y-250190000D03*
D22*
X387112500Y-250190000D03*
%TD*%
D19*
%TO.C,LED69*%
X430477500Y-183560000D03*
X430477500Y-182060000D03*
X425027500Y-183560000D03*
D20*
X425027500Y-182060000D03*
%TD*%
D35*
%TO.C,H7*%
X294415166Y-204177270D03*
%TD*%
D21*
%TO.C,MX19*%
X170260000Y-140335000D03*
D11*
X175340000Y-140335000D03*
D21*
X180420000Y-140335000D03*
D22*
X179150000Y-142875000D03*
D23*
X182700000Y-142875000D03*
X169250000Y-145415000D03*
D22*
X172800000Y-145415000D03*
%TD*%
D36*
%TO.C,R18*%
X442540000Y-247440000D03*
X442540000Y-249265000D03*
%TD*%
D19*
%TO.C,LED28*%
X368565000Y-135935000D03*
X368565000Y-134435000D03*
X363115000Y-135935000D03*
D20*
X363115000Y-134435000D03*
%TD*%
D42*
%TO.C,U8*%
X508642176Y-183695000D03*
X508642176Y-184645000D03*
X508642176Y-185595000D03*
X505942176Y-185595000D03*
X505942176Y-183695000D03*
%TD*%
D18*
%TO.C,R7*%
X438227500Y-148265000D03*
X440052500Y-148265000D03*
%TD*%
D21*
%TO.C,MX10*%
X322660000Y-121285000D03*
D11*
X327740000Y-121285000D03*
D21*
X332820000Y-121285000D03*
D22*
X331550000Y-123825000D03*
D23*
X335100000Y-123825000D03*
X321650000Y-126365000D03*
D22*
X325200000Y-126365000D03*
%TD*%
D24*
%TO.C,C91*%
X128477500Y-222907500D03*
X128477500Y-221772500D03*
%TD*%
D21*
%TO.C,MX75*%
X127397500Y-207010000D03*
D11*
X132477500Y-207010000D03*
D21*
X137557500Y-207010000D03*
D22*
X136287500Y-209550000D03*
D23*
X139837500Y-209550000D03*
X126387500Y-212090000D03*
D22*
X129937500Y-212090000D03*
%TD*%
D27*
%TO.C,D104*%
X440915000Y-234060000D03*
X444215000Y-234060000D03*
%TD*%
%TO.C,D96*%
X207552500Y-234060000D03*
X210852500Y-234060000D03*
%TD*%
D19*
%TO.C,LED30*%
X411427500Y-135935000D03*
X411427500Y-134435000D03*
X405977500Y-135935000D03*
D20*
X405977500Y-134435000D03*
%TD*%
D27*
%TO.C,D25*%
X298040000Y-148335000D03*
X301340000Y-148335000D03*
%TD*%
%TO.C,D88*%
X459965000Y-215010000D03*
X463265000Y-215010000D03*
%TD*%
%TO.C,D54*%
X117065000Y-195960000D03*
X120365000Y-195960000D03*
%TD*%
D19*
%TO.C,LED50*%
X473340000Y-164510000D03*
X473340000Y-163010000D03*
X467890000Y-164510000D03*
D20*
X467890000Y-163010000D03*
%TD*%
D19*
%TO.C,LED35*%
X159015000Y-164510000D03*
X159015000Y-163010000D03*
X153565000Y-164510000D03*
D20*
X153565000Y-163010000D03*
%TD*%
D34*
%TO.C,D102*%
X345145000Y-234965000D03*
X341845000Y-234965000D03*
%TD*%
D21*
%TO.C,MX12*%
X360760000Y-121285000D03*
D11*
X365840000Y-121285000D03*
D21*
X370920000Y-121285000D03*
D22*
X369650000Y-123825000D03*
D23*
X373200000Y-123825000D03*
X359750000Y-126365000D03*
D22*
X363300000Y-126365000D03*
%TD*%
D21*
%TO.C,MX37*%
X189310000Y-168910000D03*
D11*
X194390000Y-168910000D03*
D21*
X199470000Y-168910000D03*
D22*
X198200000Y-171450000D03*
D23*
X201750000Y-171450000D03*
X188300000Y-173990000D03*
D22*
X191850000Y-173990000D03*
%TD*%
D43*
%TO.C,U11*%
X294815166Y-124977270D03*
X294815166Y-124027270D03*
X294815166Y-123077270D03*
X297415166Y-123077270D03*
X297415166Y-124977270D03*
%TD*%
D19*
%TO.C,LED65*%
X339990000Y-183560000D03*
X339990000Y-182060000D03*
X334540000Y-183560000D03*
D20*
X334540000Y-182060000D03*
%TD*%
D19*
%TO.C,LED48*%
X430477500Y-164510000D03*
X430477500Y-163010000D03*
X425027500Y-164510000D03*
D20*
X425027500Y-163010000D03*
%TD*%
D21*
%TO.C,MX96*%
X213122500Y-226060000D03*
D11*
X218202500Y-226060000D03*
D21*
X223282500Y-226060000D03*
D22*
X222012500Y-228600000D03*
D23*
X225562500Y-228600000D03*
X212112500Y-231140000D03*
D22*
X215662500Y-231140000D03*
%TD*%
D27*
%TO.C,D33*%
X107540000Y-176910000D03*
X110840000Y-176910000D03*
%TD*%
D21*
%TO.C,MX76*%
X146447500Y-207010000D03*
D11*
X151527500Y-207010000D03*
D21*
X156607500Y-207010000D03*
D22*
X155337500Y-209550000D03*
D23*
X158887500Y-209550000D03*
X145437500Y-212090000D03*
D22*
X148987500Y-212090000D03*
%TD*%
D44*
%TO.C,C159*%
X491782666Y-152444770D03*
X490647666Y-152444770D03*
%TD*%
D31*
%TO.C,C145*%
X439077500Y-205465000D03*
X440802500Y-205465000D03*
%TD*%
D24*
%TO.C,C52*%
X514240000Y-165757500D03*
X514240000Y-164622500D03*
%TD*%
D45*
%TO.C,U5*%
X474085000Y-158015000D03*
X472815000Y-158015000D03*
X471545000Y-158015000D03*
X470275000Y-158015000D03*
X469005000Y-158015000D03*
X467735000Y-158015000D03*
X466465000Y-158015000D03*
X465195000Y-158015000D03*
X465195000Y-153015000D03*
X466465000Y-153015000D03*
X467735000Y-153015000D03*
X469005000Y-153015000D03*
X470275000Y-153015000D03*
X471545000Y-153015000D03*
X472815000Y-153015000D03*
X474085000Y-153015000D03*
%TD*%
D19*
%TO.C,LED118*%
X430477500Y-240710000D03*
X430477500Y-239210000D03*
X425027500Y-240710000D03*
D20*
X425027500Y-239210000D03*
%TD*%
D35*
%TO.C,H10*%
X175415166Y-181177270D03*
%TD*%
D19*
%TO.C,LED3*%
X178065000Y-116885000D03*
X178065000Y-115385000D03*
X172615000Y-116885000D03*
D20*
X172615000Y-115385000D03*
%TD*%
D21*
%TO.C,MX57*%
X179785000Y-187960000D03*
D11*
X184865000Y-187960000D03*
D21*
X189945000Y-187960000D03*
D22*
X188675000Y-190500000D03*
D23*
X192225000Y-190500000D03*
X178775000Y-193040000D03*
D22*
X182325000Y-193040000D03*
%TD*%
D36*
%TO.C,R28*%
X291140000Y-123052500D03*
X291140000Y-124877500D03*
%TD*%
D21*
%TO.C,MX48*%
X422672500Y-168910000D03*
D11*
X427752500Y-168910000D03*
D21*
X432832500Y-168910000D03*
D22*
X431562500Y-171450000D03*
D23*
X435112500Y-171450000D03*
X421662500Y-173990000D03*
D22*
X425212500Y-173990000D03*
%TD*%
D19*
%TO.C,LED110*%
X151871250Y-240710000D03*
X151871250Y-239210000D03*
X146421250Y-240710000D03*
D20*
X146421250Y-239210000D03*
%TD*%
D24*
%TO.C,C75*%
X138002500Y-203857500D03*
X138002500Y-202722500D03*
%TD*%
D21*
%TO.C,MX73*%
X503635000Y-197485000D03*
D11*
X508715000Y-197485000D03*
D21*
X513795000Y-197485000D03*
D22*
X512525000Y-200025000D03*
D23*
X516075000Y-200025000D03*
X502625000Y-202565000D03*
D22*
X506175000Y-202565000D03*
%TD*%
D27*
%TO.C,D17*%
X126590000Y-148335000D03*
X129890000Y-148335000D03*
%TD*%
D21*
%TO.C,MX106*%
X484585000Y-226060000D03*
D11*
X489665000Y-226060000D03*
D21*
X494745000Y-226060000D03*
D22*
X493475000Y-228600000D03*
D23*
X497025000Y-228600000D03*
X483575000Y-231140000D03*
D22*
X487125000Y-231140000D03*
%TD*%
D24*
%TO.C,C100*%
X299927500Y-222907500D03*
X299927500Y-221772500D03*
%TD*%
D33*
%TO.C,R13*%
X440852500Y-211465000D03*
X439027500Y-211465000D03*
%TD*%
D19*
%TO.C,LED22*%
X244740000Y-135935000D03*
X244740000Y-134435000D03*
X239290000Y-135935000D03*
D20*
X239290000Y-134435000D03*
%TD*%
D19*
%TO.C,LED90*%
X104246250Y-221660000D03*
X104246250Y-220160000D03*
X98796250Y-221660000D03*
D20*
X98796250Y-220160000D03*
%TD*%
D24*
%TO.C,C45*%
X361840000Y-165757500D03*
X361840000Y-164622500D03*
%TD*%
D27*
%TO.C,D78*%
X178977500Y-215010000D03*
X182277500Y-215010000D03*
%TD*%
D19*
%TO.C,LED13*%
X392377500Y-116885000D03*
X392377500Y-115385000D03*
X386927500Y-116885000D03*
D20*
X386927500Y-115385000D03*
%TD*%
D24*
%TO.C,C90*%
X107046250Y-222907500D03*
X107046250Y-221772500D03*
%TD*%
D21*
%TO.C,MX92*%
X136922500Y-226060000D03*
D11*
X142002500Y-226060000D03*
D21*
X147082500Y-226060000D03*
D22*
X145812500Y-228600000D03*
D23*
X149362500Y-228600000D03*
X135912500Y-231140000D03*
D22*
X139462500Y-231140000D03*
%TD*%
D24*
%TO.C,C33*%
X123715000Y-165757500D03*
X123715000Y-164622500D03*
%TD*%
%TO.C,C12*%
X371365000Y-118132500D03*
X371365000Y-116997500D03*
%TD*%
%TO.C,C101*%
X318977500Y-222907500D03*
X318977500Y-221772500D03*
%TD*%
D27*
%TO.C,D60*%
X231365000Y-195960000D03*
X234665000Y-195960000D03*
%TD*%
D21*
%TO.C,MX89*%
X484585000Y-207010000D03*
D11*
X489665000Y-207010000D03*
D21*
X494745000Y-207010000D03*
D22*
X493475000Y-209550000D03*
D23*
X497025000Y-209550000D03*
X483575000Y-212090000D03*
D22*
X487125000Y-212090000D03*
%TD*%
D21*
%TO.C,MX109*%
X120253750Y-245110000D03*
D11*
X125333750Y-245110000D03*
D21*
X130413750Y-245110000D03*
D22*
X129143750Y-247650000D03*
D23*
X132693750Y-247650000D03*
X119243750Y-250190000D03*
D22*
X122793750Y-250190000D03*
%TD*%
D44*
%TO.C,C151*%
X507707500Y-181515000D03*
X506572500Y-181515000D03*
%TD*%
D21*
%TO.C,MX24*%
X275035000Y-140335000D03*
D11*
X280115000Y-140335000D03*
D21*
X285195000Y-140335000D03*
D22*
X283925000Y-142875000D03*
D23*
X287475000Y-142875000D03*
X274025000Y-145415000D03*
D22*
X277575000Y-145415000D03*
%TD*%
D21*
%TO.C,MX110*%
X144066250Y-245110000D03*
D11*
X149146250Y-245110000D03*
D21*
X154226250Y-245110000D03*
D22*
X152956250Y-247650000D03*
D23*
X156506250Y-247650000D03*
X143056250Y-250190000D03*
D22*
X146606250Y-250190000D03*
%TD*%
D21*
%TO.C,MX34*%
X132160000Y-168910000D03*
D11*
X137240000Y-168910000D03*
D21*
X142320000Y-168910000D03*
D22*
X141050000Y-171450000D03*
D23*
X144600000Y-171450000D03*
X131150000Y-173990000D03*
D22*
X134700000Y-173990000D03*
%TD*%
D19*
%TO.C,LED114*%
X342371250Y-240710000D03*
X342371250Y-239210000D03*
X336921250Y-240710000D03*
D20*
X336921250Y-239210000D03*
%TD*%
D27*
%TO.C,D57*%
X174215000Y-195960000D03*
X177515000Y-195960000D03*
%TD*%
D24*
%TO.C,C82*%
X271352500Y-203857500D03*
X271352500Y-202722500D03*
%TD*%
D19*
%TO.C,LED58*%
X206640000Y-183560000D03*
X206640000Y-182060000D03*
X201190000Y-183560000D03*
D20*
X201190000Y-182060000D03*
%TD*%
D46*
%TO.C,C158*%
X479015166Y-147314770D03*
X479015166Y-149039770D03*
%TD*%
D27*
%TO.C,D27*%
X336140000Y-148335000D03*
X339440000Y-148335000D03*
%TD*%
%TO.C,D115*%
X352808750Y-253110000D03*
X356108750Y-253110000D03*
%TD*%
D24*
%TO.C,C15*%
X433277500Y-118132500D03*
X433277500Y-116997500D03*
%TD*%
D21*
%TO.C,MX5*%
X217885000Y-121285000D03*
D11*
X222965000Y-121285000D03*
D21*
X228045000Y-121285000D03*
D22*
X226775000Y-123825000D03*
D23*
X230325000Y-123825000D03*
X216875000Y-126365000D03*
D22*
X220425000Y-126365000D03*
%TD*%
D21*
%TO.C,MX31*%
X422720176Y-140335000D03*
D11*
X427800176Y-140335000D03*
D21*
X432880176Y-140335000D03*
D22*
X431610176Y-142875000D03*
D23*
X435160176Y-142875000D03*
X421710176Y-145415000D03*
D22*
X425260176Y-145415000D03*
%TD*%
D19*
%TO.C,LED75*%
X135202500Y-202610000D03*
X135202500Y-201110000D03*
X129752500Y-202610000D03*
D20*
X129752500Y-201110000D03*
%TD*%
D27*
%TO.C,D15*%
X417102500Y-129285000D03*
X420402500Y-129285000D03*
%TD*%
D46*
%TO.C,C138*%
X94288176Y-120409500D03*
X94288176Y-122134500D03*
%TD*%
D35*
%TO.C,H8*%
X208415166Y-142177270D03*
%TD*%
D19*
%TO.C,LED78*%
X192352500Y-202610000D03*
X192352500Y-201110000D03*
X186902500Y-202610000D03*
D20*
X186902500Y-201110000D03*
%TD*%
D24*
%TO.C,C21*%
X228490000Y-137182500D03*
X228490000Y-136047500D03*
%TD*%
%TO.C,C76*%
X157052500Y-203857500D03*
X157052500Y-202722500D03*
%TD*%
D21*
%TO.C,MX40*%
X246460000Y-168910000D03*
D11*
X251540000Y-168910000D03*
D21*
X256620000Y-168910000D03*
D22*
X255350000Y-171450000D03*
D23*
X258900000Y-171450000D03*
X245450000Y-173990000D03*
D22*
X249000000Y-173990000D03*
%TD*%
D31*
%TO.C,C144*%
X439777500Y-189765000D03*
X441502500Y-189765000D03*
%TD*%
D24*
%TO.C,C85*%
X328502500Y-203857500D03*
X328502500Y-202722500D03*
%TD*%
D47*
%TO.C,SW1*%
X462790000Y-116165000D03*
X462790000Y-122365000D03*
X466490000Y-116165000D03*
X466490000Y-122365000D03*
%TD*%
D34*
%TO.C,D16*%
X96401176Y-149720000D03*
X93101176Y-149720000D03*
%TD*%
D21*
%TO.C,MX82*%
X260747500Y-207010000D03*
D11*
X265827500Y-207010000D03*
D21*
X270907500Y-207010000D03*
D22*
X269637500Y-209550000D03*
D23*
X273187500Y-209550000D03*
X259737500Y-212090000D03*
D22*
X263287500Y-212090000D03*
%TD*%
D24*
%TO.C,C18*%
X161815000Y-137182500D03*
X161815000Y-136047500D03*
%TD*%
D21*
%TO.C,MX79*%
X203597500Y-207010000D03*
D11*
X208677500Y-207010000D03*
D21*
X213757500Y-207010000D03*
D22*
X212487500Y-209550000D03*
D23*
X216037500Y-209550000D03*
X202587500Y-212090000D03*
D22*
X206137500Y-212090000D03*
%TD*%
D25*
%TO.C,C149*%
X449777666Y-139477270D03*
X448052666Y-139477270D03*
%TD*%
D24*
%TO.C,C58*%
X209440000Y-184807500D03*
X209440000Y-183672500D03*
%TD*%
D19*
%TO.C,LED93*%
X163777500Y-221660000D03*
X163777500Y-220160000D03*
X158327500Y-221660000D03*
D20*
X158327500Y-220160000D03*
%TD*%
D21*
%TO.C,MX55*%
X141685000Y-187960000D03*
D11*
X146765000Y-187960000D03*
D21*
X151845000Y-187960000D03*
D22*
X150575000Y-190500000D03*
D23*
X154125000Y-190500000D03*
X140675000Y-193040000D03*
D22*
X144225000Y-193040000D03*
%TD*%
D19*
%TO.C,LED17*%
X139965000Y-135935000D03*
X139965000Y-134435000D03*
X134515000Y-135935000D03*
D20*
X134515000Y-134435000D03*
%TD*%
D24*
%TO.C,C102*%
X354696250Y-222907500D03*
X354696250Y-221772500D03*
%TD*%
D21*
%TO.C,MX56*%
X160735000Y-187960000D03*
D11*
X165815000Y-187960000D03*
D21*
X170895000Y-187960000D03*
D22*
X169625000Y-190500000D03*
D23*
X173175000Y-190500000D03*
X159725000Y-193040000D03*
D22*
X163275000Y-193040000D03*
%TD*%
D19*
%TO.C,LED54*%
X130440000Y-183560000D03*
X130440000Y-182060000D03*
X124990000Y-183560000D03*
D20*
X124990000Y-182060000D03*
%TD*%
D35*
%TO.C,H4*%
X506415166Y-131177270D03*
%TD*%
D21*
%TO.C,MX13*%
X384572500Y-121285000D03*
D11*
X389652500Y-121285000D03*
D21*
X394732500Y-121285000D03*
D22*
X393462500Y-123825000D03*
D23*
X397012500Y-123825000D03*
X383562500Y-126365000D03*
D22*
X387112500Y-126365000D03*
%TD*%
D27*
%TO.C,D69*%
X417102500Y-195960000D03*
X420402500Y-195960000D03*
%TD*%
D21*
%TO.C,MX71*%
X465535000Y-187960000D03*
D11*
X470615000Y-187960000D03*
D21*
X475695000Y-187960000D03*
D22*
X474425000Y-190500000D03*
D23*
X477975000Y-190500000D03*
X464525000Y-193040000D03*
D22*
X468075000Y-193040000D03*
%TD*%
D18*
%TO.C,R27*%
X448002666Y-141577270D03*
X449827666Y-141577270D03*
%TD*%
D35*
%TO.C,H2*%
X118415166Y-128177270D03*
%TD*%
D36*
%TO.C,R25*%
X113340000Y-120352500D03*
X113340000Y-122177500D03*
%TD*%
D48*
%TO.C,R22*%
X512245176Y-184668500D03*
X512245176Y-182843500D03*
%TD*%
D24*
%TO.C,C10*%
X333265000Y-118132500D03*
X333265000Y-116997500D03*
%TD*%
D31*
%TO.C,C132*%
X293377500Y-131665000D03*
X295102500Y-131665000D03*
%TD*%
D48*
%TO.C,R17*%
X444740000Y-249265000D03*
X444740000Y-247440000D03*
%TD*%
D27*
%TO.C,D23*%
X250415000Y-148335000D03*
X253715000Y-148335000D03*
%TD*%
D24*
%TO.C,C93*%
X166577500Y-222907500D03*
X166577500Y-221772500D03*
%TD*%
D48*
%TO.C,R19*%
X511890000Y-156927500D03*
X511890000Y-155102500D03*
%TD*%
D27*
%TO.C,D82*%
X255177500Y-215010000D03*
X258477500Y-215010000D03*
%TD*%
D24*
%TO.C,C34*%
X142765000Y-165757500D03*
X142765000Y-164622500D03*
%TD*%
D21*
%TO.C,MX65*%
X332185000Y-187960000D03*
D11*
X337265000Y-187960000D03*
D21*
X342345000Y-187960000D03*
D22*
X341075000Y-190500000D03*
D23*
X344625000Y-190500000D03*
X331175000Y-193040000D03*
D22*
X334725000Y-193040000D03*
%TD*%
D19*
%TO.C,LED6*%
X244740000Y-116885000D03*
X244740000Y-115385000D03*
X239290000Y-116885000D03*
D20*
X239290000Y-115385000D03*
%TD*%
D27*
%TO.C,D59*%
X212315000Y-195960000D03*
X215615000Y-195960000D03*
%TD*%
D19*
%TO.C,LED74*%
X109008750Y-202610000D03*
X109008750Y-201110000D03*
X103558750Y-202610000D03*
D20*
X103558750Y-201110000D03*
%TD*%
D21*
%TO.C,MX90*%
X96441250Y-226060000D03*
D11*
X101521250Y-226060000D03*
D21*
X106601250Y-226060000D03*
D22*
X105331250Y-228600000D03*
D23*
X108881250Y-228600000D03*
X95431250Y-231140000D03*
D22*
X98981250Y-231140000D03*
%TD*%
D27*
%TO.C,D41*%
X259940000Y-176910000D03*
X263240000Y-176910000D03*
%TD*%
D24*
%TO.C,C73*%
X514240000Y-194332500D03*
X514240000Y-193197500D03*
%TD*%
D27*
%TO.C,D62*%
X269465000Y-195960000D03*
X272765000Y-195960000D03*
%TD*%
D21*
%TO.C,MX120*%
X484585000Y-245110000D03*
D11*
X489665000Y-245110000D03*
D21*
X494745000Y-245110000D03*
D22*
X493475000Y-247650000D03*
D23*
X497025000Y-247650000D03*
X483575000Y-250190000D03*
D22*
X487125000Y-250190000D03*
%TD*%
D24*
%TO.C,C87*%
X457090000Y-203857500D03*
X457090000Y-202722500D03*
%TD*%
D27*
%TO.C,D9*%
X298040000Y-129285000D03*
X301340000Y-129285000D03*
%TD*%
%TO.C,D20*%
X183740000Y-148335000D03*
X187040000Y-148335000D03*
%TD*%
D49*
%TO.C,U1*%
X490725000Y-133715000D03*
X489455000Y-133715000D03*
X488185000Y-133715000D03*
X486915000Y-133715000D03*
X485645000Y-133715000D03*
X484375000Y-133715000D03*
X483105000Y-133715000D03*
X481835000Y-133715000D03*
X480565000Y-133715000D03*
X479295000Y-133715000D03*
X478025000Y-133715000D03*
X476755000Y-133715000D03*
X475485000Y-133715000D03*
X474215000Y-133715000D03*
D50*
X472965000Y-131950000D03*
X472965000Y-130680000D03*
X472965000Y-129410000D03*
X472965000Y-128140000D03*
X472965000Y-126870000D03*
X472965000Y-125600000D03*
X472965000Y-124330000D03*
X472965000Y-123060000D03*
X472965000Y-121790000D03*
X472965000Y-120520000D03*
X472965000Y-119250000D03*
X472965000Y-117980000D03*
D49*
X474215000Y-116215000D03*
X475485000Y-116215000D03*
X476755000Y-116215000D03*
X478025000Y-116215000D03*
X479295000Y-116215000D03*
X480565000Y-116215000D03*
X481835000Y-116215000D03*
X483105000Y-116215000D03*
X484375000Y-116215000D03*
X485645000Y-116215000D03*
X486915000Y-116215000D03*
X488185000Y-116215000D03*
X489455000Y-116215000D03*
X490725000Y-116215000D03*
D51*
X482305000Y-127865000D03*
X483705000Y-127865000D03*
X481605000Y-127165000D03*
X483005000Y-127165000D03*
X484405000Y-127165000D03*
X482305000Y-126465000D03*
D52*
X483005000Y-126465000D03*
D51*
X483705000Y-126465000D03*
X481605000Y-125765000D03*
X483005000Y-125765000D03*
X484405000Y-125765000D03*
X482305000Y-125065000D03*
X483705000Y-125065000D03*
%TD*%
D19*
%TO.C,LED102*%
X351896250Y-221660000D03*
X351896250Y-220160000D03*
X346446250Y-221660000D03*
D20*
X346446250Y-220160000D03*
%TD*%
D53*
%TO.C,JP1*%
X492115166Y-150177270D03*
X493415166Y-150177270D03*
X494715166Y-150177270D03*
%TD*%
D21*
%TO.C,MX11*%
X341710000Y-121285000D03*
D11*
X346790000Y-121285000D03*
D21*
X351870000Y-121285000D03*
D22*
X350600000Y-123825000D03*
D23*
X354150000Y-123825000D03*
X340700000Y-126365000D03*
D22*
X344250000Y-126365000D03*
%TD*%
D27*
%TO.C,D84*%
X293277500Y-215010000D03*
X296577500Y-215010000D03*
%TD*%
%TO.C,D18*%
X145640000Y-148335000D03*
X148940000Y-148335000D03*
%TD*%
%TO.C,D81*%
X236127500Y-215010000D03*
X239427500Y-215010000D03*
%TD*%
%TO.C,D103*%
X398052500Y-234060000D03*
X401352500Y-234060000D03*
%TD*%
%TO.C,D55*%
X136115000Y-195960000D03*
X139415000Y-195960000D03*
%TD*%
D19*
%TO.C,LED2*%
X159015000Y-116885000D03*
X159015000Y-115385000D03*
X153565000Y-116885000D03*
D20*
X153565000Y-115385000D03*
%TD*%
D35*
%TO.C,H11*%
X378415166Y-142177270D03*
%TD*%
%TO.C,H12*%
X251415166Y-181177270D03*
%TD*%
D27*
%TO.C,D75*%
X121827500Y-215010000D03*
X125127500Y-215010000D03*
%TD*%
D24*
%TO.C,C77*%
X176102500Y-203857500D03*
X176102500Y-202722500D03*
%TD*%
D19*
%TO.C,LED101*%
X316177500Y-221660000D03*
X316177500Y-220160000D03*
X310727500Y-221660000D03*
D20*
X310727500Y-220160000D03*
%TD*%
D34*
%TO.C,D119*%
X457005000Y-254800000D03*
X453705000Y-254800000D03*
%TD*%
%TO.C,D90*%
X98814176Y-234937000D03*
X95514176Y-234937000D03*
%TD*%
D19*
%TO.C,LED41*%
X273315000Y-164510000D03*
X273315000Y-163010000D03*
X267865000Y-164510000D03*
D20*
X267865000Y-163010000D03*
%TD*%
D24*
%TO.C,C83*%
X290402500Y-203857500D03*
X290402500Y-202722500D03*
%TD*%
D27*
%TO.C,D8*%
X269465000Y-129285000D03*
X272765000Y-129285000D03*
%TD*%
D19*
%TO.C,LED79*%
X211402500Y-202610000D03*
X211402500Y-201110000D03*
X205952500Y-202610000D03*
D20*
X205952500Y-201110000D03*
%TD*%
D24*
%TO.C,C50*%
X476140000Y-165757500D03*
X476140000Y-164622500D03*
%TD*%
D25*
%TO.C,C131*%
X296902500Y-127065000D03*
X295177500Y-127065000D03*
%TD*%
D27*
%TO.C,D49*%
X440915000Y-176910000D03*
X444215000Y-176910000D03*
%TD*%
D21*
%TO.C,MX2*%
X151210000Y-121285000D03*
D11*
X156290000Y-121285000D03*
D21*
X161370000Y-121285000D03*
D22*
X160100000Y-123825000D03*
D23*
X163650000Y-123825000D03*
X150200000Y-126365000D03*
D22*
X153750000Y-126365000D03*
%TD*%
D19*
%TO.C,LED8*%
X282840000Y-116885000D03*
X282840000Y-115385000D03*
X277390000Y-116885000D03*
D20*
X277390000Y-115385000D03*
%TD*%
D19*
%TO.C,LED52*%
X511440000Y-164510000D03*
X511440000Y-163010000D03*
X505990000Y-164510000D03*
D20*
X505990000Y-163010000D03*
%TD*%
D27*
%TO.C,D85*%
X312327500Y-215010000D03*
X315627500Y-215010000D03*
%TD*%
D21*
%TO.C,MX93*%
X155972500Y-226060000D03*
D11*
X161052500Y-226060000D03*
D21*
X166132500Y-226060000D03*
D22*
X164862500Y-228600000D03*
D23*
X168412500Y-228600000D03*
X154962500Y-231140000D03*
D22*
X158512500Y-231140000D03*
%TD*%
D28*
%TO.C,D107*%
X499014676Y-240294500D03*
X499014676Y-243594500D03*
%TD*%
D19*
%TO.C,LED105*%
X473340000Y-221660000D03*
X473340000Y-220160000D03*
X467890000Y-221660000D03*
D20*
X467890000Y-220160000D03*
%TD*%
D27*
%TO.C,D72*%
X479015000Y-195960000D03*
X482315000Y-195960000D03*
%TD*%
D21*
%TO.C,MX59*%
X217885000Y-187960000D03*
D11*
X222965000Y-187960000D03*
D21*
X228045000Y-187960000D03*
D22*
X226775000Y-190500000D03*
D23*
X230325000Y-190500000D03*
X216875000Y-193040000D03*
D22*
X220425000Y-193040000D03*
%TD*%
D54*
%TO.C,C128*%
X490397500Y-137580000D03*
X491532500Y-137580000D03*
%TD*%
D18*
%TO.C,R12*%
X439727500Y-187515000D03*
X441552500Y-187515000D03*
%TD*%
D24*
%TO.C,C51*%
X495190000Y-165757500D03*
X495190000Y-164622500D03*
%TD*%
D21*
%TO.C,MX39*%
X227410000Y-168910000D03*
D11*
X232490000Y-168910000D03*
D21*
X237570000Y-168910000D03*
D22*
X236300000Y-171450000D03*
D23*
X239850000Y-171450000D03*
X226400000Y-173990000D03*
D22*
X229950000Y-173990000D03*
%TD*%
D19*
%TO.C,LED55*%
X149490000Y-183560000D03*
X149490000Y-182060000D03*
X144040000Y-183560000D03*
D20*
X144040000Y-182060000D03*
%TD*%
D24*
%TO.C,C8*%
X285640000Y-118132500D03*
X285640000Y-116997500D03*
%TD*%
D19*
%TO.C,LED45*%
X359040000Y-164510000D03*
X359040000Y-163010000D03*
X353590000Y-164510000D03*
D20*
X353590000Y-163010000D03*
%TD*%
D24*
%TO.C,C7*%
X266590000Y-118132500D03*
X266590000Y-116997500D03*
%TD*%
%TO.C,C81*%
X252302500Y-203857500D03*
X252302500Y-202722500D03*
%TD*%
D27*
%TO.C,D40*%
X240890000Y-176910000D03*
X244190000Y-176910000D03*
%TD*%
D24*
%TO.C,C42*%
X295165000Y-165757500D03*
X295165000Y-164622500D03*
%TD*%
D25*
%TO.C,C141*%
X440252500Y-128265000D03*
X438527500Y-128265000D03*
%TD*%
D21*
%TO.C,MX77*%
X165497500Y-207010000D03*
D11*
X170577500Y-207010000D03*
D21*
X175657500Y-207010000D03*
D22*
X174387500Y-209550000D03*
D23*
X177937500Y-209550000D03*
X164487500Y-212090000D03*
D22*
X168037500Y-212090000D03*
%TD*%
D24*
%TO.C,C35*%
X161815000Y-165757500D03*
X161815000Y-164622500D03*
%TD*%
D19*
%TO.C,LED100*%
X297127500Y-221660000D03*
X297127500Y-220160000D03*
X291677500Y-221660000D03*
D20*
X291677500Y-220160000D03*
%TD*%
D19*
%TO.C,LED86*%
X344752500Y-202610000D03*
X344752500Y-201110000D03*
X339302500Y-202610000D03*
D20*
X339302500Y-201110000D03*
%TD*%
D19*
%TO.C,LED88*%
X473340000Y-202610000D03*
X473340000Y-201110000D03*
X467890000Y-202610000D03*
D20*
X467890000Y-201110000D03*
%TD*%
D35*
%TO.C,H3*%
X509414200Y-254178000D03*
%TD*%
D19*
%TO.C,LED73*%
X511440000Y-193085000D03*
X511440000Y-191585000D03*
X505990000Y-193085000D03*
D20*
X505990000Y-191585000D03*
%TD*%
D19*
%TO.C,LED81*%
X249502500Y-202610000D03*
X249502500Y-201110000D03*
X244052500Y-202610000D03*
D20*
X244052500Y-201110000D03*
%TD*%
D21*
%TO.C,MX18*%
X151210000Y-140335000D03*
D11*
X156290000Y-140335000D03*
D21*
X161370000Y-140335000D03*
D22*
X160100000Y-142875000D03*
D23*
X163650000Y-142875000D03*
X150200000Y-145415000D03*
D22*
X153750000Y-145415000D03*
%TD*%
D21*
%TO.C,MX17*%
X132160000Y-140335000D03*
D11*
X137240000Y-140335000D03*
D21*
X142320000Y-140335000D03*
D22*
X141050000Y-142875000D03*
D23*
X144600000Y-142875000D03*
X131150000Y-145415000D03*
D22*
X134700000Y-145415000D03*
%TD*%
D21*
%TO.C,MX50*%
X465535000Y-168910000D03*
D11*
X470615000Y-168910000D03*
D21*
X475695000Y-168910000D03*
D22*
X474425000Y-171450000D03*
D23*
X477975000Y-171450000D03*
X464525000Y-173990000D03*
D22*
X468075000Y-173990000D03*
%TD*%
D19*
%TO.C,LED63*%
X301890000Y-183560000D03*
X301890000Y-182060000D03*
X296440000Y-183560000D03*
D20*
X296440000Y-182060000D03*
%TD*%
D24*
%TO.C,C9*%
X314215000Y-118132500D03*
X314215000Y-116997500D03*
%TD*%
D21*
%TO.C,MX41*%
X265510000Y-168910000D03*
D11*
X270590000Y-168910000D03*
D21*
X275670000Y-168910000D03*
D22*
X274400000Y-171450000D03*
D23*
X277950000Y-171450000D03*
X264500000Y-173990000D03*
D22*
X268050000Y-173990000D03*
%TD*%
D27*
%TO.C,D44*%
X317090000Y-176910000D03*
X320390000Y-176910000D03*
%TD*%
D19*
%TO.C,LED92*%
X144727500Y-221660000D03*
X144727500Y-220160000D03*
X139277500Y-221660000D03*
D20*
X139277500Y-220160000D03*
%TD*%
D24*
%TO.C,C60*%
X247540000Y-184807500D03*
X247540000Y-183672500D03*
%TD*%
%TO.C,C30*%
X414227500Y-137182500D03*
X414227500Y-136047500D03*
%TD*%
D21*
%TO.C,MX103*%
X403622500Y-226060000D03*
D11*
X408702500Y-226060000D03*
D21*
X413782500Y-226060000D03*
D22*
X412512500Y-228600000D03*
D23*
X416062500Y-228600000D03*
X402612500Y-231140000D03*
D22*
X406162500Y-231140000D03*
%TD*%
D41*
%TO.C,U3*%
X203270176Y-152765000D03*
X204540176Y-152765000D03*
X205810176Y-152765000D03*
X207080176Y-152765000D03*
X208350176Y-152765000D03*
X209620176Y-152765000D03*
X210890176Y-152765000D03*
X212160176Y-152765000D03*
X212160176Y-157765000D03*
X210890176Y-157765000D03*
X209620176Y-157765000D03*
X208350176Y-157765000D03*
X207080176Y-157765000D03*
X205810176Y-157765000D03*
X204540176Y-157765000D03*
X203270176Y-157765000D03*
%TD*%
D24*
%TO.C,C79*%
X214202500Y-203857500D03*
X214202500Y-202722500D03*
%TD*%
D19*
%TO.C,LED33*%
X120915000Y-164510000D03*
X120915000Y-163010000D03*
X115465000Y-164510000D03*
D20*
X115465000Y-163010000D03*
%TD*%
D19*
%TO.C,LED119*%
X463815000Y-240710000D03*
X463815000Y-239210000D03*
X458365000Y-240710000D03*
D20*
X458365000Y-239210000D03*
%TD*%
D19*
%TO.C,LED117*%
X411427500Y-240710000D03*
X411427500Y-239210000D03*
X405977500Y-240710000D03*
D20*
X405977500Y-239210000D03*
%TD*%
D19*
%TO.C,LED20*%
X197115000Y-135935000D03*
X197115000Y-134435000D03*
X191665000Y-135935000D03*
D20*
X191665000Y-134435000D03*
%TD*%
D24*
%TO.C,C99*%
X280877500Y-222907500D03*
X280877500Y-221772500D03*
%TD*%
D44*
%TO.C,C126*%
X488532500Y-139580000D03*
X487397500Y-139580000D03*
%TD*%
D21*
%TO.C,MX78*%
X184547500Y-207010000D03*
D11*
X189627500Y-207010000D03*
D21*
X194707500Y-207010000D03*
D22*
X193437500Y-209550000D03*
D23*
X196987500Y-209550000D03*
X183537500Y-212090000D03*
D22*
X187087500Y-212090000D03*
%TD*%
D24*
%TO.C,C65*%
X342790000Y-184807500D03*
X342790000Y-183672500D03*
%TD*%
%TO.C,C47*%
X414227500Y-165757500D03*
X414227500Y-164622500D03*
%TD*%
D27*
%TO.C,D29*%
X379002500Y-148335000D03*
X382302500Y-148335000D03*
%TD*%
D44*
%TO.C,C155*%
X488482666Y-143477270D03*
X487347666Y-143477270D03*
%TD*%
D19*
%TO.C,LED98*%
X259027500Y-221660000D03*
X259027500Y-220160000D03*
X253577500Y-221660000D03*
D20*
X253577500Y-220160000D03*
%TD*%
D19*
%TO.C,LED37*%
X197115000Y-164510000D03*
X197115000Y-163010000D03*
X191665000Y-164510000D03*
D20*
X191665000Y-163010000D03*
%TD*%
D24*
%TO.C,C4*%
X199915000Y-118132500D03*
X199915000Y-116997500D03*
%TD*%
D19*
%TO.C,LED112*%
X294746250Y-240710000D03*
X294746250Y-239210000D03*
X289296250Y-240710000D03*
D20*
X289296250Y-239210000D03*
%TD*%
D34*
%TO.C,D108*%
X98195000Y-254465000D03*
X94895000Y-254465000D03*
%TD*%
D19*
%TO.C,LED115*%
X366183750Y-240710000D03*
X366183750Y-239210000D03*
X360733750Y-240710000D03*
D20*
X360733750Y-239210000D03*
%TD*%
D19*
%TO.C,LED103*%
X411427500Y-221660000D03*
X411427500Y-220160000D03*
X405977500Y-221660000D03*
D20*
X405977500Y-220160000D03*
%TD*%
D34*
%TO.C,D53*%
X101100176Y-196837000D03*
X97800176Y-196837000D03*
%TD*%
D19*
%TO.C,LED84*%
X306652500Y-202610000D03*
X306652500Y-201110000D03*
X301202500Y-202610000D03*
D20*
X301202500Y-201110000D03*
%TD*%
D42*
%TO.C,U7*%
X508740000Y-155940000D03*
X508740000Y-156890000D03*
X508740000Y-157840000D03*
X506040000Y-157840000D03*
X506040000Y-155940000D03*
%TD*%
D24*
%TO.C,C49*%
X457090000Y-165757500D03*
X457090000Y-164622500D03*
%TD*%
D19*
%TO.C,LED38*%
X216165000Y-164510000D03*
X216165000Y-163010000D03*
X210715000Y-164510000D03*
D20*
X210715000Y-163010000D03*
%TD*%
D21*
%TO.C,MX70*%
X446485000Y-187960000D03*
D11*
X451565000Y-187960000D03*
D21*
X456645000Y-187960000D03*
D22*
X455375000Y-190500000D03*
D23*
X458925000Y-190500000D03*
X445475000Y-193040000D03*
D22*
X449025000Y-193040000D03*
%TD*%
D19*
%TO.C,LED80*%
X230452500Y-202610000D03*
X230452500Y-201110000D03*
X225002500Y-202610000D03*
D20*
X225002500Y-201110000D03*
%TD*%
D19*
%TO.C,LED57*%
X187590000Y-183560000D03*
X187590000Y-182060000D03*
X182140000Y-183560000D03*
D20*
X182140000Y-182060000D03*
%TD*%
D21*
%TO.C,MX43*%
X303610000Y-168910000D03*
D11*
X308690000Y-168910000D03*
D21*
X313770000Y-168910000D03*
D22*
X312500000Y-171450000D03*
D23*
X316050000Y-171450000D03*
X302600000Y-173990000D03*
D22*
X306150000Y-173990000D03*
%TD*%
D44*
%TO.C,C129*%
X465207500Y-113765000D03*
X464072500Y-113765000D03*
%TD*%
D24*
%TO.C,C13*%
X395177500Y-118132500D03*
X395177500Y-116997500D03*
%TD*%
%TO.C,C59*%
X228490000Y-184807500D03*
X228490000Y-183672500D03*
%TD*%
D21*
%TO.C,MX98*%
X251222500Y-226060000D03*
D11*
X256302500Y-226060000D03*
D21*
X261382500Y-226060000D03*
D22*
X260112500Y-228600000D03*
D23*
X263662500Y-228600000D03*
X250212500Y-231140000D03*
D22*
X253762500Y-231140000D03*
%TD*%
D24*
%TO.C,C105*%
X476140000Y-222907500D03*
X476140000Y-221772500D03*
%TD*%
D35*
%TO.C,H9*%
X119415166Y-207177270D03*
%TD*%
D27*
%TO.C,D97*%
X226602500Y-234060000D03*
X229902500Y-234060000D03*
%TD*%
D21*
%TO.C,MX104*%
X446485000Y-226060000D03*
D11*
X451565000Y-226060000D03*
D21*
X456645000Y-226060000D03*
D22*
X455375000Y-228600000D03*
D23*
X458925000Y-228600000D03*
X445475000Y-231140000D03*
D22*
X449025000Y-231140000D03*
%TD*%
D21*
%TO.C,MX100*%
X289322500Y-226060000D03*
D11*
X294402500Y-226060000D03*
D21*
X299482500Y-226060000D03*
D22*
X298212500Y-228600000D03*
D23*
X301762500Y-228600000D03*
X288312500Y-231140000D03*
D22*
X291862500Y-231140000D03*
%TD*%
D19*
%TO.C,LED1*%
X139965000Y-116885000D03*
X139965000Y-115385000D03*
X134515000Y-116885000D03*
D20*
X134515000Y-115385000D03*
%TD*%
D36*
%TO.C,R21*%
X302840000Y-115652500D03*
X302840000Y-117477500D03*
%TD*%
D48*
%TO.C,R23*%
X116140000Y-122177500D03*
X116140000Y-120352500D03*
%TD*%
D19*
%TO.C,LED40*%
X254265000Y-164510000D03*
X254265000Y-163010000D03*
X248815000Y-164510000D03*
D20*
X248815000Y-163010000D03*
%TD*%
D18*
%TO.C,R26*%
X492282666Y-158177270D03*
X494107666Y-158177270D03*
%TD*%
D21*
%TO.C,MX52*%
X503635000Y-168910000D03*
D11*
X508715000Y-168910000D03*
D21*
X513795000Y-168910000D03*
D22*
X512525000Y-171450000D03*
D23*
X516075000Y-171450000D03*
X502625000Y-173990000D03*
D22*
X506175000Y-173990000D03*
%TD*%
D27*
%TO.C,D43*%
X298040000Y-176910000D03*
X301340000Y-176910000D03*
%TD*%
%TO.C,D118*%
X417102500Y-253110000D03*
X420402500Y-253110000D03*
%TD*%
%TO.C,D98*%
X245652500Y-234060000D03*
X248952500Y-234060000D03*
%TD*%
D21*
%TO.C,MX72*%
X484585000Y-187960000D03*
D11*
X489665000Y-187960000D03*
D21*
X494745000Y-187960000D03*
D22*
X493475000Y-190500000D03*
D23*
X497025000Y-190500000D03*
X483575000Y-193040000D03*
D22*
X487125000Y-193040000D03*
%TD*%
D19*
%TO.C,LED66*%
X366183750Y-193085000D03*
X366183750Y-191585000D03*
X360733750Y-193085000D03*
D20*
X360733750Y-191585000D03*
%TD*%
D27*
%TO.C,D38*%
X202790000Y-176910000D03*
X206090000Y-176910000D03*
%TD*%
D19*
%TO.C,LED109*%
X128058750Y-240710000D03*
X128058750Y-239210000D03*
X122608750Y-240710000D03*
D20*
X122608750Y-239210000D03*
%TD*%
D19*
%TO.C,LED87*%
X454290000Y-202610000D03*
X454290000Y-201110000D03*
X448840000Y-202610000D03*
D20*
X448840000Y-201110000D03*
%TD*%
D27*
%TO.C,D89*%
X479015000Y-215010000D03*
X482315000Y-215010000D03*
%TD*%
D24*
%TO.C,C115*%
X368983750Y-241957500D03*
X368983750Y-240822500D03*
%TD*%
D44*
%TO.C,C125*%
X488532500Y-137580000D03*
X487397500Y-137580000D03*
%TD*%
D21*
%TO.C,MX9*%
X303610000Y-121285000D03*
D11*
X308690000Y-121285000D03*
D21*
X313770000Y-121285000D03*
D22*
X312500000Y-123825000D03*
D23*
X316050000Y-123825000D03*
X302600000Y-126365000D03*
D22*
X306150000Y-126365000D03*
%TD*%
D21*
%TO.C,MX94*%
X175022500Y-226060000D03*
D11*
X180102500Y-226060000D03*
D21*
X185182500Y-226060000D03*
D22*
X183912500Y-228600000D03*
D23*
X187462500Y-228600000D03*
X174012500Y-231140000D03*
D22*
X177562500Y-231140000D03*
%TD*%
D27*
%TO.C,D112*%
X281371250Y-253110000D03*
X284671250Y-253110000D03*
%TD*%
%TO.C,D63*%
X288515000Y-195960000D03*
X291815000Y-195960000D03*
%TD*%
%TO.C,D114*%
X328996250Y-253110000D03*
X332296250Y-253110000D03*
%TD*%
D24*
%TO.C,C107*%
X514240000Y-232432500D03*
X514240000Y-231297500D03*
%TD*%
D54*
%TO.C,C134*%
X481347666Y-146977270D03*
X482482666Y-146977270D03*
%TD*%
D19*
%TO.C,LED53*%
X106627500Y-183560000D03*
X106627500Y-182060000D03*
X101177500Y-183560000D03*
D20*
X101177500Y-182060000D03*
%TD*%
D24*
%TO.C,C25*%
X314215000Y-137182500D03*
X314215000Y-136047500D03*
%TD*%
D19*
%TO.C,LED60*%
X244740000Y-183560000D03*
X244740000Y-182060000D03*
X239290000Y-183560000D03*
D20*
X239290000Y-182060000D03*
%TD*%
D19*
%TO.C,LED18*%
X159015000Y-135935000D03*
X159015000Y-134435000D03*
X153565000Y-135935000D03*
D20*
X153565000Y-134435000D03*
%TD*%
D27*
%TO.C,D94*%
X169452500Y-234060000D03*
X172752500Y-234060000D03*
%TD*%
D19*
%TO.C,LED39*%
X235215000Y-164510000D03*
X235215000Y-163010000D03*
X229765000Y-164510000D03*
D20*
X229765000Y-163010000D03*
%TD*%
D19*
%TO.C,LED36*%
X178065000Y-164510000D03*
X178065000Y-163010000D03*
X172615000Y-164510000D03*
D20*
X172615000Y-163010000D03*
%TD*%
D19*
%TO.C,LED85*%
X325702500Y-202610000D03*
X325702500Y-201110000D03*
X320252500Y-202610000D03*
D20*
X320252500Y-201110000D03*
%TD*%
D27*
%TO.C,D34*%
X126590000Y-176910000D03*
X129890000Y-176910000D03*
%TD*%
D21*
%TO.C,MX26*%
X322660000Y-140335000D03*
D11*
X327740000Y-140335000D03*
D21*
X332820000Y-140335000D03*
D22*
X331550000Y-142875000D03*
D23*
X335100000Y-142875000D03*
X321650000Y-145415000D03*
D22*
X325200000Y-145415000D03*
%TD*%
D27*
%TO.C,D24*%
X269465000Y-148335000D03*
X272765000Y-148335000D03*
%TD*%
D19*
%TO.C,LED70*%
X454290000Y-183560000D03*
X454290000Y-182060000D03*
X448840000Y-183560000D03*
D20*
X448840000Y-182060000D03*
%TD*%
D24*
%TO.C,C6*%
X247540000Y-118132500D03*
X247540000Y-116997500D03*
%TD*%
D19*
%TO.C,LED99*%
X278077500Y-221660000D03*
X278077500Y-220160000D03*
X272627500Y-221660000D03*
D20*
X272627500Y-220160000D03*
%TD*%
D27*
%TO.C,D116*%
X379002500Y-253110000D03*
X382302500Y-253110000D03*
%TD*%
D21*
%TO.C,MX97*%
X232172500Y-226060000D03*
D11*
X237252500Y-226060000D03*
D21*
X242332500Y-226060000D03*
D22*
X241062500Y-228600000D03*
D23*
X244612500Y-228600000D03*
X231162500Y-231140000D03*
D22*
X234712500Y-231140000D03*
%TD*%
D27*
%TO.C,D30*%
X398052500Y-148335000D03*
X401352500Y-148335000D03*
%TD*%
D44*
%TO.C,C121*%
X485607500Y-137565000D03*
X484472500Y-137565000D03*
%TD*%
D19*
%TO.C,LED61*%
X263790000Y-183560000D03*
X263790000Y-182060000D03*
X258340000Y-183560000D03*
D20*
X258340000Y-182060000D03*
%TD*%
D55*
%TO.C,C139*%
X103686176Y-124420500D03*
X103686176Y-122695500D03*
%TD*%
D27*
%TO.C,D21*%
X212315000Y-148335000D03*
X215615000Y-148335000D03*
%TD*%
D24*
%TO.C,C28*%
X371365000Y-137182500D03*
X371365000Y-136047500D03*
%TD*%
%TO.C,C26*%
X333265000Y-137182500D03*
X333265000Y-136047500D03*
%TD*%
%TO.C,C110*%
X154671250Y-241957500D03*
X154671250Y-240822500D03*
%TD*%
D21*
%TO.C,MX7*%
X255985000Y-121285000D03*
D11*
X261065000Y-121285000D03*
D21*
X266145000Y-121285000D03*
D22*
X264875000Y-123825000D03*
D23*
X268425000Y-123825000D03*
X254975000Y-126365000D03*
D22*
X258525000Y-126365000D03*
%TD*%
D24*
%TO.C,C39*%
X238015000Y-165757500D03*
X238015000Y-164622500D03*
%TD*%
D27*
%TO.C,D106*%
X479015000Y-234060000D03*
X482315000Y-234060000D03*
%TD*%
D18*
%TO.C,R5*%
X438477500Y-130515000D03*
X440302500Y-130515000D03*
%TD*%
D19*
%TO.C,LED91*%
X125677500Y-221660000D03*
X125677500Y-220160000D03*
X120227500Y-221660000D03*
D20*
X120227500Y-220160000D03*
%TD*%
D21*
%TO.C,MX51*%
X484585000Y-168910000D03*
D11*
X489665000Y-168910000D03*
D21*
X494745000Y-168910000D03*
D22*
X493475000Y-171450000D03*
D23*
X497025000Y-171450000D03*
X483575000Y-173990000D03*
D22*
X487125000Y-173990000D03*
%TD*%
D27*
%TO.C,D105*%
X459965000Y-234060000D03*
X463265000Y-234060000D03*
%TD*%
D31*
%TO.C,C157*%
X487752666Y-146977270D03*
X489477666Y-146977270D03*
%TD*%
D24*
%TO.C,C41*%
X276115000Y-165757500D03*
X276115000Y-164622500D03*
%TD*%
D54*
%TO.C,C124*%
X490419717Y-141580000D03*
X491554717Y-141580000D03*
%TD*%
D27*
%TO.C,D51*%
X479015000Y-176910000D03*
X482315000Y-176910000D03*
%TD*%
D24*
%TO.C,C69*%
X433277500Y-184807500D03*
X433277500Y-183672500D03*
%TD*%
%TO.C,C95*%
X204677500Y-222907500D03*
X204677500Y-221772500D03*
%TD*%
D27*
%TO.C,D36*%
X164690000Y-176910000D03*
X167990000Y-176910000D03*
%TD*%
%TO.C,D7*%
X250415000Y-129285000D03*
X253715000Y-129285000D03*
%TD*%
D19*
%TO.C,LED12*%
X368565000Y-116885000D03*
X368565000Y-115385000D03*
X363115000Y-116885000D03*
D20*
X363115000Y-115385000D03*
%TD*%
D27*
%TO.C,D76*%
X140877500Y-215010000D03*
X144177500Y-215010000D03*
%TD*%
D33*
%TO.C,R8*%
X440052500Y-150515000D03*
X438227500Y-150515000D03*
%TD*%
D24*
%TO.C,C48*%
X433277500Y-165757500D03*
X433277500Y-164622500D03*
%TD*%
D21*
%TO.C,MX88*%
X465535000Y-207010000D03*
D11*
X470615000Y-207010000D03*
D21*
X475695000Y-207010000D03*
D22*
X474425000Y-209550000D03*
D23*
X477975000Y-209550000D03*
X464525000Y-212090000D03*
D22*
X468075000Y-212090000D03*
%TD*%
D21*
%TO.C,MX35*%
X151210000Y-168910000D03*
D11*
X156290000Y-168910000D03*
D21*
X161370000Y-168910000D03*
D22*
X160100000Y-171450000D03*
D23*
X163650000Y-171450000D03*
X150200000Y-173990000D03*
D22*
X153750000Y-173990000D03*
%TD*%
D19*
%TO.C,LED108*%
X104246250Y-240710000D03*
X104246250Y-239210000D03*
X98796250Y-240710000D03*
D20*
X98796250Y-239210000D03*
%TD*%
D19*
%TO.C,LED42*%
X292365000Y-164510000D03*
X292365000Y-163010000D03*
X286915000Y-164510000D03*
D20*
X286915000Y-163010000D03*
%TD*%
D24*
%TO.C,C94*%
X185627500Y-222907500D03*
X185627500Y-221772500D03*
%TD*%
%TO.C,C89*%
X495190000Y-203857500D03*
X495190000Y-202722500D03*
%TD*%
%TO.C,C55*%
X152290000Y-184807500D03*
X152290000Y-183672500D03*
%TD*%
%TO.C,C104*%
X457090000Y-222907500D03*
X457090000Y-221772500D03*
%TD*%
D19*
%TO.C,LED44*%
X330465000Y-164510000D03*
X330465000Y-163010000D03*
X325015000Y-164510000D03*
D20*
X325015000Y-163010000D03*
%TD*%
D19*
%TO.C,LED27*%
X349515000Y-135935000D03*
X349515000Y-134435000D03*
X344065000Y-135935000D03*
D20*
X344065000Y-134435000D03*
%TD*%
D24*
%TO.C,C22*%
X247540000Y-137182500D03*
X247540000Y-136047500D03*
%TD*%
%TO.C,C36*%
X180865000Y-165757500D03*
X180865000Y-164622500D03*
%TD*%
D19*
%TO.C,LED23*%
X263790000Y-135935000D03*
X263790000Y-134435000D03*
X258340000Y-135935000D03*
D20*
X258340000Y-134435000D03*
%TD*%
D21*
%TO.C,MX16*%
X94060000Y-140335000D03*
D11*
X99140000Y-140335000D03*
D21*
X104220000Y-140335000D03*
D22*
X102950000Y-142875000D03*
D23*
X106500000Y-142875000D03*
X93050000Y-145415000D03*
D22*
X96600000Y-145415000D03*
%TD*%
D21*
%TO.C,MX83*%
X279797500Y-207010000D03*
D11*
X284877500Y-207010000D03*
D21*
X289957500Y-207010000D03*
D22*
X288687500Y-209550000D03*
D23*
X292237500Y-209550000D03*
X278787500Y-212090000D03*
D22*
X282337500Y-212090000D03*
%TD*%
D21*
%TO.C,MX3*%
X170260000Y-121285000D03*
D11*
X175340000Y-121285000D03*
D21*
X180420000Y-121285000D03*
D22*
X179150000Y-123825000D03*
D23*
X182700000Y-123825000D03*
X169250000Y-126365000D03*
D22*
X172800000Y-126365000D03*
%TD*%
D19*
%TO.C,LED120*%
X492390000Y-240710000D03*
X492390000Y-239210000D03*
X486940000Y-240710000D03*
D20*
X486940000Y-239210000D03*
%TD*%
D27*
%TO.C,D28*%
X355190000Y-148335000D03*
X358490000Y-148335000D03*
%TD*%
D33*
%TO.C,R15*%
X442252500Y-230465000D03*
X440427500Y-230465000D03*
%TD*%
D35*
%TO.C,H5*%
X386415166Y-208176570D03*
%TD*%
D27*
%TO.C,D110*%
X138496250Y-253110000D03*
X141796250Y-253110000D03*
%TD*%
D21*
%TO.C,MX108*%
X96441250Y-245110000D03*
D11*
X101521250Y-245110000D03*
D21*
X106601250Y-245110000D03*
D22*
X105331250Y-247650000D03*
D23*
X108881250Y-247650000D03*
X95431250Y-250190000D03*
D22*
X98981250Y-250190000D03*
%TD*%
D35*
%TO.C,H1*%
X186415166Y-246177270D03*
%TD*%
D27*
%TO.C,D100*%
X283752500Y-234060000D03*
X287052500Y-234060000D03*
%TD*%
%TO.C,D47*%
X398052500Y-176910000D03*
X401352500Y-176910000D03*
%TD*%
D21*
%TO.C,MX67*%
X384572500Y-187960000D03*
D11*
X389652500Y-187960000D03*
D21*
X394732500Y-187960000D03*
D22*
X393462500Y-190500000D03*
D23*
X397012500Y-190500000D03*
X383562500Y-193040000D03*
D22*
X387112500Y-193040000D03*
%TD*%
D27*
%TO.C,D6*%
X231365000Y-129285000D03*
X234665000Y-129285000D03*
%TD*%
D24*
%TO.C,C23*%
X266590000Y-137182500D03*
X266590000Y-136047500D03*
%TD*%
D21*
%TO.C,MX102*%
X344091250Y-226060000D03*
D11*
X349171250Y-226060000D03*
D21*
X354251250Y-226060000D03*
D22*
X352981250Y-228600000D03*
D23*
X356531250Y-228600000D03*
X343081250Y-231140000D03*
D22*
X346631250Y-231140000D03*
%TD*%
D24*
%TO.C,C80*%
X233252500Y-203857500D03*
X233252500Y-202722500D03*
%TD*%
D21*
%TO.C,MX62*%
X275035000Y-187960000D03*
D11*
X280115000Y-187960000D03*
D21*
X285195000Y-187960000D03*
D22*
X283925000Y-190500000D03*
D23*
X287475000Y-190500000D03*
X274025000Y-193040000D03*
D22*
X277575000Y-193040000D03*
%TD*%
D33*
%TO.C,R4*%
X449727666Y-122577270D03*
X447902666Y-122577270D03*
%TD*%
D24*
%TO.C,C3*%
X180865000Y-118132500D03*
X180865000Y-116997500D03*
%TD*%
D56*
%TO.C,J1*%
X291202471Y-114912529D03*
X296982471Y-114912529D03*
D57*
X290892471Y-116032529D03*
X291692471Y-116032529D03*
D58*
X292842471Y-116032529D03*
X293842471Y-116032529D03*
X294342471Y-116032529D03*
X295342471Y-116032529D03*
D57*
X296492471Y-116032529D03*
X297292471Y-116032529D03*
X297292471Y-116032529D03*
X296492471Y-116032529D03*
D58*
X295842471Y-116032529D03*
X294842471Y-116032529D03*
X293342471Y-116032529D03*
X292342471Y-116032529D03*
D57*
X291692471Y-116032529D03*
X290892471Y-116032529D03*
D59*
X289772471Y-111232529D03*
D60*
X289772471Y-115432529D03*
D59*
X298412471Y-111232529D03*
D60*
X298412471Y-115432529D03*
%TD*%
D27*
%TO.C,D120*%
X479015000Y-253110000D03*
X482315000Y-253110000D03*
%TD*%
D24*
%TO.C,C106*%
X495190000Y-222907500D03*
X495190000Y-221772500D03*
%TD*%
D21*
%TO.C,MX36*%
X170260000Y-168910000D03*
D11*
X175340000Y-168910000D03*
D21*
X180420000Y-168910000D03*
D22*
X179150000Y-171450000D03*
D23*
X182700000Y-171450000D03*
X169250000Y-173990000D03*
D22*
X172800000Y-173990000D03*
%TD*%
D27*
%TO.C,D1*%
X126590000Y-129285000D03*
X129890000Y-129285000D03*
%TD*%
%TO.C,D48*%
X417102500Y-176910000D03*
X420402500Y-176910000D03*
%TD*%
%TO.C,D79*%
X198027500Y-215010000D03*
X201327500Y-215010000D03*
%TD*%
D21*
%TO.C,MX119*%
X456010000Y-245110000D03*
D11*
X461090000Y-245110000D03*
D21*
X466170000Y-245110000D03*
D22*
X464900000Y-247650000D03*
D23*
X468450000Y-247650000D03*
X455000000Y-250190000D03*
D22*
X458550000Y-250190000D03*
%TD*%
D27*
%TO.C,D19*%
X164690000Y-148335000D03*
X167990000Y-148335000D03*
%TD*%
D24*
%TO.C,C68*%
X414227500Y-184807500D03*
X414227500Y-183672500D03*
%TD*%
D19*
%TO.C,LED21*%
X225690000Y-135935000D03*
X225690000Y-134435000D03*
X220240000Y-135935000D03*
D20*
X220240000Y-134435000D03*
%TD*%
D27*
%TO.C,D39*%
X221840000Y-176910000D03*
X225140000Y-176910000D03*
%TD*%
D19*
%TO.C,LED113*%
X318558750Y-240710000D03*
X318558750Y-239210000D03*
X313108750Y-240710000D03*
D20*
X313108750Y-239210000D03*
%TD*%
D27*
%TO.C,D35*%
X145640000Y-176910000D03*
X148940000Y-176910000D03*
%TD*%
D21*
%TO.C,MX32*%
X94060000Y-168910000D03*
D11*
X99140000Y-168910000D03*
D21*
X104220000Y-168910000D03*
D22*
X102950000Y-171450000D03*
D23*
X106500000Y-171450000D03*
X93050000Y-173990000D03*
D22*
X96600000Y-173990000D03*
%TD*%
D19*
%TO.C,LED82*%
X268552500Y-202610000D03*
X268552500Y-201110000D03*
X263102500Y-202610000D03*
D20*
X263102500Y-201110000D03*
%TD*%
D24*
%TO.C,C46*%
X395177500Y-165757500D03*
X395177500Y-164622500D03*
%TD*%
D19*
%TO.C,LED96*%
X220927500Y-221660000D03*
X220927500Y-220160000D03*
X215477500Y-221660000D03*
D20*
X215477500Y-220160000D03*
%TD*%
D21*
%TO.C,MX4*%
X189310000Y-121285000D03*
D11*
X194390000Y-121285000D03*
D21*
X199470000Y-121285000D03*
D22*
X198200000Y-123825000D03*
D23*
X201750000Y-123825000D03*
X188300000Y-126365000D03*
D22*
X191850000Y-126365000D03*
%TD*%
D47*
%TO.C,SW2*%
X462790000Y-127465000D03*
X462790000Y-133665000D03*
X466490000Y-127465000D03*
X466490000Y-133665000D03*
%TD*%
D27*
%TO.C,D101*%
X302802500Y-234060000D03*
X306102500Y-234060000D03*
%TD*%
D19*
%TO.C,LED72*%
X492390000Y-183560000D03*
X492390000Y-182060000D03*
X486940000Y-183560000D03*
D20*
X486940000Y-182060000D03*
%TD*%
D44*
%TO.C,C123*%
X488532500Y-141580000D03*
X487397500Y-141580000D03*
%TD*%
D21*
%TO.C,MX118*%
X422672500Y-245110000D03*
D11*
X427752500Y-245110000D03*
D21*
X432832500Y-245110000D03*
D22*
X431562500Y-247650000D03*
D23*
X435112500Y-247650000D03*
X421662500Y-250190000D03*
D22*
X425212500Y-250190000D03*
%TD*%
D19*
%TO.C,LED67*%
X392377500Y-183560000D03*
X392377500Y-182060000D03*
X386927500Y-183560000D03*
D20*
X386927500Y-182060000D03*
%TD*%
D24*
%TO.C,C43*%
X314215000Y-165757500D03*
X314215000Y-164622500D03*
%TD*%
D19*
%TO.C,LED26*%
X330465000Y-135935000D03*
X330465000Y-134435000D03*
X325015000Y-135935000D03*
D20*
X325015000Y-134435000D03*
%TD*%
D27*
%TO.C,D68*%
X398052500Y-195960000D03*
X401352500Y-195960000D03*
%TD*%
D54*
%TO.C,C127*%
X490397500Y-139580000D03*
X491532500Y-139580000D03*
%TD*%
D61*
%TO.C,R1*%
X488537500Y-136165000D03*
X487342500Y-136165000D03*
%TD*%
D24*
%TO.C,C2*%
X161815000Y-118132500D03*
X161815000Y-116997500D03*
%TD*%
%TO.C,C114*%
X345171250Y-241957500D03*
X345171250Y-240822500D03*
%TD*%
D27*
%TO.C,D2*%
X145640000Y-129285000D03*
X148940000Y-129285000D03*
%TD*%
D19*
%TO.C,LED7*%
X263790000Y-116885000D03*
X263790000Y-115385000D03*
X258340000Y-116885000D03*
D20*
X258340000Y-115385000D03*
%TD*%
D31*
%TO.C,C133*%
X293377500Y-129155000D03*
X295102500Y-129155000D03*
%TD*%
D19*
%TO.C,LED32*%
X101865000Y-164510000D03*
X101865000Y-163010000D03*
X96415000Y-164510000D03*
D20*
X96415000Y-163010000D03*
%TD*%
D21*
%TO.C,MX81*%
X241697500Y-207010000D03*
D11*
X246777500Y-207010000D03*
D21*
X251857500Y-207010000D03*
D22*
X250587500Y-209550000D03*
D23*
X254137500Y-209550000D03*
X240687500Y-212090000D03*
D22*
X244237500Y-212090000D03*
%TD*%
D27*
%TO.C,D46*%
X379002500Y-176910000D03*
X382302500Y-176910000D03*
%TD*%
D21*
%TO.C,MX21*%
X217885000Y-140335000D03*
D11*
X222965000Y-140335000D03*
D21*
X228045000Y-140335000D03*
D22*
X226775000Y-142875000D03*
D23*
X230325000Y-142875000D03*
X216875000Y-145415000D03*
D22*
X220425000Y-145415000D03*
%TD*%
D33*
%TO.C,R6*%
X440302500Y-126015000D03*
X438477500Y-126015000D03*
%TD*%
D19*
%TO.C,LED106*%
X492390000Y-221660000D03*
X492390000Y-220160000D03*
X486940000Y-221660000D03*
D20*
X486940000Y-220160000D03*
%TD*%
D24*
%TO.C,C31*%
X433277500Y-137182500D03*
X433277500Y-136047500D03*
%TD*%
D21*
%TO.C,MX112*%
X286941250Y-245110000D03*
D11*
X292021250Y-245110000D03*
D21*
X297101250Y-245110000D03*
D22*
X295831250Y-247650000D03*
D23*
X299381250Y-247650000D03*
X285931250Y-250190000D03*
D22*
X289481250Y-250190000D03*
%TD*%
D27*
%TO.C,D91*%
X112302500Y-234060000D03*
X115602500Y-234060000D03*
%TD*%
D21*
%TO.C,MX69*%
X422672500Y-187960000D03*
D11*
X427752500Y-187960000D03*
D21*
X432832500Y-187960000D03*
D22*
X431562500Y-190500000D03*
D23*
X435112500Y-190500000D03*
X421662500Y-193040000D03*
D22*
X425212500Y-193040000D03*
%TD*%
D19*
%TO.C,LED76*%
X154252500Y-202610000D03*
X154252500Y-201110000D03*
X148802500Y-202610000D03*
D20*
X148802500Y-201110000D03*
%TD*%
D24*
%TO.C,C61*%
X266590000Y-184807500D03*
X266590000Y-183672500D03*
%TD*%
D21*
%TO.C,MX6*%
X236935000Y-121285000D03*
D11*
X242015000Y-121285000D03*
D21*
X247095000Y-121285000D03*
D22*
X245825000Y-123825000D03*
D23*
X249375000Y-123825000D03*
X235925000Y-126365000D03*
D22*
X239475000Y-126365000D03*
%TD*%
D19*
%TO.C,LED104*%
X454290000Y-221660000D03*
X454290000Y-220160000D03*
X448840000Y-221660000D03*
D20*
X448840000Y-220160000D03*
%TD*%
D24*
%TO.C,C88*%
X476140000Y-203857500D03*
X476140000Y-202722500D03*
%TD*%
D46*
%TO.C,C140*%
X103686176Y-119139500D03*
X103686176Y-120864500D03*
%TD*%
D27*
%TO.C,D73*%
X498065000Y-205485000D03*
X501365000Y-205485000D03*
%TD*%
D19*
%TO.C,LED19*%
X178065000Y-135935000D03*
X178065000Y-134435000D03*
X172615000Y-135935000D03*
D20*
X172615000Y-134435000D03*
%TD*%
D27*
%TO.C,D13*%
X379002500Y-129285000D03*
X382302500Y-129285000D03*
%TD*%
D21*
%TO.C,MX80*%
X222647500Y-207010000D03*
D11*
X227727500Y-207010000D03*
D21*
X232807500Y-207010000D03*
D22*
X231537500Y-209550000D03*
D23*
X235087500Y-209550000D03*
X221637500Y-212090000D03*
D22*
X225187500Y-212090000D03*
%TD*%
D36*
%TO.C,R29*%
X291140000Y-127052500D03*
X291140000Y-128877500D03*
%TD*%
D24*
%TO.C,C54*%
X133240000Y-184807500D03*
X133240000Y-183672500D03*
%TD*%
D19*
%TO.C,LED95*%
X201877500Y-221660000D03*
X201877500Y-220160000D03*
X196427500Y-221660000D03*
D20*
X196427500Y-220160000D03*
%TD*%
D34*
%TO.C,D74*%
X110498176Y-216141000D03*
X107198176Y-216141000D03*
%TD*%
D19*
%TO.C,LED15*%
X430477500Y-116885000D03*
X430477500Y-115385000D03*
X425027500Y-116885000D03*
D20*
X425027500Y-115385000D03*
%TD*%
D21*
%TO.C,MX46*%
X384572500Y-168910000D03*
D11*
X389652500Y-168910000D03*
D21*
X394732500Y-168910000D03*
D22*
X393462500Y-171450000D03*
D23*
X397012500Y-171450000D03*
X383562500Y-173990000D03*
D22*
X387112500Y-173990000D03*
%TD*%
D21*
%TO.C,MX38*%
X208360000Y-168910000D03*
D11*
X213440000Y-168910000D03*
D21*
X218520000Y-168910000D03*
D22*
X217250000Y-171450000D03*
D23*
X220800000Y-171450000D03*
X207350000Y-173990000D03*
D22*
X210900000Y-173990000D03*
%TD*%
D24*
%TO.C,C57*%
X190390000Y-184807500D03*
X190390000Y-183672500D03*
%TD*%
%TO.C,C29*%
X395177500Y-137182500D03*
X395177500Y-136047500D03*
%TD*%
D27*
%TO.C,D87*%
X440915000Y-215010000D03*
X444215000Y-215010000D03*
%TD*%
D62*
%TO.C,C152*%
X478415166Y-153814770D03*
X478415166Y-156939770D03*
%TD*%
D21*
%TO.C,MX33*%
X113110000Y-168910000D03*
D11*
X118190000Y-168910000D03*
D21*
X123270000Y-168910000D03*
D22*
X122000000Y-171450000D03*
D23*
X125550000Y-171450000D03*
X112100000Y-173990000D03*
D22*
X115650000Y-173990000D03*
%TD*%
D44*
%TO.C,C130*%
X465207500Y-125465000D03*
X464072500Y-125465000D03*
%TD*%
D19*
%TO.C,LED51*%
X492390000Y-164510000D03*
X492390000Y-163010000D03*
X486940000Y-164510000D03*
D20*
X486940000Y-163010000D03*
%TD*%
D21*
%TO.C,MX111*%
X215503750Y-245110000D03*
D11*
X220583750Y-245110000D03*
D21*
X225663750Y-245110000D03*
D22*
X224393750Y-247650000D03*
D23*
X227943750Y-247650000D03*
X214493750Y-250190000D03*
D22*
X218043750Y-250190000D03*
%TD*%
D18*
%TO.C,R14*%
X439027500Y-208465000D03*
X440852500Y-208465000D03*
%TD*%
D21*
%TO.C,MX105*%
X465535000Y-226060000D03*
D11*
X470615000Y-226060000D03*
D21*
X475695000Y-226060000D03*
D22*
X474425000Y-228600000D03*
D23*
X477975000Y-228600000D03*
X464525000Y-231140000D03*
D22*
X468075000Y-231140000D03*
%TD*%
D19*
%TO.C,LED16*%
X101865000Y-135935000D03*
X101865000Y-134435000D03*
X96415000Y-135935000D03*
D20*
X96415000Y-134435000D03*
%TD*%
D19*
%TO.C,LED11*%
X349515000Y-116885000D03*
X349515000Y-115385000D03*
X344065000Y-116885000D03*
D20*
X344065000Y-115385000D03*
%TD*%
D21*
%TO.C,MX91*%
X117872500Y-226060000D03*
D11*
X122952500Y-226060000D03*
D21*
X128032500Y-226060000D03*
D22*
X126762500Y-228600000D03*
D23*
X130312500Y-228600000D03*
X116862500Y-231140000D03*
D22*
X120412500Y-231140000D03*
%TD*%
D21*
%TO.C,MX8*%
X275035000Y-121285000D03*
D11*
X280115000Y-121285000D03*
D21*
X285195000Y-121285000D03*
D22*
X283925000Y-123825000D03*
D23*
X287475000Y-123825000D03*
X274025000Y-126365000D03*
D22*
X277575000Y-126365000D03*
%TD*%
D27*
%TO.C,D14*%
X398052500Y-129285000D03*
X401352500Y-129285000D03*
%TD*%
D21*
%TO.C,MX25*%
X303610000Y-140335000D03*
D11*
X308690000Y-140335000D03*
D21*
X313770000Y-140335000D03*
D22*
X312500000Y-142875000D03*
D23*
X316050000Y-142875000D03*
X302600000Y-145415000D03*
D22*
X306150000Y-145415000D03*
%TD*%
D24*
%TO.C,C86*%
X347552500Y-203857500D03*
X347552500Y-202722500D03*
%TD*%
D27*
%TO.C,D26*%
X317090000Y-148335000D03*
X320390000Y-148335000D03*
%TD*%
D24*
%TO.C,C120*%
X495190000Y-241957500D03*
X495190000Y-240822500D03*
%TD*%
D44*
%TO.C,C150*%
X507957500Y-153515000D03*
X506822500Y-153515000D03*
%TD*%
D54*
%TO.C,C122*%
X490397500Y-143580000D03*
X491532500Y-143580000D03*
%TD*%
D27*
%TO.C,D61*%
X250415000Y-195960000D03*
X253715000Y-195960000D03*
%TD*%
D19*
%TO.C,LED59*%
X225690000Y-183560000D03*
X225690000Y-182060000D03*
X220240000Y-183560000D03*
D20*
X220240000Y-182060000D03*
%TD*%
D24*
%TO.C,C5*%
X228490000Y-118132500D03*
X228490000Y-116997500D03*
%TD*%
D19*
%TO.C,LED68*%
X411427500Y-183560000D03*
X411427500Y-182060000D03*
X405977500Y-183560000D03*
D20*
X405977500Y-182060000D03*
%TD*%
D21*
%TO.C,MX27*%
X341710000Y-140335000D03*
D11*
X346790000Y-140335000D03*
D21*
X351870000Y-140335000D03*
D22*
X350600000Y-142875000D03*
D23*
X354150000Y-142875000D03*
X340700000Y-145415000D03*
D22*
X344250000Y-145415000D03*
%TD*%
D21*
%TO.C,MX47*%
X403622500Y-168910000D03*
D11*
X408702500Y-168910000D03*
D21*
X413782500Y-168910000D03*
D22*
X412512500Y-171450000D03*
D23*
X416062500Y-171450000D03*
X402612500Y-173990000D03*
D22*
X406162500Y-173990000D03*
%TD*%
D18*
%TO.C,R31*%
X492282666Y-160177270D03*
X494107666Y-160177270D03*
%TD*%
D19*
%TO.C,LED94*%
X182827500Y-221660000D03*
X182827500Y-220160000D03*
X177377500Y-221660000D03*
D20*
X177377500Y-220160000D03*
%TD*%
D21*
%TO.C,MX29*%
X384572500Y-140335000D03*
D11*
X389652500Y-140335000D03*
D21*
X394732500Y-140335000D03*
D22*
X393462500Y-142875000D03*
D23*
X397012500Y-142875000D03*
X383562500Y-145415000D03*
D22*
X387112500Y-145415000D03*
%TD*%
D18*
%TO.C,R30*%
X299427500Y-122065000D03*
X301252500Y-122065000D03*
%TD*%
D27*
%TO.C,D11*%
X336140000Y-129285000D03*
X339440000Y-129285000D03*
%TD*%
D24*
%TO.C,C63*%
X304690000Y-184807500D03*
X304690000Y-183672500D03*
%TD*%
D19*
%TO.C,LED116*%
X392377500Y-240710000D03*
X392377500Y-239210000D03*
X386927500Y-240710000D03*
D20*
X386927500Y-239210000D03*
%TD*%
D21*
%TO.C,MX107*%
X503635000Y-235585000D03*
D11*
X508715000Y-235585000D03*
D21*
X513795000Y-235585000D03*
D22*
X512525000Y-238125000D03*
D23*
X516075000Y-238125000D03*
X502625000Y-240665000D03*
D22*
X506175000Y-240665000D03*
%TD*%
M02*
