%TF.GenerationSoftware,KiCad,Pcbnew,8.0.8*%
%TF.CreationDate,2025-04-23T12:27:23+02:00*%
%TF.ProjectId,Clavier,436c6176-6965-4722-9e6b-696361645f70,0.0*%
%TF.SameCoordinates,Original*%
%TF.FileFunction,Copper,L3,Inr*%
%TF.FilePolarity,Positive*%
%FSLAX46Y46*%
G04 Gerber Fmt 4.6, Leading zero omitted, Abs format (unit mm)*
G04 Created by KiCad (PCBNEW 8.0.8) date 2025-04-23 12:27:23*
%MOMM*%
%LPD*%
G01*
G04 APERTURE LIST*
%TA.AperFunction,ComponentPad*%
%ADD10C,4.000000*%
%TD*%
%TA.AperFunction,ComponentPad*%
%ADD11R,2.000000X2.000000*%
%TD*%
%TA.AperFunction,ComponentPad*%
%ADD12C,2.000000*%
%TD*%
%TA.AperFunction,ComponentPad*%
%ADD13R,3.200000X2.000000*%
%TD*%
%TA.AperFunction,ComponentPad*%
%ADD14C,1.524000*%
%TD*%
%TA.AperFunction,ComponentPad*%
%ADD15C,2.600000*%
%TD*%
%TA.AperFunction,ComponentPad*%
%ADD16C,3.300000*%
%TD*%
%TA.AperFunction,ComponentPad*%
%ADD17C,3.500000*%
%TD*%
%TA.AperFunction,ComponentPad*%
%ADD18R,1.700000X1.700000*%
%TD*%
%TA.AperFunction,ComponentPad*%
%ADD19O,1.700000X1.700000*%
%TD*%
%TA.AperFunction,HeatsinkPad*%
%ADD20C,0.600000*%
%TD*%
%TA.AperFunction,ComponentPad*%
%ADD21O,1.000000X1.800000*%
%TD*%
%TA.AperFunction,ComponentPad*%
%ADD22O,1.000000X2.100000*%
%TD*%
%TA.AperFunction,ViaPad*%
%ADD23C,0.600000*%
%TD*%
%TA.AperFunction,Conductor*%
%ADD24C,0.800000*%
%TD*%
%TA.AperFunction,Conductor*%
%ADD25C,0.400000*%
%TD*%
%TA.AperFunction,Conductor*%
%ADD26C,0.158200*%
%TD*%
%TA.AperFunction,Conductor*%
%ADD27C,0.200000*%
%TD*%
G04 APERTURE END LIST*
D10*
%TO.N,*%
%TO.C,S1*%
X344408750Y-161925000D03*
X368221250Y-161925000D03*
%TD*%
%TO.N,*%
%TO.C,S7*%
X449183750Y-238125000D03*
X472996250Y-238125000D03*
%TD*%
D11*
%TO.N,RE_A*%
%TO.C,SW3*%
X106140000Y-123785000D03*
D12*
%TO.N,RE_B*%
X106140000Y-118785000D03*
%TO.N,GND*%
X106140000Y-121285000D03*
D13*
X98640000Y-126885000D03*
X98640000Y-115685000D03*
D12*
%TO.N,RE_S*%
X91640000Y-118785000D03*
%TO.N,GND*%
X91640000Y-123785000D03*
%TD*%
D10*
%TO.N,*%
%TO.C,S5*%
X501730000Y-247491250D03*
X501730000Y-223678750D03*
%TD*%
%TO.N,*%
%TO.C,S6*%
X170577500Y-238125000D03*
X270590000Y-238125000D03*
%TD*%
%TO.N,*%
%TO.C,S3*%
X501730000Y-209391250D03*
X501730000Y-185578750D03*
%TD*%
%TO.N,*%
%TO.C,S4*%
X337265000Y-219075000D03*
X361077500Y-219075000D03*
%TD*%
D14*
%TO.N,unconnected-(RV2-Pad1)*%
%TO.C,RV2*%
X445140000Y-139085000D03*
%TO.N,unconnected-(RV2-Pad2)*%
X445140000Y-136585000D03*
%TO.N,unconnected-(RV2-Pad3)*%
X515140000Y-139085000D03*
%TO.N,GND*%
X445140000Y-144085000D03*
%TO.N,Net-(R27-Pad1)*%
X445140000Y-141585000D03*
%TO.N,+3.3V*%
X515140000Y-144085000D03*
D15*
%TO.N,GND*%
X455140000Y-140335000D03*
X502640000Y-140335000D03*
%TD*%
D14*
%TO.N,unconnected-(RV1-Pad1)*%
%TO.C,RV1*%
X445140000Y-120035000D03*
%TO.N,unconnected-(RV1-Pad2)*%
X445140000Y-117535000D03*
%TO.N,unconnected-(RV1-Pad3)*%
X515140000Y-120035000D03*
%TO.N,GND*%
X445140000Y-125035000D03*
%TO.N,Net-(R4-Pad2)*%
X445140000Y-122535000D03*
%TO.N,+3.3V*%
X515140000Y-125035000D03*
D15*
%TO.N,GND*%
X455140000Y-121285000D03*
X502640000Y-121285000D03*
%TD*%
D16*
%TO.N,Column 11*%
%TO.C,MX42*%
X293450000Y-171450000D03*
%TO.N,Net-(D42-A)*%
X287100000Y-173990000D03*
%TD*%
%TO.N,Column 8*%
%TO.C,MX60*%
X245825000Y-190500000D03*
%TO.N,Net-(D60-A)*%
X239475000Y-193040000D03*
%TD*%
%TO.N,Column 1*%
%TO.C,MX53*%
X107712500Y-190500000D03*
%TO.N,Net-(D53-A)*%
X101362500Y-193040000D03*
%TD*%
%TO.N,Column 11*%
%TO.C,MX84*%
X307737500Y-209550000D03*
%TO.N,Net-(D84-A)*%
X301387500Y-212090000D03*
%TD*%
%TO.N,Column 16*%
%TO.C,MX30*%
X412512500Y-142875000D03*
%TO.N,Net-(D30-A)*%
X406162500Y-145415000D03*
%TD*%
%TO.N,Column 1*%
%TO.C,MX74*%
X110093750Y-209550000D03*
%TO.N,Net-(D74-A)*%
X103743750Y-212090000D03*
%TD*%
%TO.N,Column 11*%
%TO.C,MX63*%
X302975000Y-190500000D03*
%TO.N,Net-(D63-A)*%
X296625000Y-193040000D03*
%TD*%
%TO.N,Column 17*%
%TO.C,MX15*%
X431562500Y-123825000D03*
%TO.N,Net-(D15-A)*%
X425212500Y-126365000D03*
%TD*%
%TO.N,Column 2*%
%TO.C,MX54*%
X131525000Y-190500000D03*
%TO.N,Net-(D54-A)*%
X125175000Y-193040000D03*
%TD*%
%TO.N,Column 9*%
%TO.C,MX23*%
X264875000Y-142875000D03*
%TO.N,Net-(D23-A)*%
X258525000Y-145415000D03*
%TD*%
%TO.N,Column 8*%
%TO.C,MX22*%
X245825000Y-142875000D03*
%TO.N,Net-(D22-A)*%
X239475000Y-145415000D03*
%TD*%
%TO.N,Column 14*%
%TO.C,MX45*%
X360125000Y-171450000D03*
%TO.N,Net-(D45-A)*%
X353775000Y-173990000D03*
%TD*%
%TO.N,Column 13*%
%TO.C,MX86*%
X345837500Y-209550000D03*
%TO.N,Net-(D86-A)*%
X339487500Y-212090000D03*
%TD*%
%TO.N,Column 14*%
%TO.C,MX28*%
X369650000Y-142875000D03*
%TO.N,Net-(D28-A)*%
X363300000Y-145415000D03*
%TD*%
%TO.N,Column 13*%
%TO.C,MX114*%
X343456250Y-247650000D03*
%TO.N,Net-(D114-A)*%
X337106250Y-250190000D03*
%TD*%
%TO.N,Column 16*%
%TO.C,MX68*%
X412512500Y-190500000D03*
%TO.N,Net-(D68-A)*%
X406162500Y-193040000D03*
%TD*%
%TO.N,Column 14*%
%TO.C,MX115*%
X367268750Y-247650000D03*
%TO.N,Net-(D115-A)*%
X360918750Y-250190000D03*
%TD*%
%TO.N,Column 18*%
%TO.C,MX87*%
X455375000Y-209550000D03*
%TO.N,Net-(D87-A)*%
X449025000Y-212090000D03*
%TD*%
%TO.N,Column 16*%
%TO.C,MX117*%
X412512500Y-247650000D03*
%TO.N,Net-(D117-A)*%
X406162500Y-250190000D03*
%TD*%
%TO.N,Column 6*%
%TO.C,MX20*%
X198200000Y-142875000D03*
%TO.N,Net-(D20-A)*%
X191850000Y-145415000D03*
%TD*%
D17*
%TO.N,GND*%
%TO.C,H6*%
X294415166Y-142177270D03*
%TD*%
D16*
%TO.N,Column 6*%
%TO.C,MX58*%
X207725000Y-190500000D03*
%TO.N,Net-(D58-A)*%
X201375000Y-193040000D03*
%TD*%
%TO.N,Column 12*%
%TO.C,MX101*%
X317262500Y-228600000D03*
%TO.N,Net-(D101-A)*%
X310912500Y-231140000D03*
%TD*%
%TO.N,Column 12*%
%TO.C,MX64*%
X322025000Y-190500000D03*
%TO.N,Net-(D64-A)*%
X315675000Y-193040000D03*
%TD*%
D18*
%TO.N,GND*%
%TO.C,J2*%
X500715166Y-155177270D03*
D19*
%TO.N,GPIO2*%
X498175166Y-155177270D03*
%TO.N,GPIO1*%
X495635166Y-155177270D03*
%TO.N,Net-(J2-Pin_4)*%
X493095166Y-155177270D03*
%TD*%
D16*
%TO.N,Column 14*%
%TO.C,MX66*%
X367268750Y-200025000D03*
%TO.N,Net-(D66-A)*%
X360918750Y-202565000D03*
%TD*%
%TO.N,Column 6*%
%TO.C,MX95*%
X202962500Y-228600000D03*
%TO.N,Net-(D95-A)*%
X196612500Y-231140000D03*
%TD*%
%TO.N,Column 16*%
%TO.C,MX14*%
X412512500Y-123825000D03*
%TO.N,Net-(D14-A)*%
X406162500Y-126365000D03*
%TD*%
%TO.N,Column 12*%
%TO.C,MX85*%
X326787500Y-209550000D03*
%TO.N,Net-(D85-A)*%
X320437500Y-212090000D03*
%TD*%
%TO.N,Column 10*%
%TO.C,MX99*%
X279162500Y-228600000D03*
%TO.N,Net-(D99-A)*%
X272812500Y-231140000D03*
%TD*%
%TO.N,Column 12*%
%TO.C,MX113*%
X319643750Y-247650000D03*
%TO.N,Net-(D113-A)*%
X313293750Y-250190000D03*
%TD*%
%TO.N,Column 9*%
%TO.C,MX61*%
X264875000Y-190500000D03*
%TO.N,Net-(D61-A)*%
X258525000Y-193040000D03*
%TD*%
%TO.N,Column 3*%
%TO.C,MX1*%
X141050000Y-123825000D03*
%TO.N,Net-(D1-A)*%
X134700000Y-126365000D03*
%TD*%
%TO.N,Column 18*%
%TO.C,MX49*%
X455375000Y-171450000D03*
%TO.N,Net-(D49-A)*%
X449025000Y-173990000D03*
%TD*%
%TO.N,Column 13*%
%TO.C,MX44*%
X331550000Y-171450000D03*
%TO.N,Net-(D44-A)*%
X325200000Y-173990000D03*
%TD*%
%TO.N,Column 15*%
%TO.C,MX116*%
X393462500Y-247650000D03*
%TO.N,Net-(D116-A)*%
X387112500Y-250190000D03*
%TD*%
D17*
%TO.N,GND*%
%TO.C,H7*%
X294415166Y-204177270D03*
%TD*%
D16*
%TO.N,Column 5*%
%TO.C,MX19*%
X179150000Y-142875000D03*
%TO.N,Net-(D19-A)*%
X172800000Y-145415000D03*
%TD*%
%TO.N,Column 12*%
%TO.C,MX10*%
X331550000Y-123825000D03*
%TO.N,Net-(D10-A)*%
X325200000Y-126365000D03*
%TD*%
%TO.N,Column 2*%
%TO.C,MX75*%
X136287500Y-209550000D03*
%TO.N,Net-(D75-A)*%
X129937500Y-212090000D03*
%TD*%
%TO.N,Column 14*%
%TO.C,MX12*%
X369650000Y-123825000D03*
%TO.N,Net-(D12-A)*%
X363300000Y-126365000D03*
%TD*%
%TO.N,Column 6*%
%TO.C,MX37*%
X198200000Y-171450000D03*
%TO.N,Net-(D37-A)*%
X191850000Y-173990000D03*
%TD*%
%TO.N,Column 7*%
%TO.C,MX96*%
X222012500Y-228600000D03*
%TO.N,Net-(D96-A)*%
X215662500Y-231140000D03*
%TD*%
%TO.N,Column 3*%
%TO.C,MX76*%
X155337500Y-209550000D03*
%TO.N,Net-(D76-A)*%
X148987500Y-212090000D03*
%TD*%
D17*
%TO.N,GND*%
%TO.C,H10*%
X175415166Y-181177270D03*
%TD*%
D16*
%TO.N,Column 5*%
%TO.C,MX57*%
X188675000Y-190500000D03*
%TO.N,Net-(D57-A)*%
X182325000Y-193040000D03*
%TD*%
%TO.N,Column 17*%
%TO.C,MX48*%
X431562500Y-171450000D03*
%TO.N,Net-(D48-A)*%
X425212500Y-173990000D03*
%TD*%
%TO.N,Column 21*%
%TO.C,MX73*%
X512525000Y-200025000D03*
%TO.N,Net-(D73-A)*%
X506175000Y-202565000D03*
%TD*%
%TO.N,Column 20*%
%TO.C,MX106*%
X493475000Y-228600000D03*
%TO.N,Net-(D106-A)*%
X487125000Y-231140000D03*
%TD*%
%TO.N,Column 3*%
%TO.C,MX92*%
X145812500Y-228600000D03*
%TO.N,Net-(D92-A)*%
X139462500Y-231140000D03*
%TD*%
%TO.N,Column 20*%
%TO.C,MX89*%
X493475000Y-209550000D03*
%TO.N,Net-(D89-A)*%
X487125000Y-212090000D03*
%TD*%
%TO.N,Column 2*%
%TO.C,MX109*%
X129143750Y-247650000D03*
%TO.N,Net-(D109-A)*%
X122793750Y-250190000D03*
%TD*%
%TO.N,Column 10*%
%TO.C,MX24*%
X283925000Y-142875000D03*
%TO.N,Net-(D24-A)*%
X277575000Y-145415000D03*
%TD*%
%TO.N,Column 3*%
%TO.C,MX110*%
X152956250Y-247650000D03*
%TO.N,Net-(D110-A)*%
X146606250Y-250190000D03*
%TD*%
%TO.N,Column 3*%
%TO.C,MX34*%
X141050000Y-171450000D03*
%TO.N,Net-(D34-A)*%
X134700000Y-173990000D03*
%TD*%
%TO.N,Column 7*%
%TO.C,MX5*%
X226775000Y-123825000D03*
%TO.N,Net-(D5-A)*%
X220425000Y-126365000D03*
%TD*%
%TO.N,Column 17*%
%TO.C,MX31*%
X431610176Y-142875000D03*
%TO.N,Net-(D31-A)*%
X425260176Y-145415000D03*
%TD*%
D17*
%TO.N,GND*%
%TO.C,H8*%
X208415166Y-142177270D03*
%TD*%
D16*
%TO.N,Column 9*%
%TO.C,MX40*%
X255350000Y-171450000D03*
%TO.N,Net-(D40-A)*%
X249000000Y-173990000D03*
%TD*%
%TO.N,Column 9*%
%TO.C,MX82*%
X269637500Y-209550000D03*
%TO.N,Net-(D82-A)*%
X263287500Y-212090000D03*
%TD*%
%TO.N,Column 6*%
%TO.C,MX79*%
X212487500Y-209550000D03*
%TO.N,Net-(D79-A)*%
X206137500Y-212090000D03*
%TD*%
%TO.N,Column 3*%
%TO.C,MX55*%
X150575000Y-190500000D03*
%TO.N,Net-(D55-A)*%
X144225000Y-193040000D03*
%TD*%
%TO.N,Column 4*%
%TO.C,MX56*%
X169625000Y-190500000D03*
%TO.N,Net-(D56-A)*%
X163275000Y-193040000D03*
%TD*%
D17*
%TO.N,GND*%
%TO.C,H4*%
X506415166Y-131177270D03*
%TD*%
D16*
%TO.N,Column 15*%
%TO.C,MX13*%
X393462500Y-123825000D03*
%TO.N,Net-(D13-A)*%
X387112500Y-126365000D03*
%TD*%
%TO.N,Column 19*%
%TO.C,MX71*%
X474425000Y-190500000D03*
%TO.N,Net-(D71-A)*%
X468075000Y-193040000D03*
%TD*%
D17*
%TO.N,GND*%
%TO.C,H2*%
X118415166Y-128177270D03*
%TD*%
D16*
%TO.N,Column 13*%
%TO.C,MX65*%
X341075000Y-190500000D03*
%TO.N,Net-(D65-A)*%
X334725000Y-193040000D03*
%TD*%
%TO.N,Column 1*%
%TO.C,MX90*%
X105331250Y-228600000D03*
%TO.N,Net-(D90-A)*%
X98981250Y-231140000D03*
%TD*%
%TO.N,Column 20*%
%TO.C,MX120*%
X493475000Y-247650000D03*
%TO.N,Net-(D120-A)*%
X487125000Y-250190000D03*
%TD*%
D20*
%TO.N,GND*%
%TO.C,U1*%
X482305000Y-127865000D03*
X483705000Y-127865000D03*
X481605000Y-127165000D03*
X483005000Y-127165000D03*
X484405000Y-127165000D03*
X482305000Y-126465000D03*
X483705000Y-126465000D03*
X481605000Y-125765000D03*
X483005000Y-125765000D03*
X484405000Y-125765000D03*
X482305000Y-125065000D03*
X483705000Y-125065000D03*
%TD*%
D16*
%TO.N,Column 13*%
%TO.C,MX11*%
X350600000Y-123825000D03*
%TO.N,Net-(D11-A)*%
X344250000Y-126365000D03*
%TD*%
D17*
%TO.N,GND*%
%TO.C,H11*%
X378415166Y-142177270D03*
%TD*%
%TO.N,GND*%
%TO.C,H12*%
X251415166Y-181177270D03*
%TD*%
D16*
%TO.N,Column 4*%
%TO.C,MX2*%
X160100000Y-123825000D03*
%TO.N,Net-(D2-A)*%
X153750000Y-126365000D03*
%TD*%
%TO.N,Column 4*%
%TO.C,MX93*%
X164862500Y-228600000D03*
%TO.N,Net-(D93-A)*%
X158512500Y-231140000D03*
%TD*%
%TO.N,Column 7*%
%TO.C,MX59*%
X226775000Y-190500000D03*
%TO.N,Net-(D59-A)*%
X220425000Y-193040000D03*
%TD*%
%TO.N,Column 8*%
%TO.C,MX39*%
X236300000Y-171450000D03*
%TO.N,Net-(D39-A)*%
X229950000Y-173990000D03*
%TD*%
%TO.N,Column 4*%
%TO.C,MX77*%
X174387500Y-209550000D03*
%TO.N,Net-(D77-A)*%
X168037500Y-212090000D03*
%TD*%
D17*
%TO.N,GND*%
%TO.C,H3*%
X509414200Y-254178000D03*
%TD*%
D16*
%TO.N,Column 4*%
%TO.C,MX18*%
X160100000Y-142875000D03*
%TO.N,Net-(D18-A)*%
X153750000Y-145415000D03*
%TD*%
%TO.N,Column 3*%
%TO.C,MX17*%
X141050000Y-142875000D03*
%TO.N,Net-(D17-A)*%
X134700000Y-145415000D03*
%TD*%
%TO.N,Column 19*%
%TO.C,MX50*%
X474425000Y-171450000D03*
%TO.N,Net-(D50-A)*%
X468075000Y-173990000D03*
%TD*%
%TO.N,Column 10*%
%TO.C,MX41*%
X274400000Y-171450000D03*
%TO.N,Net-(D41-A)*%
X268050000Y-173990000D03*
%TD*%
%TO.N,Column 16*%
%TO.C,MX103*%
X412512500Y-228600000D03*
%TO.N,Net-(D103-A)*%
X406162500Y-231140000D03*
%TD*%
%TO.N,Column 5*%
%TO.C,MX78*%
X193437500Y-209550000D03*
%TO.N,Net-(D78-A)*%
X187087500Y-212090000D03*
%TD*%
%TO.N,Column 18*%
%TO.C,MX70*%
X455375000Y-190500000D03*
%TO.N,Net-(D70-A)*%
X449025000Y-193040000D03*
%TD*%
%TO.N,Column 12*%
%TO.C,MX43*%
X312500000Y-171450000D03*
%TO.N,Net-(D43-A)*%
X306150000Y-173990000D03*
%TD*%
%TO.N,Column 9*%
%TO.C,MX98*%
X260112500Y-228600000D03*
%TO.N,Net-(D98-A)*%
X253762500Y-231140000D03*
%TD*%
D17*
%TO.N,GND*%
%TO.C,H9*%
X119415166Y-207177270D03*
%TD*%
D16*
%TO.N,Column 18*%
%TO.C,MX104*%
X455375000Y-228600000D03*
%TO.N,Net-(D104-A)*%
X449025000Y-231140000D03*
%TD*%
%TO.N,Column 11*%
%TO.C,MX100*%
X298212500Y-228600000D03*
%TO.N,Net-(D100-A)*%
X291862500Y-231140000D03*
%TD*%
%TO.N,Column 21*%
%TO.C,MX52*%
X512525000Y-171450000D03*
%TO.N,Net-(D52-A)*%
X506175000Y-173990000D03*
%TD*%
%TO.N,Column 20*%
%TO.C,MX72*%
X493475000Y-190500000D03*
%TO.N,Net-(D72-A)*%
X487125000Y-193040000D03*
%TD*%
%TO.N,Column 11*%
%TO.C,MX9*%
X312500000Y-123825000D03*
%TO.N,Net-(D9-A)*%
X306150000Y-126365000D03*
%TD*%
%TO.N,Column 5*%
%TO.C,MX94*%
X183912500Y-228600000D03*
%TO.N,Net-(D94-A)*%
X177562500Y-231140000D03*
%TD*%
%TO.N,Column 12*%
%TO.C,MX26*%
X331550000Y-142875000D03*
%TO.N,Net-(D26-A)*%
X325200000Y-145415000D03*
%TD*%
%TO.N,Column 8*%
%TO.C,MX97*%
X241062500Y-228600000D03*
%TO.N,Net-(D97-A)*%
X234712500Y-231140000D03*
%TD*%
%TO.N,Column 9*%
%TO.C,MX7*%
X264875000Y-123825000D03*
%TO.N,Net-(D7-A)*%
X258525000Y-126365000D03*
%TD*%
%TO.N,Column 20*%
%TO.C,MX51*%
X493475000Y-171450000D03*
%TO.N,Net-(D51-A)*%
X487125000Y-173990000D03*
%TD*%
%TO.N,Column 19*%
%TO.C,MX88*%
X474425000Y-209550000D03*
%TO.N,Net-(D88-A)*%
X468075000Y-212090000D03*
%TD*%
%TO.N,Column 4*%
%TO.C,MX35*%
X160100000Y-171450000D03*
%TO.N,Net-(D35-A)*%
X153750000Y-173990000D03*
%TD*%
%TO.N,Column 1*%
%TO.C,MX16*%
X102950000Y-142875000D03*
%TO.N,Net-(D16-A)*%
X96600000Y-145415000D03*
%TD*%
%TO.N,Column 10*%
%TO.C,MX83*%
X288687500Y-209550000D03*
%TO.N,Net-(D83-A)*%
X282337500Y-212090000D03*
%TD*%
%TO.N,Column 5*%
%TO.C,MX3*%
X179150000Y-123825000D03*
%TO.N,Net-(D3-A)*%
X172800000Y-126365000D03*
%TD*%
D17*
%TO.N,GND*%
%TO.C,H5*%
X386415166Y-208176570D03*
%TD*%
D16*
%TO.N,Column 1*%
%TO.C,MX108*%
X105331250Y-247650000D03*
%TO.N,Net-(D108-A)*%
X98981250Y-250190000D03*
%TD*%
D17*
%TO.N,GND*%
%TO.C,H1*%
X186415166Y-246177270D03*
%TD*%
D16*
%TO.N,Column 15*%
%TO.C,MX67*%
X393462500Y-190500000D03*
%TO.N,Net-(D67-A)*%
X387112500Y-193040000D03*
%TD*%
%TO.N,Column 13*%
%TO.C,MX102*%
X352981250Y-228600000D03*
%TO.N,Net-(D102-A)*%
X346631250Y-231140000D03*
%TD*%
%TO.N,Column 10*%
%TO.C,MX62*%
X283925000Y-190500000D03*
%TO.N,Net-(D62-A)*%
X277575000Y-193040000D03*
%TD*%
D21*
%TO.N,GND*%
%TO.C,J1*%
X289772471Y-111232529D03*
D22*
X289772471Y-115432529D03*
D21*
X298412471Y-111232529D03*
D22*
X298412471Y-115432529D03*
%TD*%
D16*
%TO.N,Column 5*%
%TO.C,MX36*%
X179150000Y-171450000D03*
%TO.N,Net-(D36-A)*%
X172800000Y-173990000D03*
%TD*%
%TO.N,Column 18*%
%TO.C,MX119*%
X464900000Y-247650000D03*
%TO.N,Net-(D119-A)*%
X458550000Y-250190000D03*
%TD*%
%TO.N,Column 1*%
%TO.C,MX32*%
X102950000Y-171450000D03*
%TO.N,Net-(D32-A)*%
X96600000Y-173990000D03*
%TD*%
%TO.N,Column 6*%
%TO.C,MX4*%
X198200000Y-123825000D03*
%TO.N,Net-(D4-A)*%
X191850000Y-126365000D03*
%TD*%
%TO.N,Column 17*%
%TO.C,MX118*%
X431562500Y-247650000D03*
%TO.N,Net-(D118-A)*%
X425212500Y-250190000D03*
%TD*%
%TO.N,Column 8*%
%TO.C,MX81*%
X250587500Y-209550000D03*
%TO.N,Net-(D81-A)*%
X244237500Y-212090000D03*
%TD*%
%TO.N,Column 7*%
%TO.C,MX21*%
X226775000Y-142875000D03*
%TO.N,Net-(D21-A)*%
X220425000Y-145415000D03*
%TD*%
%TO.N,Column 11*%
%TO.C,MX112*%
X295831250Y-247650000D03*
%TO.N,Net-(D112-A)*%
X289481250Y-250190000D03*
%TD*%
%TO.N,Column 17*%
%TO.C,MX69*%
X431562500Y-190500000D03*
%TO.N,Net-(D69-A)*%
X425212500Y-193040000D03*
%TD*%
%TO.N,Column 8*%
%TO.C,MX6*%
X245825000Y-123825000D03*
%TO.N,Net-(D6-A)*%
X239475000Y-126365000D03*
%TD*%
%TO.N,Column 7*%
%TO.C,MX80*%
X231537500Y-209550000D03*
%TO.N,Net-(D80-A)*%
X225187500Y-212090000D03*
%TD*%
%TO.N,Column 15*%
%TO.C,MX46*%
X393462500Y-171450000D03*
%TO.N,Net-(D46-A)*%
X387112500Y-173990000D03*
%TD*%
%TO.N,Column 7*%
%TO.C,MX38*%
X217250000Y-171450000D03*
%TO.N,Net-(D38-A)*%
X210900000Y-173990000D03*
%TD*%
%TO.N,Column 2*%
%TO.C,MX33*%
X122000000Y-171450000D03*
%TO.N,Net-(D33-A)*%
X115650000Y-173990000D03*
%TD*%
%TO.N,Column 7*%
%TO.C,MX111*%
X224393750Y-247650000D03*
%TO.N,Net-(D111-A)*%
X218043750Y-250190000D03*
%TD*%
%TO.N,Column 19*%
%TO.C,MX105*%
X474425000Y-228600000D03*
%TO.N,Net-(D105-A)*%
X468075000Y-231140000D03*
%TD*%
%TO.N,Column 2*%
%TO.C,MX91*%
X126762500Y-228600000D03*
%TO.N,Net-(D91-A)*%
X120412500Y-231140000D03*
%TD*%
%TO.N,Column 10*%
%TO.C,MX8*%
X283925000Y-123825000D03*
%TO.N,Net-(D8-A)*%
X277575000Y-126365000D03*
%TD*%
%TO.N,Column 11*%
%TO.C,MX25*%
X312500000Y-142875000D03*
%TO.N,Net-(D25-A)*%
X306150000Y-145415000D03*
%TD*%
%TO.N,Column 13*%
%TO.C,MX27*%
X350600000Y-142875000D03*
%TO.N,Net-(D27-A)*%
X344250000Y-145415000D03*
%TD*%
%TO.N,Column 16*%
%TO.C,MX47*%
X412512500Y-171450000D03*
%TO.N,Net-(D47-A)*%
X406162500Y-173990000D03*
%TD*%
%TO.N,Column 15*%
%TO.C,MX29*%
X393462500Y-142875000D03*
%TO.N,Net-(D29-A)*%
X387112500Y-145415000D03*
%TD*%
%TO.N,Column 21*%
%TO.C,MX107*%
X512525000Y-238125000D03*
%TO.N,Net-(D107-A)*%
X506175000Y-240665000D03*
%TD*%
D23*
%TO.N,+5V*%
X227353750Y-116852500D03*
X227353750Y-183552500D03*
X413153750Y-164552500D03*
X184453750Y-221652500D03*
X477940000Y-151265000D03*
X313053750Y-135952500D03*
X232053750Y-202652500D03*
X466459403Y-151351708D03*
X296440000Y-240765000D03*
X105953125Y-240665000D03*
X475053750Y-221652500D03*
X497415166Y-149177270D03*
X236853750Y-164552500D03*
X179653750Y-135952500D03*
X327353750Y-202652500D03*
X193953750Y-202652500D03*
X455953750Y-202652500D03*
X394053750Y-240752500D03*
X265453750Y-183552500D03*
X284540000Y-116865000D03*
X494053750Y-202652500D03*
X394053750Y-183552500D03*
X303553750Y-183552500D03*
X351153750Y-116852500D03*
X224940000Y-240765000D03*
X475053750Y-202652500D03*
X108340000Y-183565000D03*
X179753750Y-164552500D03*
X432140000Y-135965000D03*
X370240000Y-135965000D03*
X255953750Y-164552500D03*
X513140000Y-164565000D03*
X313153750Y-164552500D03*
X475053750Y-164452500D03*
X293340000Y-126965000D03*
X153585000Y-240710000D03*
X105953125Y-221665000D03*
X198840000Y-116865000D03*
X351153750Y-135952500D03*
X394053750Y-164552500D03*
X494053750Y-183552500D03*
X432153750Y-240752500D03*
X174953750Y-202652500D03*
X160653750Y-164552500D03*
X293340000Y-127765000D03*
X455953750Y-221652500D03*
X170153750Y-183552500D03*
X322653750Y-183552500D03*
X289253750Y-202652500D03*
X227353750Y-135952500D03*
X274953750Y-164552500D03*
X360740000Y-164465000D03*
X432153750Y-164552500D03*
X494053750Y-221652500D03*
X141653750Y-116852500D03*
X222553750Y-221652500D03*
X201940000Y-157265000D03*
X160753750Y-116852500D03*
X313053750Y-116852500D03*
X465540000Y-240765000D03*
X141553750Y-135952500D03*
X367840000Y-240765000D03*
X455953750Y-164452500D03*
X246353750Y-183552500D03*
X332153750Y-116852500D03*
X494140000Y-240765000D03*
X294053750Y-164552500D03*
X165453125Y-221665000D03*
X203553750Y-221652500D03*
X475840000Y-151265000D03*
X284453750Y-183552500D03*
X370240000Y-116865000D03*
X344740000Y-154865000D03*
X179753750Y-116852500D03*
X413153750Y-183552500D03*
X129753125Y-240665000D03*
X217853750Y-164552500D03*
X270253750Y-202652500D03*
X246453750Y-116852500D03*
X455953750Y-183552500D03*
X208353750Y-183552500D03*
X279653750Y-221652500D03*
X198853750Y-164552500D03*
X513140000Y-231165000D03*
X251153750Y-202652500D03*
X413140000Y-221665000D03*
X198840000Y-135965000D03*
X189253750Y-183552500D03*
X151153750Y-183552500D03*
X494053750Y-164452500D03*
X344040000Y-240765000D03*
X346353750Y-202652500D03*
X308253750Y-202652500D03*
X367840000Y-193065000D03*
X341653750Y-183552500D03*
X146453125Y-221665000D03*
X292640000Y-125165000D03*
X320240000Y-240765000D03*
X284540000Y-135965000D03*
X265453750Y-116852500D03*
X292640000Y-125965000D03*
X103540000Y-164565000D03*
X260653750Y-221652500D03*
X497415166Y-150177270D03*
X127353125Y-221665000D03*
X136853750Y-202652500D03*
X413053750Y-135952500D03*
X103540000Y-135965000D03*
X265453750Y-135952500D03*
X246453750Y-135952500D03*
X505140000Y-182065000D03*
X393953750Y-116852500D03*
X210907547Y-159465000D03*
X432153750Y-183552500D03*
X332153750Y-164552500D03*
X353540000Y-221665000D03*
X497415166Y-151177270D03*
X393953750Y-135952500D03*
X160653750Y-135952500D03*
X413153750Y-240752500D03*
X213053750Y-202652500D03*
X352996983Y-158886995D03*
X413053750Y-116852500D03*
X478940000Y-151265000D03*
X110740000Y-202565000D03*
X132053750Y-183552500D03*
X475053750Y-183552500D03*
X293340000Y-125965000D03*
X122553750Y-164552500D03*
X505540000Y-154265000D03*
X155953750Y-202652500D03*
X241553750Y-221652500D03*
X432140000Y-116852500D03*
X513140000Y-193065000D03*
X476940000Y-151265000D03*
X317853750Y-221652500D03*
X332153750Y-135952500D03*
X298753750Y-221652500D03*
X141653750Y-164552500D03*
%TO.N,+3.3V*%
X468320466Y-145377270D03*
X118427500Y-122177500D03*
X486362516Y-145524620D03*
%TO.N,EN*%
X488140000Y-135265000D03*
X468540000Y-133665000D03*
%TO.N,RE_S*%
X113540000Y-117265000D03*
X479305487Y-114734336D03*
%TO.N,RE_A*%
X108940000Y-121265000D03*
X481858341Y-114715214D03*
%TO.N,RE_B*%
X480550047Y-114748679D03*
X111772500Y-118785000D03*
%TO.N,Row 1*%
X441740000Y-128265000D03*
X471295000Y-123065000D03*
%TO.N,Row 2*%
X471272284Y-124325512D03*
X440140000Y-144665000D03*
%TO.N,Row 3*%
X471253948Y-125597284D03*
X439940000Y-167465000D03*
%TO.N,Row 4*%
X471253948Y-126859370D03*
X439727500Y-186277500D03*
%TO.N,Row 5*%
X439140000Y-204265000D03*
X476763830Y-135274044D03*
%TO.N,Row 6*%
X440540000Y-224665000D03*
X478072124Y-135240579D03*
%TO.N,Row 7*%
X442540000Y-243065000D03*
X479316684Y-135254922D03*
%TO.N,POT 1*%
X471279022Y-128162761D03*
X451415166Y-122377270D03*
%TO.N,POT 2*%
X451415166Y-139377270D03*
X471295000Y-129465000D03*
%TO.N,Net-(D1-K)*%
X316958528Y-130602736D03*
X417078352Y-130586824D03*
X269333528Y-130602736D03*
X250327352Y-130586824D03*
X183840000Y-130586824D03*
X436890000Y-130586824D03*
X164602352Y-130586824D03*
X397984528Y-130602736D03*
X297952352Y-130586824D03*
X126502352Y-130531000D03*
X336052352Y-130543000D03*
X145508528Y-130546912D03*
X212227352Y-130586824D03*
X355058528Y-130586824D03*
X378978352Y-130586824D03*
X231233528Y-130602736D03*
%TO.N,Net-(D16-K)*%
X417122176Y-149648824D03*
X336096176Y-149521824D03*
X97590176Y-149720000D03*
X250371176Y-149648824D03*
X164646176Y-149648824D03*
X297996176Y-149648824D03*
X317002352Y-149664736D03*
X436890000Y-149265000D03*
X355102352Y-149537736D03*
X183652352Y-149664736D03*
X212271176Y-149648824D03*
X126546176Y-149593000D03*
X269377352Y-149664736D03*
X398028352Y-149664736D03*
X231277352Y-149664736D03*
X145552352Y-149608912D03*
X379022176Y-149648824D03*
%TO.N,Net-(D32-K)*%
X297908528Y-178100736D03*
X97606088Y-177576824D03*
X479040000Y-178165000D03*
X145508528Y-178100736D03*
X459833528Y-178100736D03*
X259808528Y-178044912D03*
X354940000Y-180465000D03*
X398028352Y-178165000D03*
X278902352Y-178084824D03*
X126502352Y-178084824D03*
X240802352Y-178029000D03*
X440840000Y-178165000D03*
X497869264Y-178165000D03*
X317046176Y-178168000D03*
X164602352Y-178029000D03*
X417078352Y-178084824D03*
X379040000Y-178165000D03*
X202702352Y-178084824D03*
X107408528Y-178044912D03*
X221708528Y-178100736D03*
X183608528Y-178044912D03*
%TO.N,Net-(D53-K)*%
X193260528Y-197221912D03*
X250540000Y-197221912D03*
X212398176Y-197218000D03*
X353920000Y-196948088D03*
X288471176Y-197218000D03*
X116933528Y-197221912D03*
X478971176Y-197146824D03*
X269377352Y-197178088D03*
X326527352Y-197206000D03*
X102234176Y-196765000D03*
X155077352Y-197233912D03*
X231404352Y-197233912D03*
X417122176Y-197146824D03*
X398028352Y-197162736D03*
X136071176Y-197218000D03*
X307477352Y-197233912D03*
X459877352Y-197162736D03*
X379022176Y-197146824D03*
X440871176Y-197146824D03*
X498065000Y-204159176D03*
X174127352Y-197206000D03*
%TO.N,Net-(D74-K)*%
X217053352Y-216156912D03*
X331353352Y-216156912D03*
X140770176Y-216141000D03*
X459833528Y-216327736D03*
X274203352Y-216156912D03*
X111830088Y-216184824D03*
X440827352Y-216311824D03*
X293253352Y-216101088D03*
X312347176Y-216141000D03*
X121676352Y-216101088D03*
X255197176Y-216141000D03*
X236103352Y-216101088D03*
X478927352Y-216311824D03*
X178953352Y-216101088D03*
X198047176Y-216141000D03*
X159776352Y-216156912D03*
%TO.N,Net-(D100-K)*%
X100130176Y-234937000D03*
X167690000Y-234065000D03*
X398028352Y-235179000D03*
X131400000Y-235234824D03*
X150400000Y-235234824D03*
X207528352Y-235234824D03*
X264722176Y-235246824D03*
X346940000Y-237265000D03*
X478971176Y-235206912D03*
X302822176Y-235191000D03*
X245628352Y-235234824D03*
X498993352Y-238068176D03*
X283728352Y-235234824D03*
X188478352Y-235290648D03*
X226578352Y-235290648D03*
X440871176Y-235373824D03*
X458290000Y-233965000D03*
X112278352Y-235234824D03*
%TO.N,Net-(D108-K)*%
X478971176Y-254368000D03*
X328984176Y-254368000D03*
X444740000Y-251065000D03*
X207440000Y-256600000D03*
X281359176Y-254368000D03*
X305108176Y-254368000D03*
X138484176Y-254368000D03*
X352733176Y-254368000D03*
X114691352Y-254383912D03*
X100440000Y-254368000D03*
X457000000Y-256600000D03*
X378895176Y-254368000D03*
X416995176Y-254368000D03*
X397945176Y-254368000D03*
%TO.N,Net-(J1-CC2)*%
X294340000Y-114265000D03*
X285390000Y-110265000D03*
%TO.N,Net-(J1-CC1)*%
X293394073Y-114348363D03*
X285390000Y-112265000D03*
%TO.N,Net-(LED1-DIN)*%
X160640000Y-115415000D03*
X132690000Y-116915000D03*
%TO.N,Net-(LED2-DIN)*%
X179798750Y-115335000D03*
X151848750Y-116835000D03*
%TO.N,Net-(LED3-DIN)*%
X170790000Y-116915000D03*
X198740000Y-115415000D03*
%TO.N,Net-(LED4-DIN)*%
X227454983Y-115353708D03*
X190093750Y-116835000D03*
%TO.N,Net-(LED5-DIN)*%
X246302500Y-115395000D03*
X218352500Y-116895000D03*
%TO.N,Net-(LED6-DIN)*%
X237548750Y-116835000D03*
X265498750Y-115335000D03*
%TO.N,Net-(LED7-DIN)*%
X256490000Y-116915000D03*
X284440000Y-115415000D03*
%TO.N,Net-(LED8-DIN)*%
X313140000Y-115465000D03*
X275940000Y-116865000D03*
%TO.N,Net-(LED10-DOUT)*%
X332102500Y-115395000D03*
X305940000Y-118265000D03*
%TO.N,Net-(LED10-DIN)*%
X323298750Y-116835000D03*
X351248750Y-115335000D03*
%TO.N,Net-(LED11-DIN)*%
X342240000Y-116915000D03*
X370190000Y-115415000D03*
%TO.N,Net-(LED12-DIN)*%
X361540000Y-116865000D03*
X394102500Y-115395000D03*
%TO.N,Net-(LED13-DIN)*%
X413198750Y-115335000D03*
X385248750Y-116835000D03*
%TO.N,Net-(LED14-DIN)*%
X404190000Y-116915000D03*
X432140000Y-115415000D03*
%TO.N,Net-(LED15-DIN)*%
X423140000Y-117265000D03*
X430390000Y-132515000D03*
%TO.N,Net-(LED16-DOUT)*%
X103590000Y-134415000D03*
X132577500Y-135902500D03*
%TO.N,Net-(LED16-DIN)*%
X94390000Y-135915000D03*
X103552500Y-163095000D03*
%TO.N,Net-(LED17-DOUT)*%
X142217500Y-134495000D03*
X151717500Y-135890000D03*
%TO.N,Net-(LED18-DOUT)*%
X161217500Y-134495000D03*
X170717500Y-135890000D03*
%TO.N,Net-(LED19-DOUT)*%
X180215000Y-134495000D03*
X189715000Y-135890000D03*
%TO.N,Net-(LED20-DOUT)*%
X199340000Y-134465000D03*
X218340000Y-135915000D03*
%TO.N,Net-(LED21-DOUT)*%
X237417500Y-135890000D03*
X227917500Y-134495000D03*
%TO.N,Net-(LED22-DOUT)*%
X246967500Y-134495000D03*
X256467500Y-135890000D03*
%TO.N,Net-(LED23-DOUT)*%
X266017500Y-134495000D03*
X275517500Y-135890000D03*
%TO.N,Net-(LED24-DOUT)*%
X304070000Y-135945000D03*
X285070000Y-134495000D03*
%TO.N,Net-(LED25-DOUT)*%
X323117500Y-135840000D03*
X313617500Y-134445000D03*
%TO.N,Net-(LED26-DOUT)*%
X332717500Y-134495000D03*
X342217500Y-135890000D03*
%TO.N,Net-(LED27-DOUT)*%
X351717500Y-134495000D03*
X361217500Y-135890000D03*
%TO.N,Net-(LED28-DOUT)*%
X384840000Y-135915000D03*
X370240000Y-134465000D03*
%TO.N,Net-(LED29-DOUT)*%
X394517500Y-134495000D03*
X404017500Y-135890000D03*
%TO.N,Net-(LED30-DOUT)*%
X413667500Y-134495000D03*
X423167500Y-135890000D03*
%TO.N,Net-(LED32-DIN)*%
X94740000Y-164515000D03*
X122690000Y-163015000D03*
%TO.N,Net-(LED33-DIN)*%
X141690000Y-163015000D03*
X113740000Y-164515000D03*
%TO.N,Net-(LED34-DIN)*%
X132848750Y-164435000D03*
X160798750Y-162935000D03*
%TO.N,Net-(LED35-DIN)*%
X179740000Y-163015000D03*
X151790000Y-164515000D03*
%TO.N,Net-(LED36-DIN)*%
X198848750Y-162960000D03*
X170898750Y-164460000D03*
%TO.N,Net-(LED37-DIN)*%
X189840000Y-164540000D03*
X217790000Y-163040000D03*
%TO.N,Net-(LED38-DIN)*%
X208998750Y-164410000D03*
X236948750Y-162910000D03*
%TO.N,Net-(LED39-DIN)*%
X255890000Y-162990000D03*
X227940000Y-164490000D03*
%TO.N,Net-(LED40-DIN)*%
X274998750Y-162910000D03*
X247048750Y-164410000D03*
%TO.N,Net-(LED41-DIN)*%
X265990000Y-164490000D03*
X293940000Y-162990000D03*
%TO.N,Net-(LED42-DIN)*%
X313148750Y-162960000D03*
X285198750Y-164460000D03*
%TO.N,Net-(LED43-DIN)*%
X304140000Y-164540000D03*
X332090000Y-163040000D03*
%TO.N,Net-(LED44-DIN)*%
X360740000Y-163015000D03*
X323040000Y-164465000D03*
%TO.N,Net-(LED45-DIN)*%
X393971448Y-163030685D03*
X351740000Y-164510000D03*
%TO.N,Net-(LED46-DIN)*%
X413148750Y-162960000D03*
X385198750Y-164460000D03*
%TO.N,Net-(LED47-DIN)*%
X404140000Y-164540000D03*
X432090000Y-163040000D03*
%TO.N,Net-(LED48-DIN)*%
X456002500Y-162970000D03*
X423252500Y-164470000D03*
%TO.N,Net-(LED49-DIN)*%
X447098750Y-164460000D03*
X475048750Y-162960000D03*
%TO.N,Net-(LED50-DIN)*%
X466040000Y-164540000D03*
X493990000Y-163040000D03*
%TO.N,Net-(LED51-DIN)*%
X513140000Y-162815000D03*
X485190000Y-164315000D03*
%TO.N,Net-(LED53-DOUT)*%
X108440000Y-182065000D03*
X101890000Y-202615000D03*
%TO.N,Net-(LED53-DIN)*%
X98940000Y-183565000D03*
X132090000Y-182015000D03*
%TO.N,Net-(LED54-DIN)*%
X151090000Y-182090000D03*
X123140000Y-183590000D03*
%TO.N,Net-(LED55-DIN)*%
X170248750Y-182010000D03*
X142298750Y-183510000D03*
%TO.N,Net-(LED56-DIN)*%
X161240000Y-183590000D03*
X189190000Y-182090000D03*
%TO.N,Net-(LED57-DIN)*%
X180398750Y-183510000D03*
X208348750Y-182010000D03*
%TO.N,Net-(LED58-DIN)*%
X227290000Y-182090000D03*
X199340000Y-183590000D03*
%TO.N,Net-(LED59-DIN)*%
X218498750Y-183460000D03*
X246448750Y-181960000D03*
%TO.N,Net-(LED60-DIN)*%
X237440000Y-183540000D03*
X265390000Y-182040000D03*
%TO.N,Net-(LED61-DIN)*%
X284548750Y-182010000D03*
X256598750Y-183510000D03*
%TO.N,Net-(LED62-DIN)*%
X303490000Y-182090000D03*
X275540000Y-183590000D03*
%TO.N,Net-(LED63-DIN)*%
X294698750Y-183510000D03*
X322648750Y-182010000D03*
%TO.N,Net-(LED64-DIN)*%
X341590000Y-182090000D03*
X313640000Y-183590000D03*
%TO.N,Net-(LED65-DIN)*%
X332740000Y-183665000D03*
X366183750Y-190308750D03*
%TO.N,Net-(LED66-DIN)*%
X394002500Y-182095000D03*
X358740000Y-193065000D03*
X367140000Y-189065000D03*
%TO.N,Net-(LED67-DIN)*%
X385198750Y-183510000D03*
X413148750Y-182010000D03*
%TO.N,Net-(LED68-DIN)*%
X404140000Y-183590000D03*
X432090000Y-182090000D03*
%TO.N,Net-(LED69-DIN)*%
X423140000Y-183515000D03*
X455890000Y-182015000D03*
%TO.N,Net-(LED70-DIN)*%
X475048750Y-182010000D03*
X447098750Y-183510000D03*
%TO.N,Net-(LED71-DIN)*%
X493990000Y-182090000D03*
X466040000Y-183590000D03*
%TO.N,Net-(LED72-DIN)*%
X495890000Y-186015000D03*
X511140000Y-189515000D03*
X484890000Y-183765000D03*
%TO.N,Net-(LED74-DOUT)*%
X127970000Y-202590000D03*
X110790000Y-201195000D03*
%TO.N,Net-(LED75-DOUT)*%
X137420000Y-201050000D03*
X146920000Y-202445000D03*
%TO.N,Net-(LED76-DOUT)*%
X156520000Y-201100000D03*
X166020000Y-202495000D03*
%TO.N,Net-(LED77-DOUT)*%
X175520000Y-201100000D03*
X185020000Y-202495000D03*
%TO.N,Net-(LED78-DOUT)*%
X204120000Y-202545000D03*
X194620000Y-201150000D03*
%TO.N,Net-(LED79-DOUT)*%
X213520000Y-201100000D03*
X223020000Y-202495000D03*
%TO.N,Net-(LED80-DOUT)*%
X242120000Y-202545000D03*
X232620000Y-201150000D03*
%TO.N,Net-(LED81-DOUT)*%
X261120000Y-202545000D03*
X251620000Y-201150000D03*
%TO.N,Net-(LED82-DOUT)*%
X280220000Y-202595000D03*
X270720000Y-201200000D03*
%TO.N,Net-(LED83-DOUT)*%
X299332515Y-202584187D03*
X289832515Y-201189187D03*
%TO.N,Net-(LED84-DOUT)*%
X318270000Y-202545000D03*
X308770000Y-201150000D03*
%TO.N,Net-(LED85-DOUT)*%
X327870000Y-201200000D03*
X337370000Y-202595000D03*
%TO.N,Net-(LED86-DOUT)*%
X346540000Y-201065000D03*
X447120462Y-202608273D03*
%TO.N,Net-(LED87-DOUT)*%
X465980000Y-202545000D03*
X456480000Y-201150000D03*
%TO.N,Net-(LED88-DOUT)*%
X485080000Y-202495000D03*
X475580000Y-201100000D03*
%TO.N,Net-(LED107-DIN)*%
X499765000Y-201140000D03*
X504390000Y-231015000D03*
%TO.N,Net-(LED90-DIN)*%
X127290000Y-220215000D03*
X97040000Y-221665000D03*
%TO.N,Net-(LED108-DIN)*%
X97140000Y-240665000D03*
X106040000Y-220165000D03*
%TO.N,Net-(LED91-DIN)*%
X118498750Y-221610000D03*
X146448750Y-220110000D03*
%TO.N,Net-(LED92-DIN)*%
X165390000Y-220190000D03*
X137440000Y-221690000D03*
%TO.N,Net-(LED93-DIN)*%
X184548750Y-220110000D03*
X156598750Y-221610000D03*
%TO.N,Net-(LED94-DIN)*%
X175540000Y-221690000D03*
X203490000Y-220190000D03*
%TO.N,Net-(LED95-DIN)*%
X222598750Y-220110000D03*
X194648750Y-221610000D03*
%TO.N,Net-(LED96-DIN)*%
X213590000Y-221690000D03*
X241540000Y-220190000D03*
%TO.N,Net-(LED97-DIN)*%
X232798750Y-221610000D03*
X260748750Y-220110000D03*
%TO.N,Net-(LED98-DIN)*%
X279690000Y-220190000D03*
X251740000Y-221690000D03*
%TO.N,Net-(LED100-DOUT)*%
X298848750Y-220110000D03*
X270898750Y-221610000D03*
%TO.N,Net-(LED100-DIN)*%
X289840000Y-221690000D03*
X317790000Y-220190000D03*
%TO.N,Net-(LED101-DIN)*%
X351890000Y-218515000D03*
X309077500Y-221635000D03*
%TO.N,Net-(LED102-DIN)*%
X346390000Y-223215000D03*
X411390000Y-218465000D03*
%TO.N,Net-(LED103-DIN)*%
X455990000Y-220115000D03*
X405990000Y-223265000D03*
%TO.N,Net-(LED104-DIN)*%
X447098750Y-221610000D03*
X475048750Y-220110000D03*
%TO.N,Net-(LED105-DIN)*%
X466040000Y-221690000D03*
X493990000Y-220190000D03*
%TO.N,Net-(LED106-DIN)*%
X495840000Y-224195000D03*
X511090000Y-227695000D03*
X484840000Y-221945000D03*
%TO.N,Net-(LED108-DOUT)*%
X120690000Y-240715000D03*
X105940000Y-239215000D03*
%TO.N,Net-(LED109-DOUT)*%
X129740000Y-239215000D03*
X144490000Y-240715000D03*
%TO.N,Net-(LED110-DOUT)*%
X215340000Y-240715000D03*
X153590000Y-239165000D03*
%TO.N,Net-(LED111-DOUT)*%
X287190000Y-240715000D03*
X224940000Y-239215000D03*
%TO.N,Net-(LED112-DOUT)*%
X296440000Y-239215000D03*
X311190000Y-240715000D03*
%TO.N,Net-(LED113-DOUT)*%
X320240000Y-239215000D03*
X334990000Y-240715000D03*
%TO.N,Net-(LED114-DOUT)*%
X358890000Y-240715000D03*
X344140000Y-239215000D03*
%TO.N,Net-(LED115-DOUT)*%
X367890000Y-239215000D03*
X384790000Y-240715000D03*
%TO.N,Net-(LED116-DOUT)*%
X404080000Y-240645000D03*
X394580000Y-239250000D03*
%TO.N,Net-(LED117-DOUT)*%
X423130000Y-240645000D03*
X413630000Y-239250000D03*
%TO.N,Net-(LED118-DOUT)*%
X456240000Y-240715000D03*
X432190000Y-239215000D03*
%TO.N,Net-(LED119-DOUT)*%
X465540000Y-239215000D03*
X484240000Y-240715000D03*
%TO.N,Column 3*%
X204540176Y-151176000D03*
X145140000Y-173765000D03*
X157140000Y-245451875D03*
X144340000Y-126451875D03*
X159140000Y-211765000D03*
X154567500Y-192633125D03*
X144640000Y-145365000D03*
X147515000Y-151765000D03*
X144340000Y-140951875D03*
X150140000Y-230468125D03*
%TO.N,Column 4*%
X178567500Y-211765000D03*
X163340000Y-126215000D03*
X205794176Y-151176000D03*
X173567500Y-192633125D03*
X163340000Y-140715000D03*
X164567500Y-173765000D03*
X169140000Y-230468125D03*
X162890000Y-153765000D03*
X163840000Y-145465000D03*
%TO.N,Column 5*%
X183040000Y-145365000D03*
X183140000Y-173633125D03*
X188140000Y-230468125D03*
X182440000Y-126251875D03*
X207080176Y-151176000D03*
X182440000Y-140751875D03*
X192567500Y-192633125D03*
X197567500Y-211633125D03*
%TO.N,Column 6*%
X202340000Y-141151875D03*
X208334176Y-151176000D03*
X202340000Y-145665000D03*
X202567500Y-173633125D03*
X207140000Y-230468125D03*
X202340000Y-126651875D03*
X212067500Y-192633125D03*
X216567500Y-211633125D03*
%TO.N,Column 7*%
X235567500Y-211633125D03*
X229940000Y-145665000D03*
X228640000Y-245451875D03*
X209640000Y-151205000D03*
X231067500Y-192633125D03*
X221567500Y-173633125D03*
X229940000Y-126351875D03*
X229940000Y-140851875D03*
X226140000Y-230468125D03*
%TO.N,Column 8*%
X250067500Y-192633125D03*
X248540000Y-146765000D03*
X249440000Y-140551875D03*
X240567500Y-173633125D03*
X245140000Y-230468125D03*
X254567500Y-211633125D03*
X244129000Y-151176000D03*
X249440000Y-126051875D03*
X210874176Y-151176000D03*
%TO.N,Column 9*%
X268140000Y-126151875D03*
X346625176Y-159665000D03*
X268140000Y-140651875D03*
X268040000Y-145365000D03*
X275840000Y-158865000D03*
X259567500Y-173633125D03*
X273567500Y-211633125D03*
X269067500Y-192633125D03*
X264140000Y-230468125D03*
%TO.N,Column 10*%
X278567500Y-173633125D03*
X287140000Y-126551875D03*
X288067500Y-192633125D03*
X287140000Y-141051875D03*
X280640000Y-151515000D03*
X292567500Y-211633125D03*
X344390000Y-152350000D03*
X283140000Y-230468125D03*
%TO.N,Column 11*%
X297567500Y-173633125D03*
X321011000Y-150736000D03*
X302390000Y-230515000D03*
X316140000Y-145765000D03*
X315740000Y-126351875D03*
X307067500Y-192633125D03*
X300140000Y-245451875D03*
X312067500Y-211633125D03*
X346510176Y-150736000D03*
X315740000Y-140851875D03*
%TO.N,Column 12*%
X323640000Y-245451875D03*
X335140000Y-145365000D03*
X334840000Y-126051875D03*
X316567500Y-173633125D03*
X326070000Y-192598125D03*
X321390000Y-230515000D03*
X334840000Y-140551875D03*
X347780176Y-150736000D03*
X331067500Y-211633125D03*
%TO.N,Column 13*%
X335567500Y-173633125D03*
X347640000Y-245732812D03*
X349165176Y-150765000D03*
X350067500Y-211633125D03*
X356890000Y-230515000D03*
X345070000Y-192598125D03*
X353940000Y-140451875D03*
X353940000Y-125951875D03*
X353440000Y-145665000D03*
%TO.N,Column 14*%
X372940000Y-140651875D03*
X371390000Y-202265000D03*
X350320176Y-150736000D03*
X371640000Y-245451875D03*
X372440000Y-145565000D03*
X364140000Y-173515000D03*
X372940000Y-126151875D03*
%TO.N,Column 15*%
X396240000Y-145965000D03*
X397640000Y-245451875D03*
X397570000Y-173598125D03*
X397570000Y-192598125D03*
X396640000Y-140551875D03*
X351940000Y-150665000D03*
X396640000Y-126051875D03*
%TO.N,Column 16*%
X353240000Y-150665000D03*
X416640000Y-245451875D03*
X416640000Y-230515000D03*
X415740000Y-126251875D03*
X416570000Y-173598125D03*
X416570000Y-192598125D03*
X415740000Y-140751875D03*
X416040000Y-146165000D03*
X411540000Y-150665000D03*
%TO.N,Column 17*%
X434840000Y-126051875D03*
X467140000Y-148265000D03*
X472826414Y-151359845D03*
X435640000Y-146965000D03*
X435640000Y-192515000D03*
X434840000Y-140551875D03*
X435640000Y-173515000D03*
X435640000Y-245451875D03*
%TO.N,Column 1*%
X134540000Y-158765000D03*
X109640000Y-245265000D03*
X111640000Y-192468125D03*
X114140000Y-211265000D03*
X204540000Y-159405000D03*
X107140000Y-144765000D03*
X107140000Y-173265000D03*
X109640000Y-230765000D03*
%TO.N,Column 2*%
X133140000Y-245451875D03*
X126140000Y-173265000D03*
X135640000Y-192765000D03*
X140640000Y-211765000D03*
X126140000Y-165465000D03*
X201640000Y-152795176D03*
X131140000Y-230765000D03*
%TO.N,Column 18*%
X459340000Y-161910000D03*
X459320000Y-173598125D03*
X459390000Y-211515000D03*
X473640000Y-159765000D03*
X459390000Y-230765000D03*
X469140000Y-245451875D03*
X459390000Y-192515000D03*
X459340000Y-160510000D03*
%TO.N,Column 19*%
X478390000Y-192515000D03*
X478320000Y-173598125D03*
X478390000Y-211515000D03*
X478390000Y-230765000D03*
X472820827Y-156461736D03*
%TO.N,Column 20*%
X497460000Y-192485000D03*
X497640000Y-245451875D03*
X497460000Y-230735000D03*
X471539990Y-156265000D03*
X497390000Y-173568125D03*
X497460000Y-211485000D03*
%TO.N,Column 21*%
X516640000Y-235951875D03*
X516390000Y-202265000D03*
X470275000Y-156515000D03*
X516390000Y-173515000D03*
%TO.N,LED Data 1*%
X484415166Y-114177270D03*
X511915166Y-153177270D03*
%TO.N,D+*%
X475340000Y-131865000D03*
X300840000Y-114365000D03*
%TO.N,D-*%
X475365000Y-131065000D03*
X302840000Y-114365000D03*
%TO.N,LED Data 2*%
X512240000Y-181065000D03*
X483415166Y-112677270D03*
%TO.N,Net-(U11-VIN)*%
X294915166Y-112077270D03*
X299540000Y-119715000D03*
X300140000Y-119265000D03*
X294890000Y-113015000D03*
X300115166Y-125377270D03*
X291690166Y-119152270D03*
X299415166Y-125877270D03*
X298562348Y-124963985D03*
X291665166Y-119877270D03*
X299462348Y-124963985D03*
X294140000Y-113015000D03*
X294115166Y-112077270D03*
X298615166Y-125877270D03*
X291665166Y-118427270D03*
X300062348Y-124513985D03*
X291665166Y-117727270D03*
X293115166Y-112077270D03*
X293140000Y-113015000D03*
X298640000Y-119715000D03*
%TO.N,ACCEL_INT1*%
X486940000Y-135265000D03*
X484415166Y-143277270D03*
%TO.N,SPI_CS_ACCEL*%
X482315166Y-140677270D03*
X485631706Y-135298465D03*
%TO.N,Net-(U3-QH')*%
X347902863Y-159665000D03*
X213240000Y-158065000D03*
%TO.N,Net-(U4-QH')*%
X471540000Y-154665000D03*
X355540000Y-157265000D03*
%TO.N,SPI_CLK*%
X467740000Y-151365000D03*
X351700212Y-159694098D03*
X476415166Y-142177270D03*
X481867941Y-135231018D03*
X467640000Y-154375000D03*
X209640000Y-159479000D03*
%TO.N,SPI_MISO*%
X484365000Y-135252500D03*
X480915166Y-140677270D03*
%TO.N,SPI_CS_SR*%
X350440000Y-155765000D03*
X469010692Y-151359845D03*
X208340000Y-159479000D03*
X483110184Y-135214486D03*
%TO.N,SPI_MOSI*%
X205840000Y-156158000D03*
X480624978Y-135221457D03*
X477421448Y-139683552D03*
%TO.N,GPIO2*%
X488415166Y-113677270D03*
%TO.N,GPIO1*%
X489915166Y-114177270D03*
%TD*%
D24*
%TO.N,+3.3V*%
X494007436Y-144085000D02*
X515140000Y-144085000D01*
X486362516Y-145524620D02*
X486215166Y-145377270D01*
X515140000Y-144085000D02*
X517415166Y-141809834D01*
X492567816Y-145524620D02*
X494007436Y-144085000D01*
X517415166Y-127310166D02*
X515140000Y-125035000D01*
X517415166Y-141809834D02*
X517415166Y-127310166D01*
X486215166Y-145377270D02*
X468320466Y-145377270D01*
X486362516Y-145524620D02*
X492567816Y-145524620D01*
D25*
%TO.N,RE_S*%
X113540000Y-111665000D02*
X114740000Y-110465000D01*
X474836151Y-110265000D02*
X479305487Y-114734336D01*
X113540000Y-117265000D02*
X113540000Y-111665000D01*
X290427436Y-113065000D02*
X292515166Y-110977270D01*
X288140000Y-113065000D02*
X290427436Y-113065000D01*
X114740000Y-110465000D02*
X283740000Y-110465000D01*
X298002896Y-113065000D02*
X299340000Y-113065000D01*
X302140000Y-110265000D02*
X474836151Y-110265000D01*
X286140000Y-111065000D02*
X288140000Y-113065000D01*
X292515166Y-110977270D02*
X295915166Y-110977270D01*
X283740000Y-110465000D02*
X284340000Y-111065000D01*
X299340000Y-113065000D02*
X302140000Y-110265000D01*
X284340000Y-111065000D02*
X286140000Y-111065000D01*
X295915166Y-110977270D02*
X298002896Y-113065000D01*
%TO.N,RE_A*%
X108940000Y-113865000D02*
X113927000Y-108878000D01*
X108940000Y-121265000D02*
X108940000Y-113865000D01*
X113927000Y-108878000D02*
X476021127Y-108878000D01*
X476021127Y-108878000D02*
X481858341Y-114715214D01*
%TO.N,RE_B*%
X283940000Y-109665000D02*
X284040000Y-109565000D01*
X475366368Y-109565000D02*
X480550047Y-114748679D01*
X111772500Y-118785000D02*
X111772500Y-112232500D01*
X284040000Y-109565000D02*
X475366368Y-109565000D01*
X111772500Y-112232500D02*
X114340000Y-109665000D01*
X114340000Y-109665000D02*
X283940000Y-109665000D01*
%TO.N,Row 1*%
X471295000Y-123065000D02*
X470895000Y-123465000D01*
X445740000Y-128265000D02*
X441740000Y-128265000D01*
X450540000Y-123465000D02*
X445740000Y-128265000D01*
X470895000Y-123465000D02*
X450540000Y-123465000D01*
%TO.N,Row 2*%
X471272284Y-124325512D02*
X451079488Y-124325512D01*
X440140000Y-135265000D02*
X440140000Y-144665000D01*
X451079488Y-124325512D02*
X440140000Y-135265000D01*
%TO.N,Row 3*%
X441340000Y-146065000D02*
X441340000Y-135465000D01*
X439940000Y-147465000D02*
X441340000Y-146065000D01*
X451140000Y-125665000D02*
X471186232Y-125665000D01*
X471186232Y-125665000D02*
X471253948Y-125597284D01*
X441340000Y-135465000D02*
X451140000Y-125665000D01*
X439940000Y-167465000D02*
X439940000Y-147465000D01*
%TO.N,Row 4*%
X451340000Y-126865000D02*
X471248318Y-126865000D01*
X471248318Y-126865000D02*
X471253948Y-126859370D01*
X442340000Y-146265000D02*
X442340000Y-135865000D01*
X440740000Y-168665000D02*
X440740000Y-147865000D01*
X439727500Y-169677500D02*
X440740000Y-168665000D01*
X439727500Y-186277500D02*
X439727500Y-169677500D01*
X440740000Y-147865000D02*
X442340000Y-146265000D01*
X442340000Y-135865000D02*
X451340000Y-126865000D01*
%TO.N,Row 5*%
X454340000Y-146465000D02*
X463340000Y-137465000D01*
X475340000Y-137465000D02*
X476763830Y-136041170D01*
X441940000Y-185865000D02*
X441940000Y-148065000D01*
X441940000Y-148065000D02*
X443540000Y-146465000D01*
X439140000Y-188665000D02*
X441940000Y-185865000D01*
X439140000Y-204265000D02*
X439140000Y-188665000D01*
X463340000Y-137465000D02*
X475340000Y-137465000D01*
X476763830Y-136041170D02*
X476763830Y-135274044D01*
X443540000Y-146465000D02*
X454340000Y-146465000D01*
%TO.N,Row 6*%
X475740000Y-138265000D02*
X478072124Y-135932876D01*
X463740000Y-138265000D02*
X475740000Y-138265000D01*
X439940000Y-221065000D02*
X439940000Y-188865000D01*
X440540000Y-221665000D02*
X439940000Y-221065000D01*
X454740000Y-147265000D02*
X463740000Y-138265000D01*
X439940000Y-188865000D02*
X442740000Y-186065000D01*
X442740000Y-148465000D02*
X443940000Y-147265000D01*
X443940000Y-147265000D02*
X454740000Y-147265000D01*
X442740000Y-186065000D02*
X442740000Y-148465000D01*
X440540000Y-224665000D02*
X440540000Y-221665000D01*
X478072124Y-135932876D02*
X478072124Y-135240579D01*
%TO.N,Row 7*%
X476140000Y-139065000D02*
X464140000Y-139065000D01*
X479316684Y-135254922D02*
X479316684Y-135888316D01*
X455140000Y-148065000D02*
X444340000Y-148065000D01*
X479316684Y-135888316D02*
X476140000Y-139065000D01*
X444340000Y-148065000D02*
X443540000Y-148865000D01*
X442540000Y-242665000D02*
X442540000Y-243065000D01*
X443540000Y-148865000D02*
X443540000Y-241665000D01*
X464140000Y-139065000D02*
X455140000Y-148065000D01*
X443540000Y-241665000D02*
X442540000Y-242665000D01*
%TO.N,Net-(LED8-DIN)*%
X304540000Y-118065000D02*
X300540000Y-122065000D01*
X312740000Y-113665000D02*
X305340000Y-113665000D01*
X304540000Y-114465000D02*
X304540000Y-118065000D01*
X313140000Y-115465000D02*
X313140000Y-114065000D01*
X305340000Y-113665000D02*
X304540000Y-114465000D01*
X275940000Y-114065000D02*
X275940000Y-116865000D01*
X300540000Y-122065000D02*
X289052896Y-122065000D01*
X287065166Y-115377270D02*
X285482090Y-113794194D01*
X276210806Y-113794194D02*
X275940000Y-114065000D01*
X313140000Y-114065000D02*
X312740000Y-113665000D01*
X287065166Y-120077270D02*
X287065166Y-115377270D01*
X289052896Y-122065000D02*
X287065166Y-120077270D01*
X285482090Y-113794194D02*
X276210806Y-113794194D01*
%TO.N,Net-(LED15-DIN)*%
X423140000Y-118665000D02*
X423140000Y-117265000D01*
X430340000Y-132465000D02*
X430340000Y-128065000D01*
X424640000Y-120165000D02*
X423140000Y-118665000D01*
X430390000Y-132515000D02*
X430340000Y-132465000D01*
X424640000Y-122365000D02*
X424640000Y-120165000D01*
X430340000Y-128065000D02*
X424640000Y-122365000D01*
%TO.N,Net-(LED16-DIN)*%
X91240000Y-138615000D02*
X93940000Y-135915000D01*
X103552500Y-163095000D02*
X103552500Y-159727500D01*
X103552500Y-159727500D02*
X102890000Y-159065000D01*
X91240000Y-147415000D02*
X91240000Y-143215000D01*
X93940000Y-135915000D02*
X94390000Y-135915000D01*
X91240000Y-143215000D02*
X91240000Y-138615000D01*
X102890000Y-159065000D02*
X91240000Y-147415000D01*
%TO.N,Net-(LED53-DOUT)*%
X101890000Y-202615000D02*
X101890000Y-199865000D01*
X108490000Y-182065000D02*
X108440000Y-182065000D01*
X110640000Y-184215000D02*
X108490000Y-182065000D01*
X110640000Y-191115000D02*
X110640000Y-184215000D01*
X101890000Y-199865000D02*
X110640000Y-191115000D01*
%TO.N,Net-(LED66-DIN)*%
X367140000Y-189065000D02*
X359140000Y-189065000D01*
X358140000Y-190065000D02*
X358140000Y-192465000D01*
X359140000Y-189065000D02*
X358140000Y-190065000D01*
X358140000Y-192465000D02*
X358740000Y-193065000D01*
%TO.N,Net-(LED72-DIN)*%
X485640000Y-185265000D02*
X495140000Y-185265000D01*
X484890000Y-183765000D02*
X484890000Y-184515000D01*
X484890000Y-184515000D02*
X485640000Y-185265000D01*
X495140000Y-185265000D02*
X495890000Y-186015000D01*
%TO.N,Net-(LED107-DIN)*%
X499765000Y-201140000D02*
X505390000Y-206765000D01*
X505390000Y-206765000D02*
X505390000Y-225765000D01*
X505390000Y-225765000D02*
X504390000Y-226765000D01*
X504390000Y-226765000D02*
X504390000Y-231015000D01*
%TO.N,Net-(LED108-DIN)*%
X97140000Y-240665000D02*
X97140000Y-237865000D01*
X108240000Y-222365000D02*
X106040000Y-220165000D01*
X98240000Y-236765000D02*
X101640000Y-236765000D01*
X108240000Y-230165000D02*
X108240000Y-222365000D01*
X101640000Y-236765000D02*
X108240000Y-230165000D01*
X97140000Y-237865000D02*
X98240000Y-236765000D01*
%TO.N,Net-(LED106-DIN)*%
X485590000Y-223445000D02*
X495090000Y-223445000D01*
X484840000Y-221945000D02*
X484840000Y-222695000D01*
X484840000Y-222695000D02*
X485590000Y-223445000D01*
X495090000Y-223445000D02*
X495840000Y-224195000D01*
%TO.N,Column 3*%
X159140000Y-197205625D02*
X154567500Y-192633125D01*
X150140000Y-220765000D02*
X159140000Y-211765000D01*
X147515000Y-151765000D02*
X147515000Y-148140000D01*
X154640000Y-183265000D02*
X145140000Y-173765000D01*
X150140000Y-231265000D02*
X150140000Y-230468125D01*
X154640000Y-192560625D02*
X154640000Y-183265000D01*
X154567500Y-192633125D02*
X154640000Y-192560625D01*
X147515000Y-151890000D02*
X145140000Y-154265000D01*
X147515000Y-148140000D02*
X144740000Y-145365000D01*
X147515000Y-151765000D02*
X147515000Y-151890000D01*
X159140000Y-211765000D02*
X159140000Y-197205625D01*
X157140000Y-245451875D02*
X157140000Y-238265000D01*
X144740000Y-145365000D02*
X144640000Y-145365000D01*
X157140000Y-238265000D02*
X150140000Y-231265000D01*
X144340000Y-140951875D02*
X144340000Y-126451875D01*
X150140000Y-230468125D02*
X150140000Y-220765000D01*
X145140000Y-154265000D02*
X145140000Y-173765000D01*
%TO.N,Column 4*%
X173567500Y-183329604D02*
X164567500Y-174329604D01*
X173567500Y-192633125D02*
X173567500Y-183329604D01*
X169140000Y-221192500D02*
X178567500Y-211765000D01*
X163340000Y-140715000D02*
X163340000Y-126215000D01*
X178567500Y-197633125D02*
X173567500Y-192633125D01*
X178567500Y-211765000D02*
X178567500Y-197633125D01*
X162890000Y-159765000D02*
X162890000Y-146415000D01*
X164567500Y-161442500D02*
X162890000Y-159765000D01*
X164567500Y-174329604D02*
X164567500Y-173765000D01*
X169140000Y-230468125D02*
X169140000Y-221192500D01*
X162890000Y-146415000D02*
X163840000Y-145465000D01*
X164567500Y-173765000D02*
X164567500Y-161442500D01*
%TO.N,Column 5*%
X185740000Y-148065000D02*
X183040000Y-145365000D01*
X188140000Y-230468125D02*
X188140000Y-221060625D01*
X192640000Y-192560625D02*
X192640000Y-183133125D01*
X206140000Y-148065000D02*
X185740000Y-148065000D01*
X197567500Y-211633125D02*
X197567500Y-197633125D01*
X183140000Y-173633125D02*
X183140000Y-152765000D01*
X185740000Y-150165000D02*
X185740000Y-148065000D01*
X207080176Y-151176000D02*
X207080176Y-149005176D01*
X197567500Y-197633125D02*
X192567500Y-192633125D01*
X207080176Y-149005176D02*
X206140000Y-148065000D01*
X188140000Y-221060625D02*
X197567500Y-211633125D01*
X182440000Y-140751875D02*
X182440000Y-126251875D01*
X192640000Y-183133125D02*
X183140000Y-173633125D01*
X183140000Y-152765000D02*
X185740000Y-150165000D01*
X192567500Y-192633125D02*
X192640000Y-192560625D01*
%TO.N,Column 6*%
X202567500Y-173633125D02*
X202567500Y-173692500D01*
X216567500Y-211633125D02*
X216567500Y-197133125D01*
X208229000Y-151176000D02*
X208334176Y-151176000D01*
X202567500Y-162692500D02*
X200640000Y-160765000D01*
X207140000Y-221060625D02*
X216567500Y-211633125D01*
X200640000Y-156765000D02*
X202765000Y-154640000D01*
X208334176Y-148359176D02*
X206640000Y-146665000D01*
X207140000Y-230468125D02*
X207140000Y-221060625D01*
X200640000Y-160765000D02*
X200640000Y-156765000D01*
X206640000Y-146665000D02*
X203340000Y-146665000D01*
X202765000Y-154640000D02*
X204765000Y-154640000D01*
X202340000Y-141151875D02*
X202340000Y-126651875D01*
X208334176Y-151176000D02*
X208334176Y-148359176D01*
X202567500Y-173633125D02*
X202567500Y-162692500D01*
X212067500Y-183192500D02*
X212067500Y-192633125D01*
X204765000Y-154640000D02*
X208229000Y-151176000D01*
X216567500Y-197133125D02*
X212067500Y-192633125D01*
X202567500Y-173692500D02*
X212067500Y-183192500D01*
X203340000Y-146665000D02*
X202340000Y-145665000D01*
%TO.N,Column 7*%
X226140000Y-221060625D02*
X235567500Y-211633125D01*
X228640000Y-232968125D02*
X226140000Y-230468125D01*
X229940000Y-140851875D02*
X229940000Y-126351875D01*
X226140000Y-230468125D02*
X226140000Y-221060625D01*
X231067500Y-192633125D02*
X231067500Y-183133125D01*
X235567500Y-197133125D02*
X231067500Y-192633125D01*
X221567500Y-173633125D02*
X221567500Y-154037500D01*
X227540000Y-148065000D02*
X229940000Y-145665000D01*
X209640000Y-151205000D02*
X209640000Y-151265000D01*
X211340000Y-148065000D02*
X227540000Y-148065000D01*
X209640000Y-151205000D02*
X209640000Y-149765000D01*
X231067500Y-183133125D02*
X221567500Y-173633125D01*
X221567500Y-154037500D02*
X227540000Y-148065000D01*
X209640000Y-149765000D02*
X211340000Y-148065000D01*
X235567500Y-211633125D02*
X235567500Y-197133125D01*
X228640000Y-245451875D02*
X228640000Y-232968125D01*
%TO.N,Column 8*%
X244129000Y-151176000D02*
X248540000Y-146765000D01*
X250067500Y-192633125D02*
X250067500Y-183829604D01*
X254567500Y-197133125D02*
X250067500Y-192633125D01*
X245140000Y-221060625D02*
X254567500Y-211633125D01*
X245140000Y-230468125D02*
X245140000Y-221060625D01*
X250067500Y-183829604D02*
X240567500Y-174329604D01*
X240567500Y-154737500D02*
X244129000Y-151176000D01*
X240567500Y-174329604D02*
X240567500Y-173633125D01*
X254567500Y-211633125D02*
X254567500Y-197133125D01*
X249440000Y-140551875D02*
X249440000Y-126051875D01*
X240567500Y-173633125D02*
X240567500Y-154737500D01*
%TO.N,Column 9*%
X273567500Y-211633125D02*
X273567500Y-197133125D01*
X269067500Y-192633125D02*
X269067500Y-181442500D01*
X259567500Y-173633125D02*
X259567500Y-167087500D01*
X259567500Y-167087500D02*
X267790000Y-158865000D01*
X268140000Y-140651875D02*
X268140000Y-126151875D01*
X268040000Y-151065000D02*
X268040000Y-145365000D01*
X273567500Y-197133125D02*
X269067500Y-192633125D01*
X261258125Y-173633125D02*
X259567500Y-173633125D01*
X264140000Y-221060625D02*
X273567500Y-211633125D01*
X264140000Y-230468125D02*
X264140000Y-221060625D01*
X269067500Y-181442500D02*
X261258125Y-173633125D01*
X275840000Y-158865000D02*
X268040000Y-151065000D01*
X267790000Y-158865000D02*
X275840000Y-158865000D01*
%TO.N,Column 10*%
X288067500Y-192633125D02*
X288067500Y-183133125D01*
X278567500Y-153587500D02*
X280640000Y-151515000D01*
X283140000Y-230468125D02*
X283140000Y-221060625D01*
X288067500Y-183133125D02*
X278567500Y-173633125D01*
X287140000Y-141051875D02*
X287140000Y-126551875D01*
X287140000Y-145015000D02*
X287140000Y-141051875D01*
X291415166Y-206329031D02*
X291415166Y-195980791D01*
X292567500Y-207481365D02*
X291415166Y-206329031D01*
X278567500Y-173633125D02*
X278567500Y-153587500D01*
X283140000Y-221060625D02*
X292567500Y-211633125D01*
X292567500Y-211633125D02*
X292567500Y-207481365D01*
X280640000Y-151515000D02*
X287140000Y-145015000D01*
X291415166Y-195980791D02*
X288067500Y-192633125D01*
%TO.N,Column 11*%
X312067500Y-211633125D02*
X312067500Y-197633125D01*
X321011000Y-150736000D02*
X316140000Y-145865000D01*
X320982000Y-150765000D02*
X321011000Y-150736000D01*
X302390000Y-230515000D02*
X300140000Y-232765000D01*
X302390000Y-230515000D02*
X302390000Y-221310625D01*
X307067500Y-183133125D02*
X297567500Y-173633125D01*
X297567500Y-153837500D02*
X300640000Y-150765000D01*
X302390000Y-221310625D02*
X312067500Y-211633125D01*
X316140000Y-145865000D02*
X316140000Y-145765000D01*
X315740000Y-140851875D02*
X315740000Y-126351875D01*
X312067500Y-197633125D02*
X307067500Y-192633125D01*
X300640000Y-150765000D02*
X320982000Y-150765000D01*
X300140000Y-232765000D02*
X300140000Y-245451875D01*
X307067500Y-192633125D02*
X307067500Y-183133125D01*
X297567500Y-173633125D02*
X297567500Y-153837500D01*
%TO.N,Column 12*%
X316567500Y-153837500D02*
X318140000Y-152265000D01*
X328240000Y-152265000D02*
X335140000Y-145365000D01*
X331067500Y-197595625D02*
X326070000Y-192598125D01*
X347780176Y-150305176D02*
X345940000Y-148465000D01*
X318140000Y-152265000D02*
X328240000Y-152265000D01*
X345940000Y-148465000D02*
X338240000Y-148465000D01*
X323640000Y-245451875D02*
X323640000Y-232765000D01*
X323640000Y-232765000D02*
X321390000Y-230515000D01*
X338240000Y-148465000D02*
X335140000Y-145365000D01*
X347780176Y-150736000D02*
X347780176Y-150305176D01*
X326070000Y-183135625D02*
X316567500Y-173633125D01*
X334840000Y-140551875D02*
X334840000Y-126051875D01*
X321390000Y-230515000D02*
X321390000Y-221310625D01*
X326070000Y-192598125D02*
X326070000Y-183135625D01*
X321390000Y-221310625D02*
X331067500Y-211633125D01*
X331067500Y-211633125D02*
X331067500Y-197595625D01*
X316567500Y-173633125D02*
X316567500Y-153837500D01*
%TO.N,Column 13*%
X345070000Y-183135625D02*
X335567500Y-173633125D01*
X356890000Y-230515000D02*
X356890000Y-216265000D01*
X336890000Y-153265000D02*
X347890000Y-153265000D01*
X349165176Y-149939824D02*
X353440000Y-145665000D01*
X335567500Y-173633125D02*
X335567500Y-154587500D01*
X349165176Y-150765000D02*
X349165176Y-149939824D01*
X347640000Y-239765000D02*
X356890000Y-230515000D01*
X353940000Y-140451875D02*
X353940000Y-125951875D01*
X347640000Y-245732812D02*
X347640000Y-239765000D01*
X335567500Y-154587500D02*
X336890000Y-153265000D01*
X356890000Y-216265000D02*
X352258125Y-211633125D01*
X352258125Y-211633125D02*
X350067500Y-211633125D01*
X347890000Y-153265000D02*
X349165176Y-151989824D01*
X345070000Y-192598125D02*
X345070000Y-183135625D01*
X350067500Y-211633125D02*
X350067500Y-197595625D01*
X349165176Y-151989824D02*
X349165176Y-150765000D01*
X350067500Y-197595625D02*
X345070000Y-192598125D01*
%TO.N,Column 14*%
X353099176Y-153515000D02*
X350320176Y-150736000D01*
X350320176Y-150736000D02*
X353291176Y-147765000D01*
X372940000Y-140651875D02*
X372940000Y-126151875D01*
X353291176Y-147765000D02*
X370240000Y-147765000D01*
X371640000Y-216765000D02*
X367140000Y-212265000D01*
X370240000Y-147765000D02*
X372440000Y-145565000D01*
X367140000Y-212265000D02*
X367140000Y-206515000D01*
X364140000Y-157265000D02*
X360390000Y-153515000D01*
X364140000Y-173515000D02*
X364140000Y-157265000D01*
X371390000Y-202265000D02*
X371390000Y-190515000D01*
X371390000Y-190515000D02*
X364140000Y-183265000D01*
X360390000Y-153515000D02*
X353099176Y-153515000D01*
X364140000Y-183265000D02*
X364140000Y-173515000D01*
X371640000Y-245451875D02*
X371640000Y-216765000D01*
X367140000Y-206515000D02*
X371390000Y-202265000D01*
%TO.N,Column 15*%
X394390000Y-148765000D02*
X396240000Y-146915000D01*
X397640000Y-245451875D02*
X396890000Y-244701875D01*
X393440000Y-148765000D02*
X394390000Y-148765000D01*
X397570000Y-173598125D02*
X397328352Y-173356477D01*
X397328352Y-173356477D02*
X397328352Y-151678352D01*
X396640000Y-140551875D02*
X396640000Y-126051875D01*
X396890000Y-244701875D02*
X396890000Y-193278125D01*
X351940000Y-150665000D02*
X353840000Y-148765000D01*
X397328352Y-151678352D02*
X394415000Y-148765000D01*
X353840000Y-148765000D02*
X393440000Y-148765000D01*
X396890000Y-191918125D02*
X396890000Y-174278125D01*
X397570000Y-192598125D02*
X396890000Y-191918125D01*
X394415000Y-148765000D02*
X393440000Y-148765000D01*
X396240000Y-146915000D02*
X396240000Y-145965000D01*
X396890000Y-174278125D02*
X397570000Y-173598125D01*
X396890000Y-193278125D02*
X397570000Y-192598125D01*
%TO.N,Column 16*%
X416640000Y-230515000D02*
X416640000Y-200265000D01*
X411540000Y-150665000D02*
X416040000Y-146165000D01*
X416422176Y-152297176D02*
X414790000Y-150665000D01*
X416378352Y-192406477D02*
X416378352Y-180753352D01*
X415890000Y-180265000D02*
X415890000Y-174278125D01*
X416378352Y-180753352D02*
X415890000Y-180265000D01*
X416570000Y-192598125D02*
X416378352Y-192406477D01*
X416640000Y-245451875D02*
X416640000Y-230515000D01*
X415740000Y-140751875D02*
X415740000Y-126251875D01*
X415890000Y-199515000D02*
X415890000Y-193278125D01*
X416640000Y-200265000D02*
X415890000Y-199515000D01*
X415890000Y-193278125D02*
X416570000Y-192598125D01*
X415890000Y-174278125D02*
X416570000Y-173598125D01*
X414790000Y-150665000D02*
X411540000Y-150665000D01*
X416570000Y-173598125D02*
X416422176Y-173450301D01*
X416422176Y-173450301D02*
X416422176Y-152297176D01*
%TO.N,Column 17*%
X434840000Y-140551875D02*
X434840000Y-126051875D01*
X469840000Y-148265000D02*
X467140000Y-148265000D01*
X435640000Y-192515000D02*
X435640000Y-173515000D01*
X435640000Y-141351875D02*
X434840000Y-140551875D01*
X435640000Y-173515000D02*
X435640000Y-146965000D01*
X472826414Y-151359845D02*
X472826414Y-151251414D01*
X435640000Y-146965000D02*
X435640000Y-141351875D01*
X472826414Y-151251414D02*
X469840000Y-148265000D01*
X435640000Y-245451875D02*
X435640000Y-192515000D01*
%TO.N,Column 1*%
X111640000Y-177765000D02*
X107140000Y-173265000D01*
X134040000Y-158265000D02*
X113040000Y-158265000D01*
X114140000Y-226265000D02*
X114140000Y-211265000D01*
X114640000Y-210765000D02*
X114640000Y-195468125D01*
X109640000Y-230765000D02*
X114140000Y-226265000D01*
X107140000Y-164165000D02*
X107140000Y-173265000D01*
X109640000Y-245265000D02*
X109640000Y-230765000D01*
X134540000Y-158765000D02*
X134040000Y-158265000D01*
X113040000Y-158265000D02*
X107140000Y-164165000D01*
X107140000Y-152365000D02*
X113040000Y-158265000D01*
X107140000Y-144765000D02*
X107140000Y-152365000D01*
X114640000Y-195468125D02*
X111640000Y-192468125D01*
X114140000Y-211265000D02*
X114640000Y-210765000D01*
X111640000Y-192468125D02*
X111640000Y-177765000D01*
%TO.N,Column 2*%
X133140000Y-232765000D02*
X131140000Y-230765000D01*
X135640000Y-192765000D02*
X135640000Y-182765000D01*
X131140000Y-221265000D02*
X140640000Y-211765000D01*
X140640000Y-197765000D02*
X135640000Y-192765000D01*
X140640000Y-211765000D02*
X140640000Y-197765000D01*
X126140000Y-165465000D02*
X126140000Y-173265000D01*
X133140000Y-245451875D02*
X133140000Y-232765000D01*
X135640000Y-182765000D02*
X126140000Y-173265000D01*
X131140000Y-230765000D02*
X131140000Y-221265000D01*
%TO.N,Column 18*%
X459390000Y-182515000D02*
X458390000Y-181515000D01*
X459133528Y-173784597D02*
X459320000Y-173598125D01*
X458640000Y-193515000D02*
X458640000Y-202765000D01*
X459390000Y-225515000D02*
X459390000Y-230765000D01*
X458390000Y-181515000D02*
X458390000Y-174515000D01*
X459390000Y-230765000D02*
X469140000Y-240515000D01*
X459390000Y-203515000D02*
X459390000Y-211515000D01*
X459340000Y-161910000D02*
X459340000Y-160510000D01*
X459390000Y-211515000D02*
X458640000Y-212265000D01*
X459390000Y-192765000D02*
X458640000Y-193515000D01*
X458640000Y-202765000D02*
X459390000Y-203515000D01*
X458640000Y-212265000D02*
X458640000Y-224765000D01*
X458640000Y-224765000D02*
X459390000Y-225515000D01*
X459390000Y-192515000D02*
X459390000Y-192765000D01*
X469140000Y-240515000D02*
X469140000Y-245451875D01*
X458390000Y-174515000D02*
X459120403Y-173784597D01*
X459390000Y-192515000D02*
X459390000Y-182515000D01*
X459120403Y-173784597D02*
X459133528Y-173784597D01*
%TO.N,Column 19*%
X478320000Y-161960909D02*
X478320000Y-173598125D01*
X477640000Y-212265000D02*
X477640000Y-230015000D01*
X472820827Y-156461736D02*
X478320000Y-161960909D01*
X478390000Y-192515000D02*
X477890000Y-192015000D01*
X477890000Y-174028125D02*
X478320000Y-173598125D01*
X478390000Y-211515000D02*
X477640000Y-212265000D01*
X477890000Y-193015000D02*
X477890000Y-211015000D01*
X477890000Y-192015000D02*
X477890000Y-174028125D01*
X478390000Y-192515000D02*
X477890000Y-193015000D01*
X477640000Y-230015000D02*
X478390000Y-230765000D01*
X477890000Y-211015000D02*
X478390000Y-211515000D01*
%TO.N,Column 20*%
X473636736Y-155761736D02*
X478140000Y-160265000D01*
X478140000Y-160265000D02*
X494140000Y-160265000D01*
X497640000Y-245451875D02*
X497460000Y-245271875D01*
X497390000Y-163515000D02*
X497390000Y-173568125D01*
X496890000Y-193055000D02*
X497460000Y-192485000D01*
X496890000Y-210915000D02*
X496890000Y-193055000D01*
X496890000Y-191915000D02*
X496890000Y-174068125D01*
X494140000Y-160265000D02*
X497390000Y-163515000D01*
X497460000Y-211485000D02*
X496890000Y-210915000D01*
X497460000Y-230735000D02*
X497460000Y-211485000D01*
X472043254Y-155761736D02*
X473636736Y-155761736D01*
X496890000Y-174068125D02*
X497390000Y-173568125D01*
X497460000Y-192485000D02*
X496890000Y-191915000D01*
X497460000Y-245271875D02*
X497460000Y-230735000D01*
X471539990Y-156265000D02*
X472043254Y-155761736D01*
%TO.N,Column 21*%
X516640000Y-235951875D02*
X516640000Y-228515000D01*
X513390000Y-205265000D02*
X516390000Y-202265000D01*
X514140000Y-187515000D02*
X514140000Y-180515000D01*
X516390000Y-189765000D02*
X514140000Y-187515000D01*
X516390000Y-202265000D02*
X516390000Y-189765000D01*
X516640000Y-228515000D02*
X513390000Y-225265000D01*
X516390000Y-178265000D02*
X516390000Y-173515000D01*
X513390000Y-225265000D02*
X513390000Y-205265000D01*
X514140000Y-180515000D02*
X516390000Y-178265000D01*
D26*
%TO.N,D+*%
X475695866Y-114702420D02*
X475695866Y-129977270D01*
X475695866Y-129977270D02*
X475915000Y-130196404D01*
X475627436Y-131865000D02*
X475340000Y-131865000D01*
X301659300Y-113545700D02*
X301659300Y-112177586D01*
X302840316Y-110996570D02*
X471990016Y-110996570D01*
X301659300Y-112177586D02*
X302840316Y-110996570D01*
X471990016Y-110996570D02*
X475695866Y-114702420D01*
X475915000Y-130196404D02*
X475915000Y-131577436D01*
X300840000Y-114365000D02*
X301659300Y-113545700D01*
X475915000Y-131577436D02*
X475627436Y-131865000D01*
%TO.N,D-*%
X302840000Y-114365000D02*
X302020700Y-113545700D01*
D27*
X302840000Y-114265000D02*
X302840000Y-114065000D01*
X475334466Y-131034466D02*
X475365000Y-131065000D01*
D26*
X302990016Y-111357970D02*
X471840316Y-111357970D01*
X302020700Y-113545700D02*
X302020700Y-112327286D01*
D27*
X302840000Y-114365000D02*
X302840000Y-114265000D01*
D26*
X475334466Y-114852120D02*
X475334466Y-131034466D01*
X471840316Y-111357970D02*
X475334466Y-114852120D01*
X302020700Y-112327286D02*
X302990016Y-111357970D01*
%TD*%
M02*
