M48
; DRILL file {KiCad 8.0.8} date 2025-04-23T12:27:12+0200
; FORMAT={-:-/ absolute / metric / decimal}
; #@! TF.CreationDate,2025-04-23T12:27:12+02:00
; #@! TF.GenerationSoftware,Kicad,Pcbnew,8.0.8
; #@! TF.FileFunction,NonPlated,1,4,NPTH
FMAT,2
METRIC
; #@! TA.AperFunction,NonPlated,NPTH,ComponentDrill
T1C0.650
; #@! TA.AperFunction,NonPlated,NPTH,ComponentDrill
T2C1.750
; #@! TA.AperFunction,NonPlated,NPTH,ComponentDrill
T3C3.048
; #@! TA.AperFunction,NonPlated,NPTH,ComponentDrill
T4C3.988
%
G90
G05
T1
X291.202Y-114.913
X296.982Y-114.913
T2
X94.06Y-140.335
X94.06Y-168.91
X96.441Y-226.06
X96.441Y-245.11
X98.822Y-187.96
X101.204Y-207.01
X104.22Y-140.335
X104.22Y-168.91
X106.601Y-226.06
X106.601Y-245.11
X108.983Y-187.96
X111.364Y-207.01
X113.11Y-168.91
X117.872Y-226.06
X120.254Y-245.11
X122.635Y-187.96
X123.27Y-168.91
X127.397Y-207.01
X128.032Y-226.06
X130.414Y-245.11
X132.16Y-121.285
X132.16Y-140.335
X132.16Y-168.91
X132.795Y-187.96
X136.922Y-226.06
X137.558Y-207.01
X141.685Y-187.96
X142.32Y-121.285
X142.32Y-140.335
X142.32Y-168.91
X144.066Y-245.11
X146.447Y-207.01
X147.082Y-226.06
X151.21Y-121.285
X151.21Y-140.335
X151.21Y-168.91
X151.845Y-187.96
X154.226Y-245.11
X155.972Y-226.06
X156.607Y-207.01
X160.735Y-187.96
X161.37Y-121.285
X161.37Y-140.335
X161.37Y-168.91
X165.498Y-207.01
X166.132Y-226.06
X170.26Y-121.285
X170.26Y-140.335
X170.26Y-168.91
X170.895Y-187.96
X175.022Y-226.06
X175.657Y-207.01
X179.785Y-187.96
X180.42Y-121.285
X180.42Y-140.335
X180.42Y-168.91
X184.547Y-207.01
X185.183Y-226.06
X189.31Y-121.285
X189.31Y-140.335
X189.31Y-168.91
X189.945Y-187.96
X194.072Y-226.06
X194.707Y-207.01
X198.835Y-187.96
X199.47Y-121.285
X199.47Y-140.335
X199.47Y-168.91
X203.597Y-207.01
X204.232Y-226.06
X208.36Y-168.91
X208.995Y-187.96
X213.123Y-226.06
X213.757Y-207.01
X215.504Y-245.11
X217.885Y-121.285
X217.885Y-140.335
X217.885Y-187.96
X218.52Y-168.91
X222.647Y-207.01
X223.282Y-226.06
X225.664Y-245.11
X227.41Y-168.91
X228.045Y-121.285
X228.045Y-140.335
X228.045Y-187.96
X232.172Y-226.06
X232.807Y-207.01
X236.935Y-121.285
X236.935Y-140.335
X236.935Y-187.96
X237.57Y-168.91
X241.697Y-207.01
X242.332Y-226.06
X246.46Y-168.91
X247.095Y-121.285
X247.095Y-140.335
X247.095Y-187.96
X251.222Y-226.06
X251.857Y-207.01
X255.985Y-121.285
X255.985Y-140.335
X255.985Y-187.96
X256.62Y-168.91
X260.748Y-207.01
X261.382Y-226.06
X265.51Y-168.91
X266.145Y-121.285
X266.145Y-140.335
X266.145Y-187.96
X270.272Y-226.06
X270.907Y-207.01
X275.035Y-121.285
X275.035Y-140.335
X275.035Y-187.96
X275.67Y-168.91
X279.798Y-207.01
X280.433Y-226.06
X284.56Y-168.91
X285.195Y-121.285
X285.195Y-140.335
X285.195Y-187.96
X286.941Y-245.11
X289.322Y-226.06
X289.957Y-207.01
X294.085Y-187.96
X294.72Y-168.91
X297.101Y-245.11
X298.847Y-207.01
X299.482Y-226.06
X303.61Y-121.285
X303.61Y-140.335
X303.61Y-168.91
X304.245Y-187.96
X308.373Y-226.06
X309.007Y-207.01
X310.754Y-245.11
X313.135Y-187.96
X313.77Y-121.285
X313.77Y-140.335
X313.77Y-168.91
X317.897Y-207.01
X318.532Y-226.06
X320.914Y-245.11
X322.66Y-121.285
X322.66Y-140.335
X322.66Y-168.91
X323.295Y-187.96
X328.058Y-207.01
X332.185Y-187.96
X332.82Y-121.285
X332.82Y-140.335
X332.82Y-168.91
X334.566Y-245.11
X336.947Y-207.01
X341.71Y-121.285
X341.71Y-140.335
X342.345Y-187.96
X344.091Y-226.06
X344.726Y-245.11
X347.107Y-207.01
X351.235Y-168.91
X351.87Y-121.285
X351.87Y-140.335
X354.251Y-226.06
X358.379Y-197.485
X358.379Y-245.11
X360.76Y-121.285
X360.76Y-140.335
X361.395Y-168.91
X368.539Y-197.485
X368.539Y-245.11
X370.92Y-121.285
X370.92Y-140.335
X384.572Y-121.285
X384.572Y-140.335
X384.572Y-168.91
X384.572Y-187.96
X384.572Y-245.11
X394.732Y-121.285
X394.732Y-140.335
X394.732Y-168.91
X394.732Y-187.96
X394.732Y-245.11
X403.623Y-121.285
X403.623Y-140.335
X403.623Y-168.91
X403.623Y-187.96
X403.623Y-226.06
X403.623Y-245.11
X413.782Y-121.285
X413.782Y-140.335
X413.782Y-168.91
X413.782Y-187.96
X413.782Y-226.06
X413.782Y-245.11
X422.672Y-121.285
X422.672Y-168.91
X422.672Y-187.96
X422.672Y-245.11
X422.72Y-140.335
X432.832Y-121.285
X432.832Y-168.91
X432.832Y-187.96
X432.832Y-245.11
X432.88Y-140.335
X446.485Y-168.91
X446.485Y-187.96
X446.485Y-207.01
X446.485Y-226.06
X456.01Y-245.11
X456.645Y-168.91
X456.645Y-187.96
X456.645Y-207.01
X456.645Y-226.06
X465.535Y-168.91
X465.535Y-187.96
X465.535Y-207.01
X465.535Y-226.06
X466.17Y-245.11
X475.695Y-168.91
X475.695Y-187.96
X475.695Y-207.01
X475.695Y-226.06
X484.585Y-168.91
X484.585Y-187.96
X484.585Y-207.01
X484.585Y-226.06
X484.585Y-245.11
X494.745Y-168.91
X494.745Y-187.96
X494.745Y-207.01
X494.745Y-226.06
X494.745Y-245.11
X503.635Y-168.91
X503.635Y-197.485
X503.635Y-235.585
X513.795Y-168.91
X513.795Y-197.485
X513.795Y-235.585
T3
X356.474Y-185.579
X356.474Y-209.391
T4
X99.14Y-140.335
X99.14Y-168.91
X101.521Y-226.06
X101.521Y-245.11
X103.902Y-187.96
X106.284Y-207.01
X118.19Y-168.91
X122.953Y-226.06
X125.334Y-245.11
X127.715Y-187.96
X132.477Y-207.01
X137.24Y-121.285
X137.24Y-140.335
X137.24Y-168.91
X142.002Y-226.06
X146.765Y-187.96
X149.146Y-245.11
X151.528Y-207.01
X156.29Y-121.285
X156.29Y-140.335
X156.29Y-168.91
X161.052Y-226.06
X165.815Y-187.96
X170.577Y-207.01
X170.577Y-253.365
X175.34Y-121.285
X175.34Y-140.335
X175.34Y-168.91
X180.102Y-226.06
X184.865Y-187.96
X189.627Y-207.01
X194.39Y-121.285
X194.39Y-140.335
X194.39Y-168.91
X199.153Y-226.06
X203.915Y-187.96
X208.677Y-207.01
X213.44Y-168.91
X218.202Y-226.06
X220.584Y-245.11
X222.965Y-121.285
X222.965Y-140.335
X222.965Y-187.96
X227.727Y-207.01
X232.49Y-168.91
X237.252Y-226.06
X242.015Y-121.285
X242.015Y-140.335
X242.015Y-187.96
X246.777Y-207.01
X251.54Y-168.91
X256.303Y-226.06
X261.065Y-121.285
X261.065Y-140.335
X261.065Y-187.96
X265.827Y-207.01
X270.59Y-168.91
X270.59Y-253.365
X275.352Y-226.06
X280.115Y-121.285
X280.115Y-140.335
X280.115Y-187.96
X284.877Y-207.01
X289.64Y-168.91
X292.021Y-245.11
X294.402Y-226.06
X299.165Y-187.96
X303.928Y-207.01
X308.69Y-121.285
X308.69Y-140.335
X308.69Y-168.91
X313.452Y-226.06
X315.834Y-245.11
X318.215Y-187.96
X322.977Y-207.01
X327.74Y-121.285
X327.74Y-140.335
X327.74Y-168.91
X337.265Y-187.96
X337.265Y-234.315
X339.646Y-245.11
X342.027Y-207.01
X344.409Y-177.165
X346.79Y-121.285
X346.79Y-140.335
X349.171Y-226.06
X356.315Y-168.91
X361.077Y-234.315
X363.459Y-197.485
X363.459Y-245.11
X365.84Y-121.285
X365.84Y-140.335
X368.221Y-177.165
X371.714Y-185.579
X371.714Y-209.391
X389.652Y-121.285
X389.652Y-140.335
X389.652Y-168.91
X389.652Y-187.96
X389.652Y-245.11
X408.702Y-121.285
X408.702Y-140.335
X408.702Y-168.91
X408.702Y-187.96
X408.702Y-226.06
X408.702Y-245.11
X427.752Y-121.285
X427.752Y-168.91
X427.752Y-187.96
X427.752Y-245.11
X427.8Y-140.335
X449.184Y-253.365
X451.565Y-168.91
X451.565Y-187.96
X451.565Y-207.01
X451.565Y-226.06
X461.09Y-245.11
X470.615Y-168.91
X470.615Y-187.96
X470.615Y-207.01
X470.615Y-226.06
X472.996Y-253.365
X489.665Y-168.91
X489.665Y-187.96
X489.665Y-207.01
X489.665Y-226.06
X489.665Y-245.11
X508.715Y-168.91
X508.715Y-197.485
X508.715Y-235.585
X516.97Y-185.579
X516.97Y-209.391
X516.97Y-223.679
X516.97Y-247.491
M30
