%TF.GenerationSoftware,KiCad,Pcbnew,8.0.8*%
%TF.CreationDate,2025-04-23T12:27:24+02:00*%
%TF.ProjectId,Clavier,436c6176-6965-4722-9e6b-696361645f70,0.0*%
%TF.SameCoordinates,Original*%
%TF.FileFunction,Profile,NP*%
%FSLAX46Y46*%
G04 Gerber Fmt 4.6, Leading zero omitted, Abs format (unit mm)*
G04 Created by KiCad (PCBNEW 8.0.8) date 2025-04-23 12:27:24*
%MOMM*%
%LPD*%
G01*
G04 APERTURE LIST*
%TA.AperFunction,Profile*%
%ADD10C,0.200000*%
%TD*%
%TA.AperFunction,Profile*%
%ADD11C,0.100000*%
%TD*%
G04 APERTURE END LIST*
D10*
X521414176Y-113178000D02*
X521414176Y-253178000D01*
X86414176Y-253178000D02*
X86414176Y-113178000D01*
X516414176Y-108178000D02*
G75*
G02*
X521414200Y-113178000I24J-5000000D01*
G01*
X516414176Y-258178000D02*
X91414176Y-258178000D01*
X91414176Y-258178000D02*
G75*
G02*
X86414200Y-253178000I24J5000000D01*
G01*
X86414176Y-113178000D02*
G75*
G02*
X91414176Y-108177976I5000024J0D01*
G01*
X521414176Y-253178000D02*
G75*
G02*
X516414176Y-258177976I-4999976J0D01*
G01*
X91414176Y-108178000D02*
X516414176Y-108178000D01*
D11*
%TO.C,LED31*%
X426052501Y-134482159D02*
X426052501Y-135887843D01*
X426958047Y-136685000D02*
X428546952Y-136685000D01*
X428546952Y-133685001D02*
X426958048Y-133685001D01*
X429452499Y-135887843D02*
X429452499Y-134482159D01*
X426003016Y-134265281D02*
G75*
G02*
X426052501Y-134482159I-450505J-216876D01*
G01*
X426003016Y-134265282D02*
G75*
G02*
X426705789Y-133616702I450514J216880D01*
G01*
X426052501Y-135887844D02*
G75*
G02*
X426003016Y-136104721I-499990J-1D01*
G01*
X426705789Y-136753299D02*
G75*
G02*
X426003017Y-136104721I-252258J431700D01*
G01*
X426705789Y-136753299D02*
G75*
G02*
X426958047Y-136685000I252261J-431710D01*
G01*
X426958048Y-133685001D02*
G75*
G02*
X426705789Y-133616702I2J500009D01*
G01*
X428546953Y-136685001D02*
G75*
G02*
X428799211Y-136753300I-3J-500009D01*
G01*
X428799210Y-133616702D02*
G75*
G02*
X428546952Y-133685000I-252260J431712D01*
G01*
X428799211Y-133616704D02*
G75*
G02*
X429501980Y-134265279I252259J-431696D01*
G01*
X429452499Y-134482158D02*
G75*
G02*
X429501984Y-134265281I500351J-82D01*
G01*
X429501984Y-136104721D02*
G75*
G02*
X428799211Y-136753300I-450514J-216879D01*
G01*
X429501984Y-136104721D02*
G75*
G02*
X429452487Y-135887843I451016J217021D01*
G01*
%TO.C,LED46*%
X387952501Y-163057159D02*
X387952501Y-164462843D01*
X388858047Y-165260000D02*
X390446952Y-165260000D01*
X390446952Y-162260001D02*
X388858048Y-162260001D01*
X391352499Y-164462843D02*
X391352499Y-163057159D01*
X387903016Y-162840281D02*
G75*
G02*
X387952501Y-163057159I-450505J-216876D01*
G01*
X387903016Y-162840282D02*
G75*
G02*
X388605789Y-162191702I450514J216880D01*
G01*
X387952501Y-164462844D02*
G75*
G02*
X387903016Y-164679721I-499990J-1D01*
G01*
X388605789Y-165328299D02*
G75*
G02*
X387903017Y-164679721I-252258J431700D01*
G01*
X388605789Y-165328299D02*
G75*
G02*
X388858047Y-165260000I252261J-431710D01*
G01*
X388858048Y-162260001D02*
G75*
G02*
X388605789Y-162191702I2J500009D01*
G01*
X390446953Y-165260001D02*
G75*
G02*
X390699211Y-165328300I-3J-500009D01*
G01*
X390699210Y-162191702D02*
G75*
G02*
X390446952Y-162260000I-252260J431712D01*
G01*
X390699211Y-162191704D02*
G75*
G02*
X391401980Y-162840279I252259J-431696D01*
G01*
X391352499Y-163057158D02*
G75*
G02*
X391401984Y-162840281I500351J-82D01*
G01*
X391401984Y-164679721D02*
G75*
G02*
X390699211Y-165328300I-450514J-216879D01*
G01*
X391401984Y-164679721D02*
G75*
G02*
X391352487Y-164462843I451016J217021D01*
G01*
%TO.C,LED10*%
X326040001Y-115432159D02*
X326040001Y-116837843D01*
X326945547Y-117635000D02*
X328534452Y-117635000D01*
X328534452Y-114635001D02*
X326945548Y-114635001D01*
X329439999Y-116837843D02*
X329439999Y-115432159D01*
X325990516Y-115215281D02*
G75*
G02*
X326040001Y-115432159I-450505J-216876D01*
G01*
X325990516Y-115215282D02*
G75*
G02*
X326693289Y-114566702I450514J216880D01*
G01*
X326040001Y-116837844D02*
G75*
G02*
X325990516Y-117054721I-499990J-1D01*
G01*
X326693289Y-117703299D02*
G75*
G02*
X325990517Y-117054721I-252258J431700D01*
G01*
X326693289Y-117703299D02*
G75*
G02*
X326945547Y-117635000I252261J-431710D01*
G01*
X326945548Y-114635001D02*
G75*
G02*
X326693289Y-114566702I2J500009D01*
G01*
X328534453Y-117635001D02*
G75*
G02*
X328786711Y-117703300I-3J-500009D01*
G01*
X328786710Y-114566702D02*
G75*
G02*
X328534452Y-114635000I-252260J431712D01*
G01*
X328786711Y-114566704D02*
G75*
G02*
X329489480Y-115215279I252259J-431696D01*
G01*
X329439999Y-115432158D02*
G75*
G02*
X329489484Y-115215281I500351J-82D01*
G01*
X329489484Y-117054721D02*
G75*
G02*
X328786711Y-117703300I-450514J-216879D01*
G01*
X329489484Y-117054721D02*
G75*
G02*
X329439987Y-116837843I451016J217021D01*
G01*
%TO.C,LED77*%
X168877501Y-201157159D02*
X168877501Y-202562843D01*
X169783047Y-203360000D02*
X171371952Y-203360000D01*
X171371952Y-200360001D02*
X169783048Y-200360001D01*
X172277499Y-202562843D02*
X172277499Y-201157159D01*
X168828016Y-200940281D02*
G75*
G02*
X168877501Y-201157159I-450505J-216876D01*
G01*
X168828016Y-200940282D02*
G75*
G02*
X169530789Y-200291702I450514J216880D01*
G01*
X168877501Y-202562844D02*
G75*
G02*
X168828016Y-202779721I-499990J-1D01*
G01*
X169530789Y-203428299D02*
G75*
G02*
X168828017Y-202779721I-252258J431700D01*
G01*
X169530789Y-203428299D02*
G75*
G02*
X169783047Y-203360000I252261J-431710D01*
G01*
X169783048Y-200360001D02*
G75*
G02*
X169530789Y-200291702I2J500009D01*
G01*
X171371953Y-203360001D02*
G75*
G02*
X171624211Y-203428300I-3J-500009D01*
G01*
X171624210Y-200291702D02*
G75*
G02*
X171371952Y-200360000I-252260J431712D01*
G01*
X171624211Y-200291704D02*
G75*
G02*
X172326980Y-200940279I252259J-431696D01*
G01*
X172277499Y-201157158D02*
G75*
G02*
X172326984Y-200940281I500351J-82D01*
G01*
X172326984Y-202779721D02*
G75*
G02*
X171624211Y-203428300I-450514J-216879D01*
G01*
X172326984Y-202779721D02*
G75*
G02*
X172277487Y-202562843I451016J217021D01*
G01*
%TO.C,LED24*%
X278415001Y-134482159D02*
X278415001Y-135887843D01*
X279320547Y-136685000D02*
X280909452Y-136685000D01*
X280909452Y-133685001D02*
X279320548Y-133685001D01*
X281814999Y-135887843D02*
X281814999Y-134482159D01*
X278365516Y-134265281D02*
G75*
G02*
X278415001Y-134482159I-450505J-216876D01*
G01*
X278365516Y-134265282D02*
G75*
G02*
X279068289Y-133616702I450514J216880D01*
G01*
X278415001Y-135887844D02*
G75*
G02*
X278365516Y-136104721I-499990J-1D01*
G01*
X279068289Y-136753299D02*
G75*
G02*
X278365517Y-136104721I-252258J431700D01*
G01*
X279068289Y-136753299D02*
G75*
G02*
X279320547Y-136685000I252261J-431710D01*
G01*
X279320548Y-133685001D02*
G75*
G02*
X279068289Y-133616702I2J500009D01*
G01*
X280909453Y-136685001D02*
G75*
G02*
X281161711Y-136753300I-3J-500009D01*
G01*
X281161710Y-133616702D02*
G75*
G02*
X280909452Y-133685000I-252260J431712D01*
G01*
X281161711Y-133616704D02*
G75*
G02*
X281864480Y-134265279I252259J-431696D01*
G01*
X281814999Y-134482158D02*
G75*
G02*
X281864484Y-134265281I500351J-82D01*
G01*
X281864484Y-136104721D02*
G75*
G02*
X281161711Y-136753300I-450514J-216879D01*
G01*
X281864484Y-136104721D02*
G75*
G02*
X281814987Y-135887843I451016J217021D01*
G01*
%TO.C,LED47*%
X407002501Y-163057159D02*
X407002501Y-164462843D01*
X407908047Y-165260000D02*
X409496952Y-165260000D01*
X409496952Y-162260001D02*
X407908048Y-162260001D01*
X410402499Y-164462843D02*
X410402499Y-163057159D01*
X406953016Y-162840281D02*
G75*
G02*
X407002501Y-163057159I-450505J-216876D01*
G01*
X406953016Y-162840282D02*
G75*
G02*
X407655789Y-162191702I450514J216880D01*
G01*
X407002501Y-164462844D02*
G75*
G02*
X406953016Y-164679721I-499990J-1D01*
G01*
X407655789Y-165328299D02*
G75*
G02*
X406953017Y-164679721I-252258J431700D01*
G01*
X407655789Y-165328299D02*
G75*
G02*
X407908047Y-165260000I252261J-431710D01*
G01*
X407908048Y-162260001D02*
G75*
G02*
X407655789Y-162191702I2J500009D01*
G01*
X409496953Y-165260001D02*
G75*
G02*
X409749211Y-165328300I-3J-500009D01*
G01*
X409749210Y-162191702D02*
G75*
G02*
X409496952Y-162260000I-252260J431712D01*
G01*
X409749211Y-162191704D02*
G75*
G02*
X410451980Y-162840279I252259J-431696D01*
G01*
X410402499Y-163057158D02*
G75*
G02*
X410451984Y-162840281I500351J-82D01*
G01*
X410451984Y-164679721D02*
G75*
G02*
X409749211Y-165328300I-450514J-216879D01*
G01*
X410451984Y-164679721D02*
G75*
G02*
X410402487Y-164462843I451016J217021D01*
G01*
%TO.C,LED89*%
X487965001Y-201157159D02*
X487965001Y-202562843D01*
X488870547Y-203360000D02*
X490459452Y-203360000D01*
X490459452Y-200360001D02*
X488870548Y-200360001D01*
X491364999Y-202562843D02*
X491364999Y-201157159D01*
X487915516Y-200940281D02*
G75*
G02*
X487965001Y-201157159I-450505J-216876D01*
G01*
X487915516Y-200940282D02*
G75*
G02*
X488618289Y-200291702I450514J216880D01*
G01*
X487965001Y-202562844D02*
G75*
G02*
X487915516Y-202779721I-499990J-1D01*
G01*
X488618289Y-203428299D02*
G75*
G02*
X487915517Y-202779721I-252258J431700D01*
G01*
X488618289Y-203428299D02*
G75*
G02*
X488870547Y-203360000I252261J-431710D01*
G01*
X488870548Y-200360001D02*
G75*
G02*
X488618289Y-200291702I2J500009D01*
G01*
X490459453Y-203360001D02*
G75*
G02*
X490711711Y-203428300I-3J-500009D01*
G01*
X490711710Y-200291702D02*
G75*
G02*
X490459452Y-200360000I-252260J431712D01*
G01*
X490711711Y-200291704D02*
G75*
G02*
X491414480Y-200940279I252259J-431696D01*
G01*
X491364999Y-201157158D02*
G75*
G02*
X491414484Y-200940281I500351J-82D01*
G01*
X491414484Y-202779721D02*
G75*
G02*
X490711711Y-203428300I-450514J-216879D01*
G01*
X491414484Y-202779721D02*
G75*
G02*
X491364987Y-202562843I451016J217021D01*
G01*
%TO.C,LED49*%
X449865001Y-163057159D02*
X449865001Y-164462843D01*
X450770547Y-165260000D02*
X452359452Y-165260000D01*
X452359452Y-162260001D02*
X450770548Y-162260001D01*
X453264999Y-164462843D02*
X453264999Y-163057159D01*
X449815516Y-162840281D02*
G75*
G02*
X449865001Y-163057159I-450505J-216876D01*
G01*
X449815516Y-162840282D02*
G75*
G02*
X450518289Y-162191702I450514J216880D01*
G01*
X449865001Y-164462844D02*
G75*
G02*
X449815516Y-164679721I-499990J-1D01*
G01*
X450518289Y-165328299D02*
G75*
G02*
X449815517Y-164679721I-252258J431700D01*
G01*
X450518289Y-165328299D02*
G75*
G02*
X450770547Y-165260000I252261J-431710D01*
G01*
X450770548Y-162260001D02*
G75*
G02*
X450518289Y-162191702I2J500009D01*
G01*
X452359453Y-165260001D02*
G75*
G02*
X452611711Y-165328300I-3J-500009D01*
G01*
X452611710Y-162191702D02*
G75*
G02*
X452359452Y-162260000I-252260J431712D01*
G01*
X452611711Y-162191704D02*
G75*
G02*
X453314480Y-162840279I252259J-431696D01*
G01*
X453264999Y-163057158D02*
G75*
G02*
X453314484Y-162840281I500351J-82D01*
G01*
X453314484Y-164679721D02*
G75*
G02*
X452611711Y-165328300I-450514J-216879D01*
G01*
X453314484Y-164679721D02*
G75*
G02*
X453264987Y-164462843I451016J217021D01*
G01*
%TO.C,LED4*%
X192690001Y-115432159D02*
X192690001Y-116837843D01*
X193595547Y-117635000D02*
X195184452Y-117635000D01*
X195184452Y-114635001D02*
X193595548Y-114635001D01*
X196089999Y-116837843D02*
X196089999Y-115432159D01*
X192640516Y-115215281D02*
G75*
G02*
X192690001Y-115432159I-450505J-216876D01*
G01*
X192640516Y-115215282D02*
G75*
G02*
X193343289Y-114566702I450514J216880D01*
G01*
X192690001Y-116837844D02*
G75*
G02*
X192640516Y-117054721I-499990J-1D01*
G01*
X193343289Y-117703299D02*
G75*
G02*
X192640517Y-117054721I-252258J431700D01*
G01*
X193343289Y-117703299D02*
G75*
G02*
X193595547Y-117635000I252261J-431710D01*
G01*
X193595548Y-114635001D02*
G75*
G02*
X193343289Y-114566702I2J500009D01*
G01*
X195184453Y-117635001D02*
G75*
G02*
X195436711Y-117703300I-3J-500009D01*
G01*
X195436710Y-114566702D02*
G75*
G02*
X195184452Y-114635000I-252260J431712D01*
G01*
X195436711Y-114566704D02*
G75*
G02*
X196139480Y-115215279I252259J-431696D01*
G01*
X196089999Y-115432158D02*
G75*
G02*
X196139484Y-115215281I500351J-82D01*
G01*
X196139484Y-117054721D02*
G75*
G02*
X195436711Y-117703300I-450514J-216879D01*
G01*
X196139484Y-117054721D02*
G75*
G02*
X196089987Y-116837843I451016J217021D01*
G01*
%TO.C,LED83*%
X283177501Y-201157159D02*
X283177501Y-202562843D01*
X284083047Y-203360000D02*
X285671952Y-203360000D01*
X285671952Y-200360001D02*
X284083048Y-200360001D01*
X286577499Y-202562843D02*
X286577499Y-201157159D01*
X283128016Y-200940281D02*
G75*
G02*
X283177501Y-201157159I-450505J-216876D01*
G01*
X283128016Y-200940282D02*
G75*
G02*
X283830789Y-200291702I450514J216880D01*
G01*
X283177501Y-202562844D02*
G75*
G02*
X283128016Y-202779721I-499990J-1D01*
G01*
X283830789Y-203428299D02*
G75*
G02*
X283128017Y-202779721I-252258J431700D01*
G01*
X283830789Y-203428299D02*
G75*
G02*
X284083047Y-203360000I252261J-431710D01*
G01*
X284083048Y-200360001D02*
G75*
G02*
X283830789Y-200291702I2J500009D01*
G01*
X285671953Y-203360001D02*
G75*
G02*
X285924211Y-203428300I-3J-500009D01*
G01*
X285924210Y-200291702D02*
G75*
G02*
X285671952Y-200360000I-252260J431712D01*
G01*
X285924211Y-200291704D02*
G75*
G02*
X286626980Y-200940279I252259J-431696D01*
G01*
X286577499Y-201157158D02*
G75*
G02*
X286626984Y-200940281I500351J-82D01*
G01*
X286626984Y-202779721D02*
G75*
G02*
X285924211Y-203428300I-450514J-216879D01*
G01*
X286626984Y-202779721D02*
G75*
G02*
X286577487Y-202562843I451016J217021D01*
G01*
%TO.C,LED14*%
X407002501Y-115432159D02*
X407002501Y-116837843D01*
X407908047Y-117635000D02*
X409496952Y-117635000D01*
X409496952Y-114635001D02*
X407908048Y-114635001D01*
X410402499Y-116837843D02*
X410402499Y-115432159D01*
X406953016Y-115215281D02*
G75*
G02*
X407002501Y-115432159I-450505J-216876D01*
G01*
X406953016Y-115215282D02*
G75*
G02*
X407655789Y-114566702I450514J216880D01*
G01*
X407002501Y-116837844D02*
G75*
G02*
X406953016Y-117054721I-499990J-1D01*
G01*
X407655789Y-117703299D02*
G75*
G02*
X406953017Y-117054721I-252258J431700D01*
G01*
X407655789Y-117703299D02*
G75*
G02*
X407908047Y-117635000I252261J-431710D01*
G01*
X407908048Y-114635001D02*
G75*
G02*
X407655789Y-114566702I2J500009D01*
G01*
X409496953Y-117635001D02*
G75*
G02*
X409749211Y-117703300I-3J-500009D01*
G01*
X409749210Y-114566702D02*
G75*
G02*
X409496952Y-114635000I-252260J431712D01*
G01*
X409749211Y-114566704D02*
G75*
G02*
X410451980Y-115215279I252259J-431696D01*
G01*
X410402499Y-115432158D02*
G75*
G02*
X410451984Y-115215281I500351J-82D01*
G01*
X410451984Y-117054721D02*
G75*
G02*
X409749211Y-117703300I-450514J-216879D01*
G01*
X410451984Y-117054721D02*
G75*
G02*
X410402487Y-116837843I451016J217021D01*
G01*
%TO.C,LED9*%
X306990001Y-115432159D02*
X306990001Y-116837843D01*
X307895547Y-117635000D02*
X309484452Y-117635000D01*
X309484452Y-114635001D02*
X307895548Y-114635001D01*
X310389999Y-116837843D02*
X310389999Y-115432159D01*
X306940516Y-115215281D02*
G75*
G02*
X306990001Y-115432159I-450505J-216876D01*
G01*
X306940516Y-115215282D02*
G75*
G02*
X307643289Y-114566702I450514J216880D01*
G01*
X306990001Y-116837844D02*
G75*
G02*
X306940516Y-117054721I-499990J-1D01*
G01*
X307643289Y-117703299D02*
G75*
G02*
X306940517Y-117054721I-252258J431700D01*
G01*
X307643289Y-117703299D02*
G75*
G02*
X307895547Y-117635000I252261J-431710D01*
G01*
X307895548Y-114635001D02*
G75*
G02*
X307643289Y-114566702I2J500009D01*
G01*
X309484453Y-117635001D02*
G75*
G02*
X309736711Y-117703300I-3J-500009D01*
G01*
X309736710Y-114566702D02*
G75*
G02*
X309484452Y-114635000I-252260J431712D01*
G01*
X309736711Y-114566704D02*
G75*
G02*
X310439480Y-115215279I252259J-431696D01*
G01*
X310389999Y-115432158D02*
G75*
G02*
X310439484Y-115215281I500351J-82D01*
G01*
X310439484Y-117054721D02*
G75*
G02*
X309736711Y-117703300I-450514J-216879D01*
G01*
X310439484Y-117054721D02*
G75*
G02*
X310389987Y-116837843I451016J217021D01*
G01*
%TO.C,LED111*%
X218883751Y-239257159D02*
X218883751Y-240662843D01*
X219789297Y-241460000D02*
X221378202Y-241460000D01*
X221378202Y-238460001D02*
X219789298Y-238460001D01*
X222283749Y-240662843D02*
X222283749Y-239257159D01*
X218834266Y-239040281D02*
G75*
G02*
X218883751Y-239257159I-450505J-216876D01*
G01*
X218834266Y-239040282D02*
G75*
G02*
X219537039Y-238391702I450514J216880D01*
G01*
X218883751Y-240662844D02*
G75*
G02*
X218834266Y-240879721I-499990J-1D01*
G01*
X219537039Y-241528299D02*
G75*
G02*
X218834267Y-240879721I-252258J431700D01*
G01*
X219537039Y-241528299D02*
G75*
G02*
X219789297Y-241460000I252261J-431710D01*
G01*
X219789298Y-238460001D02*
G75*
G02*
X219537039Y-238391702I2J500009D01*
G01*
X221378203Y-241460001D02*
G75*
G02*
X221630461Y-241528300I-3J-500009D01*
G01*
X221630460Y-238391702D02*
G75*
G02*
X221378202Y-238460000I-252260J431712D01*
G01*
X221630461Y-238391704D02*
G75*
G02*
X222333230Y-239040279I252259J-431696D01*
G01*
X222283749Y-239257158D02*
G75*
G02*
X222333234Y-239040281I500351J-82D01*
G01*
X222333234Y-240879721D02*
G75*
G02*
X221630461Y-241528300I-450514J-216879D01*
G01*
X222333234Y-240879721D02*
G75*
G02*
X222283737Y-240662843I451016J217021D01*
G01*
%TO.C,LED71*%
X468915001Y-182107159D02*
X468915001Y-183512843D01*
X469820547Y-184310000D02*
X471409452Y-184310000D01*
X471409452Y-181310001D02*
X469820548Y-181310001D01*
X472314999Y-183512843D02*
X472314999Y-182107159D01*
X468865516Y-181890281D02*
G75*
G02*
X468915001Y-182107159I-450505J-216876D01*
G01*
X468865516Y-181890282D02*
G75*
G02*
X469568289Y-181241702I450514J216880D01*
G01*
X468915001Y-183512844D02*
G75*
G02*
X468865516Y-183729721I-499990J-1D01*
G01*
X469568289Y-184378299D02*
G75*
G02*
X468865517Y-183729721I-252258J431700D01*
G01*
X469568289Y-184378299D02*
G75*
G02*
X469820547Y-184310000I252261J-431710D01*
G01*
X469820548Y-181310001D02*
G75*
G02*
X469568289Y-181241702I2J500009D01*
G01*
X471409453Y-184310001D02*
G75*
G02*
X471661711Y-184378300I-3J-500009D01*
G01*
X471661710Y-181241702D02*
G75*
G02*
X471409452Y-181310000I-252260J431712D01*
G01*
X471661711Y-181241704D02*
G75*
G02*
X472364480Y-181890279I252259J-431696D01*
G01*
X472314999Y-182107158D02*
G75*
G02*
X472364484Y-181890281I500351J-82D01*
G01*
X472364484Y-183729721D02*
G75*
G02*
X471661711Y-184378300I-450514J-216879D01*
G01*
X472364484Y-183729721D02*
G75*
G02*
X472314987Y-183512843I451016J217021D01*
G01*
%TO.C,LED34*%
X135540001Y-163057159D02*
X135540001Y-164462843D01*
X136445547Y-165260000D02*
X138034452Y-165260000D01*
X138034452Y-162260001D02*
X136445548Y-162260001D01*
X138939999Y-164462843D02*
X138939999Y-163057159D01*
X135490516Y-162840281D02*
G75*
G02*
X135540001Y-163057159I-450505J-216876D01*
G01*
X135490516Y-162840282D02*
G75*
G02*
X136193289Y-162191702I450514J216880D01*
G01*
X135540001Y-164462844D02*
G75*
G02*
X135490516Y-164679721I-499990J-1D01*
G01*
X136193289Y-165328299D02*
G75*
G02*
X135490517Y-164679721I-252258J431700D01*
G01*
X136193289Y-165328299D02*
G75*
G02*
X136445547Y-165260000I252261J-431710D01*
G01*
X136445548Y-162260001D02*
G75*
G02*
X136193289Y-162191702I2J500009D01*
G01*
X138034453Y-165260001D02*
G75*
G02*
X138286711Y-165328300I-3J-500009D01*
G01*
X138286710Y-162191702D02*
G75*
G02*
X138034452Y-162260000I-252260J431712D01*
G01*
X138286711Y-162191704D02*
G75*
G02*
X138989480Y-162840279I252259J-431696D01*
G01*
X138939999Y-163057158D02*
G75*
G02*
X138989484Y-162840281I500351J-82D01*
G01*
X138989484Y-164679721D02*
G75*
G02*
X138286711Y-165328300I-450514J-216879D01*
G01*
X138989484Y-164679721D02*
G75*
G02*
X138939987Y-164462843I451016J217021D01*
G01*
%TO.C,LED43*%
X306990001Y-163057159D02*
X306990001Y-164462843D01*
X307895547Y-165260000D02*
X309484452Y-165260000D01*
X309484452Y-162260001D02*
X307895548Y-162260001D01*
X310389999Y-164462843D02*
X310389999Y-163057159D01*
X306940516Y-162840281D02*
G75*
G02*
X306990001Y-163057159I-450505J-216876D01*
G01*
X306940516Y-162840282D02*
G75*
G02*
X307643289Y-162191702I450514J216880D01*
G01*
X306990001Y-164462844D02*
G75*
G02*
X306940516Y-164679721I-499990J-1D01*
G01*
X307643289Y-165328299D02*
G75*
G02*
X306940517Y-164679721I-252258J431700D01*
G01*
X307643289Y-165328299D02*
G75*
G02*
X307895547Y-165260000I252261J-431710D01*
G01*
X307895548Y-162260001D02*
G75*
G02*
X307643289Y-162191702I2J500009D01*
G01*
X309484453Y-165260001D02*
G75*
G02*
X309736711Y-165328300I-3J-500009D01*
G01*
X309736710Y-162191702D02*
G75*
G02*
X309484452Y-162260000I-252260J431712D01*
G01*
X309736711Y-162191704D02*
G75*
G02*
X310439480Y-162840279I252259J-431696D01*
G01*
X310389999Y-163057158D02*
G75*
G02*
X310439484Y-162840281I500351J-82D01*
G01*
X310439484Y-164679721D02*
G75*
G02*
X309736711Y-165328300I-450514J-216879D01*
G01*
X310439484Y-164679721D02*
G75*
G02*
X310389987Y-164462843I451016J217021D01*
G01*
%TO.C,LED25*%
X306990001Y-134482159D02*
X306990001Y-135887843D01*
X307895547Y-136685000D02*
X309484452Y-136685000D01*
X309484452Y-133685001D02*
X307895548Y-133685001D01*
X310389999Y-135887843D02*
X310389999Y-134482159D01*
X306940516Y-134265281D02*
G75*
G02*
X306990001Y-134482159I-450505J-216876D01*
G01*
X306940516Y-134265282D02*
G75*
G02*
X307643289Y-133616702I450514J216880D01*
G01*
X306990001Y-135887844D02*
G75*
G02*
X306940516Y-136104721I-499990J-1D01*
G01*
X307643289Y-136753299D02*
G75*
G02*
X306940517Y-136104721I-252258J431700D01*
G01*
X307643289Y-136753299D02*
G75*
G02*
X307895547Y-136685000I252261J-431710D01*
G01*
X307895548Y-133685001D02*
G75*
G02*
X307643289Y-133616702I2J500009D01*
G01*
X309484453Y-136685001D02*
G75*
G02*
X309736711Y-136753300I-3J-500009D01*
G01*
X309736710Y-133616702D02*
G75*
G02*
X309484452Y-133685000I-252260J431712D01*
G01*
X309736711Y-133616704D02*
G75*
G02*
X310439480Y-134265279I252259J-431696D01*
G01*
X310389999Y-134482158D02*
G75*
G02*
X310439484Y-134265281I500351J-82D01*
G01*
X310439484Y-136104721D02*
G75*
G02*
X309736711Y-136753300I-450514J-216879D01*
G01*
X310439484Y-136104721D02*
G75*
G02*
X310389987Y-135887843I451016J217021D01*
G01*
%TO.C,LED62*%
X278415001Y-182107159D02*
X278415001Y-183512843D01*
X279320547Y-184310000D02*
X280909452Y-184310000D01*
X280909452Y-181310001D02*
X279320548Y-181310001D01*
X281814999Y-183512843D02*
X281814999Y-182107159D01*
X278365516Y-181890281D02*
G75*
G02*
X278415001Y-182107159I-450505J-216876D01*
G01*
X278365516Y-181890282D02*
G75*
G02*
X279068289Y-181241702I450514J216880D01*
G01*
X278415001Y-183512844D02*
G75*
G02*
X278365516Y-183729721I-499990J-1D01*
G01*
X279068289Y-184378299D02*
G75*
G02*
X278365517Y-183729721I-252258J431700D01*
G01*
X279068289Y-184378299D02*
G75*
G02*
X279320547Y-184310000I252261J-431710D01*
G01*
X279320548Y-181310001D02*
G75*
G02*
X279068289Y-181241702I2J500009D01*
G01*
X280909453Y-184310001D02*
G75*
G02*
X281161711Y-184378300I-3J-500009D01*
G01*
X281161710Y-181241702D02*
G75*
G02*
X280909452Y-181310000I-252260J431712D01*
G01*
X281161711Y-181241704D02*
G75*
G02*
X281864480Y-181890279I252259J-431696D01*
G01*
X281814999Y-182107158D02*
G75*
G02*
X281864484Y-181890281I500351J-82D01*
G01*
X281864484Y-183729721D02*
G75*
G02*
X281161711Y-184378300I-450514J-216879D01*
G01*
X281864484Y-183729721D02*
G75*
G02*
X281814987Y-183512843I451016J217021D01*
G01*
%TO.C,LED107*%
X507015001Y-229732159D02*
X507015001Y-231137843D01*
X507920547Y-231935000D02*
X509509452Y-231935000D01*
X509509452Y-228935001D02*
X507920548Y-228935001D01*
X510414999Y-231137843D02*
X510414999Y-229732159D01*
X506965516Y-229515281D02*
G75*
G02*
X507015001Y-229732159I-450505J-216876D01*
G01*
X506965516Y-229515282D02*
G75*
G02*
X507668289Y-228866702I450514J216880D01*
G01*
X507015001Y-231137844D02*
G75*
G02*
X506965516Y-231354721I-499990J-1D01*
G01*
X507668289Y-232003299D02*
G75*
G02*
X506965517Y-231354721I-252258J431700D01*
G01*
X507668289Y-232003299D02*
G75*
G02*
X507920547Y-231935000I252261J-431710D01*
G01*
X507920548Y-228935001D02*
G75*
G02*
X507668289Y-228866702I2J500009D01*
G01*
X509509453Y-231935001D02*
G75*
G02*
X509761711Y-232003300I-3J-500009D01*
G01*
X509761710Y-228866702D02*
G75*
G02*
X509509452Y-228935000I-252260J431712D01*
G01*
X509761711Y-228866704D02*
G75*
G02*
X510464480Y-229515279I252259J-431696D01*
G01*
X510414999Y-229732158D02*
G75*
G02*
X510464484Y-229515281I500351J-82D01*
G01*
X510464484Y-231354721D02*
G75*
G02*
X509761711Y-232003300I-450514J-216879D01*
G01*
X510464484Y-231354721D02*
G75*
G02*
X510414987Y-231137843I451016J217021D01*
G01*
%TO.C,LED56*%
X164115001Y-182107159D02*
X164115001Y-183512843D01*
X165020547Y-184310000D02*
X166609452Y-184310000D01*
X166609452Y-181310001D02*
X165020548Y-181310001D01*
X167514999Y-183512843D02*
X167514999Y-182107159D01*
X164065516Y-181890281D02*
G75*
G02*
X164115001Y-182107159I-450505J-216876D01*
G01*
X164065516Y-181890282D02*
G75*
G02*
X164768289Y-181241702I450514J216880D01*
G01*
X164115001Y-183512844D02*
G75*
G02*
X164065516Y-183729721I-499990J-1D01*
G01*
X164768289Y-184378299D02*
G75*
G02*
X164065517Y-183729721I-252258J431700D01*
G01*
X164768289Y-184378299D02*
G75*
G02*
X165020547Y-184310000I252261J-431710D01*
G01*
X165020548Y-181310001D02*
G75*
G02*
X164768289Y-181241702I2J500009D01*
G01*
X166609453Y-184310001D02*
G75*
G02*
X166861711Y-184378300I-3J-500009D01*
G01*
X166861710Y-181241702D02*
G75*
G02*
X166609452Y-181310000I-252260J431712D01*
G01*
X166861711Y-181241704D02*
G75*
G02*
X167564480Y-181890279I252259J-431696D01*
G01*
X167514999Y-182107158D02*
G75*
G02*
X167564484Y-181890281I500351J-82D01*
G01*
X167564484Y-183729721D02*
G75*
G02*
X166861711Y-184378300I-450514J-216879D01*
G01*
X167564484Y-183729721D02*
G75*
G02*
X167514987Y-183512843I451016J217021D01*
G01*
%TO.C,LED97*%
X235552501Y-220207159D02*
X235552501Y-221612843D01*
X236458047Y-222410000D02*
X238046952Y-222410000D01*
X238046952Y-219410001D02*
X236458048Y-219410001D01*
X238952499Y-221612843D02*
X238952499Y-220207159D01*
X235503016Y-219990281D02*
G75*
G02*
X235552501Y-220207159I-450505J-216876D01*
G01*
X235503016Y-219990282D02*
G75*
G02*
X236205789Y-219341702I450514J216880D01*
G01*
X235552501Y-221612844D02*
G75*
G02*
X235503016Y-221829721I-499990J-1D01*
G01*
X236205789Y-222478299D02*
G75*
G02*
X235503017Y-221829721I-252258J431700D01*
G01*
X236205789Y-222478299D02*
G75*
G02*
X236458047Y-222410000I252261J-431710D01*
G01*
X236458048Y-219410001D02*
G75*
G02*
X236205789Y-219341702I2J500009D01*
G01*
X238046953Y-222410001D02*
G75*
G02*
X238299211Y-222478300I-3J-500009D01*
G01*
X238299210Y-219341702D02*
G75*
G02*
X238046952Y-219410000I-252260J431712D01*
G01*
X238299211Y-219341704D02*
G75*
G02*
X239001980Y-219990279I252259J-431696D01*
G01*
X238952499Y-220207158D02*
G75*
G02*
X239001984Y-219990281I500351J-82D01*
G01*
X239001984Y-221829721D02*
G75*
G02*
X238299211Y-222478300I-450514J-216879D01*
G01*
X239001984Y-221829721D02*
G75*
G02*
X238952487Y-221612843I451016J217021D01*
G01*
%TO.C,LED64*%
X316515001Y-182107159D02*
X316515001Y-183512843D01*
X317420547Y-184310000D02*
X319009452Y-184310000D01*
X319009452Y-181310001D02*
X317420548Y-181310001D01*
X319914999Y-183512843D02*
X319914999Y-182107159D01*
X316465516Y-181890281D02*
G75*
G02*
X316515001Y-182107159I-450505J-216876D01*
G01*
X316465516Y-181890282D02*
G75*
G02*
X317168289Y-181241702I450514J216880D01*
G01*
X316515001Y-183512844D02*
G75*
G02*
X316465516Y-183729721I-499990J-1D01*
G01*
X317168289Y-184378299D02*
G75*
G02*
X316465517Y-183729721I-252258J431700D01*
G01*
X317168289Y-184378299D02*
G75*
G02*
X317420547Y-184310000I252261J-431710D01*
G01*
X317420548Y-181310001D02*
G75*
G02*
X317168289Y-181241702I2J500009D01*
G01*
X319009453Y-184310001D02*
G75*
G02*
X319261711Y-184378300I-3J-500009D01*
G01*
X319261710Y-181241702D02*
G75*
G02*
X319009452Y-181310000I-252260J431712D01*
G01*
X319261711Y-181241704D02*
G75*
G02*
X319964480Y-181890279I252259J-431696D01*
G01*
X319914999Y-182107158D02*
G75*
G02*
X319964484Y-181890281I500351J-82D01*
G01*
X319964484Y-183729721D02*
G75*
G02*
X319261711Y-184378300I-450514J-216879D01*
G01*
X319964484Y-183729721D02*
G75*
G02*
X319914987Y-183512843I451016J217021D01*
G01*
%TO.C,LED29*%
X387952501Y-134482159D02*
X387952501Y-135887843D01*
X388858047Y-136685000D02*
X390446952Y-136685000D01*
X390446952Y-133685001D02*
X388858048Y-133685001D01*
X391352499Y-135887843D02*
X391352499Y-134482159D01*
X387903016Y-134265281D02*
G75*
G02*
X387952501Y-134482159I-450505J-216876D01*
G01*
X387903016Y-134265282D02*
G75*
G02*
X388605789Y-133616702I450514J216880D01*
G01*
X387952501Y-135887844D02*
G75*
G02*
X387903016Y-136104721I-499990J-1D01*
G01*
X388605789Y-136753299D02*
G75*
G02*
X387903017Y-136104721I-252258J431700D01*
G01*
X388605789Y-136753299D02*
G75*
G02*
X388858047Y-136685000I252261J-431710D01*
G01*
X388858048Y-133685001D02*
G75*
G02*
X388605789Y-133616702I2J500009D01*
G01*
X390446953Y-136685001D02*
G75*
G02*
X390699211Y-136753300I-3J-500009D01*
G01*
X390699210Y-133616702D02*
G75*
G02*
X390446952Y-133685000I-252260J431712D01*
G01*
X390699211Y-133616704D02*
G75*
G02*
X391401980Y-134265279I252259J-431696D01*
G01*
X391352499Y-134482158D02*
G75*
G02*
X391401984Y-134265281I500351J-82D01*
G01*
X391401984Y-136104721D02*
G75*
G02*
X390699211Y-136753300I-450514J-216879D01*
G01*
X391401984Y-136104721D02*
G75*
G02*
X391352487Y-135887843I451016J217021D01*
G01*
%TO.C,LED5*%
X221265001Y-115432159D02*
X221265001Y-116837843D01*
X222170547Y-117635000D02*
X223759452Y-117635000D01*
X223759452Y-114635001D02*
X222170548Y-114635001D01*
X224664999Y-116837843D02*
X224664999Y-115432159D01*
X221215516Y-115215281D02*
G75*
G02*
X221265001Y-115432159I-450505J-216876D01*
G01*
X221215516Y-115215282D02*
G75*
G02*
X221918289Y-114566702I450514J216880D01*
G01*
X221265001Y-116837844D02*
G75*
G02*
X221215516Y-117054721I-499990J-1D01*
G01*
X221918289Y-117703299D02*
G75*
G02*
X221215517Y-117054721I-252258J431700D01*
G01*
X221918289Y-117703299D02*
G75*
G02*
X222170547Y-117635000I252261J-431710D01*
G01*
X222170548Y-114635001D02*
G75*
G02*
X221918289Y-114566702I2J500009D01*
G01*
X223759453Y-117635001D02*
G75*
G02*
X224011711Y-117703300I-3J-500009D01*
G01*
X224011710Y-114566702D02*
G75*
G02*
X223759452Y-114635000I-252260J431712D01*
G01*
X224011711Y-114566704D02*
G75*
G02*
X224714480Y-115215279I252259J-431696D01*
G01*
X224664999Y-115432158D02*
G75*
G02*
X224714484Y-115215281I500351J-82D01*
G01*
X224714484Y-117054721D02*
G75*
G02*
X224011711Y-117703300I-450514J-216879D01*
G01*
X224714484Y-117054721D02*
G75*
G02*
X224664987Y-116837843I451016J217021D01*
G01*
%TO.C,LED69*%
X426052501Y-182107159D02*
X426052501Y-183512843D01*
X426958047Y-184310000D02*
X428546952Y-184310000D01*
X428546952Y-181310001D02*
X426958048Y-181310001D01*
X429452499Y-183512843D02*
X429452499Y-182107159D01*
X426003016Y-181890281D02*
G75*
G02*
X426052501Y-182107159I-450505J-216876D01*
G01*
X426003016Y-181890282D02*
G75*
G02*
X426705789Y-181241702I450514J216880D01*
G01*
X426052501Y-183512844D02*
G75*
G02*
X426003016Y-183729721I-499990J-1D01*
G01*
X426705789Y-184378299D02*
G75*
G02*
X426003017Y-183729721I-252258J431700D01*
G01*
X426705789Y-184378299D02*
G75*
G02*
X426958047Y-184310000I252261J-431710D01*
G01*
X426958048Y-181310001D02*
G75*
G02*
X426705789Y-181241702I2J500009D01*
G01*
X428546953Y-184310001D02*
G75*
G02*
X428799211Y-184378300I-3J-500009D01*
G01*
X428799210Y-181241702D02*
G75*
G02*
X428546952Y-181310000I-252260J431712D01*
G01*
X428799211Y-181241704D02*
G75*
G02*
X429501980Y-181890279I252259J-431696D01*
G01*
X429452499Y-182107158D02*
G75*
G02*
X429501984Y-181890281I500351J-82D01*
G01*
X429501984Y-183729721D02*
G75*
G02*
X428799211Y-184378300I-450514J-216879D01*
G01*
X429501984Y-183729721D02*
G75*
G02*
X429452487Y-183512843I451016J217021D01*
G01*
%TO.C,LED28*%
X364140001Y-134482159D02*
X364140001Y-135887843D01*
X365045547Y-136685000D02*
X366634452Y-136685000D01*
X366634452Y-133685001D02*
X365045548Y-133685001D01*
X367539999Y-135887843D02*
X367539999Y-134482159D01*
X364090516Y-134265281D02*
G75*
G02*
X364140001Y-134482159I-450505J-216876D01*
G01*
X364090516Y-134265282D02*
G75*
G02*
X364793289Y-133616702I450514J216880D01*
G01*
X364140001Y-135887844D02*
G75*
G02*
X364090516Y-136104721I-499990J-1D01*
G01*
X364793289Y-136753299D02*
G75*
G02*
X364090517Y-136104721I-252258J431700D01*
G01*
X364793289Y-136753299D02*
G75*
G02*
X365045547Y-136685000I252261J-431710D01*
G01*
X365045548Y-133685001D02*
G75*
G02*
X364793289Y-133616702I2J500009D01*
G01*
X366634453Y-136685001D02*
G75*
G02*
X366886711Y-136753300I-3J-500009D01*
G01*
X366886710Y-133616702D02*
G75*
G02*
X366634452Y-133685000I-252260J431712D01*
G01*
X366886711Y-133616704D02*
G75*
G02*
X367589480Y-134265279I252259J-431696D01*
G01*
X367539999Y-134482158D02*
G75*
G02*
X367589484Y-134265281I500351J-82D01*
G01*
X367589484Y-136104721D02*
G75*
G02*
X366886711Y-136753300I-450514J-216879D01*
G01*
X367589484Y-136104721D02*
G75*
G02*
X367539987Y-135887843I451016J217021D01*
G01*
%TO.C,LED30*%
X407002501Y-134482159D02*
X407002501Y-135887843D01*
X407908047Y-136685000D02*
X409496952Y-136685000D01*
X409496952Y-133685001D02*
X407908048Y-133685001D01*
X410402499Y-135887843D02*
X410402499Y-134482159D01*
X406953016Y-134265281D02*
G75*
G02*
X407002501Y-134482159I-450505J-216876D01*
G01*
X406953016Y-134265282D02*
G75*
G02*
X407655789Y-133616702I450514J216880D01*
G01*
X407002501Y-135887844D02*
G75*
G02*
X406953016Y-136104721I-499990J-1D01*
G01*
X407655789Y-136753299D02*
G75*
G02*
X406953017Y-136104721I-252258J431700D01*
G01*
X407655789Y-136753299D02*
G75*
G02*
X407908047Y-136685000I252261J-431710D01*
G01*
X407908048Y-133685001D02*
G75*
G02*
X407655789Y-133616702I2J500009D01*
G01*
X409496953Y-136685001D02*
G75*
G02*
X409749211Y-136753300I-3J-500009D01*
G01*
X409749210Y-133616702D02*
G75*
G02*
X409496952Y-133685000I-252260J431712D01*
G01*
X409749211Y-133616704D02*
G75*
G02*
X410451980Y-134265279I252259J-431696D01*
G01*
X410402499Y-134482158D02*
G75*
G02*
X410451984Y-134265281I500351J-82D01*
G01*
X410451984Y-136104721D02*
G75*
G02*
X409749211Y-136753300I-450514J-216879D01*
G01*
X410451984Y-136104721D02*
G75*
G02*
X410402487Y-135887843I451016J217021D01*
G01*
%TO.C,LED50*%
X468915001Y-163057159D02*
X468915001Y-164462843D01*
X469820547Y-165260000D02*
X471409452Y-165260000D01*
X471409452Y-162260001D02*
X469820548Y-162260001D01*
X472314999Y-164462843D02*
X472314999Y-163057159D01*
X468865516Y-162840281D02*
G75*
G02*
X468915001Y-163057159I-450505J-216876D01*
G01*
X468865516Y-162840282D02*
G75*
G02*
X469568289Y-162191702I450514J216880D01*
G01*
X468915001Y-164462844D02*
G75*
G02*
X468865516Y-164679721I-499990J-1D01*
G01*
X469568289Y-165328299D02*
G75*
G02*
X468865517Y-164679721I-252258J431700D01*
G01*
X469568289Y-165328299D02*
G75*
G02*
X469820547Y-165260000I252261J-431710D01*
G01*
X469820548Y-162260001D02*
G75*
G02*
X469568289Y-162191702I2J500009D01*
G01*
X471409453Y-165260001D02*
G75*
G02*
X471661711Y-165328300I-3J-500009D01*
G01*
X471661710Y-162191702D02*
G75*
G02*
X471409452Y-162260000I-252260J431712D01*
G01*
X471661711Y-162191704D02*
G75*
G02*
X472364480Y-162840279I252259J-431696D01*
G01*
X472314999Y-163057158D02*
G75*
G02*
X472364484Y-162840281I500351J-82D01*
G01*
X472364484Y-164679721D02*
G75*
G02*
X471661711Y-165328300I-450514J-216879D01*
G01*
X472364484Y-164679721D02*
G75*
G02*
X472314987Y-164462843I451016J217021D01*
G01*
%TO.C,LED35*%
X154590001Y-163057159D02*
X154590001Y-164462843D01*
X155495547Y-165260000D02*
X157084452Y-165260000D01*
X157084452Y-162260001D02*
X155495548Y-162260001D01*
X157989999Y-164462843D02*
X157989999Y-163057159D01*
X154540516Y-162840281D02*
G75*
G02*
X154590001Y-163057159I-450505J-216876D01*
G01*
X154540516Y-162840282D02*
G75*
G02*
X155243289Y-162191702I450514J216880D01*
G01*
X154590001Y-164462844D02*
G75*
G02*
X154540516Y-164679721I-499990J-1D01*
G01*
X155243289Y-165328299D02*
G75*
G02*
X154540517Y-164679721I-252258J431700D01*
G01*
X155243289Y-165328299D02*
G75*
G02*
X155495547Y-165260000I252261J-431710D01*
G01*
X155495548Y-162260001D02*
G75*
G02*
X155243289Y-162191702I2J500009D01*
G01*
X157084453Y-165260001D02*
G75*
G02*
X157336711Y-165328300I-3J-500009D01*
G01*
X157336710Y-162191702D02*
G75*
G02*
X157084452Y-162260000I-252260J431712D01*
G01*
X157336711Y-162191704D02*
G75*
G02*
X158039480Y-162840279I252259J-431696D01*
G01*
X157989999Y-163057158D02*
G75*
G02*
X158039484Y-162840281I500351J-82D01*
G01*
X158039484Y-164679721D02*
G75*
G02*
X157336711Y-165328300I-450514J-216879D01*
G01*
X158039484Y-164679721D02*
G75*
G02*
X157989987Y-164462843I451016J217021D01*
G01*
%TO.C,LED65*%
X335565001Y-182107159D02*
X335565001Y-183512843D01*
X336470547Y-184310000D02*
X338059452Y-184310000D01*
X338059452Y-181310001D02*
X336470548Y-181310001D01*
X338964999Y-183512843D02*
X338964999Y-182107159D01*
X335515516Y-181890281D02*
G75*
G02*
X335565001Y-182107159I-450505J-216876D01*
G01*
X335515516Y-181890282D02*
G75*
G02*
X336218289Y-181241702I450514J216880D01*
G01*
X335565001Y-183512844D02*
G75*
G02*
X335515516Y-183729721I-499990J-1D01*
G01*
X336218289Y-184378299D02*
G75*
G02*
X335515517Y-183729721I-252258J431700D01*
G01*
X336218289Y-184378299D02*
G75*
G02*
X336470547Y-184310000I252261J-431710D01*
G01*
X336470548Y-181310001D02*
G75*
G02*
X336218289Y-181241702I2J500009D01*
G01*
X338059453Y-184310001D02*
G75*
G02*
X338311711Y-184378300I-3J-500009D01*
G01*
X338311710Y-181241702D02*
G75*
G02*
X338059452Y-181310000I-252260J431712D01*
G01*
X338311711Y-181241704D02*
G75*
G02*
X339014480Y-181890279I252259J-431696D01*
G01*
X338964999Y-182107158D02*
G75*
G02*
X339014484Y-181890281I500351J-82D01*
G01*
X339014484Y-183729721D02*
G75*
G02*
X338311711Y-184378300I-450514J-216879D01*
G01*
X339014484Y-183729721D02*
G75*
G02*
X338964987Y-183512843I451016J217021D01*
G01*
%TO.C,LED48*%
X426052501Y-163057159D02*
X426052501Y-164462843D01*
X426958047Y-165260000D02*
X428546952Y-165260000D01*
X428546952Y-162260001D02*
X426958048Y-162260001D01*
X429452499Y-164462843D02*
X429452499Y-163057159D01*
X426003016Y-162840281D02*
G75*
G02*
X426052501Y-163057159I-450505J-216876D01*
G01*
X426003016Y-162840282D02*
G75*
G02*
X426705789Y-162191702I450514J216880D01*
G01*
X426052501Y-164462844D02*
G75*
G02*
X426003016Y-164679721I-499990J-1D01*
G01*
X426705789Y-165328299D02*
G75*
G02*
X426003017Y-164679721I-252258J431700D01*
G01*
X426705789Y-165328299D02*
G75*
G02*
X426958047Y-165260000I252261J-431710D01*
G01*
X426958048Y-162260001D02*
G75*
G02*
X426705789Y-162191702I2J500009D01*
G01*
X428546953Y-165260001D02*
G75*
G02*
X428799211Y-165328300I-3J-500009D01*
G01*
X428799210Y-162191702D02*
G75*
G02*
X428546952Y-162260000I-252260J431712D01*
G01*
X428799211Y-162191704D02*
G75*
G02*
X429501980Y-162840279I252259J-431696D01*
G01*
X429452499Y-163057158D02*
G75*
G02*
X429501984Y-162840281I500351J-82D01*
G01*
X429501984Y-164679721D02*
G75*
G02*
X428799211Y-165328300I-450514J-216879D01*
G01*
X429501984Y-164679721D02*
G75*
G02*
X429452487Y-164462843I451016J217021D01*
G01*
%TO.C,LED118*%
X426052501Y-239257159D02*
X426052501Y-240662843D01*
X426958047Y-241460000D02*
X428546952Y-241460000D01*
X428546952Y-238460001D02*
X426958048Y-238460001D01*
X429452499Y-240662843D02*
X429452499Y-239257159D01*
X426003016Y-239040281D02*
G75*
G02*
X426052501Y-239257159I-450505J-216876D01*
G01*
X426003016Y-239040282D02*
G75*
G02*
X426705789Y-238391702I450514J216880D01*
G01*
X426052501Y-240662844D02*
G75*
G02*
X426003016Y-240879721I-499990J-1D01*
G01*
X426705789Y-241528299D02*
G75*
G02*
X426003017Y-240879721I-252258J431700D01*
G01*
X426705789Y-241528299D02*
G75*
G02*
X426958047Y-241460000I252261J-431710D01*
G01*
X426958048Y-238460001D02*
G75*
G02*
X426705789Y-238391702I2J500009D01*
G01*
X428546953Y-241460001D02*
G75*
G02*
X428799211Y-241528300I-3J-500009D01*
G01*
X428799210Y-238391702D02*
G75*
G02*
X428546952Y-238460000I-252260J431712D01*
G01*
X428799211Y-238391704D02*
G75*
G02*
X429501980Y-239040279I252259J-431696D01*
G01*
X429452499Y-239257158D02*
G75*
G02*
X429501984Y-239040281I500351J-82D01*
G01*
X429501984Y-240879721D02*
G75*
G02*
X428799211Y-241528300I-450514J-216879D01*
G01*
X429501984Y-240879721D02*
G75*
G02*
X429452487Y-240662843I451016J217021D01*
G01*
%TO.C,LED3*%
X173640001Y-115432159D02*
X173640001Y-116837843D01*
X174545547Y-117635000D02*
X176134452Y-117635000D01*
X176134452Y-114635001D02*
X174545548Y-114635001D01*
X177039999Y-116837843D02*
X177039999Y-115432159D01*
X173590516Y-115215281D02*
G75*
G02*
X173640001Y-115432159I-450505J-216876D01*
G01*
X173590516Y-115215282D02*
G75*
G02*
X174293289Y-114566702I450514J216880D01*
G01*
X173640001Y-116837844D02*
G75*
G02*
X173590516Y-117054721I-499990J-1D01*
G01*
X174293289Y-117703299D02*
G75*
G02*
X173590517Y-117054721I-252258J431700D01*
G01*
X174293289Y-117703299D02*
G75*
G02*
X174545547Y-117635000I252261J-431710D01*
G01*
X174545548Y-114635001D02*
G75*
G02*
X174293289Y-114566702I2J500009D01*
G01*
X176134453Y-117635001D02*
G75*
G02*
X176386711Y-117703300I-3J-500009D01*
G01*
X176386710Y-114566702D02*
G75*
G02*
X176134452Y-114635000I-252260J431712D01*
G01*
X176386711Y-114566704D02*
G75*
G02*
X177089480Y-115215279I252259J-431696D01*
G01*
X177039999Y-115432158D02*
G75*
G02*
X177089484Y-115215281I500351J-82D01*
G01*
X177089484Y-117054721D02*
G75*
G02*
X176386711Y-117703300I-450514J-216879D01*
G01*
X177089484Y-117054721D02*
G75*
G02*
X177039987Y-116837843I451016J217021D01*
G01*
%TO.C,LED110*%
X147446251Y-239257159D02*
X147446251Y-240662843D01*
X148351797Y-241460000D02*
X149940702Y-241460000D01*
X149940702Y-238460001D02*
X148351798Y-238460001D01*
X150846249Y-240662843D02*
X150846249Y-239257159D01*
X147396766Y-239040281D02*
G75*
G02*
X147446251Y-239257159I-450505J-216876D01*
G01*
X147396766Y-239040282D02*
G75*
G02*
X148099539Y-238391702I450514J216880D01*
G01*
X147446251Y-240662844D02*
G75*
G02*
X147396766Y-240879721I-499990J-1D01*
G01*
X148099539Y-241528299D02*
G75*
G02*
X147396767Y-240879721I-252258J431700D01*
G01*
X148099539Y-241528299D02*
G75*
G02*
X148351797Y-241460000I252261J-431710D01*
G01*
X148351798Y-238460001D02*
G75*
G02*
X148099539Y-238391702I2J500009D01*
G01*
X149940703Y-241460001D02*
G75*
G02*
X150192961Y-241528300I-3J-500009D01*
G01*
X150192960Y-238391702D02*
G75*
G02*
X149940702Y-238460000I-252260J431712D01*
G01*
X150192961Y-238391704D02*
G75*
G02*
X150895730Y-239040279I252259J-431696D01*
G01*
X150846249Y-239257158D02*
G75*
G02*
X150895734Y-239040281I500351J-82D01*
G01*
X150895734Y-240879721D02*
G75*
G02*
X150192961Y-241528300I-450514J-216879D01*
G01*
X150895734Y-240879721D02*
G75*
G02*
X150846237Y-240662843I451016J217021D01*
G01*
%TO.C,LED22*%
X240315001Y-134482159D02*
X240315001Y-135887843D01*
X241220547Y-136685000D02*
X242809452Y-136685000D01*
X242809452Y-133685001D02*
X241220548Y-133685001D01*
X243714999Y-135887843D02*
X243714999Y-134482159D01*
X240265516Y-134265281D02*
G75*
G02*
X240315001Y-134482159I-450505J-216876D01*
G01*
X240265516Y-134265282D02*
G75*
G02*
X240968289Y-133616702I450514J216880D01*
G01*
X240315001Y-135887844D02*
G75*
G02*
X240265516Y-136104721I-499990J-1D01*
G01*
X240968289Y-136753299D02*
G75*
G02*
X240265517Y-136104721I-252258J431700D01*
G01*
X240968289Y-136753299D02*
G75*
G02*
X241220547Y-136685000I252261J-431710D01*
G01*
X241220548Y-133685001D02*
G75*
G02*
X240968289Y-133616702I2J500009D01*
G01*
X242809453Y-136685001D02*
G75*
G02*
X243061711Y-136753300I-3J-500009D01*
G01*
X243061710Y-133616702D02*
G75*
G02*
X242809452Y-133685000I-252260J431712D01*
G01*
X243061711Y-133616704D02*
G75*
G02*
X243764480Y-134265279I252259J-431696D01*
G01*
X243714999Y-134482158D02*
G75*
G02*
X243764484Y-134265281I500351J-82D01*
G01*
X243764484Y-136104721D02*
G75*
G02*
X243061711Y-136753300I-450514J-216879D01*
G01*
X243764484Y-136104721D02*
G75*
G02*
X243714987Y-135887843I451016J217021D01*
G01*
%TO.C,LED90*%
X99821251Y-220207159D02*
X99821251Y-221612843D01*
X100726797Y-222410000D02*
X102315702Y-222410000D01*
X102315702Y-219410001D02*
X100726798Y-219410001D01*
X103221249Y-221612843D02*
X103221249Y-220207159D01*
X99771766Y-219990281D02*
G75*
G02*
X99821251Y-220207159I-450505J-216876D01*
G01*
X99771766Y-219990282D02*
G75*
G02*
X100474539Y-219341702I450514J216880D01*
G01*
X99821251Y-221612844D02*
G75*
G02*
X99771766Y-221829721I-499990J-1D01*
G01*
X100474539Y-222478299D02*
G75*
G02*
X99771767Y-221829721I-252258J431700D01*
G01*
X100474539Y-222478299D02*
G75*
G02*
X100726797Y-222410000I252261J-431710D01*
G01*
X100726798Y-219410001D02*
G75*
G02*
X100474539Y-219341702I2J500009D01*
G01*
X102315703Y-222410001D02*
G75*
G02*
X102567961Y-222478300I-3J-500009D01*
G01*
X102567960Y-219341702D02*
G75*
G02*
X102315702Y-219410000I-252260J431712D01*
G01*
X102567961Y-219341704D02*
G75*
G02*
X103270730Y-219990279I252259J-431696D01*
G01*
X103221249Y-220207158D02*
G75*
G02*
X103270734Y-219990281I500351J-82D01*
G01*
X103270734Y-221829721D02*
G75*
G02*
X102567961Y-222478300I-450514J-216879D01*
G01*
X103270734Y-221829721D02*
G75*
G02*
X103221237Y-221612843I451016J217021D01*
G01*
%TO.C,LED13*%
X387952501Y-115432159D02*
X387952501Y-116837843D01*
X388858047Y-117635000D02*
X390446952Y-117635000D01*
X390446952Y-114635001D02*
X388858048Y-114635001D01*
X391352499Y-116837843D02*
X391352499Y-115432159D01*
X387903016Y-115215281D02*
G75*
G02*
X387952501Y-115432159I-450505J-216876D01*
G01*
X387903016Y-115215282D02*
G75*
G02*
X388605789Y-114566702I450514J216880D01*
G01*
X387952501Y-116837844D02*
G75*
G02*
X387903016Y-117054721I-499990J-1D01*
G01*
X388605789Y-117703299D02*
G75*
G02*
X387903017Y-117054721I-252258J431700D01*
G01*
X388605789Y-117703299D02*
G75*
G02*
X388858047Y-117635000I252261J-431710D01*
G01*
X388858048Y-114635001D02*
G75*
G02*
X388605789Y-114566702I2J500009D01*
G01*
X390446953Y-117635001D02*
G75*
G02*
X390699211Y-117703300I-3J-500009D01*
G01*
X390699210Y-114566702D02*
G75*
G02*
X390446952Y-114635000I-252260J431712D01*
G01*
X390699211Y-114566704D02*
G75*
G02*
X391401980Y-115215279I252259J-431696D01*
G01*
X391352499Y-115432158D02*
G75*
G02*
X391401984Y-115215281I500351J-82D01*
G01*
X391401984Y-117054721D02*
G75*
G02*
X390699211Y-117703300I-450514J-216879D01*
G01*
X391401984Y-117054721D02*
G75*
G02*
X391352487Y-116837843I451016J217021D01*
G01*
%TO.C,LED114*%
X337946251Y-239257159D02*
X337946251Y-240662843D01*
X338851797Y-241460000D02*
X340440702Y-241460000D01*
X340440702Y-238460001D02*
X338851798Y-238460001D01*
X341346249Y-240662843D02*
X341346249Y-239257159D01*
X337896766Y-239040281D02*
G75*
G02*
X337946251Y-239257159I-450505J-216876D01*
G01*
X337896766Y-239040282D02*
G75*
G02*
X338599539Y-238391702I450514J216880D01*
G01*
X337946251Y-240662844D02*
G75*
G02*
X337896766Y-240879721I-499990J-1D01*
G01*
X338599539Y-241528299D02*
G75*
G02*
X337896767Y-240879721I-252258J431700D01*
G01*
X338599539Y-241528299D02*
G75*
G02*
X338851797Y-241460000I252261J-431710D01*
G01*
X338851798Y-238460001D02*
G75*
G02*
X338599539Y-238391702I2J500009D01*
G01*
X340440703Y-241460001D02*
G75*
G02*
X340692961Y-241528300I-3J-500009D01*
G01*
X340692960Y-238391702D02*
G75*
G02*
X340440702Y-238460000I-252260J431712D01*
G01*
X340692961Y-238391704D02*
G75*
G02*
X341395730Y-239040279I252259J-431696D01*
G01*
X341346249Y-239257158D02*
G75*
G02*
X341395734Y-239040281I500351J-82D01*
G01*
X341395734Y-240879721D02*
G75*
G02*
X340692961Y-241528300I-450514J-216879D01*
G01*
X341395734Y-240879721D02*
G75*
G02*
X341346237Y-240662843I451016J217021D01*
G01*
%TO.C,LED58*%
X202215001Y-182107159D02*
X202215001Y-183512843D01*
X203120547Y-184310000D02*
X204709452Y-184310000D01*
X204709452Y-181310001D02*
X203120548Y-181310001D01*
X205614999Y-183512843D02*
X205614999Y-182107159D01*
X202165516Y-181890281D02*
G75*
G02*
X202215001Y-182107159I-450505J-216876D01*
G01*
X202165516Y-181890282D02*
G75*
G02*
X202868289Y-181241702I450514J216880D01*
G01*
X202215001Y-183512844D02*
G75*
G02*
X202165516Y-183729721I-499990J-1D01*
G01*
X202868289Y-184378299D02*
G75*
G02*
X202165517Y-183729721I-252258J431700D01*
G01*
X202868289Y-184378299D02*
G75*
G02*
X203120547Y-184310000I252261J-431710D01*
G01*
X203120548Y-181310001D02*
G75*
G02*
X202868289Y-181241702I2J500009D01*
G01*
X204709453Y-184310001D02*
G75*
G02*
X204961711Y-184378300I-3J-500009D01*
G01*
X204961710Y-181241702D02*
G75*
G02*
X204709452Y-181310000I-252260J431712D01*
G01*
X204961711Y-181241704D02*
G75*
G02*
X205664480Y-181890279I252259J-431696D01*
G01*
X205614999Y-182107158D02*
G75*
G02*
X205664484Y-181890281I500351J-82D01*
G01*
X205664484Y-183729721D02*
G75*
G02*
X204961711Y-184378300I-450514J-216879D01*
G01*
X205664484Y-183729721D02*
G75*
G02*
X205614987Y-183512843I451016J217021D01*
G01*
%TO.C,LED75*%
X130777501Y-201157159D02*
X130777501Y-202562843D01*
X131683047Y-203360000D02*
X133271952Y-203360000D01*
X133271952Y-200360001D02*
X131683048Y-200360001D01*
X134177499Y-202562843D02*
X134177499Y-201157159D01*
X130728016Y-200940281D02*
G75*
G02*
X130777501Y-201157159I-450505J-216876D01*
G01*
X130728016Y-200940282D02*
G75*
G02*
X131430789Y-200291702I450514J216880D01*
G01*
X130777501Y-202562844D02*
G75*
G02*
X130728016Y-202779721I-499990J-1D01*
G01*
X131430789Y-203428299D02*
G75*
G02*
X130728017Y-202779721I-252258J431700D01*
G01*
X131430789Y-203428299D02*
G75*
G02*
X131683047Y-203360000I252261J-431710D01*
G01*
X131683048Y-200360001D02*
G75*
G02*
X131430789Y-200291702I2J500009D01*
G01*
X133271953Y-203360001D02*
G75*
G02*
X133524211Y-203428300I-3J-500009D01*
G01*
X133524210Y-200291702D02*
G75*
G02*
X133271952Y-200360000I-252260J431712D01*
G01*
X133524211Y-200291704D02*
G75*
G02*
X134226980Y-200940279I252259J-431696D01*
G01*
X134177499Y-201157158D02*
G75*
G02*
X134226984Y-200940281I500351J-82D01*
G01*
X134226984Y-202779721D02*
G75*
G02*
X133524211Y-203428300I-450514J-216879D01*
G01*
X134226984Y-202779721D02*
G75*
G02*
X134177487Y-202562843I451016J217021D01*
G01*
%TO.C,LED78*%
X187927501Y-201157159D02*
X187927501Y-202562843D01*
X188833047Y-203360000D02*
X190421952Y-203360000D01*
X190421952Y-200360001D02*
X188833048Y-200360001D01*
X191327499Y-202562843D02*
X191327499Y-201157159D01*
X187878016Y-200940281D02*
G75*
G02*
X187927501Y-201157159I-450505J-216876D01*
G01*
X187878016Y-200940282D02*
G75*
G02*
X188580789Y-200291702I450514J216880D01*
G01*
X187927501Y-202562844D02*
G75*
G02*
X187878016Y-202779721I-499990J-1D01*
G01*
X188580789Y-203428299D02*
G75*
G02*
X187878017Y-202779721I-252258J431700D01*
G01*
X188580789Y-203428299D02*
G75*
G02*
X188833047Y-203360000I252261J-431710D01*
G01*
X188833048Y-200360001D02*
G75*
G02*
X188580789Y-200291702I2J500009D01*
G01*
X190421953Y-203360001D02*
G75*
G02*
X190674211Y-203428300I-3J-500009D01*
G01*
X190674210Y-200291702D02*
G75*
G02*
X190421952Y-200360000I-252260J431712D01*
G01*
X190674211Y-200291704D02*
G75*
G02*
X191376980Y-200940279I252259J-431696D01*
G01*
X191327499Y-201157158D02*
G75*
G02*
X191376984Y-200940281I500351J-82D01*
G01*
X191376984Y-202779721D02*
G75*
G02*
X190674211Y-203428300I-450514J-216879D01*
G01*
X191376984Y-202779721D02*
G75*
G02*
X191327487Y-202562843I451016J217021D01*
G01*
%TO.C,LED93*%
X159352501Y-220207159D02*
X159352501Y-221612843D01*
X160258047Y-222410000D02*
X161846952Y-222410000D01*
X161846952Y-219410001D02*
X160258048Y-219410001D01*
X162752499Y-221612843D02*
X162752499Y-220207159D01*
X159303016Y-219990281D02*
G75*
G02*
X159352501Y-220207159I-450505J-216876D01*
G01*
X159303016Y-219990282D02*
G75*
G02*
X160005789Y-219341702I450514J216880D01*
G01*
X159352501Y-221612844D02*
G75*
G02*
X159303016Y-221829721I-499990J-1D01*
G01*
X160005789Y-222478299D02*
G75*
G02*
X159303017Y-221829721I-252258J431700D01*
G01*
X160005789Y-222478299D02*
G75*
G02*
X160258047Y-222410000I252261J-431710D01*
G01*
X160258048Y-219410001D02*
G75*
G02*
X160005789Y-219341702I2J500009D01*
G01*
X161846953Y-222410001D02*
G75*
G02*
X162099211Y-222478300I-3J-500009D01*
G01*
X162099210Y-219341702D02*
G75*
G02*
X161846952Y-219410000I-252260J431712D01*
G01*
X162099211Y-219341704D02*
G75*
G02*
X162801980Y-219990279I252259J-431696D01*
G01*
X162752499Y-220207158D02*
G75*
G02*
X162801984Y-219990281I500351J-82D01*
G01*
X162801984Y-221829721D02*
G75*
G02*
X162099211Y-222478300I-450514J-216879D01*
G01*
X162801984Y-221829721D02*
G75*
G02*
X162752487Y-221612843I451016J217021D01*
G01*
%TO.C,LED17*%
X135540001Y-134482159D02*
X135540001Y-135887843D01*
X136445547Y-136685000D02*
X138034452Y-136685000D01*
X138034452Y-133685001D02*
X136445548Y-133685001D01*
X138939999Y-135887843D02*
X138939999Y-134482159D01*
X135490516Y-134265281D02*
G75*
G02*
X135540001Y-134482159I-450505J-216876D01*
G01*
X135490516Y-134265282D02*
G75*
G02*
X136193289Y-133616702I450514J216880D01*
G01*
X135540001Y-135887844D02*
G75*
G02*
X135490516Y-136104721I-499990J-1D01*
G01*
X136193289Y-136753299D02*
G75*
G02*
X135490517Y-136104721I-252258J431700D01*
G01*
X136193289Y-136753299D02*
G75*
G02*
X136445547Y-136685000I252261J-431710D01*
G01*
X136445548Y-133685001D02*
G75*
G02*
X136193289Y-133616702I2J500009D01*
G01*
X138034453Y-136685001D02*
G75*
G02*
X138286711Y-136753300I-3J-500009D01*
G01*
X138286710Y-133616702D02*
G75*
G02*
X138034452Y-133685000I-252260J431712D01*
G01*
X138286711Y-133616704D02*
G75*
G02*
X138989480Y-134265279I252259J-431696D01*
G01*
X138939999Y-134482158D02*
G75*
G02*
X138989484Y-134265281I500351J-82D01*
G01*
X138989484Y-136104721D02*
G75*
G02*
X138286711Y-136753300I-450514J-216879D01*
G01*
X138989484Y-136104721D02*
G75*
G02*
X138939987Y-135887843I451016J217021D01*
G01*
%TO.C,LED54*%
X126015001Y-182107159D02*
X126015001Y-183512843D01*
X126920547Y-184310000D02*
X128509452Y-184310000D01*
X128509452Y-181310001D02*
X126920548Y-181310001D01*
X129414999Y-183512843D02*
X129414999Y-182107159D01*
X125965516Y-181890281D02*
G75*
G02*
X126015001Y-182107159I-450505J-216876D01*
G01*
X125965516Y-181890282D02*
G75*
G02*
X126668289Y-181241702I450514J216880D01*
G01*
X126015001Y-183512844D02*
G75*
G02*
X125965516Y-183729721I-499990J-1D01*
G01*
X126668289Y-184378299D02*
G75*
G02*
X125965517Y-183729721I-252258J431700D01*
G01*
X126668289Y-184378299D02*
G75*
G02*
X126920547Y-184310000I252261J-431710D01*
G01*
X126920548Y-181310001D02*
G75*
G02*
X126668289Y-181241702I2J500009D01*
G01*
X128509453Y-184310001D02*
G75*
G02*
X128761711Y-184378300I-3J-500009D01*
G01*
X128761710Y-181241702D02*
G75*
G02*
X128509452Y-181310000I-252260J431712D01*
G01*
X128761711Y-181241704D02*
G75*
G02*
X129464480Y-181890279I252259J-431696D01*
G01*
X129414999Y-182107158D02*
G75*
G02*
X129464484Y-181890281I500351J-82D01*
G01*
X129464484Y-183729721D02*
G75*
G02*
X128761711Y-184378300I-450514J-216879D01*
G01*
X129464484Y-183729721D02*
G75*
G02*
X129414987Y-183512843I451016J217021D01*
G01*
%TO.C,LED6*%
X240315001Y-115432159D02*
X240315001Y-116837843D01*
X241220547Y-117635000D02*
X242809452Y-117635000D01*
X242809452Y-114635001D02*
X241220548Y-114635001D01*
X243714999Y-116837843D02*
X243714999Y-115432159D01*
X240265516Y-115215281D02*
G75*
G02*
X240315001Y-115432159I-450505J-216876D01*
G01*
X240265516Y-115215282D02*
G75*
G02*
X240968289Y-114566702I450514J216880D01*
G01*
X240315001Y-116837844D02*
G75*
G02*
X240265516Y-117054721I-499990J-1D01*
G01*
X240968289Y-117703299D02*
G75*
G02*
X240265517Y-117054721I-252258J431700D01*
G01*
X240968289Y-117703299D02*
G75*
G02*
X241220547Y-117635000I252261J-431710D01*
G01*
X241220548Y-114635001D02*
G75*
G02*
X240968289Y-114566702I2J500009D01*
G01*
X242809453Y-117635001D02*
G75*
G02*
X243061711Y-117703300I-3J-500009D01*
G01*
X243061710Y-114566702D02*
G75*
G02*
X242809452Y-114635000I-252260J431712D01*
G01*
X243061711Y-114566704D02*
G75*
G02*
X243764480Y-115215279I252259J-431696D01*
G01*
X243714999Y-115432158D02*
G75*
G02*
X243764484Y-115215281I500351J-82D01*
G01*
X243764484Y-117054721D02*
G75*
G02*
X243061711Y-117703300I-450514J-216879D01*
G01*
X243764484Y-117054721D02*
G75*
G02*
X243714987Y-116837843I451016J217021D01*
G01*
%TO.C,LED74*%
X104583751Y-201157159D02*
X104583751Y-202562843D01*
X105489297Y-203360000D02*
X107078202Y-203360000D01*
X107078202Y-200360001D02*
X105489298Y-200360001D01*
X107983749Y-202562843D02*
X107983749Y-201157159D01*
X104534266Y-200940281D02*
G75*
G02*
X104583751Y-201157159I-450505J-216876D01*
G01*
X104534266Y-200940282D02*
G75*
G02*
X105237039Y-200291702I450514J216880D01*
G01*
X104583751Y-202562844D02*
G75*
G02*
X104534266Y-202779721I-499990J-1D01*
G01*
X105237039Y-203428299D02*
G75*
G02*
X104534267Y-202779721I-252258J431700D01*
G01*
X105237039Y-203428299D02*
G75*
G02*
X105489297Y-203360000I252261J-431710D01*
G01*
X105489298Y-200360001D02*
G75*
G02*
X105237039Y-200291702I2J500009D01*
G01*
X107078203Y-203360001D02*
G75*
G02*
X107330461Y-203428300I-3J-500009D01*
G01*
X107330460Y-200291702D02*
G75*
G02*
X107078202Y-200360000I-252260J431712D01*
G01*
X107330461Y-200291704D02*
G75*
G02*
X108033230Y-200940279I252259J-431696D01*
G01*
X107983749Y-201157158D02*
G75*
G02*
X108033234Y-200940281I500351J-82D01*
G01*
X108033234Y-202779721D02*
G75*
G02*
X107330461Y-203428300I-450514J-216879D01*
G01*
X108033234Y-202779721D02*
G75*
G02*
X107983737Y-202562843I451016J217021D01*
G01*
%TO.C,LED102*%
X347471251Y-220207159D02*
X347471251Y-221612843D01*
X348376797Y-222410000D02*
X349965702Y-222410000D01*
X349965702Y-219410001D02*
X348376798Y-219410001D01*
X350871249Y-221612843D02*
X350871249Y-220207159D01*
X347421766Y-219990281D02*
G75*
G02*
X347471251Y-220207159I-450505J-216876D01*
G01*
X347421766Y-219990282D02*
G75*
G02*
X348124539Y-219341702I450514J216880D01*
G01*
X347471251Y-221612844D02*
G75*
G02*
X347421766Y-221829721I-499990J-1D01*
G01*
X348124539Y-222478299D02*
G75*
G02*
X347421767Y-221829721I-252258J431700D01*
G01*
X348124539Y-222478299D02*
G75*
G02*
X348376797Y-222410000I252261J-431710D01*
G01*
X348376798Y-219410001D02*
G75*
G02*
X348124539Y-219341702I2J500009D01*
G01*
X349965703Y-222410001D02*
G75*
G02*
X350217961Y-222478300I-3J-500009D01*
G01*
X350217960Y-219341702D02*
G75*
G02*
X349965702Y-219410000I-252260J431712D01*
G01*
X350217961Y-219341704D02*
G75*
G02*
X350920730Y-219990279I252259J-431696D01*
G01*
X350871249Y-220207158D02*
G75*
G02*
X350920734Y-219990281I500351J-82D01*
G01*
X350920734Y-221829721D02*
G75*
G02*
X350217961Y-222478300I-450514J-216879D01*
G01*
X350920734Y-221829721D02*
G75*
G02*
X350871237Y-221612843I451016J217021D01*
G01*
%TO.C,LED2*%
X154590001Y-115432159D02*
X154590001Y-116837843D01*
X155495547Y-117635000D02*
X157084452Y-117635000D01*
X157084452Y-114635001D02*
X155495548Y-114635001D01*
X157989999Y-116837843D02*
X157989999Y-115432159D01*
X154540516Y-115215281D02*
G75*
G02*
X154590001Y-115432159I-450505J-216876D01*
G01*
X154540516Y-115215282D02*
G75*
G02*
X155243289Y-114566702I450514J216880D01*
G01*
X154590001Y-116837844D02*
G75*
G02*
X154540516Y-117054721I-499990J-1D01*
G01*
X155243289Y-117703299D02*
G75*
G02*
X154540517Y-117054721I-252258J431700D01*
G01*
X155243289Y-117703299D02*
G75*
G02*
X155495547Y-117635000I252261J-431710D01*
G01*
X155495548Y-114635001D02*
G75*
G02*
X155243289Y-114566702I2J500009D01*
G01*
X157084453Y-117635001D02*
G75*
G02*
X157336711Y-117703300I-3J-500009D01*
G01*
X157336710Y-114566702D02*
G75*
G02*
X157084452Y-114635000I-252260J431712D01*
G01*
X157336711Y-114566704D02*
G75*
G02*
X158039480Y-115215279I252259J-431696D01*
G01*
X157989999Y-115432158D02*
G75*
G02*
X158039484Y-115215281I500351J-82D01*
G01*
X158039484Y-117054721D02*
G75*
G02*
X157336711Y-117703300I-450514J-216879D01*
G01*
X158039484Y-117054721D02*
G75*
G02*
X157989987Y-116837843I451016J217021D01*
G01*
%TO.C,LED101*%
X311752501Y-220207159D02*
X311752501Y-221612843D01*
X312658047Y-222410000D02*
X314246952Y-222410000D01*
X314246952Y-219410001D02*
X312658048Y-219410001D01*
X315152499Y-221612843D02*
X315152499Y-220207159D01*
X311703016Y-219990281D02*
G75*
G02*
X311752501Y-220207159I-450505J-216876D01*
G01*
X311703016Y-219990282D02*
G75*
G02*
X312405789Y-219341702I450514J216880D01*
G01*
X311752501Y-221612844D02*
G75*
G02*
X311703016Y-221829721I-499990J-1D01*
G01*
X312405789Y-222478299D02*
G75*
G02*
X311703017Y-221829721I-252258J431700D01*
G01*
X312405789Y-222478299D02*
G75*
G02*
X312658047Y-222410000I252261J-431710D01*
G01*
X312658048Y-219410001D02*
G75*
G02*
X312405789Y-219341702I2J500009D01*
G01*
X314246953Y-222410001D02*
G75*
G02*
X314499211Y-222478300I-3J-500009D01*
G01*
X314499210Y-219341702D02*
G75*
G02*
X314246952Y-219410000I-252260J431712D01*
G01*
X314499211Y-219341704D02*
G75*
G02*
X315201980Y-219990279I252259J-431696D01*
G01*
X315152499Y-220207158D02*
G75*
G02*
X315201984Y-219990281I500351J-82D01*
G01*
X315201984Y-221829721D02*
G75*
G02*
X314499211Y-222478300I-450514J-216879D01*
G01*
X315201984Y-221829721D02*
G75*
G02*
X315152487Y-221612843I451016J217021D01*
G01*
%TO.C,LED41*%
X268890001Y-163057159D02*
X268890001Y-164462843D01*
X269795547Y-165260000D02*
X271384452Y-165260000D01*
X271384452Y-162260001D02*
X269795548Y-162260001D01*
X272289999Y-164462843D02*
X272289999Y-163057159D01*
X268840516Y-162840281D02*
G75*
G02*
X268890001Y-163057159I-450505J-216876D01*
G01*
X268840516Y-162840282D02*
G75*
G02*
X269543289Y-162191702I450514J216880D01*
G01*
X268890001Y-164462844D02*
G75*
G02*
X268840516Y-164679721I-499990J-1D01*
G01*
X269543289Y-165328299D02*
G75*
G02*
X268840517Y-164679721I-252258J431700D01*
G01*
X269543289Y-165328299D02*
G75*
G02*
X269795547Y-165260000I252261J-431710D01*
G01*
X269795548Y-162260001D02*
G75*
G02*
X269543289Y-162191702I2J500009D01*
G01*
X271384453Y-165260001D02*
G75*
G02*
X271636711Y-165328300I-3J-500009D01*
G01*
X271636710Y-162191702D02*
G75*
G02*
X271384452Y-162260000I-252260J431712D01*
G01*
X271636711Y-162191704D02*
G75*
G02*
X272339480Y-162840279I252259J-431696D01*
G01*
X272289999Y-163057158D02*
G75*
G02*
X272339484Y-162840281I500351J-82D01*
G01*
X272339484Y-164679721D02*
G75*
G02*
X271636711Y-165328300I-450514J-216879D01*
G01*
X272339484Y-164679721D02*
G75*
G02*
X272289987Y-164462843I451016J217021D01*
G01*
%TO.C,LED79*%
X206977501Y-201157159D02*
X206977501Y-202562843D01*
X207883047Y-203360000D02*
X209471952Y-203360000D01*
X209471952Y-200360001D02*
X207883048Y-200360001D01*
X210377499Y-202562843D02*
X210377499Y-201157159D01*
X206928016Y-200940281D02*
G75*
G02*
X206977501Y-201157159I-450505J-216876D01*
G01*
X206928016Y-200940282D02*
G75*
G02*
X207630789Y-200291702I450514J216880D01*
G01*
X206977501Y-202562844D02*
G75*
G02*
X206928016Y-202779721I-499990J-1D01*
G01*
X207630789Y-203428299D02*
G75*
G02*
X206928017Y-202779721I-252258J431700D01*
G01*
X207630789Y-203428299D02*
G75*
G02*
X207883047Y-203360000I252261J-431710D01*
G01*
X207883048Y-200360001D02*
G75*
G02*
X207630789Y-200291702I2J500009D01*
G01*
X209471953Y-203360001D02*
G75*
G02*
X209724211Y-203428300I-3J-500009D01*
G01*
X209724210Y-200291702D02*
G75*
G02*
X209471952Y-200360000I-252260J431712D01*
G01*
X209724211Y-200291704D02*
G75*
G02*
X210426980Y-200940279I252259J-431696D01*
G01*
X210377499Y-201157158D02*
G75*
G02*
X210426984Y-200940281I500351J-82D01*
G01*
X210426984Y-202779721D02*
G75*
G02*
X209724211Y-203428300I-450514J-216879D01*
G01*
X210426984Y-202779721D02*
G75*
G02*
X210377487Y-202562843I451016J217021D01*
G01*
%TO.C,LED8*%
X278415001Y-115432159D02*
X278415001Y-116837843D01*
X279320547Y-117635000D02*
X280909452Y-117635000D01*
X280909452Y-114635001D02*
X279320548Y-114635001D01*
X281814999Y-116837843D02*
X281814999Y-115432159D01*
X278365516Y-115215281D02*
G75*
G02*
X278415001Y-115432159I-450505J-216876D01*
G01*
X278365516Y-115215282D02*
G75*
G02*
X279068289Y-114566702I450514J216880D01*
G01*
X278415001Y-116837844D02*
G75*
G02*
X278365516Y-117054721I-499990J-1D01*
G01*
X279068289Y-117703299D02*
G75*
G02*
X278365517Y-117054721I-252258J431700D01*
G01*
X279068289Y-117703299D02*
G75*
G02*
X279320547Y-117635000I252261J-431710D01*
G01*
X279320548Y-114635001D02*
G75*
G02*
X279068289Y-114566702I2J500009D01*
G01*
X280909453Y-117635001D02*
G75*
G02*
X281161711Y-117703300I-3J-500009D01*
G01*
X281161710Y-114566702D02*
G75*
G02*
X280909452Y-114635000I-252260J431712D01*
G01*
X281161711Y-114566704D02*
G75*
G02*
X281864480Y-115215279I252259J-431696D01*
G01*
X281814999Y-115432158D02*
G75*
G02*
X281864484Y-115215281I500351J-82D01*
G01*
X281864484Y-117054721D02*
G75*
G02*
X281161711Y-117703300I-450514J-216879D01*
G01*
X281864484Y-117054721D02*
G75*
G02*
X281814987Y-116837843I451016J217021D01*
G01*
%TO.C,LED52*%
X507015001Y-163057159D02*
X507015001Y-164462843D01*
X507920547Y-165260000D02*
X509509452Y-165260000D01*
X509509452Y-162260001D02*
X507920548Y-162260001D01*
X510414999Y-164462843D02*
X510414999Y-163057159D01*
X506965516Y-162840281D02*
G75*
G02*
X507015001Y-163057159I-450505J-216876D01*
G01*
X506965516Y-162840282D02*
G75*
G02*
X507668289Y-162191702I450514J216880D01*
G01*
X507015001Y-164462844D02*
G75*
G02*
X506965516Y-164679721I-499990J-1D01*
G01*
X507668289Y-165328299D02*
G75*
G02*
X506965517Y-164679721I-252258J431700D01*
G01*
X507668289Y-165328299D02*
G75*
G02*
X507920547Y-165260000I252261J-431710D01*
G01*
X507920548Y-162260001D02*
G75*
G02*
X507668289Y-162191702I2J500009D01*
G01*
X509509453Y-165260001D02*
G75*
G02*
X509761711Y-165328300I-3J-500009D01*
G01*
X509761710Y-162191702D02*
G75*
G02*
X509509452Y-162260000I-252260J431712D01*
G01*
X509761711Y-162191704D02*
G75*
G02*
X510464480Y-162840279I252259J-431696D01*
G01*
X510414999Y-163057158D02*
G75*
G02*
X510464484Y-162840281I500351J-82D01*
G01*
X510464484Y-164679721D02*
G75*
G02*
X509761711Y-165328300I-450514J-216879D01*
G01*
X510464484Y-164679721D02*
G75*
G02*
X510414987Y-164462843I451016J217021D01*
G01*
%TO.C,LED105*%
X468915001Y-220207159D02*
X468915001Y-221612843D01*
X469820547Y-222410000D02*
X471409452Y-222410000D01*
X471409452Y-219410001D02*
X469820548Y-219410001D01*
X472314999Y-221612843D02*
X472314999Y-220207159D01*
X468865516Y-219990281D02*
G75*
G02*
X468915001Y-220207159I-450505J-216876D01*
G01*
X468865516Y-219990282D02*
G75*
G02*
X469568289Y-219341702I450514J216880D01*
G01*
X468915001Y-221612844D02*
G75*
G02*
X468865516Y-221829721I-499990J-1D01*
G01*
X469568289Y-222478299D02*
G75*
G02*
X468865517Y-221829721I-252258J431700D01*
G01*
X469568289Y-222478299D02*
G75*
G02*
X469820547Y-222410000I252261J-431710D01*
G01*
X469820548Y-219410001D02*
G75*
G02*
X469568289Y-219341702I2J500009D01*
G01*
X471409453Y-222410001D02*
G75*
G02*
X471661711Y-222478300I-3J-500009D01*
G01*
X471661710Y-219341702D02*
G75*
G02*
X471409452Y-219410000I-252260J431712D01*
G01*
X471661711Y-219341704D02*
G75*
G02*
X472364480Y-219990279I252259J-431696D01*
G01*
X472314999Y-220207158D02*
G75*
G02*
X472364484Y-219990281I500351J-82D01*
G01*
X472364484Y-221829721D02*
G75*
G02*
X471661711Y-222478300I-450514J-216879D01*
G01*
X472364484Y-221829721D02*
G75*
G02*
X472314987Y-221612843I451016J217021D01*
G01*
%TO.C,LED55*%
X145065001Y-182107159D02*
X145065001Y-183512843D01*
X145970547Y-184310000D02*
X147559452Y-184310000D01*
X147559452Y-181310001D02*
X145970548Y-181310001D01*
X148464999Y-183512843D02*
X148464999Y-182107159D01*
X145015516Y-181890281D02*
G75*
G02*
X145065001Y-182107159I-450505J-216876D01*
G01*
X145015516Y-181890282D02*
G75*
G02*
X145718289Y-181241702I450514J216880D01*
G01*
X145065001Y-183512844D02*
G75*
G02*
X145015516Y-183729721I-499990J-1D01*
G01*
X145718289Y-184378299D02*
G75*
G02*
X145015517Y-183729721I-252258J431700D01*
G01*
X145718289Y-184378299D02*
G75*
G02*
X145970547Y-184310000I252261J-431710D01*
G01*
X145970548Y-181310001D02*
G75*
G02*
X145718289Y-181241702I2J500009D01*
G01*
X147559453Y-184310001D02*
G75*
G02*
X147811711Y-184378300I-3J-500009D01*
G01*
X147811710Y-181241702D02*
G75*
G02*
X147559452Y-181310000I-252260J431712D01*
G01*
X147811711Y-181241704D02*
G75*
G02*
X148514480Y-181890279I252259J-431696D01*
G01*
X148464999Y-182107158D02*
G75*
G02*
X148514484Y-181890281I500351J-82D01*
G01*
X148514484Y-183729721D02*
G75*
G02*
X147811711Y-184378300I-450514J-216879D01*
G01*
X148514484Y-183729721D02*
G75*
G02*
X148464987Y-183512843I451016J217021D01*
G01*
%TO.C,LED45*%
X354615001Y-163057159D02*
X354615001Y-164462843D01*
X355520547Y-165260000D02*
X357109452Y-165260000D01*
X357109452Y-162260001D02*
X355520548Y-162260001D01*
X358014999Y-164462843D02*
X358014999Y-163057159D01*
X354565516Y-162840281D02*
G75*
G02*
X354615001Y-163057159I-450505J-216876D01*
G01*
X354565516Y-162840282D02*
G75*
G02*
X355268289Y-162191702I450514J216880D01*
G01*
X354615001Y-164462844D02*
G75*
G02*
X354565516Y-164679721I-499990J-1D01*
G01*
X355268289Y-165328299D02*
G75*
G02*
X354565517Y-164679721I-252258J431700D01*
G01*
X355268289Y-165328299D02*
G75*
G02*
X355520547Y-165260000I252261J-431710D01*
G01*
X355520548Y-162260001D02*
G75*
G02*
X355268289Y-162191702I2J500009D01*
G01*
X357109453Y-165260001D02*
G75*
G02*
X357361711Y-165328300I-3J-500009D01*
G01*
X357361710Y-162191702D02*
G75*
G02*
X357109452Y-162260000I-252260J431712D01*
G01*
X357361711Y-162191704D02*
G75*
G02*
X358064480Y-162840279I252259J-431696D01*
G01*
X358014999Y-163057158D02*
G75*
G02*
X358064484Y-162840281I500351J-82D01*
G01*
X358064484Y-164679721D02*
G75*
G02*
X357361711Y-165328300I-450514J-216879D01*
G01*
X358064484Y-164679721D02*
G75*
G02*
X358014987Y-164462843I451016J217021D01*
G01*
%TO.C,LED100*%
X292702501Y-220207159D02*
X292702501Y-221612843D01*
X293608047Y-222410000D02*
X295196952Y-222410000D01*
X295196952Y-219410001D02*
X293608048Y-219410001D01*
X296102499Y-221612843D02*
X296102499Y-220207159D01*
X292653016Y-219990281D02*
G75*
G02*
X292702501Y-220207159I-450505J-216876D01*
G01*
X292653016Y-219990282D02*
G75*
G02*
X293355789Y-219341702I450514J216880D01*
G01*
X292702501Y-221612844D02*
G75*
G02*
X292653016Y-221829721I-499990J-1D01*
G01*
X293355789Y-222478299D02*
G75*
G02*
X292653017Y-221829721I-252258J431700D01*
G01*
X293355789Y-222478299D02*
G75*
G02*
X293608047Y-222410000I252261J-431710D01*
G01*
X293608048Y-219410001D02*
G75*
G02*
X293355789Y-219341702I2J500009D01*
G01*
X295196953Y-222410001D02*
G75*
G02*
X295449211Y-222478300I-3J-500009D01*
G01*
X295449210Y-219341702D02*
G75*
G02*
X295196952Y-219410000I-252260J431712D01*
G01*
X295449211Y-219341704D02*
G75*
G02*
X296151980Y-219990279I252259J-431696D01*
G01*
X296102499Y-220207158D02*
G75*
G02*
X296151984Y-219990281I500351J-82D01*
G01*
X296151984Y-221829721D02*
G75*
G02*
X295449211Y-222478300I-450514J-216879D01*
G01*
X296151984Y-221829721D02*
G75*
G02*
X296102487Y-221612843I451016J217021D01*
G01*
%TO.C,LED86*%
X340327501Y-201157159D02*
X340327501Y-202562843D01*
X341233047Y-203360000D02*
X342821952Y-203360000D01*
X342821952Y-200360001D02*
X341233048Y-200360001D01*
X343727499Y-202562843D02*
X343727499Y-201157159D01*
X340278016Y-200940281D02*
G75*
G02*
X340327501Y-201157159I-450505J-216876D01*
G01*
X340278016Y-200940282D02*
G75*
G02*
X340980789Y-200291702I450514J216880D01*
G01*
X340327501Y-202562844D02*
G75*
G02*
X340278016Y-202779721I-499990J-1D01*
G01*
X340980789Y-203428299D02*
G75*
G02*
X340278017Y-202779721I-252258J431700D01*
G01*
X340980789Y-203428299D02*
G75*
G02*
X341233047Y-203360000I252261J-431710D01*
G01*
X341233048Y-200360001D02*
G75*
G02*
X340980789Y-200291702I2J500009D01*
G01*
X342821953Y-203360001D02*
G75*
G02*
X343074211Y-203428300I-3J-500009D01*
G01*
X343074210Y-200291702D02*
G75*
G02*
X342821952Y-200360000I-252260J431712D01*
G01*
X343074211Y-200291704D02*
G75*
G02*
X343776980Y-200940279I252259J-431696D01*
G01*
X343727499Y-201157158D02*
G75*
G02*
X343776984Y-200940281I500351J-82D01*
G01*
X343776984Y-202779721D02*
G75*
G02*
X343074211Y-203428300I-450514J-216879D01*
G01*
X343776984Y-202779721D02*
G75*
G02*
X343727487Y-202562843I451016J217021D01*
G01*
%TO.C,LED88*%
X468915001Y-201157159D02*
X468915001Y-202562843D01*
X469820547Y-203360000D02*
X471409452Y-203360000D01*
X471409452Y-200360001D02*
X469820548Y-200360001D01*
X472314999Y-202562843D02*
X472314999Y-201157159D01*
X468865516Y-200940281D02*
G75*
G02*
X468915001Y-201157159I-450505J-216876D01*
G01*
X468865516Y-200940282D02*
G75*
G02*
X469568289Y-200291702I450514J216880D01*
G01*
X468915001Y-202562844D02*
G75*
G02*
X468865516Y-202779721I-499990J-1D01*
G01*
X469568289Y-203428299D02*
G75*
G02*
X468865517Y-202779721I-252258J431700D01*
G01*
X469568289Y-203428299D02*
G75*
G02*
X469820547Y-203360000I252261J-431710D01*
G01*
X469820548Y-200360001D02*
G75*
G02*
X469568289Y-200291702I2J500009D01*
G01*
X471409453Y-203360001D02*
G75*
G02*
X471661711Y-203428300I-3J-500009D01*
G01*
X471661710Y-200291702D02*
G75*
G02*
X471409452Y-200360000I-252260J431712D01*
G01*
X471661711Y-200291704D02*
G75*
G02*
X472364480Y-200940279I252259J-431696D01*
G01*
X472314999Y-201157158D02*
G75*
G02*
X472364484Y-200940281I500351J-82D01*
G01*
X472364484Y-202779721D02*
G75*
G02*
X471661711Y-203428300I-450514J-216879D01*
G01*
X472364484Y-202779721D02*
G75*
G02*
X472314987Y-202562843I451016J217021D01*
G01*
%TO.C,LED73*%
X507015001Y-191632159D02*
X507015001Y-193037843D01*
X507920547Y-193835000D02*
X509509452Y-193835000D01*
X509509452Y-190835001D02*
X507920548Y-190835001D01*
X510414999Y-193037843D02*
X510414999Y-191632159D01*
X506965516Y-191415281D02*
G75*
G02*
X507015001Y-191632159I-450505J-216876D01*
G01*
X506965516Y-191415282D02*
G75*
G02*
X507668289Y-190766702I450514J216880D01*
G01*
X507015001Y-193037844D02*
G75*
G02*
X506965516Y-193254721I-499990J-1D01*
G01*
X507668289Y-193903299D02*
G75*
G02*
X506965517Y-193254721I-252258J431700D01*
G01*
X507668289Y-193903299D02*
G75*
G02*
X507920547Y-193835000I252261J-431710D01*
G01*
X507920548Y-190835001D02*
G75*
G02*
X507668289Y-190766702I2J500009D01*
G01*
X509509453Y-193835001D02*
G75*
G02*
X509761711Y-193903300I-3J-500009D01*
G01*
X509761710Y-190766702D02*
G75*
G02*
X509509452Y-190835000I-252260J431712D01*
G01*
X509761711Y-190766704D02*
G75*
G02*
X510464480Y-191415279I252259J-431696D01*
G01*
X510414999Y-191632158D02*
G75*
G02*
X510464484Y-191415281I500351J-82D01*
G01*
X510464484Y-193254721D02*
G75*
G02*
X509761711Y-193903300I-450514J-216879D01*
G01*
X510464484Y-193254721D02*
G75*
G02*
X510414987Y-193037843I451016J217021D01*
G01*
%TO.C,LED81*%
X245077501Y-201157159D02*
X245077501Y-202562843D01*
X245983047Y-203360000D02*
X247571952Y-203360000D01*
X247571952Y-200360001D02*
X245983048Y-200360001D01*
X248477499Y-202562843D02*
X248477499Y-201157159D01*
X245028016Y-200940281D02*
G75*
G02*
X245077501Y-201157159I-450505J-216876D01*
G01*
X245028016Y-200940282D02*
G75*
G02*
X245730789Y-200291702I450514J216880D01*
G01*
X245077501Y-202562844D02*
G75*
G02*
X245028016Y-202779721I-499990J-1D01*
G01*
X245730789Y-203428299D02*
G75*
G02*
X245028017Y-202779721I-252258J431700D01*
G01*
X245730789Y-203428299D02*
G75*
G02*
X245983047Y-203360000I252261J-431710D01*
G01*
X245983048Y-200360001D02*
G75*
G02*
X245730789Y-200291702I2J500009D01*
G01*
X247571953Y-203360001D02*
G75*
G02*
X247824211Y-203428300I-3J-500009D01*
G01*
X247824210Y-200291702D02*
G75*
G02*
X247571952Y-200360000I-252260J431712D01*
G01*
X247824211Y-200291704D02*
G75*
G02*
X248526980Y-200940279I252259J-431696D01*
G01*
X248477499Y-201157158D02*
G75*
G02*
X248526984Y-200940281I500351J-82D01*
G01*
X248526984Y-202779721D02*
G75*
G02*
X247824211Y-203428300I-450514J-216879D01*
G01*
X248526984Y-202779721D02*
G75*
G02*
X248477487Y-202562843I451016J217021D01*
G01*
%TO.C,LED63*%
X297465001Y-182107159D02*
X297465001Y-183512843D01*
X298370547Y-184310000D02*
X299959452Y-184310000D01*
X299959452Y-181310001D02*
X298370548Y-181310001D01*
X300864999Y-183512843D02*
X300864999Y-182107159D01*
X297415516Y-181890281D02*
G75*
G02*
X297465001Y-182107159I-450505J-216876D01*
G01*
X297415516Y-181890282D02*
G75*
G02*
X298118289Y-181241702I450514J216880D01*
G01*
X297465001Y-183512844D02*
G75*
G02*
X297415516Y-183729721I-499990J-1D01*
G01*
X298118289Y-184378299D02*
G75*
G02*
X297415517Y-183729721I-252258J431700D01*
G01*
X298118289Y-184378299D02*
G75*
G02*
X298370547Y-184310000I252261J-431710D01*
G01*
X298370548Y-181310001D02*
G75*
G02*
X298118289Y-181241702I2J500009D01*
G01*
X299959453Y-184310001D02*
G75*
G02*
X300211711Y-184378300I-3J-500009D01*
G01*
X300211710Y-181241702D02*
G75*
G02*
X299959452Y-181310000I-252260J431712D01*
G01*
X300211711Y-181241704D02*
G75*
G02*
X300914480Y-181890279I252259J-431696D01*
G01*
X300864999Y-182107158D02*
G75*
G02*
X300914484Y-181890281I500351J-82D01*
G01*
X300914484Y-183729721D02*
G75*
G02*
X300211711Y-184378300I-450514J-216879D01*
G01*
X300914484Y-183729721D02*
G75*
G02*
X300864987Y-183512843I451016J217021D01*
G01*
%TO.C,LED92*%
X140302501Y-220207159D02*
X140302501Y-221612843D01*
X141208047Y-222410000D02*
X142796952Y-222410000D01*
X142796952Y-219410001D02*
X141208048Y-219410001D01*
X143702499Y-221612843D02*
X143702499Y-220207159D01*
X140253016Y-219990281D02*
G75*
G02*
X140302501Y-220207159I-450505J-216876D01*
G01*
X140253016Y-219990282D02*
G75*
G02*
X140955789Y-219341702I450514J216880D01*
G01*
X140302501Y-221612844D02*
G75*
G02*
X140253016Y-221829721I-499990J-1D01*
G01*
X140955789Y-222478299D02*
G75*
G02*
X140253017Y-221829721I-252258J431700D01*
G01*
X140955789Y-222478299D02*
G75*
G02*
X141208047Y-222410000I252261J-431710D01*
G01*
X141208048Y-219410001D02*
G75*
G02*
X140955789Y-219341702I2J500009D01*
G01*
X142796953Y-222410001D02*
G75*
G02*
X143049211Y-222478300I-3J-500009D01*
G01*
X143049210Y-219341702D02*
G75*
G02*
X142796952Y-219410000I-252260J431712D01*
G01*
X143049211Y-219341704D02*
G75*
G02*
X143751980Y-219990279I252259J-431696D01*
G01*
X143702499Y-220207158D02*
G75*
G02*
X143751984Y-219990281I500351J-82D01*
G01*
X143751984Y-221829721D02*
G75*
G02*
X143049211Y-222478300I-450514J-216879D01*
G01*
X143751984Y-221829721D02*
G75*
G02*
X143702487Y-221612843I451016J217021D01*
G01*
%TO.C,LED33*%
X116490001Y-163057159D02*
X116490001Y-164462843D01*
X117395547Y-165260000D02*
X118984452Y-165260000D01*
X118984452Y-162260001D02*
X117395548Y-162260001D01*
X119889999Y-164462843D02*
X119889999Y-163057159D01*
X116440516Y-162840281D02*
G75*
G02*
X116490001Y-163057159I-450505J-216876D01*
G01*
X116440516Y-162840282D02*
G75*
G02*
X117143289Y-162191702I450514J216880D01*
G01*
X116490001Y-164462844D02*
G75*
G02*
X116440516Y-164679721I-499990J-1D01*
G01*
X117143289Y-165328299D02*
G75*
G02*
X116440517Y-164679721I-252258J431700D01*
G01*
X117143289Y-165328299D02*
G75*
G02*
X117395547Y-165260000I252261J-431710D01*
G01*
X117395548Y-162260001D02*
G75*
G02*
X117143289Y-162191702I2J500009D01*
G01*
X118984453Y-165260001D02*
G75*
G02*
X119236711Y-165328300I-3J-500009D01*
G01*
X119236710Y-162191702D02*
G75*
G02*
X118984452Y-162260000I-252260J431712D01*
G01*
X119236711Y-162191704D02*
G75*
G02*
X119939480Y-162840279I252259J-431696D01*
G01*
X119889999Y-163057158D02*
G75*
G02*
X119939484Y-162840281I500351J-82D01*
G01*
X119939484Y-164679721D02*
G75*
G02*
X119236711Y-165328300I-450514J-216879D01*
G01*
X119939484Y-164679721D02*
G75*
G02*
X119889987Y-164462843I451016J217021D01*
G01*
%TO.C,LED119*%
X459390001Y-239257159D02*
X459390001Y-240662843D01*
X460295547Y-241460000D02*
X461884452Y-241460000D01*
X461884452Y-238460001D02*
X460295548Y-238460001D01*
X462789999Y-240662843D02*
X462789999Y-239257159D01*
X459340516Y-239040281D02*
G75*
G02*
X459390001Y-239257159I-450505J-216876D01*
G01*
X459340516Y-239040282D02*
G75*
G02*
X460043289Y-238391702I450514J216880D01*
G01*
X459390001Y-240662844D02*
G75*
G02*
X459340516Y-240879721I-499990J-1D01*
G01*
X460043289Y-241528299D02*
G75*
G02*
X459340517Y-240879721I-252258J431700D01*
G01*
X460043289Y-241528299D02*
G75*
G02*
X460295547Y-241460000I252261J-431710D01*
G01*
X460295548Y-238460001D02*
G75*
G02*
X460043289Y-238391702I2J500009D01*
G01*
X461884453Y-241460001D02*
G75*
G02*
X462136711Y-241528300I-3J-500009D01*
G01*
X462136710Y-238391702D02*
G75*
G02*
X461884452Y-238460000I-252260J431712D01*
G01*
X462136711Y-238391704D02*
G75*
G02*
X462839480Y-239040279I252259J-431696D01*
G01*
X462789999Y-239257158D02*
G75*
G02*
X462839484Y-239040281I500351J-82D01*
G01*
X462839484Y-240879721D02*
G75*
G02*
X462136711Y-241528300I-450514J-216879D01*
G01*
X462839484Y-240879721D02*
G75*
G02*
X462789987Y-240662843I451016J217021D01*
G01*
%TO.C,LED117*%
X407002501Y-239257159D02*
X407002501Y-240662843D01*
X407908047Y-241460000D02*
X409496952Y-241460000D01*
X409496952Y-238460001D02*
X407908048Y-238460001D01*
X410402499Y-240662843D02*
X410402499Y-239257159D01*
X406953016Y-239040281D02*
G75*
G02*
X407002501Y-239257159I-450505J-216876D01*
G01*
X406953016Y-239040282D02*
G75*
G02*
X407655789Y-238391702I450514J216880D01*
G01*
X407002501Y-240662844D02*
G75*
G02*
X406953016Y-240879721I-499990J-1D01*
G01*
X407655789Y-241528299D02*
G75*
G02*
X406953017Y-240879721I-252258J431700D01*
G01*
X407655789Y-241528299D02*
G75*
G02*
X407908047Y-241460000I252261J-431710D01*
G01*
X407908048Y-238460001D02*
G75*
G02*
X407655789Y-238391702I2J500009D01*
G01*
X409496953Y-241460001D02*
G75*
G02*
X409749211Y-241528300I-3J-500009D01*
G01*
X409749210Y-238391702D02*
G75*
G02*
X409496952Y-238460000I-252260J431712D01*
G01*
X409749211Y-238391704D02*
G75*
G02*
X410451980Y-239040279I252259J-431696D01*
G01*
X410402499Y-239257158D02*
G75*
G02*
X410451984Y-239040281I500351J-82D01*
G01*
X410451984Y-240879721D02*
G75*
G02*
X409749211Y-241528300I-450514J-216879D01*
G01*
X410451984Y-240879721D02*
G75*
G02*
X410402487Y-240662843I451016J217021D01*
G01*
%TO.C,LED20*%
X192690001Y-134482159D02*
X192690001Y-135887843D01*
X193595547Y-136685000D02*
X195184452Y-136685000D01*
X195184452Y-133685001D02*
X193595548Y-133685001D01*
X196089999Y-135887843D02*
X196089999Y-134482159D01*
X192640516Y-134265281D02*
G75*
G02*
X192690001Y-134482159I-450505J-216876D01*
G01*
X192640516Y-134265282D02*
G75*
G02*
X193343289Y-133616702I450514J216880D01*
G01*
X192690001Y-135887844D02*
G75*
G02*
X192640516Y-136104721I-499990J-1D01*
G01*
X193343289Y-136753299D02*
G75*
G02*
X192640517Y-136104721I-252258J431700D01*
G01*
X193343289Y-136753299D02*
G75*
G02*
X193595547Y-136685000I252261J-431710D01*
G01*
X193595548Y-133685001D02*
G75*
G02*
X193343289Y-133616702I2J500009D01*
G01*
X195184453Y-136685001D02*
G75*
G02*
X195436711Y-136753300I-3J-500009D01*
G01*
X195436710Y-133616702D02*
G75*
G02*
X195184452Y-133685000I-252260J431712D01*
G01*
X195436711Y-133616704D02*
G75*
G02*
X196139480Y-134265279I252259J-431696D01*
G01*
X196089999Y-134482158D02*
G75*
G02*
X196139484Y-134265281I500351J-82D01*
G01*
X196139484Y-136104721D02*
G75*
G02*
X195436711Y-136753300I-450514J-216879D01*
G01*
X196139484Y-136104721D02*
G75*
G02*
X196089987Y-135887843I451016J217021D01*
G01*
%TO.C,LED98*%
X254602501Y-220207159D02*
X254602501Y-221612843D01*
X255508047Y-222410000D02*
X257096952Y-222410000D01*
X257096952Y-219410001D02*
X255508048Y-219410001D01*
X258002499Y-221612843D02*
X258002499Y-220207159D01*
X254553016Y-219990281D02*
G75*
G02*
X254602501Y-220207159I-450505J-216876D01*
G01*
X254553016Y-219990282D02*
G75*
G02*
X255255789Y-219341702I450514J216880D01*
G01*
X254602501Y-221612844D02*
G75*
G02*
X254553016Y-221829721I-499990J-1D01*
G01*
X255255789Y-222478299D02*
G75*
G02*
X254553017Y-221829721I-252258J431700D01*
G01*
X255255789Y-222478299D02*
G75*
G02*
X255508047Y-222410000I252261J-431710D01*
G01*
X255508048Y-219410001D02*
G75*
G02*
X255255789Y-219341702I2J500009D01*
G01*
X257096953Y-222410001D02*
G75*
G02*
X257349211Y-222478300I-3J-500009D01*
G01*
X257349210Y-219341702D02*
G75*
G02*
X257096952Y-219410000I-252260J431712D01*
G01*
X257349211Y-219341704D02*
G75*
G02*
X258051980Y-219990279I252259J-431696D01*
G01*
X258002499Y-220207158D02*
G75*
G02*
X258051984Y-219990281I500351J-82D01*
G01*
X258051984Y-221829721D02*
G75*
G02*
X257349211Y-222478300I-450514J-216879D01*
G01*
X258051984Y-221829721D02*
G75*
G02*
X258002487Y-221612843I451016J217021D01*
G01*
%TO.C,LED37*%
X192690001Y-163057159D02*
X192690001Y-164462843D01*
X193595547Y-165260000D02*
X195184452Y-165260000D01*
X195184452Y-162260001D02*
X193595548Y-162260001D01*
X196089999Y-164462843D02*
X196089999Y-163057159D01*
X192640516Y-162840281D02*
G75*
G02*
X192690001Y-163057159I-450505J-216876D01*
G01*
X192640516Y-162840282D02*
G75*
G02*
X193343289Y-162191702I450514J216880D01*
G01*
X192690001Y-164462844D02*
G75*
G02*
X192640516Y-164679721I-499990J-1D01*
G01*
X193343289Y-165328299D02*
G75*
G02*
X192640517Y-164679721I-252258J431700D01*
G01*
X193343289Y-165328299D02*
G75*
G02*
X193595547Y-165260000I252261J-431710D01*
G01*
X193595548Y-162260001D02*
G75*
G02*
X193343289Y-162191702I2J500009D01*
G01*
X195184453Y-165260001D02*
G75*
G02*
X195436711Y-165328300I-3J-500009D01*
G01*
X195436710Y-162191702D02*
G75*
G02*
X195184452Y-162260000I-252260J431712D01*
G01*
X195436711Y-162191704D02*
G75*
G02*
X196139480Y-162840279I252259J-431696D01*
G01*
X196089999Y-163057158D02*
G75*
G02*
X196139484Y-162840281I500351J-82D01*
G01*
X196139484Y-164679721D02*
G75*
G02*
X195436711Y-165328300I-450514J-216879D01*
G01*
X196139484Y-164679721D02*
G75*
G02*
X196089987Y-164462843I451016J217021D01*
G01*
%TO.C,LED112*%
X290321251Y-239257159D02*
X290321251Y-240662843D01*
X291226797Y-241460000D02*
X292815702Y-241460000D01*
X292815702Y-238460001D02*
X291226798Y-238460001D01*
X293721249Y-240662843D02*
X293721249Y-239257159D01*
X290271766Y-239040281D02*
G75*
G02*
X290321251Y-239257159I-450505J-216876D01*
G01*
X290271766Y-239040282D02*
G75*
G02*
X290974539Y-238391702I450514J216880D01*
G01*
X290321251Y-240662844D02*
G75*
G02*
X290271766Y-240879721I-499990J-1D01*
G01*
X290974539Y-241528299D02*
G75*
G02*
X290271767Y-240879721I-252258J431700D01*
G01*
X290974539Y-241528299D02*
G75*
G02*
X291226797Y-241460000I252261J-431710D01*
G01*
X291226798Y-238460001D02*
G75*
G02*
X290974539Y-238391702I2J500009D01*
G01*
X292815703Y-241460001D02*
G75*
G02*
X293067961Y-241528300I-3J-500009D01*
G01*
X293067960Y-238391702D02*
G75*
G02*
X292815702Y-238460000I-252260J431712D01*
G01*
X293067961Y-238391704D02*
G75*
G02*
X293770730Y-239040279I252259J-431696D01*
G01*
X293721249Y-239257158D02*
G75*
G02*
X293770734Y-239040281I500351J-82D01*
G01*
X293770734Y-240879721D02*
G75*
G02*
X293067961Y-241528300I-450514J-216879D01*
G01*
X293770734Y-240879721D02*
G75*
G02*
X293721237Y-240662843I451016J217021D01*
G01*
%TO.C,LED115*%
X361758751Y-239257159D02*
X361758751Y-240662843D01*
X362664297Y-241460000D02*
X364253202Y-241460000D01*
X364253202Y-238460001D02*
X362664298Y-238460001D01*
X365158749Y-240662843D02*
X365158749Y-239257159D01*
X361709266Y-239040281D02*
G75*
G02*
X361758751Y-239257159I-450505J-216876D01*
G01*
X361709266Y-239040282D02*
G75*
G02*
X362412039Y-238391702I450514J216880D01*
G01*
X361758751Y-240662844D02*
G75*
G02*
X361709266Y-240879721I-499990J-1D01*
G01*
X362412039Y-241528299D02*
G75*
G02*
X361709267Y-240879721I-252258J431700D01*
G01*
X362412039Y-241528299D02*
G75*
G02*
X362664297Y-241460000I252261J-431710D01*
G01*
X362664298Y-238460001D02*
G75*
G02*
X362412039Y-238391702I2J500009D01*
G01*
X364253203Y-241460001D02*
G75*
G02*
X364505461Y-241528300I-3J-500009D01*
G01*
X364505460Y-238391702D02*
G75*
G02*
X364253202Y-238460000I-252260J431712D01*
G01*
X364505461Y-238391704D02*
G75*
G02*
X365208230Y-239040279I252259J-431696D01*
G01*
X365158749Y-239257158D02*
G75*
G02*
X365208234Y-239040281I500351J-82D01*
G01*
X365208234Y-240879721D02*
G75*
G02*
X364505461Y-241528300I-450514J-216879D01*
G01*
X365208234Y-240879721D02*
G75*
G02*
X365158737Y-240662843I451016J217021D01*
G01*
%TO.C,LED103*%
X407002501Y-220207159D02*
X407002501Y-221612843D01*
X407908047Y-222410000D02*
X409496952Y-222410000D01*
X409496952Y-219410001D02*
X407908048Y-219410001D01*
X410402499Y-221612843D02*
X410402499Y-220207159D01*
X406953016Y-219990281D02*
G75*
G02*
X407002501Y-220207159I-450505J-216876D01*
G01*
X406953016Y-219990282D02*
G75*
G02*
X407655789Y-219341702I450514J216880D01*
G01*
X407002501Y-221612844D02*
G75*
G02*
X406953016Y-221829721I-499990J-1D01*
G01*
X407655789Y-222478299D02*
G75*
G02*
X406953017Y-221829721I-252258J431700D01*
G01*
X407655789Y-222478299D02*
G75*
G02*
X407908047Y-222410000I252261J-431710D01*
G01*
X407908048Y-219410001D02*
G75*
G02*
X407655789Y-219341702I2J500009D01*
G01*
X409496953Y-222410001D02*
G75*
G02*
X409749211Y-222478300I-3J-500009D01*
G01*
X409749210Y-219341702D02*
G75*
G02*
X409496952Y-219410000I-252260J431712D01*
G01*
X409749211Y-219341704D02*
G75*
G02*
X410451980Y-219990279I252259J-431696D01*
G01*
X410402499Y-220207158D02*
G75*
G02*
X410451984Y-219990281I500351J-82D01*
G01*
X410451984Y-221829721D02*
G75*
G02*
X409749211Y-222478300I-450514J-216879D01*
G01*
X410451984Y-221829721D02*
G75*
G02*
X410402487Y-221612843I451016J217021D01*
G01*
%TO.C,LED84*%
X302227501Y-201157159D02*
X302227501Y-202562843D01*
X303133047Y-203360000D02*
X304721952Y-203360000D01*
X304721952Y-200360001D02*
X303133048Y-200360001D01*
X305627499Y-202562843D02*
X305627499Y-201157159D01*
X302178016Y-200940281D02*
G75*
G02*
X302227501Y-201157159I-450505J-216876D01*
G01*
X302178016Y-200940282D02*
G75*
G02*
X302880789Y-200291702I450514J216880D01*
G01*
X302227501Y-202562844D02*
G75*
G02*
X302178016Y-202779721I-499990J-1D01*
G01*
X302880789Y-203428299D02*
G75*
G02*
X302178017Y-202779721I-252258J431700D01*
G01*
X302880789Y-203428299D02*
G75*
G02*
X303133047Y-203360000I252261J-431710D01*
G01*
X303133048Y-200360001D02*
G75*
G02*
X302880789Y-200291702I2J500009D01*
G01*
X304721953Y-203360001D02*
G75*
G02*
X304974211Y-203428300I-3J-500009D01*
G01*
X304974210Y-200291702D02*
G75*
G02*
X304721952Y-200360000I-252260J431712D01*
G01*
X304974211Y-200291704D02*
G75*
G02*
X305676980Y-200940279I252259J-431696D01*
G01*
X305627499Y-201157158D02*
G75*
G02*
X305676984Y-200940281I500351J-82D01*
G01*
X305676984Y-202779721D02*
G75*
G02*
X304974211Y-203428300I-450514J-216879D01*
G01*
X305676984Y-202779721D02*
G75*
G02*
X305627487Y-202562843I451016J217021D01*
G01*
%TO.C,LED38*%
X211740001Y-163057159D02*
X211740001Y-164462843D01*
X212645547Y-165260000D02*
X214234452Y-165260000D01*
X214234452Y-162260001D02*
X212645548Y-162260001D01*
X215139999Y-164462843D02*
X215139999Y-163057159D01*
X211690516Y-162840281D02*
G75*
G02*
X211740001Y-163057159I-450505J-216876D01*
G01*
X211690516Y-162840282D02*
G75*
G02*
X212393289Y-162191702I450514J216880D01*
G01*
X211740001Y-164462844D02*
G75*
G02*
X211690516Y-164679721I-499990J-1D01*
G01*
X212393289Y-165328299D02*
G75*
G02*
X211690517Y-164679721I-252258J431700D01*
G01*
X212393289Y-165328299D02*
G75*
G02*
X212645547Y-165260000I252261J-431710D01*
G01*
X212645548Y-162260001D02*
G75*
G02*
X212393289Y-162191702I2J500009D01*
G01*
X214234453Y-165260001D02*
G75*
G02*
X214486711Y-165328300I-3J-500009D01*
G01*
X214486710Y-162191702D02*
G75*
G02*
X214234452Y-162260000I-252260J431712D01*
G01*
X214486711Y-162191704D02*
G75*
G02*
X215189480Y-162840279I252259J-431696D01*
G01*
X215139999Y-163057158D02*
G75*
G02*
X215189484Y-162840281I500351J-82D01*
G01*
X215189484Y-164679721D02*
G75*
G02*
X214486711Y-165328300I-450514J-216879D01*
G01*
X215189484Y-164679721D02*
G75*
G02*
X215139987Y-164462843I451016J217021D01*
G01*
%TO.C,LED80*%
X226027501Y-201157159D02*
X226027501Y-202562843D01*
X226933047Y-203360000D02*
X228521952Y-203360000D01*
X228521952Y-200360001D02*
X226933048Y-200360001D01*
X229427499Y-202562843D02*
X229427499Y-201157159D01*
X225978016Y-200940281D02*
G75*
G02*
X226027501Y-201157159I-450505J-216876D01*
G01*
X225978016Y-200940282D02*
G75*
G02*
X226680789Y-200291702I450514J216880D01*
G01*
X226027501Y-202562844D02*
G75*
G02*
X225978016Y-202779721I-499990J-1D01*
G01*
X226680789Y-203428299D02*
G75*
G02*
X225978017Y-202779721I-252258J431700D01*
G01*
X226680789Y-203428299D02*
G75*
G02*
X226933047Y-203360000I252261J-431710D01*
G01*
X226933048Y-200360001D02*
G75*
G02*
X226680789Y-200291702I2J500009D01*
G01*
X228521953Y-203360001D02*
G75*
G02*
X228774211Y-203428300I-3J-500009D01*
G01*
X228774210Y-200291702D02*
G75*
G02*
X228521952Y-200360000I-252260J431712D01*
G01*
X228774211Y-200291704D02*
G75*
G02*
X229476980Y-200940279I252259J-431696D01*
G01*
X229427499Y-201157158D02*
G75*
G02*
X229476984Y-200940281I500351J-82D01*
G01*
X229476984Y-202779721D02*
G75*
G02*
X228774211Y-203428300I-450514J-216879D01*
G01*
X229476984Y-202779721D02*
G75*
G02*
X229427487Y-202562843I451016J217021D01*
G01*
%TO.C,LED57*%
X183165001Y-182107159D02*
X183165001Y-183512843D01*
X184070547Y-184310000D02*
X185659452Y-184310000D01*
X185659452Y-181310001D02*
X184070548Y-181310001D01*
X186564999Y-183512843D02*
X186564999Y-182107159D01*
X183115516Y-181890281D02*
G75*
G02*
X183165001Y-182107159I-450505J-216876D01*
G01*
X183115516Y-181890282D02*
G75*
G02*
X183818289Y-181241702I450514J216880D01*
G01*
X183165001Y-183512844D02*
G75*
G02*
X183115516Y-183729721I-499990J-1D01*
G01*
X183818289Y-184378299D02*
G75*
G02*
X183115517Y-183729721I-252258J431700D01*
G01*
X183818289Y-184378299D02*
G75*
G02*
X184070547Y-184310000I252261J-431710D01*
G01*
X184070548Y-181310001D02*
G75*
G02*
X183818289Y-181241702I2J500009D01*
G01*
X185659453Y-184310001D02*
G75*
G02*
X185911711Y-184378300I-3J-500009D01*
G01*
X185911710Y-181241702D02*
G75*
G02*
X185659452Y-181310000I-252260J431712D01*
G01*
X185911711Y-181241704D02*
G75*
G02*
X186614480Y-181890279I252259J-431696D01*
G01*
X186564999Y-182107158D02*
G75*
G02*
X186614484Y-181890281I500351J-82D01*
G01*
X186614484Y-183729721D02*
G75*
G02*
X185911711Y-184378300I-450514J-216879D01*
G01*
X186614484Y-183729721D02*
G75*
G02*
X186564987Y-183512843I451016J217021D01*
G01*
%TO.C,LED1*%
X135540001Y-115432159D02*
X135540001Y-116837843D01*
X136445547Y-117635000D02*
X138034452Y-117635000D01*
X138034452Y-114635001D02*
X136445548Y-114635001D01*
X138939999Y-116837843D02*
X138939999Y-115432159D01*
X135490516Y-115215281D02*
G75*
G02*
X135540001Y-115432159I-450505J-216876D01*
G01*
X135490516Y-115215282D02*
G75*
G02*
X136193289Y-114566702I450514J216880D01*
G01*
X135540001Y-116837844D02*
G75*
G02*
X135490516Y-117054721I-499990J-1D01*
G01*
X136193289Y-117703299D02*
G75*
G02*
X135490516Y-117054721I-252258J431701D01*
G01*
X136193289Y-117703299D02*
G75*
G02*
X136445547Y-117635000I252261J-431710D01*
G01*
X136445548Y-114635001D02*
G75*
G02*
X136193289Y-114566702I2J500009D01*
G01*
X138034453Y-117635001D02*
G75*
G02*
X138286711Y-117703300I-3J-500009D01*
G01*
X138286710Y-114566702D02*
G75*
G02*
X138034452Y-114635000I-252260J431712D01*
G01*
X138286711Y-114566704D02*
G75*
G02*
X138989480Y-115215279I252259J-431696D01*
G01*
X138939999Y-115432158D02*
G75*
G02*
X138989484Y-115215281I500351J-82D01*
G01*
X138989484Y-117054721D02*
G75*
G02*
X138286711Y-117703300I-450514J-216879D01*
G01*
X138989484Y-117054721D02*
G75*
G02*
X138940010Y-116837843I450816J216921D01*
G01*
%TO.C,LED40*%
X249840001Y-163057159D02*
X249840001Y-164462843D01*
X250745547Y-165260000D02*
X252334452Y-165260000D01*
X252334452Y-162260001D02*
X250745548Y-162260001D01*
X253239999Y-164462843D02*
X253239999Y-163057159D01*
X249790516Y-162840281D02*
G75*
G02*
X249840001Y-163057159I-450505J-216876D01*
G01*
X249790516Y-162840282D02*
G75*
G02*
X250493289Y-162191702I450514J216880D01*
G01*
X249840001Y-164462844D02*
G75*
G02*
X249790516Y-164679721I-499990J-1D01*
G01*
X250493289Y-165328299D02*
G75*
G02*
X249790517Y-164679721I-252258J431700D01*
G01*
X250493289Y-165328299D02*
G75*
G02*
X250745547Y-165260000I252261J-431710D01*
G01*
X250745548Y-162260001D02*
G75*
G02*
X250493289Y-162191702I2J500009D01*
G01*
X252334453Y-165260001D02*
G75*
G02*
X252586711Y-165328300I-3J-500009D01*
G01*
X252586710Y-162191702D02*
G75*
G02*
X252334452Y-162260000I-252260J431712D01*
G01*
X252586711Y-162191704D02*
G75*
G02*
X253289480Y-162840279I252259J-431696D01*
G01*
X253239999Y-163057158D02*
G75*
G02*
X253289484Y-162840281I500351J-82D01*
G01*
X253289484Y-164679721D02*
G75*
G02*
X252586711Y-165328300I-450514J-216879D01*
G01*
X253289484Y-164679721D02*
G75*
G02*
X253239987Y-164462843I451016J217021D01*
G01*
%TO.C,LED66*%
X361758751Y-191632159D02*
X361758751Y-193037843D01*
X362664297Y-193835000D02*
X364253202Y-193835000D01*
X364253202Y-190835001D02*
X362664298Y-190835001D01*
X365158749Y-193037843D02*
X365158749Y-191632159D01*
X361709266Y-191415281D02*
G75*
G02*
X361758751Y-191632159I-450505J-216876D01*
G01*
X361709266Y-191415282D02*
G75*
G02*
X362412039Y-190766702I450514J216880D01*
G01*
X361758751Y-193037844D02*
G75*
G02*
X361709266Y-193254721I-499990J-1D01*
G01*
X362412039Y-193903299D02*
G75*
G02*
X361709267Y-193254721I-252258J431700D01*
G01*
X362412039Y-193903299D02*
G75*
G02*
X362664297Y-193835000I252261J-431710D01*
G01*
X362664298Y-190835001D02*
G75*
G02*
X362412039Y-190766702I2J500009D01*
G01*
X364253203Y-193835001D02*
G75*
G02*
X364505461Y-193903300I-3J-500009D01*
G01*
X364505460Y-190766702D02*
G75*
G02*
X364253202Y-190835000I-252260J431712D01*
G01*
X364505461Y-190766704D02*
G75*
G02*
X365208230Y-191415279I252259J-431696D01*
G01*
X365158749Y-191632158D02*
G75*
G02*
X365208234Y-191415281I500351J-82D01*
G01*
X365208234Y-193254721D02*
G75*
G02*
X364505461Y-193903300I-450514J-216879D01*
G01*
X365208234Y-193254721D02*
G75*
G02*
X365158737Y-193037843I451016J217021D01*
G01*
%TO.C,LED109*%
X123633751Y-239257159D02*
X123633751Y-240662843D01*
X124539297Y-241460000D02*
X126128202Y-241460000D01*
X126128202Y-238460001D02*
X124539298Y-238460001D01*
X127033749Y-240662843D02*
X127033749Y-239257159D01*
X123584266Y-239040281D02*
G75*
G02*
X123633751Y-239257159I-450505J-216876D01*
G01*
X123584266Y-239040282D02*
G75*
G02*
X124287039Y-238391702I450514J216880D01*
G01*
X123633751Y-240662844D02*
G75*
G02*
X123584266Y-240879721I-499990J-1D01*
G01*
X124287039Y-241528299D02*
G75*
G02*
X123584267Y-240879721I-252258J431700D01*
G01*
X124287039Y-241528299D02*
G75*
G02*
X124539297Y-241460000I252261J-431710D01*
G01*
X124539298Y-238460001D02*
G75*
G02*
X124287039Y-238391702I2J500009D01*
G01*
X126128203Y-241460001D02*
G75*
G02*
X126380461Y-241528300I-3J-500009D01*
G01*
X126380460Y-238391702D02*
G75*
G02*
X126128202Y-238460000I-252260J431712D01*
G01*
X126380461Y-238391704D02*
G75*
G02*
X127083230Y-239040279I252259J-431696D01*
G01*
X127033749Y-239257158D02*
G75*
G02*
X127083234Y-239040281I500351J-82D01*
G01*
X127083234Y-240879721D02*
G75*
G02*
X126380461Y-241528300I-450514J-216879D01*
G01*
X127083234Y-240879721D02*
G75*
G02*
X127033737Y-240662843I451016J217021D01*
G01*
%TO.C,LED87*%
X449865001Y-201157159D02*
X449865001Y-202562843D01*
X450770547Y-203360000D02*
X452359452Y-203360000D01*
X452359452Y-200360001D02*
X450770548Y-200360001D01*
X453264999Y-202562843D02*
X453264999Y-201157159D01*
X449815516Y-200940281D02*
G75*
G02*
X449865001Y-201157159I-450505J-216876D01*
G01*
X449815516Y-200940282D02*
G75*
G02*
X450518289Y-200291702I450514J216880D01*
G01*
X449865001Y-202562844D02*
G75*
G02*
X449815516Y-202779721I-499990J-1D01*
G01*
X450518289Y-203428299D02*
G75*
G02*
X449815517Y-202779721I-252258J431700D01*
G01*
X450518289Y-203428299D02*
G75*
G02*
X450770547Y-203360000I252261J-431710D01*
G01*
X450770548Y-200360001D02*
G75*
G02*
X450518289Y-200291702I2J500009D01*
G01*
X452359453Y-203360001D02*
G75*
G02*
X452611711Y-203428300I-3J-500009D01*
G01*
X452611710Y-200291702D02*
G75*
G02*
X452359452Y-200360000I-252260J431712D01*
G01*
X452611711Y-200291704D02*
G75*
G02*
X453314480Y-200940279I252259J-431696D01*
G01*
X453264999Y-201157158D02*
G75*
G02*
X453314484Y-200940281I500351J-82D01*
G01*
X453314484Y-202779721D02*
G75*
G02*
X452611711Y-203428300I-450514J-216879D01*
G01*
X453314484Y-202779721D02*
G75*
G02*
X453264987Y-202562843I451016J217021D01*
G01*
%TO.C,LED53*%
X102202501Y-182107159D02*
X102202501Y-183512843D01*
X103108047Y-184310000D02*
X104696952Y-184310000D01*
X104696952Y-181310001D02*
X103108048Y-181310001D01*
X105602499Y-183512843D02*
X105602499Y-182107159D01*
X102153016Y-181890281D02*
G75*
G02*
X102202501Y-182107159I-450505J-216876D01*
G01*
X102153016Y-181890282D02*
G75*
G02*
X102855789Y-181241702I450514J216880D01*
G01*
X102202501Y-183512844D02*
G75*
G02*
X102153016Y-183729721I-499990J-1D01*
G01*
X102855789Y-184378299D02*
G75*
G02*
X102153017Y-183729721I-252258J431700D01*
G01*
X102855789Y-184378299D02*
G75*
G02*
X103108047Y-184310000I252261J-431710D01*
G01*
X103108048Y-181310001D02*
G75*
G02*
X102855789Y-181241702I2J500009D01*
G01*
X104696953Y-184310001D02*
G75*
G02*
X104949211Y-184378300I-3J-500009D01*
G01*
X104949210Y-181241702D02*
G75*
G02*
X104696952Y-181310000I-252260J431712D01*
G01*
X104949211Y-181241704D02*
G75*
G02*
X105651980Y-181890279I252259J-431696D01*
G01*
X105602499Y-182107158D02*
G75*
G02*
X105651984Y-181890281I500351J-82D01*
G01*
X105651984Y-183729721D02*
G75*
G02*
X104949211Y-184378300I-450514J-216879D01*
G01*
X105651984Y-183729721D02*
G75*
G02*
X105602487Y-183512843I451016J217021D01*
G01*
%TO.C,LED60*%
X240315001Y-182107159D02*
X240315001Y-183512843D01*
X241220547Y-184310000D02*
X242809452Y-184310000D01*
X242809452Y-181310001D02*
X241220548Y-181310001D01*
X243714999Y-183512843D02*
X243714999Y-182107159D01*
X240265516Y-181890281D02*
G75*
G02*
X240315001Y-182107159I-450505J-216876D01*
G01*
X240265516Y-181890282D02*
G75*
G02*
X240968289Y-181241702I450514J216880D01*
G01*
X240315001Y-183512844D02*
G75*
G02*
X240265516Y-183729721I-499990J-1D01*
G01*
X240968289Y-184378299D02*
G75*
G02*
X240265517Y-183729721I-252258J431700D01*
G01*
X240968289Y-184378299D02*
G75*
G02*
X241220547Y-184310000I252261J-431710D01*
G01*
X241220548Y-181310001D02*
G75*
G02*
X240968289Y-181241702I2J500009D01*
G01*
X242809453Y-184310001D02*
G75*
G02*
X243061711Y-184378300I-3J-500009D01*
G01*
X243061710Y-181241702D02*
G75*
G02*
X242809452Y-181310000I-252260J431712D01*
G01*
X243061711Y-181241704D02*
G75*
G02*
X243764480Y-181890279I252259J-431696D01*
G01*
X243714999Y-182107158D02*
G75*
G02*
X243764484Y-181890281I500351J-82D01*
G01*
X243764484Y-183729721D02*
G75*
G02*
X243061711Y-184378300I-450514J-216879D01*
G01*
X243764484Y-183729721D02*
G75*
G02*
X243714987Y-183512843I451016J217021D01*
G01*
%TO.C,LED18*%
X154590001Y-134482159D02*
X154590001Y-135887843D01*
X155495547Y-136685000D02*
X157084452Y-136685000D01*
X157084452Y-133685001D02*
X155495548Y-133685001D01*
X157989999Y-135887843D02*
X157989999Y-134482159D01*
X154540516Y-134265281D02*
G75*
G02*
X154590001Y-134482159I-450505J-216876D01*
G01*
X154540516Y-134265282D02*
G75*
G02*
X155243289Y-133616702I450514J216880D01*
G01*
X154590001Y-135887844D02*
G75*
G02*
X154540516Y-136104721I-499990J-1D01*
G01*
X155243289Y-136753299D02*
G75*
G02*
X154540517Y-136104721I-252258J431700D01*
G01*
X155243289Y-136753299D02*
G75*
G02*
X155495547Y-136685000I252261J-431710D01*
G01*
X155495548Y-133685001D02*
G75*
G02*
X155243289Y-133616702I2J500009D01*
G01*
X157084453Y-136685001D02*
G75*
G02*
X157336711Y-136753300I-3J-500009D01*
G01*
X157336710Y-133616702D02*
G75*
G02*
X157084452Y-133685000I-252260J431712D01*
G01*
X157336711Y-133616704D02*
G75*
G02*
X158039480Y-134265279I252259J-431696D01*
G01*
X157989999Y-134482158D02*
G75*
G02*
X158039484Y-134265281I500351J-82D01*
G01*
X158039484Y-136104721D02*
G75*
G02*
X157336711Y-136753300I-450514J-216879D01*
G01*
X158039484Y-136104721D02*
G75*
G02*
X157989987Y-135887843I451016J217021D01*
G01*
%TO.C,LED39*%
X230790001Y-163057159D02*
X230790001Y-164462843D01*
X231695547Y-165260000D02*
X233284452Y-165260000D01*
X233284452Y-162260001D02*
X231695548Y-162260001D01*
X234189999Y-164462843D02*
X234189999Y-163057159D01*
X230740516Y-162840281D02*
G75*
G02*
X230790001Y-163057159I-450505J-216876D01*
G01*
X230740516Y-162840282D02*
G75*
G02*
X231443289Y-162191702I450514J216880D01*
G01*
X230790001Y-164462844D02*
G75*
G02*
X230740516Y-164679721I-499990J-1D01*
G01*
X231443289Y-165328299D02*
G75*
G02*
X230740517Y-164679721I-252258J431700D01*
G01*
X231443289Y-165328299D02*
G75*
G02*
X231695547Y-165260000I252261J-431710D01*
G01*
X231695548Y-162260001D02*
G75*
G02*
X231443289Y-162191702I2J500009D01*
G01*
X233284453Y-165260001D02*
G75*
G02*
X233536711Y-165328300I-3J-500009D01*
G01*
X233536710Y-162191702D02*
G75*
G02*
X233284452Y-162260000I-252260J431712D01*
G01*
X233536711Y-162191704D02*
G75*
G02*
X234239480Y-162840279I252259J-431696D01*
G01*
X234189999Y-163057158D02*
G75*
G02*
X234239484Y-162840281I500351J-82D01*
G01*
X234239484Y-164679721D02*
G75*
G02*
X233536711Y-165328300I-450514J-216879D01*
G01*
X234239484Y-164679721D02*
G75*
G02*
X234189987Y-164462843I451016J217021D01*
G01*
%TO.C,LED36*%
X173640001Y-163057159D02*
X173640001Y-164462843D01*
X174545547Y-165260000D02*
X176134452Y-165260000D01*
X176134452Y-162260001D02*
X174545548Y-162260001D01*
X177039999Y-164462843D02*
X177039999Y-163057159D01*
X173590516Y-162840281D02*
G75*
G02*
X173640001Y-163057159I-450505J-216876D01*
G01*
X173590516Y-162840282D02*
G75*
G02*
X174293289Y-162191702I450514J216880D01*
G01*
X173640001Y-164462844D02*
G75*
G02*
X173590516Y-164679721I-499990J-1D01*
G01*
X174293289Y-165328299D02*
G75*
G02*
X173590517Y-164679721I-252258J431700D01*
G01*
X174293289Y-165328299D02*
G75*
G02*
X174545547Y-165260000I252261J-431710D01*
G01*
X174545548Y-162260001D02*
G75*
G02*
X174293289Y-162191702I2J500009D01*
G01*
X176134453Y-165260001D02*
G75*
G02*
X176386711Y-165328300I-3J-500009D01*
G01*
X176386710Y-162191702D02*
G75*
G02*
X176134452Y-162260000I-252260J431712D01*
G01*
X176386711Y-162191704D02*
G75*
G02*
X177089480Y-162840279I252259J-431696D01*
G01*
X177039999Y-163057158D02*
G75*
G02*
X177089484Y-162840281I500351J-82D01*
G01*
X177089484Y-164679721D02*
G75*
G02*
X176386711Y-165328300I-450514J-216879D01*
G01*
X177089484Y-164679721D02*
G75*
G02*
X177039987Y-164462843I451016J217021D01*
G01*
%TO.C,LED85*%
X321277501Y-201157159D02*
X321277501Y-202562843D01*
X322183047Y-203360000D02*
X323771952Y-203360000D01*
X323771952Y-200360001D02*
X322183048Y-200360001D01*
X324677499Y-202562843D02*
X324677499Y-201157159D01*
X321228016Y-200940281D02*
G75*
G02*
X321277501Y-201157159I-450505J-216876D01*
G01*
X321228016Y-200940282D02*
G75*
G02*
X321930789Y-200291702I450514J216880D01*
G01*
X321277501Y-202562844D02*
G75*
G02*
X321228016Y-202779721I-499990J-1D01*
G01*
X321930789Y-203428299D02*
G75*
G02*
X321228017Y-202779721I-252258J431700D01*
G01*
X321930789Y-203428299D02*
G75*
G02*
X322183047Y-203360000I252261J-431710D01*
G01*
X322183048Y-200360001D02*
G75*
G02*
X321930789Y-200291702I2J500009D01*
G01*
X323771953Y-203360001D02*
G75*
G02*
X324024211Y-203428300I-3J-500009D01*
G01*
X324024210Y-200291702D02*
G75*
G02*
X323771952Y-200360000I-252260J431712D01*
G01*
X324024211Y-200291704D02*
G75*
G02*
X324726980Y-200940279I252259J-431696D01*
G01*
X324677499Y-201157158D02*
G75*
G02*
X324726984Y-200940281I500351J-82D01*
G01*
X324726984Y-202779721D02*
G75*
G02*
X324024211Y-203428300I-450514J-216879D01*
G01*
X324726984Y-202779721D02*
G75*
G02*
X324677487Y-202562843I451016J217021D01*
G01*
%TO.C,LED70*%
X449865001Y-182107159D02*
X449865001Y-183512843D01*
X450770547Y-184310000D02*
X452359452Y-184310000D01*
X452359452Y-181310001D02*
X450770548Y-181310001D01*
X453264999Y-183512843D02*
X453264999Y-182107159D01*
X449815516Y-181890281D02*
G75*
G02*
X449865001Y-182107159I-450505J-216876D01*
G01*
X449815516Y-181890282D02*
G75*
G02*
X450518289Y-181241702I450514J216880D01*
G01*
X449865001Y-183512844D02*
G75*
G02*
X449815516Y-183729721I-499990J-1D01*
G01*
X450518289Y-184378299D02*
G75*
G02*
X449815517Y-183729721I-252258J431700D01*
G01*
X450518289Y-184378299D02*
G75*
G02*
X450770547Y-184310000I252261J-431710D01*
G01*
X450770548Y-181310001D02*
G75*
G02*
X450518289Y-181241702I2J500009D01*
G01*
X452359453Y-184310001D02*
G75*
G02*
X452611711Y-184378300I-3J-500009D01*
G01*
X452611710Y-181241702D02*
G75*
G02*
X452359452Y-181310000I-252260J431712D01*
G01*
X452611711Y-181241704D02*
G75*
G02*
X453314480Y-181890279I252259J-431696D01*
G01*
X453264999Y-182107158D02*
G75*
G02*
X453314484Y-181890281I500351J-82D01*
G01*
X453314484Y-183729721D02*
G75*
G02*
X452611711Y-184378300I-450514J-216879D01*
G01*
X453314484Y-183729721D02*
G75*
G02*
X453264987Y-183512843I451016J217021D01*
G01*
%TO.C,LED99*%
X273652501Y-220207159D02*
X273652501Y-221612843D01*
X274558047Y-222410000D02*
X276146952Y-222410000D01*
X276146952Y-219410001D02*
X274558048Y-219410001D01*
X277052499Y-221612843D02*
X277052499Y-220207159D01*
X273603016Y-219990281D02*
G75*
G02*
X273652501Y-220207159I-450505J-216876D01*
G01*
X273603016Y-219990282D02*
G75*
G02*
X274305789Y-219341702I450514J216880D01*
G01*
X273652501Y-221612844D02*
G75*
G02*
X273603016Y-221829721I-499990J-1D01*
G01*
X274305789Y-222478299D02*
G75*
G02*
X273603017Y-221829721I-252258J431700D01*
G01*
X274305789Y-222478299D02*
G75*
G02*
X274558047Y-222410000I252261J-431710D01*
G01*
X274558048Y-219410001D02*
G75*
G02*
X274305789Y-219341702I2J500009D01*
G01*
X276146953Y-222410001D02*
G75*
G02*
X276399211Y-222478300I-3J-500009D01*
G01*
X276399210Y-219341702D02*
G75*
G02*
X276146952Y-219410000I-252260J431712D01*
G01*
X276399211Y-219341704D02*
G75*
G02*
X277101980Y-219990279I252259J-431696D01*
G01*
X277052499Y-220207158D02*
G75*
G02*
X277101984Y-219990281I500351J-82D01*
G01*
X277101984Y-221829721D02*
G75*
G02*
X276399211Y-222478300I-450514J-216879D01*
G01*
X277101984Y-221829721D02*
G75*
G02*
X277052487Y-221612843I451016J217021D01*
G01*
%TO.C,LED61*%
X259365001Y-182107159D02*
X259365001Y-183512843D01*
X260270547Y-184310000D02*
X261859452Y-184310000D01*
X261859452Y-181310001D02*
X260270548Y-181310001D01*
X262764999Y-183512843D02*
X262764999Y-182107159D01*
X259315516Y-181890281D02*
G75*
G02*
X259365001Y-182107159I-450505J-216876D01*
G01*
X259315516Y-181890282D02*
G75*
G02*
X260018289Y-181241702I450514J216880D01*
G01*
X259365001Y-183512844D02*
G75*
G02*
X259315516Y-183729721I-499990J-1D01*
G01*
X260018289Y-184378299D02*
G75*
G02*
X259315517Y-183729721I-252258J431700D01*
G01*
X260018289Y-184378299D02*
G75*
G02*
X260270547Y-184310000I252261J-431710D01*
G01*
X260270548Y-181310001D02*
G75*
G02*
X260018289Y-181241702I2J500009D01*
G01*
X261859453Y-184310001D02*
G75*
G02*
X262111711Y-184378300I-3J-500009D01*
G01*
X262111710Y-181241702D02*
G75*
G02*
X261859452Y-181310000I-252260J431712D01*
G01*
X262111711Y-181241704D02*
G75*
G02*
X262814480Y-181890279I252259J-431696D01*
G01*
X262764999Y-182107158D02*
G75*
G02*
X262814484Y-181890281I500351J-82D01*
G01*
X262814484Y-183729721D02*
G75*
G02*
X262111711Y-184378300I-450514J-216879D01*
G01*
X262814484Y-183729721D02*
G75*
G02*
X262764987Y-183512843I451016J217021D01*
G01*
%TO.C,LED91*%
X121252501Y-220207159D02*
X121252501Y-221612843D01*
X122158047Y-222410000D02*
X123746952Y-222410000D01*
X123746952Y-219410001D02*
X122158048Y-219410001D01*
X124652499Y-221612843D02*
X124652499Y-220207159D01*
X121203016Y-219990281D02*
G75*
G02*
X121252501Y-220207159I-450505J-216876D01*
G01*
X121203016Y-219990282D02*
G75*
G02*
X121905789Y-219341702I450514J216880D01*
G01*
X121252501Y-221612844D02*
G75*
G02*
X121203016Y-221829721I-499990J-1D01*
G01*
X121905789Y-222478299D02*
G75*
G02*
X121203017Y-221829721I-252258J431700D01*
G01*
X121905789Y-222478299D02*
G75*
G02*
X122158047Y-222410000I252261J-431710D01*
G01*
X122158048Y-219410001D02*
G75*
G02*
X121905789Y-219341702I2J500009D01*
G01*
X123746953Y-222410001D02*
G75*
G02*
X123999211Y-222478300I-3J-500009D01*
G01*
X123999210Y-219341702D02*
G75*
G02*
X123746952Y-219410000I-252260J431712D01*
G01*
X123999211Y-219341704D02*
G75*
G02*
X124701980Y-219990279I252259J-431696D01*
G01*
X124652499Y-220207158D02*
G75*
G02*
X124701984Y-219990281I500351J-82D01*
G01*
X124701984Y-221829721D02*
G75*
G02*
X123999211Y-222478300I-450514J-216879D01*
G01*
X124701984Y-221829721D02*
G75*
G02*
X124652487Y-221612843I451016J217021D01*
G01*
%TO.C,LED12*%
X364140001Y-115432159D02*
X364140001Y-116837843D01*
X365045547Y-117635000D02*
X366634452Y-117635000D01*
X366634452Y-114635001D02*
X365045548Y-114635001D01*
X367539999Y-116837843D02*
X367539999Y-115432159D01*
X364090516Y-115215281D02*
G75*
G02*
X364140001Y-115432159I-450505J-216876D01*
G01*
X364090516Y-115215282D02*
G75*
G02*
X364793289Y-114566702I450514J216880D01*
G01*
X364140001Y-116837844D02*
G75*
G02*
X364090516Y-117054721I-499990J-1D01*
G01*
X364793289Y-117703299D02*
G75*
G02*
X364090517Y-117054721I-252258J431700D01*
G01*
X364793289Y-117703299D02*
G75*
G02*
X365045547Y-117635000I252261J-431710D01*
G01*
X365045548Y-114635001D02*
G75*
G02*
X364793289Y-114566702I2J500009D01*
G01*
X366634453Y-117635001D02*
G75*
G02*
X366886711Y-117703300I-3J-500009D01*
G01*
X366886710Y-114566702D02*
G75*
G02*
X366634452Y-114635000I-252260J431712D01*
G01*
X366886711Y-114566704D02*
G75*
G02*
X367589480Y-115215279I252259J-431696D01*
G01*
X367539999Y-115432158D02*
G75*
G02*
X367589484Y-115215281I500351J-82D01*
G01*
X367589484Y-117054721D02*
G75*
G02*
X366886711Y-117703300I-450514J-216879D01*
G01*
X367589484Y-117054721D02*
G75*
G02*
X367539987Y-116837843I451016J217021D01*
G01*
%TO.C,LED108*%
X99821251Y-239257159D02*
X99821251Y-240662843D01*
X100726797Y-241460000D02*
X102315702Y-241460000D01*
X102315702Y-238460001D02*
X100726798Y-238460001D01*
X103221249Y-240662843D02*
X103221249Y-239257159D01*
X99771766Y-239040281D02*
G75*
G02*
X99821251Y-239257159I-450505J-216876D01*
G01*
X99771766Y-239040282D02*
G75*
G02*
X100474539Y-238391702I450514J216880D01*
G01*
X99821251Y-240662844D02*
G75*
G02*
X99771766Y-240879721I-499990J-1D01*
G01*
X100474539Y-241528299D02*
G75*
G02*
X99771767Y-240879721I-252258J431700D01*
G01*
X100474539Y-241528299D02*
G75*
G02*
X100726797Y-241460000I252261J-431710D01*
G01*
X100726798Y-238460001D02*
G75*
G02*
X100474539Y-238391702I2J500009D01*
G01*
X102315703Y-241460001D02*
G75*
G02*
X102567961Y-241528300I-3J-500009D01*
G01*
X102567960Y-238391702D02*
G75*
G02*
X102315702Y-238460000I-252260J431712D01*
G01*
X102567961Y-238391704D02*
G75*
G02*
X103270730Y-239040279I252259J-431696D01*
G01*
X103221249Y-239257158D02*
G75*
G02*
X103270734Y-239040281I500351J-82D01*
G01*
X103270734Y-240879721D02*
G75*
G02*
X102567961Y-241528300I-450514J-216879D01*
G01*
X103270734Y-240879721D02*
G75*
G02*
X103221237Y-240662843I451016J217021D01*
G01*
%TO.C,LED42*%
X287940001Y-163057159D02*
X287940001Y-164462843D01*
X288845547Y-165260000D02*
X290434452Y-165260000D01*
X290434452Y-162260001D02*
X288845548Y-162260001D01*
X291339999Y-164462843D02*
X291339999Y-163057159D01*
X287890516Y-162840281D02*
G75*
G02*
X287940001Y-163057159I-450505J-216876D01*
G01*
X287890516Y-162840282D02*
G75*
G02*
X288593289Y-162191702I450514J216880D01*
G01*
X287940001Y-164462844D02*
G75*
G02*
X287890516Y-164679721I-499990J-1D01*
G01*
X288593289Y-165328299D02*
G75*
G02*
X287890517Y-164679721I-252258J431700D01*
G01*
X288593289Y-165328299D02*
G75*
G02*
X288845547Y-165260000I252261J-431710D01*
G01*
X288845548Y-162260001D02*
G75*
G02*
X288593289Y-162191702I2J500009D01*
G01*
X290434453Y-165260001D02*
G75*
G02*
X290686711Y-165328300I-3J-500009D01*
G01*
X290686710Y-162191702D02*
G75*
G02*
X290434452Y-162260000I-252260J431712D01*
G01*
X290686711Y-162191704D02*
G75*
G02*
X291389480Y-162840279I252259J-431696D01*
G01*
X291339999Y-163057158D02*
G75*
G02*
X291389484Y-162840281I500351J-82D01*
G01*
X291389484Y-164679721D02*
G75*
G02*
X290686711Y-165328300I-450514J-216879D01*
G01*
X291389484Y-164679721D02*
G75*
G02*
X291339987Y-164462843I451016J217021D01*
G01*
%TO.C,LED44*%
X326040001Y-163057159D02*
X326040001Y-164462843D01*
X326945547Y-165260000D02*
X328534452Y-165260000D01*
X328534452Y-162260001D02*
X326945548Y-162260001D01*
X329439999Y-164462843D02*
X329439999Y-163057159D01*
X325990516Y-162840281D02*
G75*
G02*
X326040001Y-163057159I-450505J-216876D01*
G01*
X325990516Y-162840282D02*
G75*
G02*
X326693289Y-162191702I450514J216880D01*
G01*
X326040001Y-164462844D02*
G75*
G02*
X325990516Y-164679721I-499990J-1D01*
G01*
X326693289Y-165328299D02*
G75*
G02*
X325990517Y-164679721I-252258J431700D01*
G01*
X326693289Y-165328299D02*
G75*
G02*
X326945547Y-165260000I252261J-431710D01*
G01*
X326945548Y-162260001D02*
G75*
G02*
X326693289Y-162191702I2J500009D01*
G01*
X328534453Y-165260001D02*
G75*
G02*
X328786711Y-165328300I-3J-500009D01*
G01*
X328786710Y-162191702D02*
G75*
G02*
X328534452Y-162260000I-252260J431712D01*
G01*
X328786711Y-162191704D02*
G75*
G02*
X329489480Y-162840279I252259J-431696D01*
G01*
X329439999Y-163057158D02*
G75*
G02*
X329489484Y-162840281I500351J-82D01*
G01*
X329489484Y-164679721D02*
G75*
G02*
X328786711Y-165328300I-450514J-216879D01*
G01*
X329489484Y-164679721D02*
G75*
G02*
X329439987Y-164462843I451016J217021D01*
G01*
%TO.C,LED27*%
X345090001Y-134482159D02*
X345090001Y-135887843D01*
X345995547Y-136685000D02*
X347584452Y-136685000D01*
X347584452Y-133685001D02*
X345995548Y-133685001D01*
X348489999Y-135887843D02*
X348489999Y-134482159D01*
X345040516Y-134265281D02*
G75*
G02*
X345090001Y-134482159I-450505J-216876D01*
G01*
X345040516Y-134265282D02*
G75*
G02*
X345743289Y-133616702I450514J216880D01*
G01*
X345090001Y-135887844D02*
G75*
G02*
X345040516Y-136104721I-499990J-1D01*
G01*
X345743289Y-136753299D02*
G75*
G02*
X345040517Y-136104721I-252258J431700D01*
G01*
X345743289Y-136753299D02*
G75*
G02*
X345995547Y-136685000I252261J-431710D01*
G01*
X345995548Y-133685001D02*
G75*
G02*
X345743289Y-133616702I2J500009D01*
G01*
X347584453Y-136685001D02*
G75*
G02*
X347836711Y-136753300I-3J-500009D01*
G01*
X347836710Y-133616702D02*
G75*
G02*
X347584452Y-133685000I-252260J431712D01*
G01*
X347836711Y-133616704D02*
G75*
G02*
X348539480Y-134265279I252259J-431696D01*
G01*
X348489999Y-134482158D02*
G75*
G02*
X348539484Y-134265281I500351J-82D01*
G01*
X348539484Y-136104721D02*
G75*
G02*
X347836711Y-136753300I-450514J-216879D01*
G01*
X348539484Y-136104721D02*
G75*
G02*
X348489987Y-135887843I451016J217021D01*
G01*
%TO.C,LED23*%
X259365001Y-134482159D02*
X259365001Y-135887843D01*
X260270547Y-136685000D02*
X261859452Y-136685000D01*
X261859452Y-133685001D02*
X260270548Y-133685001D01*
X262764999Y-135887843D02*
X262764999Y-134482159D01*
X259315516Y-134265281D02*
G75*
G02*
X259365001Y-134482159I-450505J-216876D01*
G01*
X259315516Y-134265282D02*
G75*
G02*
X260018289Y-133616702I450514J216880D01*
G01*
X259365001Y-135887844D02*
G75*
G02*
X259315516Y-136104721I-499990J-1D01*
G01*
X260018289Y-136753299D02*
G75*
G02*
X259315517Y-136104721I-252258J431700D01*
G01*
X260018289Y-136753299D02*
G75*
G02*
X260270547Y-136685000I252261J-431710D01*
G01*
X260270548Y-133685001D02*
G75*
G02*
X260018289Y-133616702I2J500009D01*
G01*
X261859453Y-136685001D02*
G75*
G02*
X262111711Y-136753300I-3J-500009D01*
G01*
X262111710Y-133616702D02*
G75*
G02*
X261859452Y-133685000I-252260J431712D01*
G01*
X262111711Y-133616704D02*
G75*
G02*
X262814480Y-134265279I252259J-431696D01*
G01*
X262764999Y-134482158D02*
G75*
G02*
X262814484Y-134265281I500351J-82D01*
G01*
X262814484Y-136104721D02*
G75*
G02*
X262111711Y-136753300I-450514J-216879D01*
G01*
X262814484Y-136104721D02*
G75*
G02*
X262764987Y-135887843I451016J217021D01*
G01*
%TO.C,LED120*%
X487965001Y-239257159D02*
X487965001Y-240662843D01*
X488870547Y-241460000D02*
X490459452Y-241460000D01*
X490459452Y-238460001D02*
X488870548Y-238460001D01*
X491364999Y-240662843D02*
X491364999Y-239257159D01*
X487915516Y-239040281D02*
G75*
G02*
X487965001Y-239257159I-450505J-216876D01*
G01*
X487915516Y-239040282D02*
G75*
G02*
X488618289Y-238391702I450514J216880D01*
G01*
X487965001Y-240662844D02*
G75*
G02*
X487915516Y-240879721I-499990J-1D01*
G01*
X488618289Y-241528299D02*
G75*
G02*
X487915517Y-240879721I-252258J431700D01*
G01*
X488618289Y-241528299D02*
G75*
G02*
X488870547Y-241460000I252261J-431710D01*
G01*
X488870548Y-238460001D02*
G75*
G02*
X488618289Y-238391702I2J500009D01*
G01*
X490459453Y-241460001D02*
G75*
G02*
X490711711Y-241528300I-3J-500009D01*
G01*
X490711710Y-238391702D02*
G75*
G02*
X490459452Y-238460000I-252260J431712D01*
G01*
X490711711Y-238391704D02*
G75*
G02*
X491414480Y-239040279I252259J-431696D01*
G01*
X491364999Y-239257158D02*
G75*
G02*
X491414484Y-239040281I500351J-82D01*
G01*
X491414484Y-240879721D02*
G75*
G02*
X490711711Y-241528300I-450514J-216879D01*
G01*
X491414484Y-240879721D02*
G75*
G02*
X491364987Y-240662843I451016J217021D01*
G01*
%TO.C,LED21*%
X221265001Y-134482159D02*
X221265001Y-135887843D01*
X222170547Y-136685000D02*
X223759452Y-136685000D01*
X223759452Y-133685001D02*
X222170548Y-133685001D01*
X224664999Y-135887843D02*
X224664999Y-134482159D01*
X221215516Y-134265281D02*
G75*
G02*
X221265001Y-134482159I-450505J-216876D01*
G01*
X221215516Y-134265282D02*
G75*
G02*
X221918289Y-133616702I450514J216880D01*
G01*
X221265001Y-135887844D02*
G75*
G02*
X221215516Y-136104721I-499990J-1D01*
G01*
X221918289Y-136753299D02*
G75*
G02*
X221215517Y-136104721I-252258J431700D01*
G01*
X221918289Y-136753299D02*
G75*
G02*
X222170547Y-136685000I252261J-431710D01*
G01*
X222170548Y-133685001D02*
G75*
G02*
X221918289Y-133616702I2J500009D01*
G01*
X223759453Y-136685001D02*
G75*
G02*
X224011711Y-136753300I-3J-500009D01*
G01*
X224011710Y-133616702D02*
G75*
G02*
X223759452Y-133685000I-252260J431712D01*
G01*
X224011711Y-133616704D02*
G75*
G02*
X224714480Y-134265279I252259J-431696D01*
G01*
X224664999Y-134482158D02*
G75*
G02*
X224714484Y-134265281I500351J-82D01*
G01*
X224714484Y-136104721D02*
G75*
G02*
X224011711Y-136753300I-450514J-216879D01*
G01*
X224714484Y-136104721D02*
G75*
G02*
X224664987Y-135887843I451016J217021D01*
G01*
%TO.C,LED113*%
X314133751Y-239257159D02*
X314133751Y-240662843D01*
X315039297Y-241460000D02*
X316628202Y-241460000D01*
X316628202Y-238460001D02*
X315039298Y-238460001D01*
X317533749Y-240662843D02*
X317533749Y-239257159D01*
X314084266Y-239040281D02*
G75*
G02*
X314133751Y-239257159I-450505J-216876D01*
G01*
X314084266Y-239040282D02*
G75*
G02*
X314787039Y-238391702I450514J216880D01*
G01*
X314133751Y-240662844D02*
G75*
G02*
X314084266Y-240879721I-499990J-1D01*
G01*
X314787039Y-241528299D02*
G75*
G02*
X314084267Y-240879721I-252258J431700D01*
G01*
X314787039Y-241528299D02*
G75*
G02*
X315039297Y-241460000I252261J-431710D01*
G01*
X315039298Y-238460001D02*
G75*
G02*
X314787039Y-238391702I2J500009D01*
G01*
X316628203Y-241460001D02*
G75*
G02*
X316880461Y-241528300I-3J-500009D01*
G01*
X316880460Y-238391702D02*
G75*
G02*
X316628202Y-238460000I-252260J431712D01*
G01*
X316880461Y-238391704D02*
G75*
G02*
X317583230Y-239040279I252259J-431696D01*
G01*
X317533749Y-239257158D02*
G75*
G02*
X317583234Y-239040281I500351J-82D01*
G01*
X317583234Y-240879721D02*
G75*
G02*
X316880461Y-241528300I-450514J-216879D01*
G01*
X317583234Y-240879721D02*
G75*
G02*
X317533737Y-240662843I451016J217021D01*
G01*
%TO.C,LED82*%
X264127501Y-201157159D02*
X264127501Y-202562843D01*
X265033047Y-203360000D02*
X266621952Y-203360000D01*
X266621952Y-200360001D02*
X265033048Y-200360001D01*
X267527499Y-202562843D02*
X267527499Y-201157159D01*
X264078016Y-200940281D02*
G75*
G02*
X264127501Y-201157159I-450505J-216876D01*
G01*
X264078016Y-200940282D02*
G75*
G02*
X264780789Y-200291702I450514J216880D01*
G01*
X264127501Y-202562844D02*
G75*
G02*
X264078016Y-202779721I-499990J-1D01*
G01*
X264780789Y-203428299D02*
G75*
G02*
X264078017Y-202779721I-252258J431700D01*
G01*
X264780789Y-203428299D02*
G75*
G02*
X265033047Y-203360000I252261J-431710D01*
G01*
X265033048Y-200360001D02*
G75*
G02*
X264780789Y-200291702I2J500009D01*
G01*
X266621953Y-203360001D02*
G75*
G02*
X266874211Y-203428300I-3J-500009D01*
G01*
X266874210Y-200291702D02*
G75*
G02*
X266621952Y-200360000I-252260J431712D01*
G01*
X266874211Y-200291704D02*
G75*
G02*
X267576980Y-200940279I252259J-431696D01*
G01*
X267527499Y-201157158D02*
G75*
G02*
X267576984Y-200940281I500351J-82D01*
G01*
X267576984Y-202779721D02*
G75*
G02*
X266874211Y-203428300I-450514J-216879D01*
G01*
X267576984Y-202779721D02*
G75*
G02*
X267527487Y-202562843I451016J217021D01*
G01*
%TO.C,LED96*%
X216502501Y-220207159D02*
X216502501Y-221612843D01*
X217408047Y-222410000D02*
X218996952Y-222410000D01*
X218996952Y-219410001D02*
X217408048Y-219410001D01*
X219902499Y-221612843D02*
X219902499Y-220207159D01*
X216453016Y-219990281D02*
G75*
G02*
X216502501Y-220207159I-450505J-216876D01*
G01*
X216453016Y-219990282D02*
G75*
G02*
X217155789Y-219341702I450514J216880D01*
G01*
X216502501Y-221612844D02*
G75*
G02*
X216453016Y-221829721I-499990J-1D01*
G01*
X217155789Y-222478299D02*
G75*
G02*
X216453017Y-221829721I-252258J431700D01*
G01*
X217155789Y-222478299D02*
G75*
G02*
X217408047Y-222410000I252261J-431710D01*
G01*
X217408048Y-219410001D02*
G75*
G02*
X217155789Y-219341702I2J500009D01*
G01*
X218996953Y-222410001D02*
G75*
G02*
X219249211Y-222478300I-3J-500009D01*
G01*
X219249210Y-219341702D02*
G75*
G02*
X218996952Y-219410000I-252260J431712D01*
G01*
X219249211Y-219341704D02*
G75*
G02*
X219951980Y-219990279I252259J-431696D01*
G01*
X219902499Y-220207158D02*
G75*
G02*
X219951984Y-219990281I500351J-82D01*
G01*
X219951984Y-221829721D02*
G75*
G02*
X219249211Y-222478300I-450514J-216879D01*
G01*
X219951984Y-221829721D02*
G75*
G02*
X219902487Y-221612843I451016J217021D01*
G01*
%TO.C,LED72*%
X487965001Y-182107159D02*
X487965001Y-183512843D01*
X488870547Y-184310000D02*
X490459452Y-184310000D01*
X490459452Y-181310001D02*
X488870548Y-181310001D01*
X491364999Y-183512843D02*
X491364999Y-182107159D01*
X487915516Y-181890281D02*
G75*
G02*
X487965001Y-182107159I-450505J-216876D01*
G01*
X487915516Y-181890282D02*
G75*
G02*
X488618289Y-181241702I450514J216880D01*
G01*
X487965001Y-183512844D02*
G75*
G02*
X487915516Y-183729721I-499990J-1D01*
G01*
X488618289Y-184378299D02*
G75*
G02*
X487915517Y-183729721I-252258J431700D01*
G01*
X488618289Y-184378299D02*
G75*
G02*
X488870547Y-184310000I252261J-431710D01*
G01*
X488870548Y-181310001D02*
G75*
G02*
X488618289Y-181241702I2J500009D01*
G01*
X490459453Y-184310001D02*
G75*
G02*
X490711711Y-184378300I-3J-500009D01*
G01*
X490711710Y-181241702D02*
G75*
G02*
X490459452Y-181310000I-252260J431712D01*
G01*
X490711711Y-181241704D02*
G75*
G02*
X491414480Y-181890279I252259J-431696D01*
G01*
X491364999Y-182107158D02*
G75*
G02*
X491414484Y-181890281I500351J-82D01*
G01*
X491414484Y-183729721D02*
G75*
G02*
X490711711Y-184378300I-450514J-216879D01*
G01*
X491414484Y-183729721D02*
G75*
G02*
X491364987Y-183512843I451016J217021D01*
G01*
%TO.C,LED67*%
X387952501Y-182107159D02*
X387952501Y-183512843D01*
X388858047Y-184310000D02*
X390446952Y-184310000D01*
X390446952Y-181310001D02*
X388858048Y-181310001D01*
X391352499Y-183512843D02*
X391352499Y-182107159D01*
X387903016Y-181890281D02*
G75*
G02*
X387952501Y-182107159I-450505J-216876D01*
G01*
X387903016Y-181890282D02*
G75*
G02*
X388605789Y-181241702I450514J216880D01*
G01*
X387952501Y-183512844D02*
G75*
G02*
X387903016Y-183729721I-499990J-1D01*
G01*
X388605789Y-184378299D02*
G75*
G02*
X387903017Y-183729721I-252258J431700D01*
G01*
X388605789Y-184378299D02*
G75*
G02*
X388858047Y-184310000I252261J-431710D01*
G01*
X388858048Y-181310001D02*
G75*
G02*
X388605789Y-181241702I2J500009D01*
G01*
X390446953Y-184310001D02*
G75*
G02*
X390699211Y-184378300I-3J-500009D01*
G01*
X390699210Y-181241702D02*
G75*
G02*
X390446952Y-181310000I-252260J431712D01*
G01*
X390699211Y-181241704D02*
G75*
G02*
X391401980Y-181890279I252259J-431696D01*
G01*
X391352499Y-182107158D02*
G75*
G02*
X391401984Y-181890281I500351J-82D01*
G01*
X391401984Y-183729721D02*
G75*
G02*
X390699211Y-184378300I-450514J-216879D01*
G01*
X391401984Y-183729721D02*
G75*
G02*
X391352487Y-183512843I451016J217021D01*
G01*
%TO.C,LED26*%
X326040001Y-134482159D02*
X326040001Y-135887843D01*
X326945547Y-136685000D02*
X328534452Y-136685000D01*
X328534452Y-133685001D02*
X326945548Y-133685001D01*
X329439999Y-135887843D02*
X329439999Y-134482159D01*
X325990516Y-134265281D02*
G75*
G02*
X326040001Y-134482159I-450505J-216876D01*
G01*
X325990516Y-134265282D02*
G75*
G02*
X326693289Y-133616702I450514J216880D01*
G01*
X326040001Y-135887844D02*
G75*
G02*
X325990516Y-136104721I-499990J-1D01*
G01*
X326693289Y-136753299D02*
G75*
G02*
X325990517Y-136104721I-252258J431700D01*
G01*
X326693289Y-136753299D02*
G75*
G02*
X326945547Y-136685000I252261J-431710D01*
G01*
X326945548Y-133685001D02*
G75*
G02*
X326693289Y-133616702I2J500009D01*
G01*
X328534453Y-136685001D02*
G75*
G02*
X328786711Y-136753300I-3J-500009D01*
G01*
X328786710Y-133616702D02*
G75*
G02*
X328534452Y-133685000I-252260J431712D01*
G01*
X328786711Y-133616704D02*
G75*
G02*
X329489480Y-134265279I252259J-431696D01*
G01*
X329439999Y-134482158D02*
G75*
G02*
X329489484Y-134265281I500351J-82D01*
G01*
X329489484Y-136104721D02*
G75*
G02*
X328786711Y-136753300I-450514J-216879D01*
G01*
X329489484Y-136104721D02*
G75*
G02*
X329439987Y-135887843I451016J217021D01*
G01*
%TO.C,LED7*%
X259365001Y-115432159D02*
X259365001Y-116837843D01*
X260270547Y-117635000D02*
X261859452Y-117635000D01*
X261859452Y-114635001D02*
X260270548Y-114635001D01*
X262764999Y-116837843D02*
X262764999Y-115432159D01*
X259315516Y-115215281D02*
G75*
G02*
X259365001Y-115432159I-450505J-216876D01*
G01*
X259315516Y-115215282D02*
G75*
G02*
X260018289Y-114566702I450514J216880D01*
G01*
X259365001Y-116837844D02*
G75*
G02*
X259315516Y-117054721I-499990J-1D01*
G01*
X260018289Y-117703299D02*
G75*
G02*
X259315517Y-117054721I-252258J431700D01*
G01*
X260018289Y-117703299D02*
G75*
G02*
X260270547Y-117635000I252261J-431710D01*
G01*
X260270548Y-114635001D02*
G75*
G02*
X260018289Y-114566702I2J500009D01*
G01*
X261859453Y-117635001D02*
G75*
G02*
X262111711Y-117703300I-3J-500009D01*
G01*
X262111710Y-114566702D02*
G75*
G02*
X261859452Y-114635000I-252260J431712D01*
G01*
X262111711Y-114566704D02*
G75*
G02*
X262814480Y-115215279I252259J-431696D01*
G01*
X262764999Y-115432158D02*
G75*
G02*
X262814484Y-115215281I500351J-82D01*
G01*
X262814484Y-117054721D02*
G75*
G02*
X262111711Y-117703300I-450514J-216879D01*
G01*
X262814484Y-117054721D02*
G75*
G02*
X262764987Y-116837843I451016J217021D01*
G01*
%TO.C,LED32*%
X97440001Y-163057159D02*
X97440001Y-164462843D01*
X98345547Y-165260000D02*
X99934452Y-165260000D01*
X99934452Y-162260001D02*
X98345548Y-162260001D01*
X100839999Y-164462843D02*
X100839999Y-163057159D01*
X97390516Y-162840281D02*
G75*
G02*
X97440001Y-163057159I-450505J-216876D01*
G01*
X97390516Y-162840282D02*
G75*
G02*
X98093289Y-162191702I450514J216880D01*
G01*
X97440001Y-164462844D02*
G75*
G02*
X97390516Y-164679721I-499990J-1D01*
G01*
X98093289Y-165328299D02*
G75*
G02*
X97390517Y-164679721I-252258J431700D01*
G01*
X98093289Y-165328299D02*
G75*
G02*
X98345547Y-165260000I252261J-431710D01*
G01*
X98345548Y-162260001D02*
G75*
G02*
X98093289Y-162191702I2J500009D01*
G01*
X99934453Y-165260001D02*
G75*
G02*
X100186711Y-165328300I-3J-500009D01*
G01*
X100186710Y-162191702D02*
G75*
G02*
X99934452Y-162260000I-252260J431712D01*
G01*
X100186711Y-162191704D02*
G75*
G02*
X100889480Y-162840279I252259J-431696D01*
G01*
X100839999Y-163057158D02*
G75*
G02*
X100889484Y-162840281I500351J-82D01*
G01*
X100889484Y-164679721D02*
G75*
G02*
X100186711Y-165328300I-450514J-216879D01*
G01*
X100889484Y-164679721D02*
G75*
G02*
X100839987Y-164462843I451016J217021D01*
G01*
%TO.C,LED106*%
X487965001Y-220207159D02*
X487965001Y-221612843D01*
X488870547Y-222410000D02*
X490459452Y-222410000D01*
X490459452Y-219410001D02*
X488870548Y-219410001D01*
X491364999Y-221612843D02*
X491364999Y-220207159D01*
X487915516Y-219990281D02*
G75*
G02*
X487965001Y-220207159I-450505J-216876D01*
G01*
X487915516Y-219990282D02*
G75*
G02*
X488618289Y-219341702I450514J216880D01*
G01*
X487965001Y-221612844D02*
G75*
G02*
X487915516Y-221829721I-499990J-1D01*
G01*
X488618289Y-222478299D02*
G75*
G02*
X487915517Y-221829721I-252258J431700D01*
G01*
X488618289Y-222478299D02*
G75*
G02*
X488870547Y-222410000I252261J-431710D01*
G01*
X488870548Y-219410001D02*
G75*
G02*
X488618289Y-219341702I2J500009D01*
G01*
X490459453Y-222410001D02*
G75*
G02*
X490711711Y-222478300I-3J-500009D01*
G01*
X490711710Y-219341702D02*
G75*
G02*
X490459452Y-219410000I-252260J431712D01*
G01*
X490711711Y-219341704D02*
G75*
G02*
X491414480Y-219990279I252259J-431696D01*
G01*
X491364999Y-220207158D02*
G75*
G02*
X491414484Y-219990281I500351J-82D01*
G01*
X491414484Y-221829721D02*
G75*
G02*
X490711711Y-222478300I-450514J-216879D01*
G01*
X491414484Y-221829721D02*
G75*
G02*
X491364987Y-221612843I451016J217021D01*
G01*
%TO.C,LED76*%
X149827501Y-201157159D02*
X149827501Y-202562843D01*
X150733047Y-203360000D02*
X152321952Y-203360000D01*
X152321952Y-200360001D02*
X150733048Y-200360001D01*
X153227499Y-202562843D02*
X153227499Y-201157159D01*
X149778016Y-200940281D02*
G75*
G02*
X149827501Y-201157159I-450505J-216876D01*
G01*
X149778016Y-200940282D02*
G75*
G02*
X150480789Y-200291702I450514J216880D01*
G01*
X149827501Y-202562844D02*
G75*
G02*
X149778016Y-202779721I-499990J-1D01*
G01*
X150480789Y-203428299D02*
G75*
G02*
X149778017Y-202779721I-252258J431700D01*
G01*
X150480789Y-203428299D02*
G75*
G02*
X150733047Y-203360000I252261J-431710D01*
G01*
X150733048Y-200360001D02*
G75*
G02*
X150480789Y-200291702I2J500009D01*
G01*
X152321953Y-203360001D02*
G75*
G02*
X152574211Y-203428300I-3J-500009D01*
G01*
X152574210Y-200291702D02*
G75*
G02*
X152321952Y-200360000I-252260J431712D01*
G01*
X152574211Y-200291704D02*
G75*
G02*
X153276980Y-200940279I252259J-431696D01*
G01*
X153227499Y-201157158D02*
G75*
G02*
X153276984Y-200940281I500351J-82D01*
G01*
X153276984Y-202779721D02*
G75*
G02*
X152574211Y-203428300I-450514J-216879D01*
G01*
X153276984Y-202779721D02*
G75*
G02*
X153227487Y-202562843I451016J217021D01*
G01*
%TO.C,LED104*%
X449865001Y-220207159D02*
X449865001Y-221612843D01*
X450770547Y-222410000D02*
X452359452Y-222410000D01*
X452359452Y-219410001D02*
X450770548Y-219410001D01*
X453264999Y-221612843D02*
X453264999Y-220207159D01*
X449815516Y-219990281D02*
G75*
G02*
X449865001Y-220207159I-450505J-216876D01*
G01*
X449815516Y-219990282D02*
G75*
G02*
X450518289Y-219341702I450514J216880D01*
G01*
X449865001Y-221612844D02*
G75*
G02*
X449815516Y-221829721I-499990J-1D01*
G01*
X450518289Y-222478299D02*
G75*
G02*
X449815517Y-221829721I-252258J431700D01*
G01*
X450518289Y-222478299D02*
G75*
G02*
X450770547Y-222410000I252261J-431710D01*
G01*
X450770548Y-219410001D02*
G75*
G02*
X450518289Y-219341702I2J500009D01*
G01*
X452359453Y-222410001D02*
G75*
G02*
X452611711Y-222478300I-3J-500009D01*
G01*
X452611710Y-219341702D02*
G75*
G02*
X452359452Y-219410000I-252260J431712D01*
G01*
X452611711Y-219341704D02*
G75*
G02*
X453314480Y-219990279I252259J-431696D01*
G01*
X453264999Y-220207158D02*
G75*
G02*
X453314484Y-219990281I500351J-82D01*
G01*
X453314484Y-221829721D02*
G75*
G02*
X452611711Y-222478300I-450514J-216879D01*
G01*
X453314484Y-221829721D02*
G75*
G02*
X453264987Y-221612843I451016J217021D01*
G01*
%TO.C,LED19*%
X173640001Y-134482159D02*
X173640001Y-135887843D01*
X174545547Y-136685000D02*
X176134452Y-136685000D01*
X176134452Y-133685001D02*
X174545548Y-133685001D01*
X177039999Y-135887843D02*
X177039999Y-134482159D01*
X173590516Y-134265281D02*
G75*
G02*
X173640001Y-134482159I-450505J-216876D01*
G01*
X173590516Y-134265282D02*
G75*
G02*
X174293289Y-133616702I450514J216880D01*
G01*
X173640001Y-135887844D02*
G75*
G02*
X173590516Y-136104721I-499990J-1D01*
G01*
X174293289Y-136753299D02*
G75*
G02*
X173590517Y-136104721I-252258J431700D01*
G01*
X174293289Y-136753299D02*
G75*
G02*
X174545547Y-136685000I252261J-431710D01*
G01*
X174545548Y-133685001D02*
G75*
G02*
X174293289Y-133616702I2J500009D01*
G01*
X176134453Y-136685001D02*
G75*
G02*
X176386711Y-136753300I-3J-500009D01*
G01*
X176386710Y-133616702D02*
G75*
G02*
X176134452Y-133685000I-252260J431712D01*
G01*
X176386711Y-133616704D02*
G75*
G02*
X177089480Y-134265279I252259J-431696D01*
G01*
X177039999Y-134482158D02*
G75*
G02*
X177089484Y-134265281I500351J-82D01*
G01*
X177089484Y-136104721D02*
G75*
G02*
X176386711Y-136753300I-450514J-216879D01*
G01*
X177089484Y-136104721D02*
G75*
G02*
X177039987Y-135887843I451016J217021D01*
G01*
%TO.C,LED95*%
X197452501Y-220207159D02*
X197452501Y-221612843D01*
X198358047Y-222410000D02*
X199946952Y-222410000D01*
X199946952Y-219410001D02*
X198358048Y-219410001D01*
X200852499Y-221612843D02*
X200852499Y-220207159D01*
X197403016Y-219990281D02*
G75*
G02*
X197452501Y-220207159I-450505J-216876D01*
G01*
X197403016Y-219990282D02*
G75*
G02*
X198105789Y-219341702I450514J216880D01*
G01*
X197452501Y-221612844D02*
G75*
G02*
X197403016Y-221829721I-499990J-1D01*
G01*
X198105789Y-222478299D02*
G75*
G02*
X197403017Y-221829721I-252258J431700D01*
G01*
X198105789Y-222478299D02*
G75*
G02*
X198358047Y-222410000I252261J-431710D01*
G01*
X198358048Y-219410001D02*
G75*
G02*
X198105789Y-219341702I2J500009D01*
G01*
X199946953Y-222410001D02*
G75*
G02*
X200199211Y-222478300I-3J-500009D01*
G01*
X200199210Y-219341702D02*
G75*
G02*
X199946952Y-219410000I-252260J431712D01*
G01*
X200199211Y-219341704D02*
G75*
G02*
X200901980Y-219990279I252259J-431696D01*
G01*
X200852499Y-220207158D02*
G75*
G02*
X200901984Y-219990281I500351J-82D01*
G01*
X200901984Y-221829721D02*
G75*
G02*
X200199211Y-222478300I-450514J-216879D01*
G01*
X200901984Y-221829721D02*
G75*
G02*
X200852487Y-221612843I451016J217021D01*
G01*
%TO.C,LED15*%
X426052501Y-115432159D02*
X426052501Y-116837843D01*
X426958047Y-117635000D02*
X428546952Y-117635000D01*
X428546952Y-114635001D02*
X426958048Y-114635001D01*
X429452499Y-116837843D02*
X429452499Y-115432159D01*
X426003016Y-115215281D02*
G75*
G02*
X426052501Y-115432159I-450505J-216876D01*
G01*
X426003016Y-115215282D02*
G75*
G02*
X426705789Y-114566702I450514J216880D01*
G01*
X426052501Y-116837844D02*
G75*
G02*
X426003016Y-117054721I-499990J-1D01*
G01*
X426705789Y-117703299D02*
G75*
G02*
X426003017Y-117054721I-252258J431700D01*
G01*
X426705789Y-117703299D02*
G75*
G02*
X426958047Y-117635000I252261J-431710D01*
G01*
X426958048Y-114635001D02*
G75*
G02*
X426705789Y-114566702I2J500009D01*
G01*
X428546953Y-117635001D02*
G75*
G02*
X428799211Y-117703300I-3J-500009D01*
G01*
X428799210Y-114566702D02*
G75*
G02*
X428546952Y-114635000I-252260J431712D01*
G01*
X428799211Y-114566704D02*
G75*
G02*
X429501980Y-115215279I252259J-431696D01*
G01*
X429452499Y-115432158D02*
G75*
G02*
X429501984Y-115215281I500351J-82D01*
G01*
X429501984Y-117054721D02*
G75*
G02*
X428799211Y-117703300I-450514J-216879D01*
G01*
X429501984Y-117054721D02*
G75*
G02*
X429452487Y-116837843I451016J217021D01*
G01*
%TO.C,LED51*%
X487965001Y-163057159D02*
X487965001Y-164462843D01*
X488870547Y-165260000D02*
X490459452Y-165260000D01*
X490459452Y-162260001D02*
X488870548Y-162260001D01*
X491364999Y-164462843D02*
X491364999Y-163057159D01*
X487915516Y-162840281D02*
G75*
G02*
X487965001Y-163057159I-450505J-216876D01*
G01*
X487915516Y-162840282D02*
G75*
G02*
X488618289Y-162191702I450514J216880D01*
G01*
X487965001Y-164462844D02*
G75*
G02*
X487915516Y-164679721I-499990J-1D01*
G01*
X488618289Y-165328299D02*
G75*
G02*
X487915517Y-164679721I-252258J431700D01*
G01*
X488618289Y-165328299D02*
G75*
G02*
X488870547Y-165260000I252261J-431710D01*
G01*
X488870548Y-162260001D02*
G75*
G02*
X488618289Y-162191702I2J500009D01*
G01*
X490459453Y-165260001D02*
G75*
G02*
X490711711Y-165328300I-3J-500009D01*
G01*
X490711710Y-162191702D02*
G75*
G02*
X490459452Y-162260000I-252260J431712D01*
G01*
X490711711Y-162191704D02*
G75*
G02*
X491414480Y-162840279I252259J-431696D01*
G01*
X491364999Y-163057158D02*
G75*
G02*
X491414484Y-162840281I500351J-82D01*
G01*
X491414484Y-164679721D02*
G75*
G02*
X490711711Y-165328300I-450514J-216879D01*
G01*
X491414484Y-164679721D02*
G75*
G02*
X491364987Y-164462843I451016J217021D01*
G01*
%TO.C,LED16*%
X97440001Y-134482159D02*
X97440001Y-135887843D01*
X98345547Y-136685000D02*
X99934452Y-136685000D01*
X99934452Y-133685001D02*
X98345548Y-133685001D01*
X100839999Y-135887843D02*
X100839999Y-134482159D01*
X97390516Y-134265281D02*
G75*
G02*
X97440001Y-134482159I-450505J-216876D01*
G01*
X97390516Y-134265282D02*
G75*
G02*
X98093289Y-133616702I450514J216880D01*
G01*
X97440001Y-135887844D02*
G75*
G02*
X97390516Y-136104721I-499990J-1D01*
G01*
X98093289Y-136753299D02*
G75*
G02*
X97390517Y-136104721I-252258J431700D01*
G01*
X98093289Y-136753299D02*
G75*
G02*
X98345547Y-136685000I252261J-431710D01*
G01*
X98345548Y-133685001D02*
G75*
G02*
X98093289Y-133616702I2J500009D01*
G01*
X99934453Y-136685001D02*
G75*
G02*
X100186711Y-136753300I-3J-500009D01*
G01*
X100186710Y-133616702D02*
G75*
G02*
X99934452Y-133685000I-252260J431712D01*
G01*
X100186711Y-133616704D02*
G75*
G02*
X100889480Y-134265279I252259J-431696D01*
G01*
X100839999Y-134482158D02*
G75*
G02*
X100889484Y-134265281I500351J-82D01*
G01*
X100889484Y-136104721D02*
G75*
G02*
X100186711Y-136753300I-450514J-216879D01*
G01*
X100889484Y-136104721D02*
G75*
G02*
X100839987Y-135887843I451016J217021D01*
G01*
%TO.C,LED11*%
X345090001Y-115432159D02*
X345090001Y-116837843D01*
X345995547Y-117635000D02*
X347584452Y-117635000D01*
X347584452Y-114635001D02*
X345995548Y-114635001D01*
X348489999Y-116837843D02*
X348489999Y-115432159D01*
X345040516Y-115215281D02*
G75*
G02*
X345090001Y-115432159I-450505J-216876D01*
G01*
X345040516Y-115215282D02*
G75*
G02*
X345743289Y-114566702I450514J216880D01*
G01*
X345090001Y-116837844D02*
G75*
G02*
X345040516Y-117054721I-499990J-1D01*
G01*
X345743289Y-117703299D02*
G75*
G02*
X345040517Y-117054721I-252258J431700D01*
G01*
X345743289Y-117703299D02*
G75*
G02*
X345995547Y-117635000I252261J-431710D01*
G01*
X345995548Y-114635001D02*
G75*
G02*
X345743289Y-114566702I2J500009D01*
G01*
X347584453Y-117635001D02*
G75*
G02*
X347836711Y-117703300I-3J-500009D01*
G01*
X347836710Y-114566702D02*
G75*
G02*
X347584452Y-114635000I-252260J431712D01*
G01*
X347836711Y-114566704D02*
G75*
G02*
X348539480Y-115215279I252259J-431696D01*
G01*
X348489999Y-115432158D02*
G75*
G02*
X348539484Y-115215281I500351J-82D01*
G01*
X348539484Y-117054721D02*
G75*
G02*
X347836711Y-117703300I-450514J-216879D01*
G01*
X348539484Y-117054721D02*
G75*
G02*
X348489987Y-116837843I451016J217021D01*
G01*
%TO.C,LED59*%
X221265001Y-182107159D02*
X221265001Y-183512843D01*
X222170547Y-184310000D02*
X223759452Y-184310000D01*
X223759452Y-181310001D02*
X222170548Y-181310001D01*
X224664999Y-183512843D02*
X224664999Y-182107159D01*
X221215516Y-181890281D02*
G75*
G02*
X221265001Y-182107159I-450505J-216876D01*
G01*
X221215516Y-181890282D02*
G75*
G02*
X221918289Y-181241702I450514J216880D01*
G01*
X221265001Y-183512844D02*
G75*
G02*
X221215516Y-183729721I-499990J-1D01*
G01*
X221918289Y-184378299D02*
G75*
G02*
X221215517Y-183729721I-252258J431700D01*
G01*
X221918289Y-184378299D02*
G75*
G02*
X222170547Y-184310000I252261J-431710D01*
G01*
X222170548Y-181310001D02*
G75*
G02*
X221918289Y-181241702I2J500009D01*
G01*
X223759453Y-184310001D02*
G75*
G02*
X224011711Y-184378300I-3J-500009D01*
G01*
X224011710Y-181241702D02*
G75*
G02*
X223759452Y-181310000I-252260J431712D01*
G01*
X224011711Y-181241704D02*
G75*
G02*
X224714480Y-181890279I252259J-431696D01*
G01*
X224664999Y-182107158D02*
G75*
G02*
X224714484Y-181890281I500351J-82D01*
G01*
X224714484Y-183729721D02*
G75*
G02*
X224011711Y-184378300I-450514J-216879D01*
G01*
X224714484Y-183729721D02*
G75*
G02*
X224664987Y-183512843I451016J217021D01*
G01*
%TO.C,LED68*%
X407002501Y-182107159D02*
X407002501Y-183512843D01*
X407908047Y-184310000D02*
X409496952Y-184310000D01*
X409496952Y-181310001D02*
X407908048Y-181310001D01*
X410402499Y-183512843D02*
X410402499Y-182107159D01*
X406953016Y-181890281D02*
G75*
G02*
X407002501Y-182107159I-450505J-216876D01*
G01*
X406953016Y-181890282D02*
G75*
G02*
X407655789Y-181241702I450514J216880D01*
G01*
X407002501Y-183512844D02*
G75*
G02*
X406953016Y-183729721I-499990J-1D01*
G01*
X407655789Y-184378299D02*
G75*
G02*
X406953017Y-183729721I-252258J431700D01*
G01*
X407655789Y-184378299D02*
G75*
G02*
X407908047Y-184310000I252261J-431710D01*
G01*
X407908048Y-181310001D02*
G75*
G02*
X407655789Y-181241702I2J500009D01*
G01*
X409496953Y-184310001D02*
G75*
G02*
X409749211Y-184378300I-3J-500009D01*
G01*
X409749210Y-181241702D02*
G75*
G02*
X409496952Y-181310000I-252260J431712D01*
G01*
X409749211Y-181241704D02*
G75*
G02*
X410451980Y-181890279I252259J-431696D01*
G01*
X410402499Y-182107158D02*
G75*
G02*
X410451984Y-181890281I500351J-82D01*
G01*
X410451984Y-183729721D02*
G75*
G02*
X409749211Y-184378300I-450514J-216879D01*
G01*
X410451984Y-183729721D02*
G75*
G02*
X410402487Y-183512843I451016J217021D01*
G01*
%TO.C,LED94*%
X178402501Y-220207159D02*
X178402501Y-221612843D01*
X179308047Y-222410000D02*
X180896952Y-222410000D01*
X180896952Y-219410001D02*
X179308048Y-219410001D01*
X181802499Y-221612843D02*
X181802499Y-220207159D01*
X178353016Y-219990281D02*
G75*
G02*
X178402501Y-220207159I-450505J-216876D01*
G01*
X178353016Y-219990282D02*
G75*
G02*
X179055789Y-219341702I450514J216880D01*
G01*
X178402501Y-221612844D02*
G75*
G02*
X178353016Y-221829721I-499990J-1D01*
G01*
X179055789Y-222478299D02*
G75*
G02*
X178353017Y-221829721I-252258J431700D01*
G01*
X179055789Y-222478299D02*
G75*
G02*
X179308047Y-222410000I252261J-431710D01*
G01*
X179308048Y-219410001D02*
G75*
G02*
X179055789Y-219341702I2J500009D01*
G01*
X180896953Y-222410001D02*
G75*
G02*
X181149211Y-222478300I-3J-500009D01*
G01*
X181149210Y-219341702D02*
G75*
G02*
X180896952Y-219410000I-252260J431712D01*
G01*
X181149211Y-219341704D02*
G75*
G02*
X181851980Y-219990279I252259J-431696D01*
G01*
X181802499Y-220207158D02*
G75*
G02*
X181851984Y-219990281I500351J-82D01*
G01*
X181851984Y-221829721D02*
G75*
G02*
X181149211Y-222478300I-450514J-216879D01*
G01*
X181851984Y-221829721D02*
G75*
G02*
X181802487Y-221612843I451016J217021D01*
G01*
%TO.C,LED116*%
X387952501Y-239257159D02*
X387952501Y-240662843D01*
X388858047Y-241460000D02*
X390446952Y-241460000D01*
X390446952Y-238460001D02*
X388858048Y-238460001D01*
X391352499Y-240662843D02*
X391352499Y-239257159D01*
X387903016Y-239040281D02*
G75*
G02*
X387952501Y-239257159I-450505J-216876D01*
G01*
X387903016Y-239040282D02*
G75*
G02*
X388605789Y-238391702I450514J216880D01*
G01*
X387952501Y-240662844D02*
G75*
G02*
X387903016Y-240879721I-499990J-1D01*
G01*
X388605789Y-241528299D02*
G75*
G02*
X387903017Y-240879721I-252258J431700D01*
G01*
X388605789Y-241528299D02*
G75*
G02*
X388858047Y-241460000I252261J-431710D01*
G01*
X388858048Y-238460001D02*
G75*
G02*
X388605789Y-238391702I2J500009D01*
G01*
X390446953Y-241460001D02*
G75*
G02*
X390699211Y-241528300I-3J-500009D01*
G01*
X390699210Y-238391702D02*
G75*
G02*
X390446952Y-238460000I-252260J431712D01*
G01*
X390699211Y-238391704D02*
G75*
G02*
X391401980Y-239040279I252259J-431696D01*
G01*
X391352499Y-239257158D02*
G75*
G02*
X391401984Y-239040281I500351J-82D01*
G01*
X391401984Y-240879721D02*
G75*
G02*
X390699211Y-241528300I-450514J-216879D01*
G01*
X391401984Y-240879721D02*
G75*
G02*
X391352487Y-240662843I451016J217021D01*
G01*
%TD*%
M02*
