%TF.GenerationSoftware,KiCad,Pcbnew,8.0.8*%
%TF.CreationDate,2025-04-23T12:27:23+02:00*%
%TF.ProjectId,Clavier,436c6176-6965-4722-9e6b-696361645f70,0.0*%
%TF.SameCoordinates,Original*%
%TF.FileFunction,Legend,Top*%
%TF.FilePolarity,Positive*%
%FSLAX46Y46*%
G04 Gerber Fmt 4.6, Leading zero omitted, Abs format (unit mm)*
G04 Created by KiCad (PCBNEW 8.0.8) date 2025-04-23 12:27:23*
%MOMM*%
%LPD*%
G01*
G04 APERTURE LIST*
%ADD10C,0.300000*%
%ADD11C,0.150000*%
%ADD12C,0.120000*%
%ADD13C,0.200000*%
%ADD14C,3.048000*%
%ADD15C,3.987800*%
%ADD16R,2.000000X2.000000*%
%ADD17C,2.000000*%
%ADD18R,3.200000X2.000000*%
%ADD19C,1.524000*%
%ADD20C,2.600000*%
%ADD21C,1.750000*%
%ADD22C,3.300000*%
%ADD23C,3.500000*%
%ADD24R,1.700000X1.700000*%
%ADD25O,1.700000X1.700000*%
%ADD26C,0.650000*%
%ADD27O,1.000000X1.800000*%
%ADD28O,1.000000X2.100000*%
G04 APERTURE END LIST*
D10*
X503950880Y-110440682D02*
X503450880Y-109726396D01*
X503093737Y-110440682D02*
X503093737Y-108940682D01*
X503093737Y-108940682D02*
X503665166Y-108940682D01*
X503665166Y-108940682D02*
X503808023Y-109012111D01*
X503808023Y-109012111D02*
X503879452Y-109083539D01*
X503879452Y-109083539D02*
X503950880Y-109226396D01*
X503950880Y-109226396D02*
X503950880Y-109440682D01*
X503950880Y-109440682D02*
X503879452Y-109583539D01*
X503879452Y-109583539D02*
X503808023Y-109654968D01*
X503808023Y-109654968D02*
X503665166Y-109726396D01*
X503665166Y-109726396D02*
X503093737Y-109726396D01*
X504522309Y-110012111D02*
X505236595Y-110012111D01*
X504379452Y-110440682D02*
X504879452Y-108940682D01*
X504879452Y-108940682D02*
X505379452Y-110440682D01*
X505879451Y-110440682D02*
X505879451Y-108940682D01*
X505879451Y-108940682D02*
X506450880Y-108940682D01*
X506450880Y-108940682D02*
X506593737Y-109012111D01*
X506593737Y-109012111D02*
X506665166Y-109083539D01*
X506665166Y-109083539D02*
X506736594Y-109226396D01*
X506736594Y-109226396D02*
X506736594Y-109440682D01*
X506736594Y-109440682D02*
X506665166Y-109583539D01*
X506665166Y-109583539D02*
X506593737Y-109654968D01*
X506593737Y-109654968D02*
X506450880Y-109726396D01*
X506450880Y-109726396D02*
X505879451Y-109726396D01*
X507379451Y-110440682D02*
X507379451Y-108940682D01*
X507379451Y-108940682D02*
X507950880Y-108940682D01*
X507950880Y-108940682D02*
X508093737Y-109012111D01*
X508093737Y-109012111D02*
X508165166Y-109083539D01*
X508165166Y-109083539D02*
X508236594Y-109226396D01*
X508236594Y-109226396D02*
X508236594Y-109440682D01*
X508236594Y-109440682D02*
X508165166Y-109583539D01*
X508165166Y-109583539D02*
X508093737Y-109654968D01*
X508093737Y-109654968D02*
X507950880Y-109726396D01*
X507950880Y-109726396D02*
X507379451Y-109726396D01*
X508879451Y-109654968D02*
X509379451Y-109654968D01*
X509593737Y-110440682D02*
X508879451Y-110440682D01*
X508879451Y-110440682D02*
X508879451Y-108940682D01*
X508879451Y-108940682D02*
X509593737Y-108940682D01*
X510236594Y-110440682D02*
X510236594Y-108940682D01*
X510236594Y-108940682D02*
X510808023Y-108940682D01*
X510808023Y-108940682D02*
X510950880Y-109012111D01*
X510950880Y-109012111D02*
X511022309Y-109083539D01*
X511022309Y-109083539D02*
X511093737Y-109226396D01*
X511093737Y-109226396D02*
X511093737Y-109440682D01*
X511093737Y-109440682D02*
X511022309Y-109583539D01*
X511022309Y-109583539D02*
X510950880Y-109654968D01*
X510950880Y-109654968D02*
X510808023Y-109726396D01*
X510808023Y-109726396D02*
X510236594Y-109726396D01*
X511736594Y-110440682D02*
X511736594Y-108940682D01*
X502629453Y-111498455D02*
X502700881Y-111427027D01*
X502700881Y-111427027D02*
X502843739Y-111355598D01*
X502843739Y-111355598D02*
X503200881Y-111355598D01*
X503200881Y-111355598D02*
X503343739Y-111427027D01*
X503343739Y-111427027D02*
X503415167Y-111498455D01*
X503415167Y-111498455D02*
X503486596Y-111641312D01*
X503486596Y-111641312D02*
X503486596Y-111784170D01*
X503486596Y-111784170D02*
X503415167Y-111998455D01*
X503415167Y-111998455D02*
X502558024Y-112855598D01*
X502558024Y-112855598D02*
X503486596Y-112855598D01*
X504415167Y-111355598D02*
X504558024Y-111355598D01*
X504558024Y-111355598D02*
X504700881Y-111427027D01*
X504700881Y-111427027D02*
X504772310Y-111498455D01*
X504772310Y-111498455D02*
X504843738Y-111641312D01*
X504843738Y-111641312D02*
X504915167Y-111927027D01*
X504915167Y-111927027D02*
X504915167Y-112284170D01*
X504915167Y-112284170D02*
X504843738Y-112569884D01*
X504843738Y-112569884D02*
X504772310Y-112712741D01*
X504772310Y-112712741D02*
X504700881Y-112784170D01*
X504700881Y-112784170D02*
X504558024Y-112855598D01*
X504558024Y-112855598D02*
X504415167Y-112855598D01*
X504415167Y-112855598D02*
X504272310Y-112784170D01*
X504272310Y-112784170D02*
X504200881Y-112712741D01*
X504200881Y-112712741D02*
X504129452Y-112569884D01*
X504129452Y-112569884D02*
X504058024Y-112284170D01*
X504058024Y-112284170D02*
X504058024Y-111927027D01*
X504058024Y-111927027D02*
X504129452Y-111641312D01*
X504129452Y-111641312D02*
X504200881Y-111498455D01*
X504200881Y-111498455D02*
X504272310Y-111427027D01*
X504272310Y-111427027D02*
X504415167Y-111355598D01*
X505486595Y-111498455D02*
X505558023Y-111427027D01*
X505558023Y-111427027D02*
X505700881Y-111355598D01*
X505700881Y-111355598D02*
X506058023Y-111355598D01*
X506058023Y-111355598D02*
X506200881Y-111427027D01*
X506200881Y-111427027D02*
X506272309Y-111498455D01*
X506272309Y-111498455D02*
X506343738Y-111641312D01*
X506343738Y-111641312D02*
X506343738Y-111784170D01*
X506343738Y-111784170D02*
X506272309Y-111998455D01*
X506272309Y-111998455D02*
X505415166Y-112855598D01*
X505415166Y-112855598D02*
X506343738Y-112855598D01*
X507700880Y-111355598D02*
X506986594Y-111355598D01*
X506986594Y-111355598D02*
X506915166Y-112069884D01*
X506915166Y-112069884D02*
X506986594Y-111998455D01*
X506986594Y-111998455D02*
X507129452Y-111927027D01*
X507129452Y-111927027D02*
X507486594Y-111927027D01*
X507486594Y-111927027D02*
X507629452Y-111998455D01*
X507629452Y-111998455D02*
X507700880Y-112069884D01*
X507700880Y-112069884D02*
X507772309Y-112212741D01*
X507772309Y-112212741D02*
X507772309Y-112569884D01*
X507772309Y-112569884D02*
X507700880Y-112712741D01*
X507700880Y-112712741D02*
X507629452Y-112784170D01*
X507629452Y-112784170D02*
X507486594Y-112855598D01*
X507486594Y-112855598D02*
X507129452Y-112855598D01*
X507129452Y-112855598D02*
X506986594Y-112784170D01*
X506986594Y-112784170D02*
X506915166Y-112712741D01*
X509486594Y-111284170D02*
X508200880Y-113212741D01*
X510272309Y-111355598D02*
X510415166Y-111355598D01*
X510415166Y-111355598D02*
X510558023Y-111427027D01*
X510558023Y-111427027D02*
X510629452Y-111498455D01*
X510629452Y-111498455D02*
X510700880Y-111641312D01*
X510700880Y-111641312D02*
X510772309Y-111927027D01*
X510772309Y-111927027D02*
X510772309Y-112284170D01*
X510772309Y-112284170D02*
X510700880Y-112569884D01*
X510700880Y-112569884D02*
X510629452Y-112712741D01*
X510629452Y-112712741D02*
X510558023Y-112784170D01*
X510558023Y-112784170D02*
X510415166Y-112855598D01*
X510415166Y-112855598D02*
X510272309Y-112855598D01*
X510272309Y-112855598D02*
X510129452Y-112784170D01*
X510129452Y-112784170D02*
X510058023Y-112712741D01*
X510058023Y-112712741D02*
X509986594Y-112569884D01*
X509986594Y-112569884D02*
X509915166Y-112284170D01*
X509915166Y-112284170D02*
X509915166Y-111927027D01*
X509915166Y-111927027D02*
X509986594Y-111641312D01*
X509986594Y-111641312D02*
X510058023Y-111498455D01*
X510058023Y-111498455D02*
X510129452Y-111427027D01*
X510129452Y-111427027D02*
X510272309Y-111355598D01*
X512058023Y-111855598D02*
X512058023Y-112855598D01*
X511700880Y-111284170D02*
X511343737Y-112355598D01*
X511343737Y-112355598D02*
X512272308Y-112355598D01*
X504200880Y-115270514D02*
X503700880Y-114556228D01*
X503343737Y-115270514D02*
X503343737Y-113770514D01*
X503343737Y-113770514D02*
X503915166Y-113770514D01*
X503915166Y-113770514D02*
X504058023Y-113841943D01*
X504058023Y-113841943D02*
X504129452Y-113913371D01*
X504129452Y-113913371D02*
X504200880Y-114056228D01*
X504200880Y-114056228D02*
X504200880Y-114270514D01*
X504200880Y-114270514D02*
X504129452Y-114413371D01*
X504129452Y-114413371D02*
X504058023Y-114484800D01*
X504058023Y-114484800D02*
X503915166Y-114556228D01*
X503915166Y-114556228D02*
X503343737Y-114556228D01*
X504843737Y-114484800D02*
X505343737Y-114484800D01*
X505558023Y-115270514D02*
X504843737Y-115270514D01*
X504843737Y-115270514D02*
X504843737Y-113770514D01*
X504843737Y-113770514D02*
X505558023Y-113770514D01*
X505986595Y-113770514D02*
X506486595Y-115270514D01*
X506486595Y-115270514D02*
X506986595Y-113770514D01*
X509415166Y-115270514D02*
X508558023Y-115270514D01*
X508986594Y-115270514D02*
X508986594Y-113770514D01*
X508986594Y-113770514D02*
X508843737Y-113984800D01*
X508843737Y-113984800D02*
X508700880Y-114127657D01*
X508700880Y-114127657D02*
X508558023Y-114199086D01*
X510058022Y-115127657D02*
X510129451Y-115199086D01*
X510129451Y-115199086D02*
X510058022Y-115270514D01*
X510058022Y-115270514D02*
X509986594Y-115199086D01*
X509986594Y-115199086D02*
X510058022Y-115127657D01*
X510058022Y-115127657D02*
X510058022Y-115270514D01*
X511058023Y-113770514D02*
X511200880Y-113770514D01*
X511200880Y-113770514D02*
X511343737Y-113841943D01*
X511343737Y-113841943D02*
X511415166Y-113913371D01*
X511415166Y-113913371D02*
X511486594Y-114056228D01*
X511486594Y-114056228D02*
X511558023Y-114341943D01*
X511558023Y-114341943D02*
X511558023Y-114699086D01*
X511558023Y-114699086D02*
X511486594Y-114984800D01*
X511486594Y-114984800D02*
X511415166Y-115127657D01*
X511415166Y-115127657D02*
X511343737Y-115199086D01*
X511343737Y-115199086D02*
X511200880Y-115270514D01*
X511200880Y-115270514D02*
X511058023Y-115270514D01*
X511058023Y-115270514D02*
X510915166Y-115199086D01*
X510915166Y-115199086D02*
X510843737Y-115127657D01*
X510843737Y-115127657D02*
X510772308Y-114984800D01*
X510772308Y-114984800D02*
X510700880Y-114699086D01*
X510700880Y-114699086D02*
X510700880Y-114341943D01*
X510700880Y-114341943D02*
X510772308Y-114056228D01*
X510772308Y-114056228D02*
X510843737Y-113913371D01*
X510843737Y-113913371D02*
X510915166Y-113841943D01*
X510915166Y-113841943D02*
X511058023Y-113770514D01*
D11*
X92981833Y-114384470D02*
X93124690Y-114432089D01*
X93124690Y-114432089D02*
X93362785Y-114432089D01*
X93362785Y-114432089D02*
X93458023Y-114384470D01*
X93458023Y-114384470D02*
X93505642Y-114336850D01*
X93505642Y-114336850D02*
X93553261Y-114241612D01*
X93553261Y-114241612D02*
X93553261Y-114146374D01*
X93553261Y-114146374D02*
X93505642Y-114051136D01*
X93505642Y-114051136D02*
X93458023Y-114003517D01*
X93458023Y-114003517D02*
X93362785Y-113955898D01*
X93362785Y-113955898D02*
X93172309Y-113908279D01*
X93172309Y-113908279D02*
X93077071Y-113860660D01*
X93077071Y-113860660D02*
X93029452Y-113813041D01*
X93029452Y-113813041D02*
X92981833Y-113717803D01*
X92981833Y-113717803D02*
X92981833Y-113622565D01*
X92981833Y-113622565D02*
X93029452Y-113527327D01*
X93029452Y-113527327D02*
X93077071Y-113479708D01*
X93077071Y-113479708D02*
X93172309Y-113432089D01*
X93172309Y-113432089D02*
X93410404Y-113432089D01*
X93410404Y-113432089D02*
X93553261Y-113479708D01*
X93886595Y-113432089D02*
X94124690Y-114432089D01*
X94124690Y-114432089D02*
X94315166Y-113717803D01*
X94315166Y-113717803D02*
X94505642Y-114432089D01*
X94505642Y-114432089D02*
X94743738Y-113432089D01*
X95029452Y-113432089D02*
X95648499Y-113432089D01*
X95648499Y-113432089D02*
X95315166Y-113813041D01*
X95315166Y-113813041D02*
X95458023Y-113813041D01*
X95458023Y-113813041D02*
X95553261Y-113860660D01*
X95553261Y-113860660D02*
X95600880Y-113908279D01*
X95600880Y-113908279D02*
X95648499Y-114003517D01*
X95648499Y-114003517D02*
X95648499Y-114241612D01*
X95648499Y-114241612D02*
X95600880Y-114336850D01*
X95600880Y-114336850D02*
X95553261Y-114384470D01*
X95553261Y-114384470D02*
X95458023Y-114432089D01*
X95458023Y-114432089D02*
X95172309Y-114432089D01*
X95172309Y-114432089D02*
X95077071Y-114384470D01*
X95077071Y-114384470D02*
X95029452Y-114336850D01*
X459344761Y-138019819D02*
X459011428Y-137543628D01*
X458773333Y-138019819D02*
X458773333Y-137019819D01*
X458773333Y-137019819D02*
X459154285Y-137019819D01*
X459154285Y-137019819D02*
X459249523Y-137067438D01*
X459249523Y-137067438D02*
X459297142Y-137115057D01*
X459297142Y-137115057D02*
X459344761Y-137210295D01*
X459344761Y-137210295D02*
X459344761Y-137353152D01*
X459344761Y-137353152D02*
X459297142Y-137448390D01*
X459297142Y-137448390D02*
X459249523Y-137496009D01*
X459249523Y-137496009D02*
X459154285Y-137543628D01*
X459154285Y-137543628D02*
X458773333Y-137543628D01*
X459630476Y-137019819D02*
X459963809Y-138019819D01*
X459963809Y-138019819D02*
X460297142Y-137019819D01*
X460582857Y-137115057D02*
X460630476Y-137067438D01*
X460630476Y-137067438D02*
X460725714Y-137019819D01*
X460725714Y-137019819D02*
X460963809Y-137019819D01*
X460963809Y-137019819D02*
X461059047Y-137067438D01*
X461059047Y-137067438D02*
X461106666Y-137115057D01*
X461106666Y-137115057D02*
X461154285Y-137210295D01*
X461154285Y-137210295D02*
X461154285Y-137305533D01*
X461154285Y-137305533D02*
X461106666Y-137448390D01*
X461106666Y-137448390D02*
X460535238Y-138019819D01*
X460535238Y-138019819D02*
X461154285Y-138019819D01*
X454344761Y-118919819D02*
X454011428Y-118443628D01*
X453773333Y-118919819D02*
X453773333Y-117919819D01*
X453773333Y-117919819D02*
X454154285Y-117919819D01*
X454154285Y-117919819D02*
X454249523Y-117967438D01*
X454249523Y-117967438D02*
X454297142Y-118015057D01*
X454297142Y-118015057D02*
X454344761Y-118110295D01*
X454344761Y-118110295D02*
X454344761Y-118253152D01*
X454344761Y-118253152D02*
X454297142Y-118348390D01*
X454297142Y-118348390D02*
X454249523Y-118396009D01*
X454249523Y-118396009D02*
X454154285Y-118443628D01*
X454154285Y-118443628D02*
X453773333Y-118443628D01*
X454630476Y-117919819D02*
X454963809Y-118919819D01*
X454963809Y-118919819D02*
X455297142Y-117919819D01*
X456154285Y-118919819D02*
X455582857Y-118919819D01*
X455868571Y-118919819D02*
X455868571Y-117919819D01*
X455868571Y-117919819D02*
X455773333Y-118062676D01*
X455773333Y-118062676D02*
X455678095Y-118157914D01*
X455678095Y-118157914D02*
X455582857Y-118205533D01*
D12*
%TO.C,SW3*%
X92540000Y-115385000D02*
X96640000Y-115385000D01*
X92540000Y-117785000D02*
X92540000Y-115385000D01*
X92540000Y-122585000D02*
X92540000Y-119985000D01*
X92540000Y-127185000D02*
X92540000Y-124785000D01*
X96640000Y-127185000D02*
X92540000Y-127185000D01*
X98640000Y-121785000D02*
X98640000Y-120785000D01*
X99140000Y-121285000D02*
X98140000Y-121285000D01*
X100640000Y-115385000D02*
X104740000Y-115385000D01*
X100640000Y-127185000D02*
X104740000Y-127185000D01*
X104740000Y-127185000D02*
X104740000Y-115385000D01*
X105840000Y-125385000D02*
X106140000Y-125085000D01*
X106140000Y-125085000D02*
X106440000Y-125385000D01*
X106440000Y-125385000D02*
X105840000Y-125385000D01*
X101640000Y-121285000D02*
G75*
G02*
X95640000Y-121285000I-3000000J0D01*
G01*
X95640000Y-121285000D02*
G75*
G02*
X101640000Y-121285000I3000000J0D01*
G01*
%TO.C,RV2*%
D13*
X441640000Y-134835000D02*
X518640000Y-134835000D01*
X518640000Y-145835000D01*
X441640000Y-145835000D01*
X441640000Y-134835000D01*
%TO.C,RV1*%
X441640000Y-115785000D02*
X518640000Y-115785000D01*
X518640000Y-126785000D01*
X441640000Y-126785000D01*
X441640000Y-115785000D01*
%TD*%
%LPC*%
D14*
%TO.C,S2*%
X356473750Y-185578750D03*
X356473750Y-209391250D03*
D15*
X371713750Y-185578750D03*
X371713750Y-209391250D03*
%TD*%
%TO.C,S1*%
X344408750Y-177165000D03*
X368221250Y-177165000D03*
%TD*%
%TO.C,S7*%
X449183750Y-253365000D03*
X472996250Y-253365000D03*
%TD*%
D16*
%TO.C,SW3*%
X106140000Y-123785000D03*
D17*
X106140000Y-118785000D03*
X106140000Y-121285000D03*
D18*
X98640000Y-126885000D03*
X98640000Y-115685000D03*
D17*
X91640000Y-118785000D03*
X91640000Y-123785000D03*
%TD*%
D15*
%TO.C,S5*%
X516970000Y-247491250D03*
X516970000Y-223678750D03*
%TD*%
%TO.C,S6*%
X170577500Y-253365000D03*
X270590000Y-253365000D03*
%TD*%
%TO.C,S3*%
X516970000Y-209391250D03*
X516970000Y-185578750D03*
%TD*%
%TO.C,S4*%
X337265000Y-234315000D03*
X361077500Y-234315000D03*
%TD*%
D19*
%TO.C,RV2*%
X445140000Y-139085000D03*
X445140000Y-136585000D03*
X515140000Y-139085000D03*
X445140000Y-144085000D03*
X445140000Y-141585000D03*
X515140000Y-144085000D03*
D20*
X455140000Y-140335000D03*
X502640000Y-140335000D03*
%TD*%
D19*
%TO.C,RV1*%
X445140000Y-120035000D03*
X445140000Y-117535000D03*
X515140000Y-120035000D03*
X445140000Y-125035000D03*
X445140000Y-122535000D03*
X515140000Y-125035000D03*
D20*
X455140000Y-121285000D03*
X502640000Y-121285000D03*
%TD*%
D21*
%TO.C,MX42*%
X284560000Y-168910000D03*
D15*
X289640000Y-168910000D03*
D21*
X294720000Y-168910000D03*
D22*
X293450000Y-171450000D03*
X287100000Y-173990000D03*
%TD*%
D21*
%TO.C,MX60*%
X236935000Y-187960000D03*
D15*
X242015000Y-187960000D03*
D21*
X247095000Y-187960000D03*
D22*
X245825000Y-190500000D03*
X239475000Y-193040000D03*
%TD*%
D21*
%TO.C,MX53*%
X98822500Y-187960000D03*
D15*
X103902500Y-187960000D03*
D21*
X108982500Y-187960000D03*
D22*
X107712500Y-190500000D03*
X101362500Y-193040000D03*
%TD*%
D21*
%TO.C,MX84*%
X298847500Y-207010000D03*
D15*
X303927500Y-207010000D03*
D21*
X309007500Y-207010000D03*
D22*
X307737500Y-209550000D03*
X301387500Y-212090000D03*
%TD*%
D21*
%TO.C,MX30*%
X403622500Y-140335000D03*
D15*
X408702500Y-140335000D03*
D21*
X413782500Y-140335000D03*
D22*
X412512500Y-142875000D03*
X406162500Y-145415000D03*
%TD*%
D21*
%TO.C,MX74*%
X101203750Y-207010000D03*
D15*
X106283750Y-207010000D03*
D21*
X111363750Y-207010000D03*
D22*
X110093750Y-209550000D03*
X103743750Y-212090000D03*
%TD*%
D21*
%TO.C,MX63*%
X294085000Y-187960000D03*
D15*
X299165000Y-187960000D03*
D21*
X304245000Y-187960000D03*
D22*
X302975000Y-190500000D03*
X296625000Y-193040000D03*
%TD*%
D21*
%TO.C,MX15*%
X422672500Y-121285000D03*
D15*
X427752500Y-121285000D03*
D21*
X432832500Y-121285000D03*
D22*
X431562500Y-123825000D03*
X425212500Y-126365000D03*
%TD*%
D21*
%TO.C,MX54*%
X122635000Y-187960000D03*
D15*
X127715000Y-187960000D03*
D21*
X132795000Y-187960000D03*
D22*
X131525000Y-190500000D03*
X125175000Y-193040000D03*
%TD*%
D21*
%TO.C,MX23*%
X255985000Y-140335000D03*
D15*
X261065000Y-140335000D03*
D21*
X266145000Y-140335000D03*
D22*
X264875000Y-142875000D03*
X258525000Y-145415000D03*
%TD*%
D21*
%TO.C,MX22*%
X236935000Y-140335000D03*
D15*
X242015000Y-140335000D03*
D21*
X247095000Y-140335000D03*
D22*
X245825000Y-142875000D03*
X239475000Y-145415000D03*
%TD*%
D21*
%TO.C,MX45*%
X351235000Y-168910000D03*
D15*
X356315000Y-168910000D03*
D21*
X361395000Y-168910000D03*
D22*
X360125000Y-171450000D03*
X353775000Y-173990000D03*
%TD*%
D21*
%TO.C,MX86*%
X336947500Y-207010000D03*
D15*
X342027500Y-207010000D03*
D21*
X347107500Y-207010000D03*
D22*
X345837500Y-209550000D03*
X339487500Y-212090000D03*
%TD*%
D21*
%TO.C,MX28*%
X360760000Y-140335000D03*
D15*
X365840000Y-140335000D03*
D21*
X370920000Y-140335000D03*
D22*
X369650000Y-142875000D03*
X363300000Y-145415000D03*
%TD*%
D21*
%TO.C,MX114*%
X334566250Y-245110000D03*
D15*
X339646250Y-245110000D03*
D21*
X344726250Y-245110000D03*
D22*
X343456250Y-247650000D03*
X337106250Y-250190000D03*
%TD*%
D21*
%TO.C,MX68*%
X403622500Y-187960000D03*
D15*
X408702500Y-187960000D03*
D21*
X413782500Y-187960000D03*
D22*
X412512500Y-190500000D03*
X406162500Y-193040000D03*
%TD*%
D21*
%TO.C,MX115*%
X358378750Y-245110000D03*
D15*
X363458750Y-245110000D03*
D21*
X368538750Y-245110000D03*
D22*
X367268750Y-247650000D03*
X360918750Y-250190000D03*
%TD*%
D21*
%TO.C,MX87*%
X446485000Y-207010000D03*
D15*
X451565000Y-207010000D03*
D21*
X456645000Y-207010000D03*
D22*
X455375000Y-209550000D03*
X449025000Y-212090000D03*
%TD*%
D21*
%TO.C,MX117*%
X403622500Y-245110000D03*
D15*
X408702500Y-245110000D03*
D21*
X413782500Y-245110000D03*
D22*
X412512500Y-247650000D03*
X406162500Y-250190000D03*
%TD*%
D21*
%TO.C,MX20*%
X189310000Y-140335000D03*
D15*
X194390000Y-140335000D03*
D21*
X199470000Y-140335000D03*
D22*
X198200000Y-142875000D03*
X191850000Y-145415000D03*
%TD*%
D23*
%TO.C,H6*%
X294415166Y-142177270D03*
%TD*%
D21*
%TO.C,MX58*%
X198835000Y-187960000D03*
D15*
X203915000Y-187960000D03*
D21*
X208995000Y-187960000D03*
D22*
X207725000Y-190500000D03*
X201375000Y-193040000D03*
%TD*%
D21*
%TO.C,MX101*%
X308372500Y-226060000D03*
D15*
X313452500Y-226060000D03*
D21*
X318532500Y-226060000D03*
D22*
X317262500Y-228600000D03*
X310912500Y-231140000D03*
%TD*%
D21*
%TO.C,MX64*%
X313135000Y-187960000D03*
D15*
X318215000Y-187960000D03*
D21*
X323295000Y-187960000D03*
D22*
X322025000Y-190500000D03*
X315675000Y-193040000D03*
%TD*%
D24*
%TO.C,J2*%
X500715166Y-155177270D03*
D25*
X498175166Y-155177270D03*
X495635166Y-155177270D03*
X493095166Y-155177270D03*
%TD*%
D21*
%TO.C,MX66*%
X358378750Y-197485000D03*
D15*
X363458750Y-197485000D03*
D21*
X368538750Y-197485000D03*
D22*
X367268750Y-200025000D03*
X360918750Y-202565000D03*
%TD*%
D21*
%TO.C,MX95*%
X194072500Y-226060000D03*
D15*
X199152500Y-226060000D03*
D21*
X204232500Y-226060000D03*
D22*
X202962500Y-228600000D03*
X196612500Y-231140000D03*
%TD*%
D21*
%TO.C,MX14*%
X403622500Y-121285000D03*
D15*
X408702500Y-121285000D03*
D21*
X413782500Y-121285000D03*
D22*
X412512500Y-123825000D03*
X406162500Y-126365000D03*
%TD*%
D21*
%TO.C,MX85*%
X317897500Y-207010000D03*
D15*
X322977500Y-207010000D03*
D21*
X328057500Y-207010000D03*
D22*
X326787500Y-209550000D03*
X320437500Y-212090000D03*
%TD*%
D21*
%TO.C,MX99*%
X270272500Y-226060000D03*
D15*
X275352500Y-226060000D03*
D21*
X280432500Y-226060000D03*
D22*
X279162500Y-228600000D03*
X272812500Y-231140000D03*
%TD*%
D21*
%TO.C,MX113*%
X310753750Y-245110000D03*
D15*
X315833750Y-245110000D03*
D21*
X320913750Y-245110000D03*
D22*
X319643750Y-247650000D03*
X313293750Y-250190000D03*
%TD*%
D21*
%TO.C,MX61*%
X255985000Y-187960000D03*
D15*
X261065000Y-187960000D03*
D21*
X266145000Y-187960000D03*
D22*
X264875000Y-190500000D03*
X258525000Y-193040000D03*
%TD*%
D21*
%TO.C,MX1*%
X132160000Y-121285000D03*
D15*
X137240000Y-121285000D03*
D21*
X142320000Y-121285000D03*
D22*
X141050000Y-123825000D03*
X134700000Y-126365000D03*
%TD*%
D21*
%TO.C,MX49*%
X446485000Y-168910000D03*
D15*
X451565000Y-168910000D03*
D21*
X456645000Y-168910000D03*
D22*
X455375000Y-171450000D03*
X449025000Y-173990000D03*
%TD*%
D21*
%TO.C,MX44*%
X322660000Y-168910000D03*
D15*
X327740000Y-168910000D03*
D21*
X332820000Y-168910000D03*
D22*
X331550000Y-171450000D03*
X325200000Y-173990000D03*
%TD*%
D21*
%TO.C,MX116*%
X384572500Y-245110000D03*
D15*
X389652500Y-245110000D03*
D21*
X394732500Y-245110000D03*
D22*
X393462500Y-247650000D03*
X387112500Y-250190000D03*
%TD*%
D23*
%TO.C,H7*%
X294415166Y-204177270D03*
%TD*%
D21*
%TO.C,MX19*%
X170260000Y-140335000D03*
D15*
X175340000Y-140335000D03*
D21*
X180420000Y-140335000D03*
D22*
X179150000Y-142875000D03*
X172800000Y-145415000D03*
%TD*%
D21*
%TO.C,MX10*%
X322660000Y-121285000D03*
D15*
X327740000Y-121285000D03*
D21*
X332820000Y-121285000D03*
D22*
X331550000Y-123825000D03*
X325200000Y-126365000D03*
%TD*%
D21*
%TO.C,MX75*%
X127397500Y-207010000D03*
D15*
X132477500Y-207010000D03*
D21*
X137557500Y-207010000D03*
D22*
X136287500Y-209550000D03*
X129937500Y-212090000D03*
%TD*%
D21*
%TO.C,MX12*%
X360760000Y-121285000D03*
D15*
X365840000Y-121285000D03*
D21*
X370920000Y-121285000D03*
D22*
X369650000Y-123825000D03*
X363300000Y-126365000D03*
%TD*%
D21*
%TO.C,MX37*%
X189310000Y-168910000D03*
D15*
X194390000Y-168910000D03*
D21*
X199470000Y-168910000D03*
D22*
X198200000Y-171450000D03*
X191850000Y-173990000D03*
%TD*%
D21*
%TO.C,MX96*%
X213122500Y-226060000D03*
D15*
X218202500Y-226060000D03*
D21*
X223282500Y-226060000D03*
D22*
X222012500Y-228600000D03*
X215662500Y-231140000D03*
%TD*%
D21*
%TO.C,MX76*%
X146447500Y-207010000D03*
D15*
X151527500Y-207010000D03*
D21*
X156607500Y-207010000D03*
D22*
X155337500Y-209550000D03*
X148987500Y-212090000D03*
%TD*%
D23*
%TO.C,H10*%
X175415166Y-181177270D03*
%TD*%
D21*
%TO.C,MX57*%
X179785000Y-187960000D03*
D15*
X184865000Y-187960000D03*
D21*
X189945000Y-187960000D03*
D22*
X188675000Y-190500000D03*
X182325000Y-193040000D03*
%TD*%
D21*
%TO.C,MX48*%
X422672500Y-168910000D03*
D15*
X427752500Y-168910000D03*
D21*
X432832500Y-168910000D03*
D22*
X431562500Y-171450000D03*
X425212500Y-173990000D03*
%TD*%
D21*
%TO.C,MX73*%
X503635000Y-197485000D03*
D15*
X508715000Y-197485000D03*
D21*
X513795000Y-197485000D03*
D22*
X512525000Y-200025000D03*
X506175000Y-202565000D03*
%TD*%
D21*
%TO.C,MX106*%
X484585000Y-226060000D03*
D15*
X489665000Y-226060000D03*
D21*
X494745000Y-226060000D03*
D22*
X493475000Y-228600000D03*
X487125000Y-231140000D03*
%TD*%
D21*
%TO.C,MX92*%
X136922500Y-226060000D03*
D15*
X142002500Y-226060000D03*
D21*
X147082500Y-226060000D03*
D22*
X145812500Y-228600000D03*
X139462500Y-231140000D03*
%TD*%
D21*
%TO.C,MX89*%
X484585000Y-207010000D03*
D15*
X489665000Y-207010000D03*
D21*
X494745000Y-207010000D03*
D22*
X493475000Y-209550000D03*
X487125000Y-212090000D03*
%TD*%
D21*
%TO.C,MX109*%
X120253750Y-245110000D03*
D15*
X125333750Y-245110000D03*
D21*
X130413750Y-245110000D03*
D22*
X129143750Y-247650000D03*
X122793750Y-250190000D03*
%TD*%
D21*
%TO.C,MX24*%
X275035000Y-140335000D03*
D15*
X280115000Y-140335000D03*
D21*
X285195000Y-140335000D03*
D22*
X283925000Y-142875000D03*
X277575000Y-145415000D03*
%TD*%
D21*
%TO.C,MX110*%
X144066250Y-245110000D03*
D15*
X149146250Y-245110000D03*
D21*
X154226250Y-245110000D03*
D22*
X152956250Y-247650000D03*
X146606250Y-250190000D03*
%TD*%
D21*
%TO.C,MX34*%
X132160000Y-168910000D03*
D15*
X137240000Y-168910000D03*
D21*
X142320000Y-168910000D03*
D22*
X141050000Y-171450000D03*
X134700000Y-173990000D03*
%TD*%
D21*
%TO.C,MX5*%
X217885000Y-121285000D03*
D15*
X222965000Y-121285000D03*
D21*
X228045000Y-121285000D03*
D22*
X226775000Y-123825000D03*
X220425000Y-126365000D03*
%TD*%
D21*
%TO.C,MX31*%
X422720176Y-140335000D03*
D15*
X427800176Y-140335000D03*
D21*
X432880176Y-140335000D03*
D22*
X431610176Y-142875000D03*
X425260176Y-145415000D03*
%TD*%
D23*
%TO.C,H8*%
X208415166Y-142177270D03*
%TD*%
D21*
%TO.C,MX40*%
X246460000Y-168910000D03*
D15*
X251540000Y-168910000D03*
D21*
X256620000Y-168910000D03*
D22*
X255350000Y-171450000D03*
X249000000Y-173990000D03*
%TD*%
D21*
%TO.C,MX82*%
X260747500Y-207010000D03*
D15*
X265827500Y-207010000D03*
D21*
X270907500Y-207010000D03*
D22*
X269637500Y-209550000D03*
X263287500Y-212090000D03*
%TD*%
D21*
%TO.C,MX79*%
X203597500Y-207010000D03*
D15*
X208677500Y-207010000D03*
D21*
X213757500Y-207010000D03*
D22*
X212487500Y-209550000D03*
X206137500Y-212090000D03*
%TD*%
D21*
%TO.C,MX55*%
X141685000Y-187960000D03*
D15*
X146765000Y-187960000D03*
D21*
X151845000Y-187960000D03*
D22*
X150575000Y-190500000D03*
X144225000Y-193040000D03*
%TD*%
D21*
%TO.C,MX56*%
X160735000Y-187960000D03*
D15*
X165815000Y-187960000D03*
D21*
X170895000Y-187960000D03*
D22*
X169625000Y-190500000D03*
X163275000Y-193040000D03*
%TD*%
D23*
%TO.C,H4*%
X506415166Y-131177270D03*
%TD*%
D21*
%TO.C,MX13*%
X384572500Y-121285000D03*
D15*
X389652500Y-121285000D03*
D21*
X394732500Y-121285000D03*
D22*
X393462500Y-123825000D03*
X387112500Y-126365000D03*
%TD*%
D21*
%TO.C,MX71*%
X465535000Y-187960000D03*
D15*
X470615000Y-187960000D03*
D21*
X475695000Y-187960000D03*
D22*
X474425000Y-190500000D03*
X468075000Y-193040000D03*
%TD*%
D23*
%TO.C,H2*%
X118415166Y-128177270D03*
%TD*%
D21*
%TO.C,MX65*%
X332185000Y-187960000D03*
D15*
X337265000Y-187960000D03*
D21*
X342345000Y-187960000D03*
D22*
X341075000Y-190500000D03*
X334725000Y-193040000D03*
%TD*%
D21*
%TO.C,MX90*%
X96441250Y-226060000D03*
D15*
X101521250Y-226060000D03*
D21*
X106601250Y-226060000D03*
D22*
X105331250Y-228600000D03*
X98981250Y-231140000D03*
%TD*%
D21*
%TO.C,MX120*%
X484585000Y-245110000D03*
D15*
X489665000Y-245110000D03*
D21*
X494745000Y-245110000D03*
D22*
X493475000Y-247650000D03*
X487125000Y-250190000D03*
%TD*%
D21*
%TO.C,MX11*%
X341710000Y-121285000D03*
D15*
X346790000Y-121285000D03*
D21*
X351870000Y-121285000D03*
D22*
X350600000Y-123825000D03*
X344250000Y-126365000D03*
%TD*%
D23*
%TO.C,H11*%
X378415166Y-142177270D03*
%TD*%
%TO.C,H12*%
X251415166Y-181177270D03*
%TD*%
D21*
%TO.C,MX2*%
X151210000Y-121285000D03*
D15*
X156290000Y-121285000D03*
D21*
X161370000Y-121285000D03*
D22*
X160100000Y-123825000D03*
X153750000Y-126365000D03*
%TD*%
D21*
%TO.C,MX93*%
X155972500Y-226060000D03*
D15*
X161052500Y-226060000D03*
D21*
X166132500Y-226060000D03*
D22*
X164862500Y-228600000D03*
X158512500Y-231140000D03*
%TD*%
D21*
%TO.C,MX59*%
X217885000Y-187960000D03*
D15*
X222965000Y-187960000D03*
D21*
X228045000Y-187960000D03*
D22*
X226775000Y-190500000D03*
X220425000Y-193040000D03*
%TD*%
D21*
%TO.C,MX39*%
X227410000Y-168910000D03*
D15*
X232490000Y-168910000D03*
D21*
X237570000Y-168910000D03*
D22*
X236300000Y-171450000D03*
X229950000Y-173990000D03*
%TD*%
D21*
%TO.C,MX77*%
X165497500Y-207010000D03*
D15*
X170577500Y-207010000D03*
D21*
X175657500Y-207010000D03*
D22*
X174387500Y-209550000D03*
X168037500Y-212090000D03*
%TD*%
D23*
%TO.C,H3*%
X509414200Y-254178000D03*
%TD*%
D21*
%TO.C,MX18*%
X151210000Y-140335000D03*
D15*
X156290000Y-140335000D03*
D21*
X161370000Y-140335000D03*
D22*
X160100000Y-142875000D03*
X153750000Y-145415000D03*
%TD*%
D21*
%TO.C,MX17*%
X132160000Y-140335000D03*
D15*
X137240000Y-140335000D03*
D21*
X142320000Y-140335000D03*
D22*
X141050000Y-142875000D03*
X134700000Y-145415000D03*
%TD*%
D21*
%TO.C,MX50*%
X465535000Y-168910000D03*
D15*
X470615000Y-168910000D03*
D21*
X475695000Y-168910000D03*
D22*
X474425000Y-171450000D03*
X468075000Y-173990000D03*
%TD*%
D21*
%TO.C,MX41*%
X265510000Y-168910000D03*
D15*
X270590000Y-168910000D03*
D21*
X275670000Y-168910000D03*
D22*
X274400000Y-171450000D03*
X268050000Y-173990000D03*
%TD*%
D21*
%TO.C,MX103*%
X403622500Y-226060000D03*
D15*
X408702500Y-226060000D03*
D21*
X413782500Y-226060000D03*
D22*
X412512500Y-228600000D03*
X406162500Y-231140000D03*
%TD*%
D21*
%TO.C,MX78*%
X184547500Y-207010000D03*
D15*
X189627500Y-207010000D03*
D21*
X194707500Y-207010000D03*
D22*
X193437500Y-209550000D03*
X187087500Y-212090000D03*
%TD*%
D21*
%TO.C,MX70*%
X446485000Y-187960000D03*
D15*
X451565000Y-187960000D03*
D21*
X456645000Y-187960000D03*
D22*
X455375000Y-190500000D03*
X449025000Y-193040000D03*
%TD*%
D21*
%TO.C,MX43*%
X303610000Y-168910000D03*
D15*
X308690000Y-168910000D03*
D21*
X313770000Y-168910000D03*
D22*
X312500000Y-171450000D03*
X306150000Y-173990000D03*
%TD*%
D21*
%TO.C,MX98*%
X251222500Y-226060000D03*
D15*
X256302500Y-226060000D03*
D21*
X261382500Y-226060000D03*
D22*
X260112500Y-228600000D03*
X253762500Y-231140000D03*
%TD*%
D23*
%TO.C,H9*%
X119415166Y-207177270D03*
%TD*%
D21*
%TO.C,MX104*%
X446485000Y-226060000D03*
D15*
X451565000Y-226060000D03*
D21*
X456645000Y-226060000D03*
D22*
X455375000Y-228600000D03*
X449025000Y-231140000D03*
%TD*%
D21*
%TO.C,MX100*%
X289322500Y-226060000D03*
D15*
X294402500Y-226060000D03*
D21*
X299482500Y-226060000D03*
D22*
X298212500Y-228600000D03*
X291862500Y-231140000D03*
%TD*%
D21*
%TO.C,MX52*%
X503635000Y-168910000D03*
D15*
X508715000Y-168910000D03*
D21*
X513795000Y-168910000D03*
D22*
X512525000Y-171450000D03*
X506175000Y-173990000D03*
%TD*%
D21*
%TO.C,MX72*%
X484585000Y-187960000D03*
D15*
X489665000Y-187960000D03*
D21*
X494745000Y-187960000D03*
D22*
X493475000Y-190500000D03*
X487125000Y-193040000D03*
%TD*%
D21*
%TO.C,MX9*%
X303610000Y-121285000D03*
D15*
X308690000Y-121285000D03*
D21*
X313770000Y-121285000D03*
D22*
X312500000Y-123825000D03*
X306150000Y-126365000D03*
%TD*%
D21*
%TO.C,MX94*%
X175022500Y-226060000D03*
D15*
X180102500Y-226060000D03*
D21*
X185182500Y-226060000D03*
D22*
X183912500Y-228600000D03*
X177562500Y-231140000D03*
%TD*%
D21*
%TO.C,MX26*%
X322660000Y-140335000D03*
D15*
X327740000Y-140335000D03*
D21*
X332820000Y-140335000D03*
D22*
X331550000Y-142875000D03*
X325200000Y-145415000D03*
%TD*%
D21*
%TO.C,MX97*%
X232172500Y-226060000D03*
D15*
X237252500Y-226060000D03*
D21*
X242332500Y-226060000D03*
D22*
X241062500Y-228600000D03*
X234712500Y-231140000D03*
%TD*%
D21*
%TO.C,MX7*%
X255985000Y-121285000D03*
D15*
X261065000Y-121285000D03*
D21*
X266145000Y-121285000D03*
D22*
X264875000Y-123825000D03*
X258525000Y-126365000D03*
%TD*%
D21*
%TO.C,MX51*%
X484585000Y-168910000D03*
D15*
X489665000Y-168910000D03*
D21*
X494745000Y-168910000D03*
D22*
X493475000Y-171450000D03*
X487125000Y-173990000D03*
%TD*%
D21*
%TO.C,MX88*%
X465535000Y-207010000D03*
D15*
X470615000Y-207010000D03*
D21*
X475695000Y-207010000D03*
D22*
X474425000Y-209550000D03*
X468075000Y-212090000D03*
%TD*%
D21*
%TO.C,MX35*%
X151210000Y-168910000D03*
D15*
X156290000Y-168910000D03*
D21*
X161370000Y-168910000D03*
D22*
X160100000Y-171450000D03*
X153750000Y-173990000D03*
%TD*%
D21*
%TO.C,MX16*%
X94060000Y-140335000D03*
D15*
X99140000Y-140335000D03*
D21*
X104220000Y-140335000D03*
D22*
X102950000Y-142875000D03*
X96600000Y-145415000D03*
%TD*%
D21*
%TO.C,MX83*%
X279797500Y-207010000D03*
D15*
X284877500Y-207010000D03*
D21*
X289957500Y-207010000D03*
D22*
X288687500Y-209550000D03*
X282337500Y-212090000D03*
%TD*%
D21*
%TO.C,MX3*%
X170260000Y-121285000D03*
D15*
X175340000Y-121285000D03*
D21*
X180420000Y-121285000D03*
D22*
X179150000Y-123825000D03*
X172800000Y-126365000D03*
%TD*%
D23*
%TO.C,H5*%
X386415166Y-208176570D03*
%TD*%
D21*
%TO.C,MX108*%
X96441250Y-245110000D03*
D15*
X101521250Y-245110000D03*
D21*
X106601250Y-245110000D03*
D22*
X105331250Y-247650000D03*
X98981250Y-250190000D03*
%TD*%
D23*
%TO.C,H1*%
X186415166Y-246177270D03*
%TD*%
D21*
%TO.C,MX67*%
X384572500Y-187960000D03*
D15*
X389652500Y-187960000D03*
D21*
X394732500Y-187960000D03*
D22*
X393462500Y-190500000D03*
X387112500Y-193040000D03*
%TD*%
D21*
%TO.C,MX102*%
X344091250Y-226060000D03*
D15*
X349171250Y-226060000D03*
D21*
X354251250Y-226060000D03*
D22*
X352981250Y-228600000D03*
X346631250Y-231140000D03*
%TD*%
D21*
%TO.C,MX62*%
X275035000Y-187960000D03*
D15*
X280115000Y-187960000D03*
D21*
X285195000Y-187960000D03*
D22*
X283925000Y-190500000D03*
X277575000Y-193040000D03*
%TD*%
D26*
%TO.C,J1*%
X291202471Y-114912529D03*
X296982471Y-114912529D03*
D27*
X289772471Y-111232529D03*
D28*
X289772471Y-115432529D03*
D27*
X298412471Y-111232529D03*
D28*
X298412471Y-115432529D03*
%TD*%
D21*
%TO.C,MX36*%
X170260000Y-168910000D03*
D15*
X175340000Y-168910000D03*
D21*
X180420000Y-168910000D03*
D22*
X179150000Y-171450000D03*
X172800000Y-173990000D03*
%TD*%
D21*
%TO.C,MX119*%
X456010000Y-245110000D03*
D15*
X461090000Y-245110000D03*
D21*
X466170000Y-245110000D03*
D22*
X464900000Y-247650000D03*
X458550000Y-250190000D03*
%TD*%
D21*
%TO.C,MX32*%
X94060000Y-168910000D03*
D15*
X99140000Y-168910000D03*
D21*
X104220000Y-168910000D03*
D22*
X102950000Y-171450000D03*
X96600000Y-173990000D03*
%TD*%
D21*
%TO.C,MX4*%
X189310000Y-121285000D03*
D15*
X194390000Y-121285000D03*
D21*
X199470000Y-121285000D03*
D22*
X198200000Y-123825000D03*
X191850000Y-126365000D03*
%TD*%
D21*
%TO.C,MX118*%
X422672500Y-245110000D03*
D15*
X427752500Y-245110000D03*
D21*
X432832500Y-245110000D03*
D22*
X431562500Y-247650000D03*
X425212500Y-250190000D03*
%TD*%
D21*
%TO.C,MX81*%
X241697500Y-207010000D03*
D15*
X246777500Y-207010000D03*
D21*
X251857500Y-207010000D03*
D22*
X250587500Y-209550000D03*
X244237500Y-212090000D03*
%TD*%
D21*
%TO.C,MX21*%
X217885000Y-140335000D03*
D15*
X222965000Y-140335000D03*
D21*
X228045000Y-140335000D03*
D22*
X226775000Y-142875000D03*
X220425000Y-145415000D03*
%TD*%
D21*
%TO.C,MX112*%
X286941250Y-245110000D03*
D15*
X292021250Y-245110000D03*
D21*
X297101250Y-245110000D03*
D22*
X295831250Y-247650000D03*
X289481250Y-250190000D03*
%TD*%
D21*
%TO.C,MX69*%
X422672500Y-187960000D03*
D15*
X427752500Y-187960000D03*
D21*
X432832500Y-187960000D03*
D22*
X431562500Y-190500000D03*
X425212500Y-193040000D03*
%TD*%
D21*
%TO.C,MX6*%
X236935000Y-121285000D03*
D15*
X242015000Y-121285000D03*
D21*
X247095000Y-121285000D03*
D22*
X245825000Y-123825000D03*
X239475000Y-126365000D03*
%TD*%
D21*
%TO.C,MX80*%
X222647500Y-207010000D03*
D15*
X227727500Y-207010000D03*
D21*
X232807500Y-207010000D03*
D22*
X231537500Y-209550000D03*
X225187500Y-212090000D03*
%TD*%
D21*
%TO.C,MX46*%
X384572500Y-168910000D03*
D15*
X389652500Y-168910000D03*
D21*
X394732500Y-168910000D03*
D22*
X393462500Y-171450000D03*
X387112500Y-173990000D03*
%TD*%
D21*
%TO.C,MX38*%
X208360000Y-168910000D03*
D15*
X213440000Y-168910000D03*
D21*
X218520000Y-168910000D03*
D22*
X217250000Y-171450000D03*
X210900000Y-173990000D03*
%TD*%
D21*
%TO.C,MX33*%
X113110000Y-168910000D03*
D15*
X118190000Y-168910000D03*
D21*
X123270000Y-168910000D03*
D22*
X122000000Y-171450000D03*
X115650000Y-173990000D03*
%TD*%
D21*
%TO.C,MX111*%
X215503750Y-245110000D03*
D15*
X220583750Y-245110000D03*
D21*
X225663750Y-245110000D03*
D22*
X224393750Y-247650000D03*
X218043750Y-250190000D03*
%TD*%
D21*
%TO.C,MX105*%
X465535000Y-226060000D03*
D15*
X470615000Y-226060000D03*
D21*
X475695000Y-226060000D03*
D22*
X474425000Y-228600000D03*
X468075000Y-231140000D03*
%TD*%
D21*
%TO.C,MX91*%
X117872500Y-226060000D03*
D15*
X122952500Y-226060000D03*
D21*
X128032500Y-226060000D03*
D22*
X126762500Y-228600000D03*
X120412500Y-231140000D03*
%TD*%
D21*
%TO.C,MX8*%
X275035000Y-121285000D03*
D15*
X280115000Y-121285000D03*
D21*
X285195000Y-121285000D03*
D22*
X283925000Y-123825000D03*
X277575000Y-126365000D03*
%TD*%
D21*
%TO.C,MX25*%
X303610000Y-140335000D03*
D15*
X308690000Y-140335000D03*
D21*
X313770000Y-140335000D03*
D22*
X312500000Y-142875000D03*
X306150000Y-145415000D03*
%TD*%
D21*
%TO.C,MX27*%
X341710000Y-140335000D03*
D15*
X346790000Y-140335000D03*
D21*
X351870000Y-140335000D03*
D22*
X350600000Y-142875000D03*
X344250000Y-145415000D03*
%TD*%
D21*
%TO.C,MX47*%
X403622500Y-168910000D03*
D15*
X408702500Y-168910000D03*
D21*
X413782500Y-168910000D03*
D22*
X412512500Y-171450000D03*
X406162500Y-173990000D03*
%TD*%
D21*
%TO.C,MX29*%
X384572500Y-140335000D03*
D15*
X389652500Y-140335000D03*
D21*
X394732500Y-140335000D03*
D22*
X393462500Y-142875000D03*
X387112500Y-145415000D03*
%TD*%
D21*
%TO.C,MX107*%
X503635000Y-235585000D03*
D15*
X508715000Y-235585000D03*
D21*
X513795000Y-235585000D03*
D22*
X512525000Y-238125000D03*
X506175000Y-240665000D03*
%TD*%
%LPD*%
M02*
